<?xml version="1.0" encoding="UTF-8"?>
<svg width="1200pt" height="1200pt" version="1.1" viewBox="0 0 1200 1200" xmlns="http://www.w3.org/2000/svg">
 <path d="m1077.6 772.77c-41.773-60.211-46.93-123.39-15.73-193.39 14.055-31.715 23.078-61.242 26.559-87.801 22.949-173.66-81.613-351.84-248.57-423.66-79.035-33.906-161.68-38.164-239.55-37.906h-0.12891c-121.58 0-187.2 11.992-260.18 47.316-101.6 49.25-179.6 141.05-214.15 252.18-29.781 95.539-23.461 194.82 16.637 265.47 13.152 23.336 13.668 52.086 14.184 77.355l0.12891 7.7344c0.77344 37.52-18.695 67.559-35.84 93.988-17.406 26.945-22.82 55.824-15.988 82.516 6.1875 24.238 22.305 44.48 45.254 56.859 14.57 7.9922 37.133 11.602 60.727 10.055 2.1914-0.25781 4.3828-0.25781 6.5742-0.25781 51.957 0 89.863 43.449 101.08 88.316 6.1875 24.625 12.121 48.992 17.148 73.875 4.6406 22.434 16.375 35.582 39.582 43.965 149.3 54.148 300.27 54.148 448.8 0 23.594-8.6367 35.582-22.434 40.227-46.285 4.8984-24.367 10.445-50.668 18.051-76.969 16.371-56.086 51.699-82.129 111.01-82.129h2.0625c29.395 0 51.059-3.2227 67.434-18.438 40.734-37.773 46.277-87.41 14.691-132.79zm-596.81-48.219c-8.5078 40.098-29.395 63.305-65.625 73.359-49.379 13.41-83.289 11.086-113.46-7.9922-21.66-13.668-34.938-41.516-34.809-72.715 0.12891-29.914 12.375-55.441 32.875-68.59 16.633-6.4453 116.04-4.6406 144.02 4.8984 33.262 11.344 44.992 33.906 37 71.039zm197.52 279.52c-12.895 10.574-26.043 5.2852-34.812-0.90234-14.184-10.184-28.621-15.344-43.578-15.344s-30.297 5.1562-46.414 15.473c-10.312 6.7031-19.984 8.5117-26.43 4.8984-6.5742-3.4805-10.574-12.895-11.219-25.27 0.51562-1.6758 0.90234-3.6094 1.418-5.6719 1.9336-7.9922 4.2539-17.922 8.3789-26.172 17.148-34.422 33.52-63.949 49.895-90.379 5.543-8.8945 15.988-11.863 24.496-11.863 9.668 0 18.051 4.125 22.047 10.961 21.145 35.199 39.582 71.941 58.273 109.59 5.293 10.699 9.2891 25.527-2.0547 34.68zm245.87-248.96c-9.4102 24.109-29.137 38.938-60.211 45.383-33.137 6.832-67.172 2.0625-100.82-14.57-30.555-15.086-51.441-64.465-41.387-97.984 4.5117-15.344 14.441-26.043 27.977-30.168 27.203-8.3828 82.387-17.535 94.117-18.438h2.0625c0.38672 0.12891 0.64453 0 0.90234 0 30.816 0 56.859 12.508 71.812 34.168 15.219 22.176 17.281 51.957 5.5508 81.609z"/>
</svg>
