<?xml version="1.0" encoding="UTF-8"?>
<svg width="1200pt" height="1200pt" version="1.1" viewBox="0 0 1200 1200" xmlns="http://www.w3.org/2000/svg">
 <path d="m600 459.24c-37.922 0-73.453 14.672-99.141 41.625-55.078 55.078-55.078 144.42 0 199.5 26.906 26.953 62.438 41.625 99.141 41.625 37.922 0 73.453-14.672 99.141-41.625 26.906-26.906 41.625-62.438 41.625-99.141 0-37.922-14.672-73.453-41.625-99.141-25.688-28.125-61.219-42.844-99.141-42.844z"/>
 <path d="m1162.2 617.95c10.359-9.7031 10.359-26.203 0-35.906l-0.42188-0.42188c-73.453-66.094-167.68-102.8-265.6-104.02 67.312-69.75 107.72-162.79 113.81-261.94 0.65625-14.438-11.25-26.344-25.688-25.688-99.141 6.1406-190.92 46.5-261.94 113.81-1.2188-97.922-37.922-190.92-104.02-265.6l-0.42188-0.42188c-9.7031-10.359-26.203-10.359-35.906 0l-0.42188 0.42188c-66.094 73.453-102.8 167.68-104.02 265.6-69.75-67.312-162.79-107.72-261.94-113.81-14.438-0.65625-26.344 11.25-25.688 25.688 4.875 99.141 46.5 190.92 113.81 261.94-97.922 1.2188-190.92 37.922-265.6 104.02l-0.42188 0.42188c-10.359 9.7031-10.359 26.203 0 35.906l0.42188 0.42188c73.453 66.094 167.68 102.8 265.6 104.02-67.312 69.75-107.72 162.79-113.81 261.94-0.65625 14.438 11.25 26.344 25.688 25.688 99.141-4.875 190.92-46.5 261.94-113.81 1.2188 97.922 37.922 190.92 104.02 265.6l0.42188 0.42188c9.7031 10.359 26.203 10.359 35.906 0l0.42188-0.42188c66.094-73.453 102.8-167.68 104.02-265.6 69.75 67.312 162.79 107.72 261.94 113.81 14.438 0.65625 26.344-11.25 25.688-25.688-6.1406-99.141-46.5-190.92-113.81-261.94 97.922-1.2188 190.92-37.922 265.6-104.02zm-428.81 115.45c-35.484 35.484-83.203 55.078-133.4 55.078s-97.922-19.594-133.4-55.078c-73.453-73.453-73.453-193.4 0-268.03 35.484-35.484 83.203-55.078 133.4-55.078s97.922 19.594 133.4 55.078c35.484 35.484 55.078 83.25 55.078 133.4 1.2188 51.422-18.375 99.141-55.078 134.63z"/>
</svg>
