<?xml version="1.0" encoding="UTF-8" standalone="no"?>
<svg
   width="1200pt"
   height="1200pt"
   version="1.1"
   viewBox="0 0 1200 1200"
   id="svg1496"
   sodipodi:docname="inspiration.svg"
   inkscape:version="1.2.2 (b0a8486541, 2022-12-01)"
   xmlns:inkscape="http://www.inkscape.org/namespaces/inkscape"
   xmlns:sodipodi="http://sodipodi.sourceforge.net/DTD/sodipodi-0.dtd"
   xmlns="http://www.w3.org/2000/svg"
   xmlns:svg="http://www.w3.org/2000/svg">
  <defs
     id="defs1500" />
  <sodipodi:namedview
     id="namedview1498"
     pagecolor="#ffffff"
     bordercolor="#666666"
     borderopacity="1.0"
     inkscape:showpageshadow="2"
     inkscape:pageopacity="0.0"
     inkscape:pagecheckerboard="0"
     inkscape:deskcolor="#d1d1d1"
     inkscape:document-units="pt"
     showgrid="false"
     inkscape:zoom="0.2703125"
     inkscape:cx="-181.27168"
     inkscape:cy="1120.9249"
     inkscape:window-width="2560"
     inkscape:window-height="1011"
     inkscape:window-x="0"
     inkscape:window-y="32"
     inkscape:window-maximized="1"
     inkscape:current-layer="svg1496" />
  <path
     d="m 778.76321,1150.1949 c -149.89922,67.653 -344.61423,35.7832 -455.629,-74.5148 -121.47866,-120.71965 -159.1378,-308.18042 -82.90108,-469.09654 31.41226,-66.33127 83.4606,-123.36541 129.21001,-182.2234 18.90872,-24.3467 44.72904,-43.96675 69.38043,-63.18018 110.19068,-85.64554 138.36184,-193.29452 89.30519,-322.764768 -2.13484,-5.641931 -2.54147,-12.096901 -3.20216,-18.196316 l 2.23645,-5.794498 c 163.45347,67.19549 248.19468,306.846652 164.733,466.754332 -13.52064,25.87127 -36.34276,49.35483 -41.42506,76.49696 -5.54033,29.32815 -6.50604,74.87045 10.72478,89.30519 21.29753,17.84065 66.99163,21.55127 95.35472,11.69027 27.54876,-9.55575 51.53979,-40.96746 67.75393,-68.26248 16.36703,-27.65068 21.29753,-62.06114 32.58118,-97.79449 219.7307,213.41988 178.5692,541.68222 -78.07251,657.51152 z"
     id="path1494"
     style="stroke-width:1.08434" />
</svg>
