<?xml version="1.0" encoding="UTF-8"?>
<svg width="1200pt" height="1200pt" version="1.1" viewBox="0 0 1200 1200" xmlns="http://www.w3.org/2000/svg">
 <path d="m1051.9 601.88c157.5-296.25-37.5-498.75-37.5-498.75-135 183.75-283.12 215.62-331.88 221.25l-67.5 127.5c22.5 43.125 78.75 183.75 3.75 399.38 0 0 273.75 46.875 433.12-249.38z"/>
 <path d="m444.38 440.62 93.75 48.75-356.25 669.38c-3.75 9.375-15 13.125-24.375 7.5l-60-31.875c-9.375-5.625-13.125-15-7.5-24.375z"/>
 <path d="m748.12 91.875-78.75 146.25-93.75-48.75 78.75-146.25c5.625-9.375 15-13.125 24.375-7.5l60 31.875c11.25 3.75 15 15 9.375 24.375z"/>
 <path d="m459.55 411.06 101.02-190.48 92.758 49.191-101.02 190.48z"/>
 <path d="m427.5 390 97.5-185.62-90-97.5c-1.875-1.875-5.625 0-7.5 3.75l-133.12 251.25c-1.875 3.75-1.875 7.5 1.875 7.5z"/>
</svg>
