<?xml version="1.0" encoding="UTF-8" standalone="no"?>
<svg
   width="1200pt"
   height="1200pt"
   version="1.1"
   viewBox="0 0 1200 1200"
   id="svg699"
   sodipodi:docname="construction.svg"
   inkscape:version="1.2.2 (b0a8486541, 2022-12-01)"
   xmlns:inkscape="http://www.inkscape.org/namespaces/inkscape"
   xmlns:sodipodi="http://sodipodi.sourceforge.net/DTD/sodipodi-0.dtd"
   xmlns="http://www.w3.org/2000/svg"
   xmlns:svg="http://www.w3.org/2000/svg">
  <defs
     id="defs703" />
  <sodipodi:namedview
     id="namedview701"
     pagecolor="#ffffff"
     bordercolor="#666666"
     borderopacity="1.0"
     inkscape:showpageshadow="2"
     inkscape:pageopacity="0.0"
     inkscape:pagecheckerboard="0"
     inkscape:deskcolor="#d1d1d1"
     inkscape:document-units="pt"
     showgrid="false"
     inkscape:zoom="0.3822796"
     inkscape:cx="425.08153"
     inkscape:cy="1067.2816"
     inkscape:window-width="2560"
     inkscape:window-height="1011"
     inkscape:window-x="0"
     inkscape:window-y="32"
     inkscape:window-maximized="1"
     inkscape:current-layer="svg699" />
  <path
     id="path687"
     d="m 476.80828,238.43718 c -32.55561,0 -59.03318,26.47876 -59.03318,59.0075 v 98.40518 c 0,32.52875 26.47757,59.00581 59.03318,59.00581 h 246.43135 c 32.55562,0 59.03148,-26.47706 59.03148,-59.00581 v -98.40518 c 0,-32.52874 -26.47586,-59.0075 -59.03148,-59.0075 z M 268.71873,491.78563 c -32.55562,0 -59.03318,26.47705 -59.03318,59.0058 v 98.40517 c 0,32.52874 26.5056,59.00751 59.03318,59.00751 h 246.43135 c 32.55561,0 59.00579,-26.47877 59.00579,-59.00751 v -98.40517 c 0,-32.52875 -26.45018,-59.0058 -59.00579,-59.0058 z m 416.16371,0.002 c -32.55562,0 -59.0058,26.47705 -59.0058,59.00579 v 98.40689 c 0,32.52875 26.45018,59.0058 59.0058,59.0058 h 246.43135 c 32.55562,0 59.03318,-26.47705 59.03318,-59.0058 v -98.40689 c 0,-32.52874 -26.47756,-59.00579 -59.03318,-59.00579 z m -151.4967,163.04972 c -0.54762,1.77971 -1.36907,3.47738 -2.40952,5.01071 1.04048,-1.53333 1.83451,-3.20355 2.40952,-5.01071 z M 60.618893,745.14433 c -32.555614,0 -59.0057957,26.47706 -59.0057957,59.00581 v 98.40518 c 0,32.52874 26.4501817,59.0075 59.0057957,59.0075 H 307.05024 c 32.55562,0 59.00581,-26.47876 59.00581,-59.0075 v -98.40518 c 0.0274,-32.52875 -26.45019,-59.00581 -59.00581,-59.00581 z m 416.165437,0 c -32.55562,0 -59.03318,26.47706 -59.03318,59.00581 v 98.40518 c 0,32.52874 26.47756,59.0075 59.03318,59.0075 h 246.43134 c 32.55563,0 59.03318,-26.47876 59.03318,-59.0075 v -98.40518 c 0,-32.52875 -26.47755,-59.00581 -59.03318,-59.00581 z m 416.16543,0 c -32.55561,0 -59.00581,26.47706 -59.00581,59.00581 v 98.40518 c 0,32.52874 26.4502,59.0075 59.00581,59.0075 h 246.43134 c 32.5288,0 59.0058,-26.47876 59.0058,-59.0075 v -98.40518 c 0,-32.52875 -26.477,-59.00581 -59.0058,-59.00581 z m 255.52184,42.247 c 1.6428,0.87618 3.1215,1.99876 4.381,3.2857 -1.287,-1.28694 -2.7655,-2.40952 -4.381,-3.2857 z"
     style="stroke-width:1.16825" />
</svg>
