<?xml version="1.0" encoding="UTF-8" standalone="no"?>
<svg
   width="1200pt"
   height="1200pt"
   version="1.1"
   viewBox="0 0 1200 1200"
   id="svg560"
   sodipodi:docname="manouver.svg"
   inkscape:version="1.2.2 (b0a8486541, 2022-12-01)"
   xmlns:inkscape="http://www.inkscape.org/namespaces/inkscape"
   xmlns:sodipodi="http://sodipodi.sourceforge.net/DTD/sodipodi-0.dtd"
   xmlns="http://www.w3.org/2000/svg"
   xmlns:svg="http://www.w3.org/2000/svg">
  <defs
     id="defs564" />
  <sodipodi:namedview
     id="namedview562"
     pagecolor="#ffffff"
     bordercolor="#666666"
     borderopacity="1.0"
     inkscape:showpageshadow="2"
     inkscape:pageopacity="0.0"
     inkscape:pagecheckerboard="0"
     inkscape:deskcolor="#d1d1d1"
     inkscape:document-units="pt"
     showgrid="false"
     inkscape:zoom="0.2703125"
     inkscape:cx="-334.79769"
     inkscape:cy="1069.1329"
     inkscape:window-width="2560"
     inkscape:window-height="1011"
     inkscape:window-x="0"
     inkscape:window-y="32"
     inkscape:window-maximized="1"
     inkscape:current-layer="svg560" />
  <path
     d="m 599.99978,8.8980233 c -6.73481,-0.00425 -13.03631,3.3164757 -16.83675,8.8750617 L 412.70828,265.8565 c -2.81968,4.102 -4.0383,9.10008 -3.42682,14.04294 0.60724,4.93863 3.00644,9.48655 6.73905,12.78194 3.73685,3.29517 8.54807,5.10842 13.52441,5.09994 H 520.5458 V 520.57916 H 297.74796 v -91.00088 c 0.0127,-4.97254 -1.79619,-9.78375 -5.08299,-13.5168 -3.28669,-3.73685 -7.82613,-6.14028 -12.76453,-6.75601 -4.93863,-0.61997 -9.92812,0.58601 -14.03861,3.39714 L 17.745811,583.20085 c -5.499122,3.80479 -8.7773324,10.06824 -8.7773324,16.75631 0,6.68806 3.2782104,12.95151 8.7773324,16.76066 L 265.86183,787.33563 c 4.10625,2.80685 9.09161,4.01286 14.02556,3.39714 4.93438,-0.61574 9.46948,-3.01068 12.76019,-6.73905 3.29093,-3.72414 5.10419,-8.52687 5.09995,-13.49506 v -91.03893 h 222.79784 v 222.84132 h -91.00088 c -4.9683,-0.004 -9.77104,1.80902 -13.49506,5.09995 -3.72837,3.29093 -6.12757,7.82613 -6.73905,12.76019 -0.61574,4.93438 0.59025,9.91964 3.39714,14.02556 l 170.45475,248.11605 v 0 c 3.80479,5.5161 10.07672,8.8114 16.77805,8.8114 6.70089,0 12.97326,-3.2952 16.77805,-8.8114 l 170.61781,-248.116 c 2.8111,-4.11048 4.01711,-9.10009 3.39714,-14.0386 -0.61573,-4.93862 -3.01916,-9.47807 -6.75601,-12.76454 -3.73261,-3.28669 -8.54382,-5.09571 -13.5168,-5.08299 H 679.45963 V 679.45505 h 222.79784 v 91.03892 c -0.004,4.9683 1.80902,9.77104 5.09995,13.49506 3.29093,3.72838 7.82613,6.12333 12.76019,6.73905 4.93438,0.61574 9.91964,-0.59025 14.02556,-3.39713 L 1182.2592,616.71313 c 5.4991,-3.80903 8.7773,-10.07248 8.7773,-16.76066 0,-6.68806 -3.2782,-12.95151 -8.7773,-16.75631 L 934.14317,412.69793 c -4.11049,-2.81109 -9.10009,-4.0171 -14.03861,-3.39714 -4.93862,0.61574 -9.47806,3.01916 -12.76453,6.75601 -3.28669,3.73261 -5.09571,8.54383 -5.08299,13.5168 v 91.00088 H 679.4592 V 297.77664 h 91.00088 c 4.98102,0.0212 9.80071,-1.78771 13.5418,-5.08299 3.74109,-3.29093 6.14877,-7.84309 6.76036,-12.78628 0.61573,-4.9471 -0.603,-9.94932 -3.42682,-14.05599 L 616.71761,17.767968 C 612.94249,12.247647 606.69176,8.9269321 599.99935,8.8929064 Z"
     fill-rule="evenodd"
     id="path558"
     style="stroke-width:1.08708" />
</svg>
