<?xml version="1.0" encoding="UTF-8" standalone="no"?>
<svg
   width="1161.0502pt"
   height="1161.0502pt"
   version="1.1"
   viewBox="0 0 1161.0501 1161.0501"
   id="svg4"
   sodipodi:docname="curiosity.svg"
   inkscape:version="1.2.2 (b0a8486541, 2022-12-01)"
   inkscape:export-filename="../../../../../../tmp/curiosity.png"
   inkscape:export-xdpi="30.719999"
   inkscape:export-ydpi="30.719999"
   xml:space="preserve"
   xmlns:inkscape="http://www.inkscape.org/namespaces/inkscape"
   xmlns:sodipodi="http://sodipodi.sourceforge.net/DTD/sodipodi-0.dtd"
   xmlns="http://www.w3.org/2000/svg"
   xmlns:svg="http://www.w3.org/2000/svg"><defs
     id="defs8" /><sodipodi:namedview
     id="namedview6"
     pagecolor="#ffffff"
     bordercolor="#666666"
     borderopacity="1.0"
     inkscape:showpageshadow="2"
     inkscape:pageopacity="0.0"
     inkscape:pagecheckerboard="0"
     inkscape:deskcolor="#d1d1d1"
     inkscape:document-units="pt"
     showgrid="false"
     inkscape:zoom="0.44065399"
     inkscape:cx="14.750803"
     inkscape:cy="984.89974"
     inkscape:window-width="2560"
     inkscape:window-height="1011"
     inkscape:window-x="0"
     inkscape:window-y="32"
     inkscape:window-maximized="1"
     inkscape:current-layer="svg4" /><path
     id="path771"
     style="fill:#241c1c;stroke-width:0.566929"
     d="M 199.02565 3.2916254 C 143.49703 26.292339 88.429792 50.40693 83.973983 54.86274 C 75.062366 63.774358 -12.484995 275.13239 -12.484995 287.73531 C -12.484995 300.33825 75.062033 511.69547 83.973651 520.60708 C 92.885269 529.5187 304.2433 617.06606 316.84622 617.06606 C 329.44916 617.06606 540.80638 529.51903 549.71799 520.60742 C 558.62962 511.69579 646.17697 300.33778 646.17697 287.73484 C 646.17697 275.13192 558.62994 63.77469 549.71833 54.863072 C 540.80671 45.951455 329.44869 -41.595906 316.84575 -41.595906 C 310.54429 -41.595906 254.55429 -19.709088 199.02565 3.2916254 z M 237.48205 99.302523 C 305.86629 70.976845 387.57046 100.17749 416.36039 169.68252 C 439.57803 225.73486 420.96486 288.60961 374.31144 325.00798 L 384.52746 349.67164 L 311.66047 379.85414 L 293.55091 336.1338 C 283.33483 311.47001 292.44913 282.74212 316.18218 270.2817 C 341.6946 255.77335 355.75875 226.30726 344.61379 199.40094 C 332.07634 169.13286 296.8115 160.09729 267.66484 172.17023 C 243.00106 182.38631 228.39542 204.19668 231.88358 231.64726 L 233.43648 248.07816 L 156.03796 257.80971 L 154.48494 241.38054 C 145.84047 179.29179 180.30891 122.98441 237.48205 99.302523 z M 357.01489 384.70326 C 382.39866 374.18896 411.50062 386.24375 422.01623 411.63067 C 432.53079 437.01508 420.47618 466.11622 395.09241 476.63052 C 369.70862 487.14483 340.60686 475.09049 330.09256 449.7067 C 319.57747 424.32104 331.63111 395.21757 357.01489 384.70326 z "
     transform="matrix(1.7420299,0.72157241,-0.72157241,1.7420299,236.19141,-149.34553)" /></svg>
