<?xml version="1.0" encoding="UTF-8" standalone="no"?>
<svg
   width="1161.0502pt"
   height="1161.0502pt"
   version="1.1"
   viewBox="0 0 1161.0501 1161.0501"
   id="svg4"
   sodipodi:docname="effort.svg"
   inkscape:version="1.2.2 (b0a8486541, 2022-12-01)"
   inkscape:export-filename="../../../../../../tmp/any-drive.png"
   inkscape:export-xdpi="56.71"
   inkscape:export-ydpi="56.71"
   xmlns:inkscape="http://www.inkscape.org/namespaces/inkscape"
   xmlns:sodipodi="http://sodipodi.sourceforge.net/DTD/sodipodi-0.dtd"
   xmlns="http://www.w3.org/2000/svg"
   xmlns:svg="http://www.w3.org/2000/svg">
  <defs
     id="defs8" />
  <sodipodi:namedview
     id="namedview6"
     pagecolor="#ffffff"
     bordercolor="#666666"
     borderopacity="1.0"
     inkscape:showpageshadow="2"
     inkscape:pageopacity="0.0"
     inkscape:pagecheckerboard="0"
     inkscape:deskcolor="#d1d1d1"
     inkscape:document-units="pt"
     showgrid="false"
     inkscape:zoom="0.3822796"
     inkscape:cx="91.556023"
     inkscape:cy="902.4808"
     inkscape:window-width="2560"
     inkscape:window-height="1011"
     inkscape:window-x="0"
     inkscape:window-y="32"
     inkscape:window-maximized="1"
     inkscape:current-layer="svg4" />
  <path
     sodipodi:type="star"
     style="fill:#241c1c;stroke-width:0.566929"
     id="path771"
     inkscape:flatsided="true"
     sodipodi:sides="8"
     sodipodi:cx="316.84613"
     sodipodi:cy="287.73514"
     sodipodi:r1="329.33112"
     sodipodi:r2="304.26227"
     sodipodi:arg1="1.5707963"
     sodipodi:arg2="1.9634954"
     inkscape:rounded="0.05"
     inkscape:randomized="0"
     d="m 316.84614,617.06625 c -12.60296,0 -223.960633,-87.54721 -232.872269,-96.45884 -8.911636,-8.91164 -96.458856,-220.26931 -96.458856,-232.87226 -10e-7,-12.60296 87.547208,-223.960635 96.458844,-232.872271 8.911635,-8.911636 220.269311,-96.458856 232.872261,-96.458857 12.60296,0 223.96063,87.547209 232.87227,96.458845 8.91164,8.911635 96.45886,220.269303 96.45886,232.872263 0,12.60296 -87.54721,223.96063 -96.45885,232.87227 -8.91163,8.91163 -220.2693,96.45885 -232.87226,96.45885 z"
     transform="matrix(1.7420299,0.72157241,-0.72157241,1.7420299,236.19141,-149.34553)"
     class="primary" />
  <g
     id="g354"
     transform="matrix(0.68279263,0,0,0.68279263,194.03875,146.58651)"
     style="fill:#ffffff"
     class="secondary">
    <path
       d="m 35.026427,984.24235 c -35.94575681,35.94575 -35.94575681,94.87725 0,132.20535 35.945757,37.385 94.877273,35.9458 132.205383,0 l 550.42723,-597.84819 -84.7969,-84.7969 z"
       id="path332"
       style="fill:#ffffff;stroke-width:1.13774" />
    <path
       d="m 1095.6731,393.60739 c -139.40723,21.54652 -99.14375,-99.1438 -99.14375,-99.1438 L 861.44548,159.37972 C 699.04448,-3.0212803 497.82378,74.582826 497.82378,74.582826 779.47131,213.99011 671.68183,392.17156 671.68183,392.17156 l 84.7969,84.7969 c 4.31988,-11.51961 10.07969,-21.54652 18.66576,-30.18538 31.62576,-31.62575 83.35766,-31.62575 116.42493,0 31.62576,31.62576 31.62576,83.35766 0,116.42494 l -4.31988,4.31988 113.54306,112.10266 191.1403,-191.14032 z"
       id="path334"
       style="fill:#ffffff;stroke-width:1.13774" />
  </g>
</svg>
