<?xml version="1.0" encoding="UTF-8" standalone="no"?>
<svg
   width="1161.0502pt"
   height="1161.0502pt"
   version="1.1"
   viewBox="0 0 1161.0501 1161.0501"
   id="svg4"
   sodipodi:docname="effort.svg"
   inkscape:version="1.2.2 (b0a8486541, 2022-12-01)"
   inkscape:export-filename="../../../../../../tmp/effort.png"
   inkscape:export-xdpi="30.719999"
   inkscape:export-ydpi="30.719999"
   xml:space="preserve"
   xmlns:inkscape="http://www.inkscape.org/namespaces/inkscape"
   xmlns:sodipodi="http://sodipodi.sourceforge.net/DTD/sodipodi-0.dtd"
   xmlns="http://www.w3.org/2000/svg"
   xmlns:svg="http://www.w3.org/2000/svg"><defs
     id="defs8" /><sodipodi:namedview
     id="namedview6"
     pagecolor="#ffffff"
     bordercolor="#666666"
     borderopacity="1.0"
     inkscape:showpageshadow="2"
     inkscape:pageopacity="0.0"
     inkscape:pagecheckerboard="0"
     inkscape:deskcolor="#d1d1d1"
     inkscape:document-units="pt"
     showgrid="false"
     inkscape:zoom="0.44065399"
     inkscape:cx="361.962"
     inkscape:cy="703.49981"
     inkscape:window-width="2560"
     inkscape:window-height="1011"
     inkscape:window-x="0"
     inkscape:window-y="32"
     inkscape:window-maximized="1"
     inkscape:current-layer="svg4" /><path
     id="path771"
     style="fill:#241c1c;stroke-width:0.566929"
     d="M 199.02565 3.2916254 C 143.49697 26.292362 88.429796 50.406926 83.973983 54.86274 C 75.062357 63.774367 -12.484995 275.13237 -12.484995 287.73531 C -12.484995 300.33826 75.062024 511.69546 83.973651 520.60708 C 92.885278 529.51871 304.24328 617.06606 316.84622 617.06606 C 329.44917 617.06606 540.80637 529.51904 549.71799 520.60742 C 558.62962 511.69579 646.17697 300.33779 646.17697 287.73484 C 646.17697 275.1319 558.62995 63.774699 549.71833 54.863072 C 540.8067 45.951446 329.4487 -41.595906 316.84575 -41.595906 C 310.54428 -41.595906 254.55434 -19.709111 199.02565 3.2916254 z M 254.91473 122.33245 C 276.19499 113.83369 306.08242 108.90001 340.51176 123.16111 L 397.7882 146.88579 C 397.7882 146.88579 400.7052 188.07106 439.82591 164.29838 L 480.46956 180.79163 L 446.89982 261.83616 L 398.93564 242.32669 L 399.69454 240.49455 C 405.06989 226.65291 398.64553 211.14314 385.23609 205.58876 C 371.39446 200.21341 355.88396 206.63807 350.32958 220.04751 C 348.82819 223.70386 348.34656 227.42526 348.48199 231.4155 L 312.52739 216.52262 C 312.52739 216.52262 322.71686 149.71477 220.96171 142.89543 C 220.96171 142.89543 233.63447 130.83121 254.91473 122.33245 z M 306.05883 233.82579 L 342.01314 248.71795 L 251.23141 496.31979 C 244.50388 511.73262 227.01417 519.48262 211.59429 512.73802 C 196.18148 506.01048 188.86267 488.34133 195.17576 473.10018 L 306.05883 233.82579 z "
     transform="matrix(1.7420299,0.72157241,-0.72157241,1.7420299,236.19141,-149.34553)" /></svg>
