<?xml version="1.0" encoding="UTF-8" standalone="no"?>
<svg
   width="1161.0502pt"
   height="1161.0502pt"
   version="1.1"
   viewBox="0 0 1161.0501 1161.0501"
   id="svg4"
   sodipodi:docname="growth.svg"
   inkscape:version="1.2.2 (b0a8486541, 2022-12-01)"
   inkscape:export-filename="../../../../../../tmp/growth.png"
   inkscape:export-xdpi="30.719999"
   inkscape:export-ydpi="30.719999"
   xml:space="preserve"
   xmlns:inkscape="http://www.inkscape.org/namespaces/inkscape"
   xmlns:sodipodi="http://sodipodi.sourceforge.net/DTD/sodipodi-0.dtd"
   xmlns="http://www.w3.org/2000/svg"
   xmlns:svg="http://www.w3.org/2000/svg"><defs
     id="defs8" /><sodipodi:namedview
     id="namedview6"
     pagecolor="#ffffff"
     bordercolor="#666666"
     borderopacity="1.0"
     inkscape:showpageshadow="2"
     inkscape:pageopacity="0.0"
     inkscape:pagecheckerboard="0"
     inkscape:deskcolor="#d1d1d1"
     inkscape:document-units="pt"
     showgrid="false"
     inkscape:zoom="0.44065399"
     inkscape:cx="361.962"
     inkscape:cy="703.49981"
     inkscape:window-width="2560"
     inkscape:window-height="1011"
     inkscape:window-x="0"
     inkscape:window-y="32"
     inkscape:window-maximized="1"
     inkscape:current-layer="svg4" /><path
     id="path771"
     style="fill:#241c1c;stroke-width:0.566929"
     d="M 199.02565 3.2916254 C 143.49697 26.292362 88.429796 50.406926 83.973983 54.86274 C 75.062357 63.774367 -12.484995 275.13237 -12.484995 287.73531 C -12.484995 300.33826 75.062024 511.69546 83.973651 520.60708 C 92.885278 529.51871 304.24328 617.06606 316.84622 617.06606 C 329.44917 617.06606 540.80637 529.51904 549.71799 520.60742 C 558.62962 511.69579 646.17697 300.33779 646.17697 287.73484 C 646.17697 275.1319 558.62995 63.774699 549.71833 54.863072 C 540.8067 45.951446 329.4487 -41.595906 316.84575 -41.595906 C 310.54428 -41.595906 254.55434 -19.709111 199.02565 3.2916254 z M 394.3127 58.987428 C 396.22162 58.196729 398.30945 58.798115 399.5353 60.377728 C 416.35752 82.752395 444.40557 129.7087 443.74161 192.77754 L 443.74228 192.77306 C 442.91418 272.91434 395.52616 328.2278 371.40546 351.16573 C 369.20088 353.22196 367.18222 355.12649 365.39712 356.63624 C 352.52632 292.81209 352.69104 225.77291 367.93902 161.55627 C 349.80873 220.85442 344.72199 284.16482 351.62944 346.43537 C 356.69039 378.33094 366.35589 409.04406 380.06951 437.53213 L 419.05421 421.38414 C 424.37823 419.17886 430.6611 422.16756 432.02083 428.08995 C 433.10067 432.73698 430.26638 437.4147 425.87579 439.23334 L 319.06048 483.47769 C 313.73649 485.68296 307.45358 482.69426 306.09386 476.77188 C 305.014 472.12483 307.84758 467.44743 312.23818 465.62879 L 350.90563 449.6122 C 347.54045 439.02834 344.65579 428.34498 342.273 417.553 C 342.02636 417.25757 341.78884 416.98347 341.6109 416.73411 C 333.59166 404.5744 324.23084 393.19351 313.85638 382.60576 C 281.73299 352.20255 243.55875 328.38029 202.22471 314.14107 C 243.22972 331.24886 279.76331 357.71539 309.40028 389.97026 C 307.82789 390.37308 305.99422 390.68562 303.99075 391.0682 C 281.94531 395.13168 233.03445 398.96441 189.11007 367.7324 C 154.47466 343.08784 140.08138 309.2408 134.57905 291.21759 C 134.23038 289.89589 134.72077 288.49952 135.90191 287.81149 C 175.26737 264.29604 224.92774 264.67804 262.35375 288.86061 C 291.19748 307.50162 304.51794 334.44013 310.73661 355.27267 C 311.58544 358.10188 313.47332 360.5007 315.94933 362.15887 C 320.68136 365.24351 325.28394 368.55532 329.75541 371.97132 C 332.01552 373.76865 335.29305 371.96412 335.04475 369.08499 C 334.42357 361.46513 334.09509 353.77317 333.98043 346.11734 C 333.9459 343.27425 332.89016 340.60466 331.04748 338.43566 C 309.47931 313.72219 281.79375 270.22099 285.08172 211.80657 C 288.7684 145.72086 331.65221 85.712583 394.3127 58.987428 z "
     transform="matrix(1.7420299,0.72157241,-0.72157241,1.7420299,236.19141,-149.34553)" /></svg>
