<?xml version="1.0" encoding="UTF-8" standalone="no"?>
<svg
   width="1181.2419pt"
   height="1181.2419pt"
   version="1.1"
   viewBox="0 0 1181.2419 1181.2419"
   id="svg4"
   sodipodi:docname="resolve.svg"
   inkscape:version="1.2.2 (b0a8486541, 2022-12-01)"
   inkscape:export-filename="../../../../../../tmp/resolve.png"
   inkscape:export-xdpi="30.719999"
   inkscape:export-ydpi="30.719999"
   xml:space="preserve"
   xmlns:inkscape="http://www.inkscape.org/namespaces/inkscape"
   xmlns:sodipodi="http://sodipodi.sourceforge.net/DTD/sodipodi-0.dtd"
   xmlns="http://www.w3.org/2000/svg"
   xmlns:svg="http://www.w3.org/2000/svg"><defs
     id="defs8" /><sodipodi:namedview
     id="namedview6"
     pagecolor="#ffffff"
     bordercolor="#666666"
     borderopacity="1.0"
     inkscape:showpageshadow="2"
     inkscape:pageopacity="0.0"
     inkscape:pagecheckerboard="0"
     inkscape:deskcolor="#d1d1d1"
     inkscape:document-units="pt"
     showgrid="false"
     inkscape:zoom="0.1767767"
     inkscape:cx="-1767.767"
     inkscape:cy="797.61645"
     inkscape:window-width="2560"
     inkscape:window-height="1011"
     inkscape:window-x="0"
     inkscape:window-y="32"
     inkscape:window-maximized="1"
     inkscape:current-layer="svg4" /><path
     id="path2"
     d="M 365.43604 0 C 352.87306 1.7763533e-15 341.06102 4.8750173 332.24854 13.6875 L 13.6875 332.24854 C 4.8745173 341.06152 -1.7763551e-15 353.06106 0 365.43604 L 0 815.80664 C 3.5527065e-15 828.36962 4.8750173 840.18166 13.6875 848.99414 L 332.24854 1167.5537 C 341.06152 1176.3667 353.06106 1181.2427 365.43604 1181.2427 L 815.80664 1181.2427 C 828.36962 1181.2427 840.18166 1176.3662 848.99414 1167.5537 L 1167.5537 848.99414 C 1176.3667 840.18116 1181.2427 828.18162 1181.2427 815.80664 L 1181.2427 365.43604 C 1181.2427 352.87306 1176.3662 341.06102 1167.5537 332.24854 L 848.99414 13.6875 C 840.18116 4.8745173 828.18162 -1.7763551e-15 815.80664 0 L 365.43604 0 z M 805.12646 221.33057 C 805.12646 317.62011 883.19661 395.66455 979.45898 395.66455 C 883.2034 395.66455 805.12646 473.71432 805.12646 569.99707 C 805.12646 473.70752 727.05485 395.66455 630.79248 395.66455 C 727.08202 395.66455 805.12646 317.59294 805.12646 221.33057 z M 536.1123 257.08154 C 536.1123 462.43112 702.58642 628.8999 907.9292 628.8999 C 702.57963 628.8999 536.1123 795.37398 536.1123 1000.7168 C 536.1123 795.36719 369.63818 628.8999 164.29541 628.8999 C 369.64497 628.8999 536.1123 462.42432 536.1123 257.08154 z " /></svg>
