<?xml version="1.0" encoding="UTF-8" standalone="no"?>
<svg
   width="1161.0502pt"
   height="1161.0502pt"
   version="1.1"
   viewBox="0 0 1161.0501 1161.0501"
   id="svg4"
   sodipodi:docname="domination.svg"
   inkscape:version="1.2.2 (b0a8486541, 2022-12-01)"
   inkscape:export-filename="../../../../../../tmp/domination.png"
   inkscape:export-xdpi="30.719999"
   inkscape:export-ydpi="30.719999"
   xml:space="preserve"
   xmlns:inkscape="http://www.inkscape.org/namespaces/inkscape"
   xmlns:sodipodi="http://sodipodi.sourceforge.net/DTD/sodipodi-0.dtd"
   xmlns="http://www.w3.org/2000/svg"
   xmlns:svg="http://www.w3.org/2000/svg"><defs
     id="defs8" /><sodipodi:namedview
     id="namedview6"
     pagecolor="#ffffff"
     bordercolor="#666666"
     borderopacity="1.0"
     inkscape:showpageshadow="2"
     inkscape:pageopacity="0.0"
     inkscape:pagecheckerboard="0"
     inkscape:deskcolor="#d1d1d1"
     inkscape:document-units="pt"
     showgrid="false"
     inkscape:zoom="0.35355339"
     inkscape:cx="-292.74221"
     inkscape:cy="970.1505"
     inkscape:window-width="2560"
     inkscape:window-height="1011"
     inkscape:window-x="0"
     inkscape:window-y="32"
     inkscape:window-maximized="1"
     inkscape:current-layer="svg4" /><path
     id="path771"
     style="fill:#241c1c;stroke-width:1.06898"
     d="M 580.5249,-2.211284e-6 C 501.34732,1.2411486 421.67759,-1.6577303 342.88916,6.8203128 235.20629,98.867905 137.6315,202.53811 39.330028,304.50167 -14.118704,342.55215 6.8422319,412.03894 0.8057926,467.81159 0.76252735,584.53525 -3.4866417,701.84337 6.8203155,818.16064 98.867884,925.84352 202.53811,1023.4183 304.50167,1121.7198 c 38.05048,53.4487 107.53727,32.4878 163.30992,38.5242 116.72366,0.043 234.03178,4.2924 350.34904,-6.0145 107.68289,-92.0476 205.25767,-195.71782 303.55917,-297.68136 53.4487,-38.05048 32.4878,-107.53727 38.5242,-163.30992 0.043,-116.72368 4.2924,-234.03178 -6.0145,-350.34906 C 1062.1819,235.20629 958.51168,137.63149 856.54814,39.330031 818.49769,-14.11871 749.0109,6.8422962 693.23826,0.80588879 655.67013,0.23249586 618.09721,0.00521361 580.5249,-2.211284e-6 Z M 553.12206,196.38428 c 44.48787,-0.29381 48.34131,48.06766 45.34864,81.4735 -1.76324,39.11287 3.89465,79.18074 -3.56409,117.57626 -12.04417,33.76042 -73.51198,39.5455 -42.53753,-5.93835 18.00344,-54.23743 -53.64741,-72.38799 -44.59857,-119.73235 -3.20679,-31.892 4.17255,-73.96916 45.35155,-73.37906 z m 136.04738,0 c 44.48783,-0.2938 48.3413,48.06766 45.34863,81.4735 -1.76324,39.11279 3.89465,79.1806 -3.56409,117.57603 -22.37632,54.22529 -102.33559,18.7376 -87.13465,-34.07033 1.88132,-45.66771 -4.06542,-92.33548 3.56433,-137.27994 6.78106,-16.49908 23.92053,-27.93301 41.78578,-27.69926 z m 136.04882,45.35009 c 44.48785,-0.29379 48.3413,48.06766 45.34864,81.4735 -2.41763,33.29424 10.99074,79.25935 -27.69804,96.35986 -46.26714,18.83087 -70.81426,-33.11927 -63.00069,-71.34003 3.22414,-35.25584 -12.67428,-84.01737 27.69924,-102.929 l 8.51221,-2.64283 z m -407.1709,0.007 c 42.88839,-0.49352 60.84009,62.00053 8.25551,45.33986 -17.78892,-5.05239 -66.06204,13.80725 -50.91179,-17.88984 6.9636,-16.69069 24.55228,-28.08341 42.65628,-27.45002 z m -91.67285,90.68996 c 48.38133,0.58577 96.88134,-1.1888 145.18592,0.92289 60.56845,11.33906 35.43163,104.87058 -22.27433,89.77729 -25.85431,1e-5 -51.70864,0 -77.56295,1e-5 -1.78205,13.57573 -33.96261,45.93825 -12.82393,45.34862 60.74361,1.43089 131.1433,-10.90733 177.0463,39.84942 44.45343,16.74109 18.36601,98.2258 59.55308,96.1994 55.13018,9.09417 8.90654,-76.4353 -5.1941,-100.97194 -22.05387,-27.10355 -41.9773,-38.43254 3.30421,-44.71757 36.40466,-44.74739 82.29527,40.993 133.51123,1.29848 38.02222,-51.53738 80.36093,40.59413 133.05651,1.29207 20.79901,-10.01865 5.90378,37.61154 10.39177,53.93641 -1.03486,71.37212 2.17473,142.97148 -1.80527,214.18757 2.06846,40.89221 -45.38876,61.85359 -43.54336,98.7542 0,31.22312 10e-6,62.44624 0,93.66936 -136.04833,10e-6 -272.09668,10e-6 -408.14502,10e-6 0,-37.79101 0,-75.58204 0,-113.37305 C 366.62084,746.35991 311.03123,687.95869 264.39201,622.853 c -45.31026,-75.44775 -32.9414,-171.61447 11.03582,-244.58688 9.84164,-21.66936 22.59106,-47.10653 50.94668,-45.83447 z" /></svg>
