<?xml version="1.0" encoding="UTF-8" standalone="no"?>
<svg
   width="1161.0502pt"
   height="1161.0502pt"
   version="1.1"
   viewBox="0 0 1161.0501 1161.0501"
   id="svg4"
   sodipodi:docname="strife.svg"
   inkscape:version="1.2.2 (b0a8486541, 2022-12-01)"
   inkscape:export-filename="../../../../../../tmp/any-drive.png"
   inkscape:export-xdpi="56.71"
   inkscape:export-ydpi="56.71"
   xmlns:inkscape="http://www.inkscape.org/namespaces/inkscape"
   xmlns:sodipodi="http://sodipodi.sourceforge.net/DTD/sodipodi-0.dtd"
   xmlns="http://www.w3.org/2000/svg"
   xmlns:svg="http://www.w3.org/2000/svg">
  <defs
     id="defs8" />
  <sodipodi:namedview
     id="namedview6"
     pagecolor="#ffffff"
     bordercolor="#666666"
     borderopacity="1.0"
     inkscape:showpageshadow="2"
     inkscape:pageopacity="0.0"
     inkscape:pagecheckerboard="0"
     inkscape:deskcolor="#d1d1d1"
     inkscape:document-units="pt"
     showgrid="false"
     inkscape:zoom="0.3822796"
     inkscape:cx="91.556023"
     inkscape:cy="902.4808"
     inkscape:window-width="2560"
     inkscape:window-height="1011"
     inkscape:window-x="0"
     inkscape:window-y="32"
     inkscape:window-maximized="1"
     inkscape:current-layer="svg4" />
  <path
     sodipodi:type="star"
     style="fill:#241c1c;stroke-width:0.566929"
     id="path771"
     inkscape:flatsided="true"
     sodipodi:sides="8"
     sodipodi:cx="316.84613"
     sodipodi:cy="287.73514"
     sodipodi:r1="329.33112"
     sodipodi:r2="304.26227"
     sodipodi:arg1="1.5707963"
     sodipodi:arg2="1.9634954"
     inkscape:rounded="0.05"
     inkscape:randomized="0"
     d="m 316.84614,617.06625 c -12.60296,0 -223.960633,-87.54721 -232.872269,-96.45884 -8.911636,-8.91164 -96.458856,-220.26931 -96.458856,-232.87226 -10e-7,-12.60296 87.547208,-223.960635 96.458844,-232.872271 8.911635,-8.911636 220.269311,-96.458856 232.872261,-96.458857 12.60296,0 223.96063,87.547209 232.87227,96.458845 8.91164,8.911635 96.45886,220.269303 96.45886,232.872263 0,12.60296 -87.54721,223.96063 -96.45885,232.87227 -8.91163,8.91163 -220.2693,96.45885 -232.87226,96.45885 z"
     transform="matrix(1.7420299,0.72157241,-0.72157241,1.7420299,236.19141,-149.34553)"
     class="primary" />
  <path
     id="path347"
     style="fill:#ffffff;stroke-width:0.77142"
     d="m 580.52798,210.24228 c -25.55944,0 -46.28614,20.72668 -46.28614,46.28614 v 58.77246 c 27.6415,16.00695 46.28614,45.84284 46.28614,80.08154 v 10e-4 c 0,16.20907 -4.1855,31.41704 -11.50489,44.66309 3.70043,0.95525 7.50624,1.62158 11.50489,1.62158 25.55945,0 46.28466,-20.72521 46.28466,-46.28467 v -138.855 c 0,-25.55946 -20.72521,-46.28614 -46.28466,-46.28614 z m 138.85546,0.001 c -25.55944,0 -46.28466,20.72521 -46.28466,46.28467 v 138.85593 c 0,25.55945 20.72522,46.28467 46.28466,46.28467 25.55945,0 46.28467,-20.72522 46.28467,-46.28467 V 256.52842 c 0,-25.55946 -20.72522,-46.28467 -46.28467,-46.28467 z m 138.85547,46.28467 c -25.55949,0 -46.28467,20.72521 -46.28467,46.28466 v 92.5708 c 0,25.55945 20.72518,46.28467 46.28467,46.28467 25.55942,0 46.28472,-20.72522 46.28472,-46.28467 v -92.5708 c 0,-25.55945 -20.7253,-46.28466 -46.28472,-46.28466 z m -415.57177,0.007 c -25.93899,-0.55446 -47.27637,20.31915 -47.27637,46.27588 h 92.5708 c 0,-25.17991 -20.12687,-45.73048 -45.29443,-46.27588 z m -93.56543,92.56201 c -17.53206,0 -33.56604,9.90454 -41.40674,25.59522 l -25.57764,51.16406 c -38.87801,77.71282 -35.19532,177.05695 23.02295,247.24072 L 441.67397,835.0955 V 950.8079 H 858.24038 V 835.0955 c 28.34345,-25.42063 46.28465,-62.2173 46.28465,-103.28614 V 475.47568 c -13.6263,7.8947 -29.4006,12.48779 -46.28465,12.48779 -27.68703,0 -52.45958,-12.21999 -69.42774,-31.48388 l -10e-4,-0.007 c -16.96815,19.26466 -41.74071,31.48389 -69.42774,31.48389 -27.68702,0 -52.45959,-12.22001 -69.42773,-31.48389 -15.69993,17.82982 -38.13224,29.49521 -63.33838,31.14991 38.7515,33.93629 63.33838,83.63658 63.33838,139.18652 h -46.28613 c 0,-76.68375 -62.17173,-138.85547 -138.85547,-138.85547 h -92.56934 l 23.1416,-46.28467 h 92.5708 c 25.55946,0 46.28467,-20.72522 46.28467,-46.28467 0,-25.55945 -20.72521,-46.28613 -46.28467,-46.28613 z"
     class="secondary" />
</svg>
