<?xml version="1.0" encoding="UTF-8"?>
<svg width="1200pt" height="1200pt" version="1.1" viewBox="0 0 1200 1200" xmlns="http://www.w3.org/2000/svg">
 <path d="m612 716.4c-4.8008-10.801-12-19.199-20.398-28.801 0-1.1992-1.1992-1.1992-1.1992-2.3984-48-51.602-128.4-82.801-134.4-84-2.3984-1.1992-6 0-7.1992 2.3984l-266.41 277.2v1.1992c-36 48 7.1992 115.2 63.602 156 54 40.801 128.4 63.602 165.6 18 1.1992-1.1992 1.1992-2.3984 2.3984-3.6016 18-40.797 205.2-282 207.6-284.4 1.1992-1.1992 1.1992-2.3984 1.1992-4.8008 1.1992-15.602-3.6016-31.199-10.801-45.602v-1.1992zm-219.6 310.8c-1.1992 1.1992-1.1992 1.1992-2.3984 2.3984-10.801 13.199-34.801 20.398-61.199 18-48-4.8008-88.801-36-110.4-85.199-16.801-39.602-2.3984-63.602 7.1992-74.398 16.801-19.199 48-28.801 74.398-21.602 22.801 6 37.199 22.801 42 44.398 3.6016 21.602 0 37.199-10.801 45.602-18 13.199-49.199 1.1992-58.801-2.3984h-2.3984c20.398 31.199 40.801 48 61.199 51.602 19.199 2.3984 31.199-9.6016 32.398-9.6016l212.4-303.6c3.6016 3.6016 7.1992 7.1992 9.6016 10.801 4.8008 4.8008 8.3984 10.801 12 16.801 2.3984 4.8008 4.8008 9.6016 7.1992 15.602-46.801 62.398-194.4 266.4-212.4 291.6z"/>
 <path d="m594 458.4c36-1.1992 86.398 43.199 124.8 85.199l10.801-10.801 278.4-279.6 10.801-10.801c-12-24-30-48-50.398-67.199-50.398-46.801-123.6-78-164.4-33.602v1.1992l-219.61 300c-2.3984 3.6016-2.3984 7.1992-1.1992 9.6016 2.4023 3.5977 6 5.9961 10.801 5.9961z"/>
 <path d="m1016.4 302.4c-57.602 46.801-206.4 170.4-270 250.8-3.6016 3.6016-6 8.3984-8.3984 12 8.3984 10.801 15.602 20.398 22.801 28.801 1.1992 1.1992 3.6016 2.3984 6 3.6016 2.3984 0 4.8008-1.1992 6-2.3984 2.3984-2.3984 206.4-230.4 243.6-258 1.1992-1.1992 1.1992-2.3984 2.3984-2.3984 10.801-13.199 15.602-27.602 15.602-44.398-7.2031 2.3945-12.004 7.1953-18.004 11.992z"/>
 <path d="m744 614.4c2.3984-2.3984 2.3984-6 1.1992-8.3984-37.199-69.602-90-114-168-140.4-2.3984-1.1992-6 0-7.1992 2.3984l-103.2 115.2c-1.1992 2.3984-2.3984 4.8008-1.1992 7.1992 1.1992 2.3984 2.3984 4.8008 6 4.8008 68.398 14.398 121.2 57.602 160.8 132 1.1992 2.3984 3.6016 3.6016 6 3.6016 2.3984 0 4.8008-1.1992 6-2.3984z"/>
 <path d="m747.6 630-96 110.4s62.398-32.398 93.602 9.6016c0 0-1.1992-45.602-12-67.199 0 0 37.199-28.801 81.602-26.398-1.2031-0.003906-22.805-27.602-67.203-26.402z"/>
</svg>
