<?xml version="1.0" encoding="UTF-8"?>
<svg width="1200pt" height="1200pt" version="1.1" viewBox="0 0 1200 1200" xmlns="http://www.w3.org/2000/svg">
 <path d="m37.5 150c0.046875-20.672 16.828-37.453 37.5-37.5h1050c20.719 0 37.5 16.781 37.5 37.5s-16.781 37.5-37.5 37.5h-37.5v150h-975v-150h-37.5c-20.672-0.046875-37.453-16.828-37.5-37.5zm1087.5 862.5h-37.5v-600h-975v600h-37.5c-20.719 0-37.5 16.781-37.5 37.5s16.781 37.5 37.5 37.5h300c20.672-0.046875 37.453-16.828 37.5-37.5v-262.5c0-66.984 35.719-128.9 93.75-162.37 58.031-33.516 129.47-33.516 187.5 0 58.031 33.469 93.75 95.391 93.75 162.37v262.5c0.046875 20.672 16.828 37.453 37.5 37.5h300c20.719 0 37.5-16.781 37.5-37.5s-16.781-37.5-37.5-37.5z"/>
</svg>
