<?xml version="1.0" encoding="UTF-8"?>
<svg width="1200pt" height="1200pt" version="1.1" viewBox="0 0 1200 1200" xmlns="http://www.w3.org/2000/svg">
 <path d="m407.45 682.57-370.99 370.99c-13.336 13.336-20.836 31.438-20.836 50.301s7.5 36.961 20.836 50.301c13.336 13.336 31.438 20.836 50.301 20.836s36.961-7.5 50.301-20.836l370.99-370.99z" fill-rule="evenodd"/>
 <path d="m538.8 551.23-104.84 104.84 100.6 100.6 104.84-104.84z" fill-rule="evenodd"/>
 <path d="m814.77 11.738s-152.73 152.71-261.39 261.38c-66.176 66.188-66.176 173.5 0 239.69l124.44 124.44c66.188 66.176 173.5 66.176 239.69 0 108.66-108.66 261.38-261.39 261.38-261.39 7.3125-7.3125 7.3125-19.188 0-26.512-7.3242-7.3125-19.199-7.3125-26.523 0l-261.38 261.38c-51.539 51.539-135.1 51.539-186.64 0-39.699-39.699-84.738-84.738-124.44-124.44-51.551-51.539-51.551-135.1 0-186.64l261.38-261.38c7.3125-7.3242 7.3125-19.199 0-26.523-7.3242-7.3125-19.199-7.3125-26.512 0z" fill-rule="evenodd"/>
 <path d="m587.27 520.16 367.96-367.96c7.3125-7.3125 7.3125-19.199 0-26.512-7.3242-7.3125-19.199-7.3125-26.523 0l-367.95 367.96c-7.3242 7.3125-7.3242 19.199 0 26.512 7.3125 7.3125 19.199 7.3125 26.512 0z" fill-rule="evenodd"/>
 <path d="m692.43 625.31 367.96-367.96c7.3125-7.3125 7.3125-19.188 0-26.512-7.3242-7.3125-19.199-7.3125-26.523 0l-367.95 367.96c-7.3125 7.3125-7.3125 19.199 0 26.512s19.199 7.3125 26.512 0z" fill-rule="evenodd"/>
 <path d="m408.86 1019.3c41.023 53.574 65.574 107.15 80.375 160.73 2.2617 8.1875 9.75 13.824 18.238 13.762 8.4883-0.074219 15.875-5.8359 18-14.062 13.801-53.414 38.199-106.82 80.148-160.24 6.3984-8.1367 4.9766-19.938-3.1641-26.324-8.1367-6.3984-19.938-4.9766-26.324 3.1641-31.199 39.711-53.426 79.438-69.148 119.16-15.988-39.664-37.977-79.324-68.352-118.99-6.2891-8.2109-18.074-9.7734-26.289-3.4883-8.2109 6.3008-9.7734 18.074-3.4883 26.289z" fill-rule="evenodd"/>
 <path d="m983.61 1019.3c41.023 53.574 65.574 107.15 80.375 160.73 2.2617 8.1875 9.7383 13.824 18.227 13.762 8.5-0.074219 15.875-5.8359 18-14.062 13.801-53.414 38.199-106.82 80.164-160.24 6.3867-8.1367 4.9766-19.938-3.1641-26.324-8.1367-6.3984-19.938-4.9766-26.336 3.1641-31.188 39.711-53.426 79.438-69.148 119.16-15.977-39.664-37.977-79.324-68.352-118.99-6.2891-8.2109-18.062-9.7734-26.289-3.4883-8.2109 6.3008-9.7734 18.074-3.4766 26.289z" fill-rule="evenodd"/>
 <path d="m675.45 977.7c51.637 67.438 82.539 134.86 101.16 202.29 2.2617 8.1875 9.7383 13.824 18.238 13.762 8.4883-0.074219 15.863-5.8359 17.988-14.062 17.387-67.273 48.113-134.54 100.95-201.81 6.3867-8.1367 4.9766-19.926-3.1641-26.324-8.1484-6.3867-19.938-4.9766-26.336 3.1641-41.574 52.949-70.301 105.9-89.977 158.84-20.113-52.887-48.586-105.76-89.086-158.65-6.2891-8.2109-18.074-9.7734-26.289-3.4883-8.2109 6.2891-9.7734 18.074-3.4883 26.289z" fill-rule="evenodd"/>
 <path d="m523.91 1170.5s16.75-128.89-15.449-200.56c-4.2383-9.4492-15.352-13.664-24.789-9.4258-9.4375 4.2383-13.664 15.352-9.4258 24.789 28.914 64.352 12.5 180.16 12.5 180.16-1.3867 10.262 5.8008 19.711 16.062 21.102 10.25 1.3867 19.699-5.8125 21.102-16.062z" fill-rule="evenodd"/>
 <path d="m1098.6 1170.5s16.75-128.89-15.449-200.56c-4.2383-9.4492-15.336-13.664-24.773-9.4258-9.4492 4.2383-13.664 15.352-9.4258 24.789 28.898 64.352 12.488 180.16 12.488 180.16-1.3867 10.262 5.8125 19.711 16.062 21.102 10.262 1.3867 19.711-5.8125 21.102-16.062z" fill-rule="evenodd"/>
 <path d="m810.79 1168.8s20.875-159.32-18.926-247.91c-4.2383-9.4492-15.336-13.664-24.789-9.4258-9.4375 4.2383-13.664 15.352-9.4141 24.789 36.5 81.262 15.961 227.51 15.961 227.51-1.3867 10.25 5.8125 19.711 16.062 21.102 10.25 1.3867 19.711-5.8125 21.102-16.062z" fill-rule="evenodd"/>
</svg>
