<?xml version="1.0" encoding="UTF-8"?>
<svg width="1200pt" height="1200pt" version="1.1" viewBox="0 0 1200 1200" xmlns="http://www.w3.org/2000/svg">
 <path d="m718.5 216c-99.141 0-178.4 65.859-178.4 65.859-105.52 29.766-107.48 151.74-187.78 151.36-29.531-0.14062-61.688-27.469-68.531-56.297-11.484-48.422-20.438-67.781-31.031-91.078 3.8906-10.875 12.141-16.641 5.3438-39.984-12.656-0.14062-18.281 6.7031-20.062 17.391 0 0-3.8438-17.062-25.641-18.469-14.156-0.89062-39.891 10.781-39.891 10.781-20.297 6.5156-40.828-1.2656-64.219-1.2656-9.2812 0.23438-19.641 3.9844-23.438 10.922-8.25 3-22.453 13.781-16.547 19.312-15.984 37.172-4.6406 28.688-0.46875 32.203-3.8906 23.484 15.562 18 36.047 11.297 23.906 16.828 49.828 30.844 78.375 41.156 15.609 196.03 128.02 215.86 271.74 178.74 14.297 17.719 28.453 35.625 47.812 43.125 0 0 11.297 102.52-7.7344 148.08-4.0312 9.6094-17.812 13.172-21.047 23.109-1.9688 5.9531 2.7656 12.469 1.9219 18.656-0.60938 4.5-4.5469 8.25-4.875 12.797-1.2656 16.219 10.312 47.719 10.312 47.719s-10.922 41.578-18.75 59.625c-7.5 17.297-27.562 49.406-27.562 49.406-22.078 10.781-69.609 18.938-55.875 33.422l9.2344 0.14062h97.172c5.4844-11.297-5.5781-13.875-11.297-19.266 0 0 5.6719-5.0625 7.3594-8.3438 2.0625-3.9844 3.0938-13.125 3.0938-13.125l20.672-88.031s20.719-29.062 27.938-45.281c13.031-29.297 27-92.438 27-92.438s-5.2969 35.062-1.9688 52.125c5.0156 25.922 32.391 72.281 32.391 72.281l4.3125 80.906s-11.672 9.2344-12.984 15.984c-1.0312 5.2969 4.6875 15.516 4.6875 15.516s-44.156 4.3594-51.656 21.516c-1.125 2.5312 2.2969 7.3594 2.8594 8.1562h92.812c6.75-8.3906-4.5938-16.594-11.25-23.297 0 0 6.7031-7.9219 7.8281-12.797 7.9688-34.5-9.75-109.88-9.75-109.88s5.4844-25.734 5.2969-38.766c-0.70312-52.359-25.406-154.97-25.406-154.97s11.812-7.1719 16.641-12.047c3.5625-3.6094 8.8125-12.516 8.8125-12.516s68.25 21.609 104.86 21.609c58.922 0 141.66-60 141.66-60s6.0938 21.984 6.8906 41.766c0.70312 16.734-4.5469 30.656 2.4375 41.297 6.0938 9.2812 25.172 13.688 38.297 20.062 15.797 7.6406 25.406 16.359 25.406 16.359 5.3906 23.484 11.484 46.828 23.297 69 0 0-4.1719 19.688-3.0938 29.531 1.5469 14.109 13.453 40.359 13.453 40.359l-30.516 92.156c-10.875 7.5469-11.203 10.031-13.875 22.266l-54.328 22.359c-0.046875 2.625-1.9688 5.6719 1.3125 7.5469h101.2c4.2188-7.125-4.875-10.359-14.25-13.547l7.9688-8.0156c14.016-34.641 24.75-78.469 36.516-108.38 10.922-27.844 23.766-47.016 23.109-77.625-0.32812-14.859-13.547-33.422-21.328-51.047-8.8125-20.062-12.281-38.297-12.281-38.297 13.875 22.5 22.922 56.344 44.156 70.641 9.8906 24.141 15.047 50.719 35.109 69.75 6.9844 4.5 9.7031 12.375 12.141 20.531 6.375 42.047 7.4062 65.484-1.3594 105.05-22.125 9.8906-56.391 18.656-51.422 30.938h102.23c1.5938-5.625-4.2188-14.109-13.734-24 2.4375 0.1875 12.328-16.406-3.2344-46.031-0.75-16.078-5.2031-32.812-5.1094-52.828 0.23438-37.125 11.953-76.688 2.7656-103.27-4.7812-13.781-21.188-26.25-32.906-41.766-21.609-28.641-33.609-52.922-33.609-52.922-2.0625-30.469-14.016-65.484-17.109-98.953-0.98438-10.453-1.3125-20.672-1.5-30.516 9.9844 37.125 15.469 80.766 39.047 101.25 0 0 7.5-61.125 0.51562-90.469-18-75.656-39.047-99.469-82.641-119.25-26.109-37.031-54.188-73.219-104.34-100.41 0 0-81.094-108.75-169.36-108.75z"/>
</svg>
