<?xml version="1.0" encoding="UTF-8"?>
<svg width="1200pt" height="1200pt" version="1.1" viewBox="0 0 1200 1200" xmlns="http://www.w3.org/2000/svg">
 <path d="m547.18 721.45h105.66c9.1406 0 18-1.0781 26.484-3.1406 0.75-0.1875 1.5 0.046875 2.0156 0.5625l57.891 57.891c0.75 0.75 0.84375 1.875 0.28125 2.7188-28.172 41.672-23.016 100.17 14.953 138.1l74.719 74.719c37.969 37.969 96.422 43.125 138.1 14.953 0.84375-0.5625 2.0156-0.46875 2.7188 0.28125l92.484 92.484c12.656 12.656 33.422 12.656 46.125 0 12.656-12.656 12.656-33.422 0-46.125l-92.484-92.484c-0.75-0.75-0.84375-1.875-0.28125-2.7188 28.172-41.672 23.016-100.17-14.953-138.1l-74.719-74.719c-37.969-37.969-96.422-43.125-138.1-14.953-0.84375 0.5625-2.0156 0.46875-2.7188-0.28125l-46.5-46.5c-0.79688-0.79688-0.84375-2.0625-0.14062-2.9062 15.094-18.281 24.188-41.391 24.188-66.469v-29.625c0-25.078-9.0469-48.234-24.188-66.469-0.70312-0.84375-0.65625-2.1094 0.14062-2.9062l46.5-46.5c0.75-0.75 1.875-0.84375 2.7188-0.28125 41.672 28.172 100.17 23.016 138.1-14.953l74.719-74.719c37.969-37.969 43.125-96.422 14.953-138.1-0.5625-0.84375-0.46875-2.0156 0.28125-2.7188l92.484-92.484c12.656-12.656 12.656-33.422 0-46.078s-33.422-12.656-46.125 0l-92.484 92.484c-0.75 0.75-1.875 0.84375-2.7188 0.28125-41.672-28.172-100.17-23.016-138.1 14.953l-74.719 74.719c-37.969 37.969-43.125 96.422-14.953 138.1 0.5625 0.84375 0.46875 2.0156-0.28125 2.7188l-57.891 57.891c-0.5625 0.5625-1.2656 0.75-2.0156 0.5625-8.4844-2.0625-17.344-3.1406-26.484-3.1406h-105.66c-9.1406 0-18 1.0781-26.484 3.1406-0.75 0.1875-1.5-0.046875-2.0156-0.5625l-57.891-57.891c-0.75-0.75-0.84375-1.875-0.28125-2.7188 28.172-41.672 23.016-100.17-14.953-138.1l-74.719-74.719c-37.969-37.969-96.422-43.125-138.1-14.953-0.84375 0.5625-2.0156 0.46875-2.7188-0.28125l-92.484-92.484c-12.656-12.656-33.422-12.656-46.125 0-12.656 12.656-12.656 33.422 0 46.078l92.484 92.484c0.75 0.75 0.84375 1.875 0.28125 2.7188-28.172 41.672-23.016 100.17 14.953 138.1l74.719 74.719c37.969 37.969 96.422 43.125 138.1 14.953 0.84375-0.5625 2.0156-0.46875 2.7188 0.28125l46.5 46.5c0.79688 0.79688 0.84375 2.0625 0.14062 2.9062-15.094 18.281-24.188 41.391-24.188 66.469v29.625c0 25.078 9.0469 48.234 24.188 66.469 0.70312 0.84375 0.65625 2.1094-0.14062 2.9062l-46.5 46.5c-0.75 0.75-1.875 0.84375-2.7188 0.28125-41.672-28.172-100.17-23.016-138.1 14.953l-74.719 74.719c-37.969 37.969-43.125 96.422-14.953 138.1 0.5625 0.84375 0.46875 2.0156-0.28125 2.7188l-92.484 92.484c-12.656 12.656-12.656 33.422 0 46.125 12.656 12.656 33.422 12.656 46.125 0l92.484-92.484c0.75-0.75 1.875-0.84375 2.7188-0.28125 41.672 28.172 100.17 23.016 138.1-14.953l74.719-74.719c37.969-37.969 43.125-96.422 14.953-138.1-0.5625-0.84375-0.46875-2.0156 0.28125-2.7188l57.891-57.891c0.5625-0.5625 1.2656-0.75 2.0156-0.5625 8.4844 2.0625 17.344 3.1406 26.484 3.1406zm-34.828-87.469c-1.0781 0.70312-2.5781 0.32812-3.1406-0.89062-2.5312-5.2969-3.9375-11.156-3.9375-17.391v-31.406c0-6.2344 1.4062-12.094 3.9375-17.391 0.5625-1.1719 2.0156-1.5938 3.1406-0.89062 18.938 12.469 45.094 1.9688 49.734-20.531 0.1875-1.0312 1.0781-1.7344 2.1094-1.7344h71.672c1.0312 0 1.9219 0.70312 2.1094 1.7344 4.6406 22.5 30.797 33 49.734 20.531 1.0781-0.70312 2.5781-0.32812 3.1406 0.89062 2.5312 5.2969 3.9375 11.156 3.9375 17.391v31.406c0 6.2344-1.4062 12.094-3.9375 17.391-0.5625 1.1719-2.0156 1.5938-3.1406 0.89062-18.938-12.469-45.094-1.9688-49.734 20.531-0.1875 1.0312-1.0781 1.7344-2.1094 1.7344h-71.672c-1.0312 0-1.9219-0.70312-2.1094-1.7344-4.6875-22.5-30.844-33-49.734-20.531zm-105.28 193.03c1.1719-0.46875 2.4375 0.09375 2.8594 1.2656 5.0156 14.297 1.875 30.891-9.5156 42.234l-76.688 76.688c-11.391 11.391-27.984 14.531-42.234 9.5156-1.1719-0.42188-1.7344-1.7344-1.2656-2.8594 11.203-26.859-15.797-53.859-42.656-42.656-1.1719 0.46875-2.4375-0.09375-2.8594-1.2656-5.0156-14.297-1.875-30.891 9.5156-42.234l76.688-76.688c11.391-11.391 27.984-14.531 42.234-9.5156 1.1719 0.42188 1.7344 1.7344 1.2656 2.8594-11.203 26.906 15.797 53.859 42.656 42.656zm385.87 0c26.859 11.203 53.859-15.797 42.656-42.656-0.46875-1.1719 0.09375-2.4375 1.2656-2.8594 14.297-5.0156 30.891-1.875 42.234 9.5156l76.688 76.688c11.391 11.391 14.531 27.984 9.5156 42.234-0.42188 1.1719-1.7344 1.7344-2.8594 1.2656-26.859-11.203-53.859 15.797-42.656 42.656 0.46875 1.1719-0.09375 2.4375-1.2656 2.8594-14.297 5.0156-30.891 1.875-42.234-9.5156l-76.688-76.688c-11.391-11.391-14.531-27.984-9.5156-42.234 0.42188-1.1719 1.7344-1.7344 2.8594-1.2656zm-385.87-454.03c-26.859-11.203-53.859 15.797-42.656 42.656 0.46875 1.1719-0.09375 2.4375-1.2656 2.8594-14.297 5.0156-30.891 1.875-42.234-9.5156l-76.688-76.688c-11.391-11.391-14.531-27.984-9.5156-42.234 0.42188-1.1719 1.7344-1.7344 2.8594-1.2656 26.859 11.203 53.859-15.797 42.656-42.656-0.46875-1.1719 0.09375-2.4375 1.2656-2.8594 14.297-5.0156 30.891-1.875 42.234 9.5156l76.688 76.688c11.391 11.391 14.531 27.984 9.5156 42.234-0.42188 1.1719-1.7344 1.7344-2.8594 1.2656zm385.87 0c-1.1719 0.46875-2.4375-0.09375-2.8594-1.2656-5.0156-14.297-1.875-30.891 9.5156-42.234l76.688-76.688c11.391-11.391 27.984-14.531 42.234-9.5156 1.1719 0.42188 1.7344 1.7344 1.2656 2.8594-11.203 26.859 15.797 53.859 42.656 42.656 1.1719-0.46875 2.4375 0.09375 2.8594 1.2656 5.0156 14.297 1.875 30.891-9.5156 42.234l-76.688 76.688c-11.391 11.391-27.984 14.531-42.234 9.5156-1.1719-0.42188-1.7344-1.7344-1.2656-2.8594 11.203-26.906-15.797-53.859-42.656-42.656z" fill-rule="evenodd"/>
</svg>
