<?xml version="1.0" encoding="UTF-8"?>
<svg width="1200pt" height="1200pt" version="1.1" viewBox="0 0 1200 1200" xmlns="http://www.w3.org/2000/svg">
 <path d="m562.5 318.74h75v202.5c0 39.375-13.125 76.875-37.5 106.88-24.375-30-37.5-67.5-37.5-106.88zm24.375 350.63c3.75 3.75 9.375 5.625 13.125 5.625s9.375-1.875 13.125-5.625c39.375-39.375 61.875-91.875 61.875-148.13v-165c135 0 243.74 108.75 243.74 243.74v103.12c-211.87 35.625-425.63 35.625-637.5 0v-103.12c0-135 108.75-243.74 243.74-243.74v165c0 56.25 22.5 108.75 61.875 148.13zm-350.63-168.74c-11.25-28.125-18.75-56.25-18.75-88.125 0-54.375 16.875-105 48.75-148.13l22.5-28.125c9.375-11.25 13.125-24.375 13.125-39.375 0-5.625 0-9.375-1.875-13.125-5.625-28.125-31.875-48.75-61.875-50.625h-95.625c-7.5 0-16.875-1.875-24.375-3.75l155.63-33.75c45-9.375 86.25 18.75 95.625 61.875 5.625 22.5 0 46.875-15 65.625-24.375 31.875-60 95.625-28.125 172.5 0 1.875 1.875 1.875 1.875 3.75-37.5 35.625-63.75 82.5-76.875 133.13-5.625-11.25-11.25-20.625-15-31.875zm230.63 605.63h-35.625c-52.5 0-106.88-16.875-150-46.875v-241.87c13.125 1.875 24.375 3.75 37.5 5.625 5.625 110.62 60 215.63 148.13 283.13zm234.37-303.74c-35.625 1.875-63.75 31.875-63.75 67.5 0 31.875-13.125 61.875-37.5 82.5-24.375-20.625-37.5-50.625-37.5-82.5 0-35.625-28.125-65.625-63.75-67.5-80.625-3.75-161.26-13.125-240-28.125-5.625 0-9.375-3.75-11.25-9.375-3.75-3.75-3.75-9.375-1.875-15 1.875-7.5 9.375-11.25 18.75-11.25h3.75c221.26 39.375 446.26 39.375 667.5 0 5.625-1.875 11.25 0 16.875 3.75 1.875 1.875 5.625 7.5 5.625 15s-7.5 15-16.875 16.875c-78.75 15-159.37 24.375-240 28.125zm67.5 303.74h-35.625c88.125-67.5 142.5-172.5 146.26-283.13 13.125-1.875 26.25-3.75 37.5-5.625v241.87c-41.25 30-95.625 46.875-148.13 46.875zm288.74-973.13h-95.625c-30 0-54.375 20.625-60 50.625-1.875 3.75-1.875 9.375-1.875 13.125 0 15 3.75 28.125 13.125 39.375l22.5 28.125c31.875 41.25 50.625 93.75 48.75 148.13 0 30-7.5 60-18.75 88.125-5.625 11.25-11.25 22.5-16.875 31.875-13.125-52.5-39.375-97.5-76.875-133.13 0-1.875 1.875-1.875 1.875-3.75 30-76.875-5.625-140.63-28.125-172.5-15-18.75-20.625-43.125-15-65.625 7.5-37.5 41.25-63.75 78.75-63.75 5.625 0 11.25 0 16.875 1.875l155.63 33.75c-9.375 3.75-16.875 3.75-24.375 3.75z"/>
</svg>
