<?xml version="1.0" encoding="UTF-8"?>
<svg width="1200pt" height="1200pt" version="1.1" viewBox="0 0 1200 1200" xmlns="http://www.w3.org/2000/svg">
 <path d="m1125 975c0 49.734-19.781 97.406-54.938 132.56s-82.828 54.938-132.56 54.938h-675c-49.734 0-97.406-19.781-132.56-54.938s-54.938-82.828-54.938-132.56c0.23438-267.84 129.61-519.14 347.48-675h-9.9844c-20.719 0-37.5-16.781-37.5-37.5s16.781-37.5 37.5-37.5h33.047l-52.922-106.12c-3.9844-7.7812-6.0469-16.406-6-25.125-0.046875-10.453 2.8125-20.719 8.25-29.625 10.406-16.5 28.5-26.531 48-26.625h314.26c19.5 0.09375 37.594 10.125 48 26.625 10.266 16.594 11.109 37.359 2.25 54.75l-52.922 106.12h33.047c20.719 0 37.5 16.781 37.5 37.5s-16.781 37.5-37.5 37.5h-9.9844c217.87 155.86 347.26 407.16 347.48 675z"/>
</svg>
