<?xml version="1.0" encoding="UTF-8"?>
<svg width="1200pt" height="1200pt" version="1.1" viewBox="0 0 1200 1200" xmlns="http://www.w3.org/2000/svg">
 <path d="m686.39 714 106.78-133.22c36 1.2188 76.781-10.781 118.78-31.219l258-325.22-26.391-52.781-193.18 243.66c-12 14.391-32.391 16.781-46.781 4.7812-14.391-12-16.781-32.391-4.7812-46.781l193.18-242.44-43.219-34.781-193.18 243.61c-12 14.391-32.391 16.781-46.781 4.7812-14.391-12-16.781-32.391-4.7812-46.781l193.18-242.39-56.391-13.219-264.05 331.22c-9.6094 45.609-12 85.219-1.2188 118.78l-86.391 106.78-114-135.61c28.781-76.781 6-183.61-66-270-96-114-240-150-322.78-80.391-82.781 69.609-73.219 218.39 22.781 332.39 72 86.391 172.78 128.39 254.39 112.78l132 158.39-260.34 322.87c-25.219 32.391-20.391 78 12 103.22s78 20.391 103.22-12l241.22-300 252 301.22c26.391 31.219 73.219 36 104.39 9.6094 31.219-26.391 36-73.219 9.6094-104.39z"/>
</svg>
