<?xml version="1.0" encoding="UTF-8" standalone="no"?>
<svg
   width="1200pt"
   height="1200pt"
   version="1.1"
   viewBox="0 0 1200 1200"
   id="svg198"
   sodipodi:docname="gold.svg"
   inkscape:version="1.2.2 (b0a8486541, 2022-12-01)"
   xmlns:inkscape="http://www.inkscape.org/namespaces/inkscape"
   xmlns:sodipodi="http://sodipodi.sourceforge.net/DTD/sodipodi-0.dtd"
   xmlns="http://www.w3.org/2000/svg"
   xmlns:svg="http://www.w3.org/2000/svg">
  <defs
     id="defs202" />
  <sodipodi:namedview
     id="namedview200"
     pagecolor="#ffffff"
     bordercolor="#666666"
     borderopacity="1.0"
     inkscape:showpageshadow="2"
     inkscape:pageopacity="0.0"
     inkscape:pagecheckerboard="0"
     inkscape:deskcolor="#d1d1d1"
     inkscape:document-units="pt"
     showgrid="false"
     inkscape:zoom="0.540625"
     inkscape:cx="801.84971"
     inkscape:cy="800.92486"
     inkscape:window-width="2560"
     inkscape:window-height="1011"
     inkscape:window-x="0"
     inkscape:window-y="32"
     inkscape:window-maximized="1"
     inkscape:current-layer="svg198" />
  <path
     d="M 1102.1106,57.274256 C 1045.8613,31.838947 967.76621,16.140972 881.32812,16.140972 c -86.43705,0 -164.48352,15.649397 -220.78249,41.133284 -52.76103,23.884943 -85.3673,55.474174 -85.3673,89.436494 0,33.96233 32.65484,65.55156 85.3673,89.4365 56.24935,25.43531 134.34441,41.13328 220.78249,41.13328 86.43706,0 164.48358,-15.79409 220.78248,-41.13328 52.7611,-23.88494 85.3673,-55.47417 85.3673,-89.4365 0,-33.96232 -32.6548,-65.551551 -85.3673,-89.436494 z m 85.3673,155.367374 v 157.07278 c 0,33.81762 -32.6548,65.55155 -85.3673,89.43649 -56.2493,25.43531 -134.34439,41.13329 -220.78248,41.13329 -86.43705,0 -164.48352,-15.7941 -220.78249,-41.13329 -52.76103,-23.88494 -85.3673,-55.47417 -85.3673,-89.43649 V 212.64163 c 17.6349,18.94341 42.68365,35.75558 73.49666,49.75746 59.78626,27.03425 142.0549,43.74927 232.6583,43.74927 90.59927,0 172.87621,-16.71502 232.65831,-43.74927 30.813,-13.9533 55.8618,-30.81302 73.4967,-49.75746 z m -647.94973,304.74 c -56.24936,-25.43531 -134.34441,-41.13329 -220.7825,-41.13329 -86.43705,0 -164.48352,15.6494 -220.782491,41.13329 -52.761032,23.88494 -85.367302,55.47417 -85.367302,89.43649 0,33.96233 32.654849,65.55156 85.367302,89.4365 56.249361,25.43531 134.344411,41.13329 220.782491,41.13329 86.43706,0 164.48353,-15.7941 220.7825,-41.13329 52.76103,-23.88494 85.3673,-55.47417 85.3673,-89.4365 0,-33.96232 -32.65485,-65.55155 -85.3673,-89.43649 z m 85.3673,312.92593 c 0,33.81762 -32.65485,65.55155 -85.3673,89.4365 -56.24936,25.43531 -134.34441,41.13328 -220.7825,41.13328 -86.43705,0 -164.48352,-15.7941 -220.782491,-41.13328 -52.761032,-23.88495 -85.367302,-55.47418 -85.367302,-89.4365 v -157.5999 c 17.6349,18.94341 42.683651,35.75558 73.496665,49.75745 59.786258,27.03426 142.054898,43.74927 232.658298,43.74927 90.59927,0 172.87618,-16.71501 232.6583,-43.74927 30.81302,-13.95329 55.86177,-30.81301 73.49667,-49.75745 z m 0,223.00464 V 896.23947 c -17.6349,18.94341 -42.68365,35.75558 -73.49666,49.75746 -59.78626,27.03425 -142.0549,43.74927 -232.6583,43.74927 -90.59927,0 -172.87618,-16.71502 -232.658304,-43.74927 -30.813013,-13.9533 -55.861765,-30.81302 -73.496665,-49.75746 v 157.07273 c 0,33.8177 32.654849,65.5516 85.367303,89.4365 56.249356,25.4354 134.344406,41.1333 220.782496,41.1333 86.43705,0 164.48353,-15.6494 220.78249,-41.1333 52.76104,-23.8849 85.36731,-55.4741 85.36731,-89.4365 z m 28.87609,-119.57454 v 119.57454 c 0,21.1718 -8.23637,41.1333 -23.10976,59.253 25.87148,15.7941 59.39867,29.2626 98.44826,39.0496 44.91204,11.3373 96.84932,17.732 152.2253,17.732 86.57865,0 164.48354,-15.6494 220.78254,-41.1333 52.761,-23.8849 85.3673,-55.4741 85.3673,-89.4365 V 881.70427 c -17.6349,18.94341 -42.6837,35.75558 -73.4967,49.75746 -59.7863,27.03425 -142.0549,43.74926 -232.65831,43.74926 -48.15851,0 -94.13617,-4.84489 -135.66739,-13.32384 -34.05948,-7.0736 -65.01822,-16.56928 -91.76204,-28.19703 z m 0,-223.10804 c 26.74382,11.62775 57.70257,21.1718 91.76205,28.19703 41.52087,8.62396 87.44996,13.32384 135.66738,13.32384 90.59928,0 172.87621,-16.71501 232.65831,-43.74927 30.813,-13.95329 55.8618,-30.81301 73.4967,-49.75745 v 157.07278 c 0,33.81762 -32.6549,65.55155 -85.3673,89.43649 -56.2494,25.43531 -134.34445,41.13329 -220.78254,41.13329 -46.46241,0 -90.45457,-4.55415 -129.90002,-12.64479 -37.06306,-7.55804 -70.1055,-18.41008 -97.67308,-31.73393 V 710.63375 Z m 0,-104.07092 v 72.18919 c 27.42185,13.17811 60.56144,24.03067 97.67308,31.73393 39.43718,8.09094 83.42934,12.64478 129.90002,12.64478 86.57866,0 164.48354,-15.64939 220.78254,-41.13328 52.761,-23.88494 85.3673,-55.47417 85.3673,-89.4365 V 435.48405 c -17.6349,18.9434 -42.6837,35.75558 -73.4967,49.75745 -59.7863,27.03425 -142.0549,43.74927 -232.65831,43.74927 -90.59927,0 -172.87617,-16.71502 -232.6583,-43.74927 -30.81301,-13.9533 -55.86176,-30.81301 -73.49666,-49.75745 v 67.34377 c 49.22413,27.56758 78.72966,63.56502 78.72966,103.67816 z"
     fill-rule="evenodd"
     id="path196"
     style="stroke-width:1.03358" />
</svg>
