<?xml version="1.0" encoding="UTF-8" standalone="no"?>
<svg
   width="1200pt"
   height="1200pt"
   version="1.1"
   viewBox="0 0 1200 1200"
   id="svg182"
   sodipodi:docname="ore.svg"
   inkscape:version="1.2.2 (b0a8486541, 2022-12-01)"
   xmlns:inkscape="http://www.inkscape.org/namespaces/inkscape"
   xmlns:sodipodi="http://sodipodi.sourceforge.net/DTD/sodipodi-0.dtd"
   xmlns="http://www.w3.org/2000/svg"
   xmlns:svg="http://www.w3.org/2000/svg">
  <defs
     id="defs186" />
  <sodipodi:namedview
     id="namedview184"
     pagecolor="#ffffff"
     bordercolor="#666666"
     borderopacity="1.0"
     inkscape:showpageshadow="2"
     inkscape:pageopacity="0.0"
     inkscape:pagecheckerboard="0"
     inkscape:deskcolor="#d1d1d1"
     inkscape:document-units="pt"
     showgrid="false"
     inkscape:zoom="0.540625"
     inkscape:cx="801.84971"
     inkscape:cy="800.92486"
     inkscape:window-width="2560"
     inkscape:window-height="1011"
     inkscape:window-x="0"
     inkscape:window-y="32"
     inkscape:window-maximized="1"
     inkscape:current-layer="svg182" />
  <path
     d="m 120.43854,408.17326 289.6459,253.94673 -126.35865,139.26772 c -3.57514,3.94876 -5.92303,8.91124 -6.67014,14.24779 l -31.16277,223.2109 -74.8658,-92.10072 c -2.29449,-2.77476 -5.06925,-5.06925 -8.27091,-6.7768 L 6.8910753,857.84601 34.958632,673.27131 c 0.373521,-2.61471 0.426887,-5.22943 0.05336,-7.79075 L 10.145522,492.90424 120.44296,408.06068 Z"
     fill-rule="evenodd"
     id="path172"
     style="stroke-width:1.13836" />
  <path
     d="m 717.38639,222.05039 30.8964,184.41532 -80.20131,170.53864 -212.96555,53.6273 L 157.04613,369.26277 275.77772,198.02972 563.54531,125.032 717.44104,222.04242 Z"
     fill-rule="evenodd"
     id="path174"
     style="stroke-width:1.13836" />
  <path
     d="M 1170.0805,491.1943 998.25548,501.49299 800.12285,393.06361 773.54882,234.26153 l 218.40694,11.84584 76.41284,111.41759 0.4802,0.6937 0.5336,0.69369 100.7455,132.23262 z"
     fill-rule="evenodd"
     id="path176"
     style="stroke-width:1.13836" />
  <path
     d="m 778.58496,940.72373 -63.9261,-337.40036 73.37112,-156.02446 191.35936,104.6944 c 4.37565,2.40126 9.39152,3.52188 14.40716,3.20165 l 197.8594,-11.84584 -13.9803,126.14236 -216.43751,264.67014 -182.70777,6.61675 z"
     fill-rule="evenodd"
     id="path178"
     style="stroke-width:1.13836" />
  <path
     d="m 294.92731,1073.332 33.77761,-242.15324 133.62142,-147.32736 203.51711,-51.27998 60.61799,320.00611 -220.69505,99.73117 -210.89371,20.971 z"
     fill-rule="evenodd"
     id="path180"
     style="stroke-width:1.13836" />
</svg>
