<?xml version="1.0" encoding="UTF-8" standalone="no"?>
<svg
   width="1200pt"
   height="1200pt"
   version="1.1"
   viewBox="0 0 1200 1200"
   id="svg4"
   sodipodi:docname="wood.svg"
   inkscape:version="1.2.2 (b0a8486541, 2022-12-01)"
   xmlns:inkscape="http://www.inkscape.org/namespaces/inkscape"
   xmlns:sodipodi="http://sodipodi.sourceforge.net/DTD/sodipodi-0.dtd"
   xmlns="http://www.w3.org/2000/svg"
   xmlns:svg="http://www.w3.org/2000/svg">
  <defs
     id="defs8" />
  <sodipodi:namedview
     id="namedview6"
     pagecolor="#ffffff"
     bordercolor="#666666"
     borderopacity="1.0"
     inkscape:showpageshadow="2"
     inkscape:pageopacity="0.0"
     inkscape:pagecheckerboard="0"
     inkscape:deskcolor="#d1d1d1"
     inkscape:document-units="pt"
     showgrid="false"
     inkscape:zoom="0.540625"
     inkscape:cx="801.84971"
     inkscape:cy="800.92486"
     inkscape:window-width="2560"
     inkscape:window-height="1011"
     inkscape:window-x="0"
     inkscape:window-y="32"
     inkscape:window-maximized="1"
     inkscape:current-layer="svg4" />
  <path
     d="m 147.54056,775.51098 c -8.94492,24.18039 -23.00189,40.15422 -44.42998,45.90416 -5.89779,1.62192 -12.336599,2.40829 -19.266103,2.40829 -8.551737,0 -16.46452,-1.76933 -24.033606,-5.01306 -17.987983,-7.81454 -32.978319,-24.1804 -44.921727,-46.1988 17.250891,64.67957 50.17993,108.46683 88.221436,108.46683 30.07922,0 57.11048,-27.57228 75.63948,-71.06805 4.27587,-10.32118 8.15856,-21.37987 11.59846,-33.32223 8.69926,-31.06167 13.71222,-67.18547 13.71222,-105.66734 0,-115.98454 -45.16708,-210.10795 -100.80338,-210.10795 -55.636294,0 -100.8033687,94.11922 -100.8033687,210.10795 0,4.7674 0.1474394,9.43646 0.2457463,14.20396 4.2758681,28.16153 11.8448494,54.11179 22.1662364,75.09847 6.684156,13.71222 14.597149,25.16388 23.394024,33.61685 10.566734,9.92799 22.510142,15.72743 35.730618,15.72743 7.175691,0 13.56543,-1.13038 19.266094,-3.29291 14.44932,-5.55377 24.27896,-17.88942 30.96312,-35.58382 9.92799,-26.78591 12.97512,-65.80985 12.97512,-112.83905 0,-36.8609 -4.52163,-69.83922 -13.56543,-92.74255 -7.27393,-18.38116 -17.49728,-29.68499 -30.32457,-30.07923 h -0.73722 c -12.434107,0 -21.870563,12.0902 -28.55472,31.06167 -8.797503,24.91854 -12.581942,60.89451 -12.581942,99.03352 0,23.39402 0.491482,44.67533 4.275868,59.51887 3.145486,12.3366 8.551737,20.00319 18.381169,20.00319 10.321177,0 12.434104,-26.442 12.434104,-57.60222 0,-13.22048 -0.393186,-26.04882 -0.737218,-38.38436 -0.393185,-12.3366 -0.737218,-24.42679 -0.737218,-33.96181 0,-4.0302 3.292904,-7.17569 7.175687,-7.17569 0.39319,0 0.88467,0 1.27791,0.14744 3.39125,0.63893 6.0452,3.53867 6.0452,7.02817 0,10.81208 0.39319,22.0184 0.73722,33.47006 0.39319,13.22048 0.88467,26.93374 0.88467,38.8761 0,23.14868 -1.62192,44.18464 -7.56888,57.50367 -4.128447,9.04327 -10.17365,14.59715 -19.266096,14.59715 -17.987983,0 -27.424439,-11.84485 -32.339784,-30.81632 -4.12845,-16.46452 -4.767403,-38.63076 -4.767403,-63.05755 0,-39.36785 4.030206,-77.11367 13.466872,-103.80102 8.797503,-24.91853 22.510142,-40.64596 42.169431,-40.64596 h 0.73721 c 19.61001,0.39318 34.1086,15.23568 43.64361,39.26929 9.82965,24.67214 14.74394,59.51887 14.74394,98.00179 -0.49148,48.11649 -3.73526,88.66285 -14.44931,117.31613 z M 352.24875,350.23085 c 11.20632,0 21.13347,-2.26076 28.16153,-5.89778 5.01307,-2.65395 8.30608,-5.65202 9.04328,-8.69926 0,-0.14744 0,-0.24574 0.14743,-0.49148 v -0.63892 c 0,-3.39126 -3.53867,-6.92993 -9.19068,-9.82965 -7.02817,-3.63702 -17.00555,-5.89778 -28.16154,-5.89778 -11.20631,0 -21.13346,2.26076 -28.16153,5.89778 -5.01306,2.65395 -8.45349,5.65202 -9.04327,8.79751 -0.14744,0.39318 -0.14744,0.73722 -0.14744,0.98296 0,3.39125 3.53867,6.92992 9.19069,9.82964 1.27791,0.63893 2.7523,1.27791 4.27587,1.86758 6.53674,2.60488 14.8425,4.07928 23.88577,4.07928 z m 131.36596,110.63721 h 613.36969 c 31.6027,0 59.7642,30.32458 78.2439,77.90005 l -404.24728,17.00554 415.20408,17.34945 c 2.9981,12.0902 5.5538,24.7707 7.4214,37.99117 l -160.0319,13.22048 162.7894,13.41759 c 0.8847,10.81208 1.2779,21.87056 1.2779,33.22472 0,115.98453 -45.1671,210.10794 -100.8034,210.10794 H 161.49697 c 13.56543,-12.82729 25.55707,-29.93139 35.48527,-50.72095 2.99807,-6.43839 5.89779,-13.07369 8.55174,-20.15103 L 400.70087,794.09241 215.61002,778.75817 c 4.12845,-15.72743 7.42135,-32.58514 9.82964,-50.17993 L 647.81545,710.8356 228.4803,693.2408 c 0.39318,-7.27393 0.49148,-14.74394 0.49148,-22.26374 0,-61.6316 -12.18876,-118.15492 -32.09339,-159.43418 -9.92799,-20.74028 -21.87056,-37.89366 -35.48527,-50.72095 h 147.98461 c 17.34945,32.83048 39.51568,64.92492 63.79464,95.88803 -17.74264,-32.58514 -30.07923,-64.53173 -39.12146,-95.88803 -10.56673,-36.3702 -16.61235,-71.85442 -21.77305,-106.54808 1.52357,0.98297 3.14549,2.0151 5.01307,2.99807 9.04327,4.66905 21.37986,7.56887 34.74818,7.56887 13.46687,0 25.80241,-2.89971 34.74817,-7.56887 3.53868,-1.86758 6.68416,-4.03021 9.19069,-6.43839 0.39319,-0.39319 0.73722,-0.63893 0.98297,-0.98297 25.90097,44.42999 54.55425,81.58551 86.64869,111.02516 z"
     fill-rule="evenodd"
     id="path2"
     style="stroke-width:1.0485" />
</svg>
