<?xml version="1.0" encoding="UTF-8" standalone="no"?>
<svg
   width="1200pt"
   height="1200pt"
   version="1.1"
   viewBox="0 0 1200 1200"
   id="svg405"
   sodipodi:docname="wood 2.svg"
   inkscape:version="1.2.2 (b0a8486541, 2022-12-01)"
   xmlns:inkscape="http://www.inkscape.org/namespaces/inkscape"
   xmlns:sodipodi="http://sodipodi.sourceforge.net/DTD/sodipodi-0.dtd"
   xmlns="http://www.w3.org/2000/svg"
   xmlns:svg="http://www.w3.org/2000/svg">
  <defs
     id="defs409" />
  <sodipodi:namedview
     id="namedview407"
     pagecolor="#ffffff"
     bordercolor="#666666"
     borderopacity="1.0"
     inkscape:showpageshadow="2"
     inkscape:pageopacity="0.0"
     inkscape:pagecheckerboard="0"
     inkscape:deskcolor="#d1d1d1"
     inkscape:document-units="pt"
     showgrid="false"
     inkscape:zoom="0.540625"
     inkscape:cx="801.84971"
     inkscape:cy="652.94798"
     inkscape:window-width="2560"
     inkscape:window-height="1011"
     inkscape:window-x="0"
     inkscape:window-y="32"
     inkscape:window-maximized="1"
     inkscape:current-layer="svg405" />
  <path
     id="path387"
     d="M 361.35059 170.56494 C 353.89869 170.73285 346.41916 171.7514 339.05566 173.6499 C 309.60269 181.23969 285.3329 202.04807 273.33691 229.99805 L 273.33691 230.35693 C 273.33691 230.71631 272.61768 232.14653 271.90283 234.29883 C 270.82863 236.44723 270.47017 238.23584 269.75537 239.67334 C 269.39606 241.37549 268.91473 243.05022 268.32129 244.68604 C 265.09859 254.35793 259.72434 268.68519 253.99805 286.95117 C 221.40041 382.22311 155.49912 576.71671 114.30908 697.77686 C 148.38985 673.48661 189.21573 660.46174 231.07324 660.53174 C 266.43221 660.57861 301.17862 669.77004 331.93359 687.21973 C 362.68756 704.66871 388.40705 729.77799 406.58203 760.10596 L 461.74512 269.39648 L 461.74072 269.04053 C 461.83838 238.62656 447.83815 209.88429 423.82617 191.21631 C 405.81719 177.21232 383.70628 170.06122 361.35059 170.56494 z M 114.30908 697.77686 C 114.30709 697.77827 114.30521 697.77983 114.30322 697.78125 L 114.30762 697.78125 C 114.30804 697.78002 114.30866 697.77809 114.30908 697.77686 z M 838.78271 170.57373 C 816.40489 170.01966 794.25461 177.14186 776.21338 191.146 C 752.1584 209.81398 738.13467 238.59595 738.26367 269.04492 L 794.49756 759.39404 C 812.54854 729.24607 838.10374 704.28943 868.67871 686.96045 C 899.25268 669.63647 933.79126 660.53106 968.92822 660.53906 L 968.92969 660.54053 C 1010.0036 660.54053 1050.1017 673.03198 1083.9097 696.35596 L 946.00928 286.59668 L 930.9668 243.25635 C 930.14649 238.93995 928.8218 234.73328 927.0249 230.72168 L 926.66602 230.36133 C 914.78703 202.32636 890.56126 181.39728 861.09229 173.71729 C 853.72604 171.79736 846.24199 170.75842 838.78271 170.57373 z M 600.18018 170.72021 C 583.20569 170.72021 566.231 175.1111 551.02002 183.89209 C 520.59805 201.45807 501.85986 233.9141 501.85986 269.03906 C 501.91455 269.77344 501.79249 270.51229 501.49951 271.18799 L 501.14063 273.6958 L 450.63721 726.07617 C 469.63719 705.40419 492.72653 688.90413 518.4375 677.61914 C 544.14847 666.33815 571.92203 660.5172 600 660.5332 L 600 660.54053 C 628.38697 660.55225 656.45699 666.4859 682.41797 677.95459 C 708.38294 689.42758 731.67189 706.18464 750.79688 727.16162 L 698.85938 272.98096 L 698.49902 271.18799 L 698.49902 269.03906 C 698.49902 233.9141 679.7623 201.45807 649.34033 183.89209 C 634.12935 175.1111 617.15466 170.72021 600.18018 170.72021 z M 231.06885 700.28906 L 231.07031 700.29053 C 198.85934 700.32178 167.36307 709.80883 140.49609 727.57031 C 113.62512 745.33629 92.562538 770.59866 79.914551 800.22363 C 79.918457 800.32129 79.878415 800.41114 79.812012 800.48145 C 79.745606 800.54785 79.652344 800.58643 79.558594 800.58252 C 71.097702 820.9025 66.718574 842.68782 66.663574 864.6958 C 66.628417 897.26577 76.254037 929.10915 94.324219 956.20313 C 112.3982 983.2971 138.10074 1004.4189 168.17871 1016.8989 C 198.26068 1029.3759 231.36956 1032.6525 263.31152 1026.3047 C 295.25249 1019.9609 324.59656 1004.2814 347.62354 981.25342 C 370.65451 958.22644 386.33121 928.88237 392.6792 896.94141 C 399.02299 864.99644 395.74953 831.89056 383.26904 801.80859 C 370.78906 771.72662 349.66622 746.02408 322.57324 727.9541 C 295.48027 709.88412 263.63482 700.25406 231.06885 700.28906 z M 600 700.29053 C 560.94504 700.32178 523.17217 714.24713 493.4502 739.5791 C 463.72023 764.91108 443.97658 799.99338 437.74658 838.54834 C 436.60208 843.72413 436.00101 849.00906 435.95801 854.31006 L 435.95801 854.66895 C 435.65723 858.00094 435.54053 861.3485 435.59912 864.6958 C 435.59912 908.30076 452.91803 950.11783 483.75 980.9458 C 514.58197 1011.7778 556.40204 1029.0981 600 1029.0981 C 643.59796 1029.0981 685.42203 1011.7778 716.25 980.9458 C 747.08197 950.11383 764.40234 908.29776 764.40234 864.6958 C 764.40234 821.09384 747.08197 779.27777 716.25 748.4458 C 685.41803 717.61383 643.59796 700.29053 600 700.29053 z M 968.92969 700.29053 C 927.41373 700.24756 887.41844 715.91916 856.98047 744.16113 C 826.5465 772.3991 807.93244 811.11453 804.87744 852.52148 C 804.92041 853.72458 804.80029 854.92673 804.52295 856.09863 C 804.22217 858.95413 804.10401 861.83007 804.1626 864.69727 C 804.11572 908.34922 821.40973 950.23247 852.2417 981.12744 C 883.07367 1012.0254 924.92084 1029.4115 968.5708 1029.4585 C 1012.2228 1029.5054 1054.102 1012.2084 1085.001 981.37646 C 1115.9029 950.5445 1133.2865 908.70011 1133.3335 865.05615 C 1133.3804 821.4042 1116.0878 779.52241 1085.2559 748.62744 C 1054.4239 717.72947 1012.5792 700.34192 968.92529 700.29492 L 968.92969 700.29053 z M 231.1875 774.07178 C 255.25048 774.05578 278.33318 783.5915 295.36816 800.58398 C 312.40715 817.57597 322.00036 840.6349 322.04736 864.69287 C 322.03174 888.81785 312.44276 911.95032 295.38428 929.0083 C 278.32529 946.06728 255.19275 955.65685 231.07178 955.67285 L 231.07031 955.66992 L 231.07031 955.67432 C 207.00834 955.62744 183.94901 946.02914 166.95703 928.99365 C 149.96505 911.95867 140.42982 888.87343 140.44482 864.81445 C 140.46045 840.75248 150.02747 817.681 167.04346 800.66602 C 184.05544 783.65403 207.12452 774.08778 231.1875 774.07178 z M 599.64404 774.07178 C 623.72602 774.02478 646.83936 783.54522 663.90234 800.5415 C 680.96133 817.53749 690.57409 840.6149 690.62109 864.69287 C 690.60547 888.75485 681.06573 911.83381 664.08545 928.88379 C 647.10147 945.93077 624.06298 955.56385 600 955.67285 L 600 955.67432 C 575.91802 955.72119 552.80468 946.19697 535.7417 929.20459 C 518.67972 912.20861 509.06955 889.1312 509.01855 865.05322 C 508.97168 840.97125 518.4959 817.8539 535.48828 800.79492 C 552.48426 783.73294 575.56207 774.11878 599.64404 774.07178 z M 968.57373 774.07178 C 992.65571 774.0249 1015.769 783.54522 1032.832 800.5415 C 1049.894 817.53749 1059.5038 840.6149 1059.5508 864.69287 C 1059.5195 888.75185 1049.9687 911.81737 1032.9917 928.86035 C 1016.0147 945.90733 992.98766 955.54485 968.92969 955.67285 L 968.92969 955.67432 C 944.84771 955.72119 921.73437 946.19697 904.67139 929.20459 C 887.6124 912.20861 877.99964 889.1312 877.95264 865.05322 C 877.90576 840.97125 887.42608 817.8539 904.42236 800.79492 C 921.41435 783.73294 944.49175 774.11878 968.57373 774.07178 z M 968.92822 813.8291 L 968.92969 813.83057 C 955.3747 813.78369 942.35218 819.13108 932.74219 828.69727 C 923.1328 838.25976 917.72603 851.25607 917.70703 864.81006 C 917.69141 878.36905 923.07007 891.37641 932.65576 900.9624 C 942.24555 910.55219 955.25012 915.93153 968.80811 915.91553 C 982.36709 915.8999 995.3633 910.48956 1004.9253 900.88037 C 1014.4917 891.27098 1019.839 878.25039 1019.792 864.69141 C 1019.7178 851.22642 1014.3393 838.32858 1004.8154 828.80859 C 995.29204 819.2852 982.39721 813.9031 968.92822 813.8291 z M 231.07031 813.83057 C 217.53133 813.87744 204.56975 819.30291 195.03076 828.9082 C 185.49167 838.51369 180.15954 851.51324 180.20654 865.05322 C 180.25342 878.58821 185.67606 891.55232 195.28125 901.09131 C 204.88674 910.6304 217.89028 915.96253 231.42627 915.91553 C 244.96526 915.86475 257.92537 910.44318 267.46436 900.83789 C 277.00345 891.2324 282.33557 878.23286 282.28857 864.69287 C 282.23779 851.15788 276.81193 838.19671 267.20654 828.65771 C 257.60495 819.12252 244.6053 813.78757 231.07031 813.83057 z M 600 813.83057 C 586.46501 813.87744 573.49944 819.30291 563.96045 828.9082 C 554.42136 838.51369 549.0907 851.51324 549.1377 865.05322 C 549.18457 878.58821 554.60575 891.55232 564.21094 901.09131 C 573.81643 910.6304 586.81997 915.96253 600.35596 915.91553 C 613.89494 915.86475 626.85652 910.44318 636.39551 900.83789 C 645.9346 891.2324 651.26673 878.23286 651.21973 864.69287 C 651.08692 851.18488 645.63726 838.27153 636.05127 828.74854 C 626.46538 819.22904 613.51199 813.86957 600 813.83057 z " />
</svg>
