<?xml version="1.0" encoding="UTF-8" standalone="no"?>
<svg
   width="1200pt"
   height="1200pt"
   version="1.1"
   viewBox="0 0 1200 1200"
   id="svg174"
   sodipodi:docname="action.svg"
   inkscape:version="1.2.2 (b0a8486541, 2022-12-01)"
   xmlns:inkscape="http://www.inkscape.org/namespaces/inkscape"
   xmlns:sodipodi="http://sodipodi.sourceforge.net/DTD/sodipodi-0.dtd"
   xmlns="http://www.w3.org/2000/svg"
   xmlns:svg="http://www.w3.org/2000/svg">
  <defs
     id="defs178" />
  <sodipodi:namedview
     id="namedview176"
     pagecolor="#ffffff"
     bordercolor="#666666"
     borderopacity="1.0"
     inkscape:showpageshadow="2"
     inkscape:pageopacity="0.0"
     inkscape:pagecheckerboard="0"
     inkscape:deskcolor="#d1d1d1"
     inkscape:document-units="pt"
     showgrid="false"
     inkscape:zoom="0.5175"
     inkscape:cx="799.03382"
     inkscape:cy="800"
     inkscape:window-width="2560"
     inkscape:window-height="1011"
     inkscape:window-x="0"
     inkscape:window-y="32"
     inkscape:window-maximized="1"
     inkscape:current-layer="svg174" />
  <path
     d="m 567.37049,5.7311144 c -3.2875,0.2971406 -8.78166,0.8345314 -12.24622,1.2518133 -3.76172,0.4172657 -15.47061,0.7144225 -29.26574,0.7776411 -23.41161,0.0569 -25.44121,0.2402503 -28.07128,2.3898782 -0.4805,0.417266 -1.78925,0.954657 -2.80713,1.194907 -1.07478,0.177032 -2.09272,0.657516 -2.32659,0.954657 -0.17703,0.29714 -1.73228,1.435157 -3.46456,2.56678 -5.61426,3.584656 -11.46854,12.00604 -12.60036,17.973453 -0.24025,1.315032 -0.65751,2.687035 -0.95465,3.104284 -0.36038,0.360376 -0.83453,3.825004 -1.13169,7.763787 -0.29714,3.881813 -0.65752,8.541315 -0.83453,10.330568 -0.29714,3.881812 -1.43516,9.976601 -2.14953,11.645599 -0.29714,0.657516 -0.77764,5.734349 -1.13169,11.285321 -0.36038,5.557285 -0.89777,10.393851 -1.25182,10.811101 -0.29714,0.360375 -0.83453,5.019942 -1.1949,10.330567 -0.29714,5.317099 -0.83453,10.090379 -1.13169,10.691009 -0.77764,1.37194 -1.73228,8.47819 -2.44669,17.79703 -0.29714,3.93879 -0.83455,8.4782 -1.19491,10.15351 -0.95465,4.24225 -1.73228,10.62772 -1.78925,15.52757 0,2.26963 -0.41726,5.25382 -0.89776,6.56885 -0.4805,1.31503 -1.07479,5.3171 -1.25182,8.95873 -0.53739,8.42122 -1.25181,9.79322 -5.67106,11.05128 -1.78926,0.53739 -3.88182,1.25182 -4.71648,1.61217 -2.44668,1.07479 -10.27375,4.12216 -13.13769,5.13373 -1.49207,0.53739 -3.64163,1.25181 -4.7796,1.669 -4.89968,1.66899 -12.66347,5.01994 -20.12444,8.66157 -4.95666,2.44668 -5.73435,2.38987 -9.37597,-0.95466 -1.37194,-1.19491 -3.64163,-2.98419 -5.13373,-3.88181 -3.40144,-2.14954 -7.76378,-5.49401 -13.73832,-10.62773 -2.56678,-2.21281 -4.83656,-4.00207 -5.07675,-4.00207 -0.17703,0 -2.02944,-1.43515 -4.17897,-3.22437 -2.09272,-1.78926 -4.41931,-3.58466 -5.19684,-4.00207 -0.77764,-0.41727 -3.64163,-2.80713 -6.44876,-5.3171 -2.80712,-2.50997 -6.27169,-5.25382 -7.76378,-6.09463 -1.49207,-0.83453 -3.34447,-2.26962 -4.12216,-3.10428 -0.83454,-0.83453 -1.73229,-1.55528 -2.02944,-1.55528 -0.4805,0 -2.92722,-1.97263 -9.01554,-7.34654 -1.43515,-1.19491 -2.80713,-2.21282 -3.04731,-2.21282 -0.24025,0 -1.25181,-0.71442 -2.26962,-1.55528 -1.0179,-0.83453 -3.76172,-2.44669 -6.20841,-3.64162 -2.38988,-1.13169 -4.53941,-2.3266 -4.71648,-2.63007 -0.17703,-0.29714 -0.77764,-0.53739 -1.31503,-0.53739 -2.75015,-0.0569 -9.9766,-4.83657 -18.51241,-12.24622 -7.16947,-6.1516 -12.60035,-10.45066 -13.67504,-10.86791 -0.5943,-0.17704 -1.85237,-0.89777 -2.75016,-1.55529 -1.49206,-1.01789 -2.75015,-1.13168 -11.10825,-1.1949 -8.4782,0 -9.67314,0.12012 -11.16507,1.1949 -0.95466,0.5943 -2.92722,1.55529 -4.36234,1.97263 -1.43516,0.4805 -3.04732,1.31503 -3.58466,1.85238 -0.53739,0.53739 -1.73228,1.13169 -2.68704,1.37194 -0.95465,0.24025 -2.44668,0.95465 -3.28749,1.61217 -2.63007,2.02944 -6.86601,4.71647 -7.52344,4.71647 -0.29714,0 -2.75016,2.02944 -5.37391,4.47613 -2.63007,2.44669 -5.07675,4.41931 -5.43719,4.47612 -0.36038,0 -1.90935,0.95466 -3.40145,2.09273 -1.49206,1.13168 -2.92722,2.09272 -3.10428,2.09272 -0.95466,0 -6.63213,4.83656 -21.26225,18.09484 -13.20081,11.94275 -14.33263,13.0176 -17.55749,16.36142 -1.61218,1.669 -6.86601,7.04938 -11.6456,11.88595 -10.9312,11.16507 -22.69624,23.89231 -22.69624,24.54295 0,0.24025 -1.669,2.26962 -3.76172,4.41931 -2.02944,2.14953 -4.7796,5.3171 -6.09463,7.04938 -1.31503,1.73229 -3.10428,4.00207 -4.00207,5.07676 -0.95465,1.13168 -1.66899,2.21281 -1.66899,2.44668 0,0.71443 -5.13373,7.04938 -9.19892,11.34845 -2.14953,2.26962 -3.93878,4.47612 -3.93878,4.83656 0,0.36038 -0.77764,1.669 -1.78925,2.98419 -0.95466,1.25182 -1.78926,2.63007 -1.78926,2.9842 0,0.36037 -0.53739,1.13168 -1.13168,1.66899 -0.65752,0.5943 -1.31504,1.78926 -1.55529,2.63007 -0.24025,0.89776 -0.77764,2.02944 -1.25181,2.56678 -0.4805,0.53739 -1.31503,2.26962 -1.90934,3.88181 -0.5943,1.61217 -1.55529,3.70491 -2.21282,4.71648 -1.07478,1.55528 -1.19491,2.75015 -1.19491,10.8111 v 9.07881 l 2.09273,4.05888 c 1.13168,2.26962 2.38987,4.36235 2.75015,4.71647 0.83453,0.71443 6.74591,7.70682 12.54338,14.6298 2.3266,2.80712 4.89969,6.39178 5.73435,8.06094 0.83453,1.61217 3.10429,6.1516 5.01995,9.9766 3.58465,7.10619 4.17896,8.06094 8.18103,12.84054 1.25182,1.49206 2.75016,3.46456 3.2875,4.29906 0.53739,0.83453 2.68704,3.52154 4.71647,5.91125 2.02944,2.3266 4.17897,5.19685 4.71648,6.27169 0.53739,1.01789 2.02944,3.10429 3.34447,4.59622 1.25181,1.49207 3.22438,3.76172 4.36234,5.07675 2.63007,3.04732 6.27169,7.88388 6.27169,8.3581 0,0.17704 2.02944,2.68704 4.47613,5.49401 2.44669,2.80696 5.97453,7.04938 7.70682,9.37597 1.78925,2.38988 3.64162,4.6595 4.17897,5.07675 0.53739,0.41727 0.95465,1.01789 0.95465,1.31504 0,0.29714 0.89777,1.85237 2.02944,3.40144 3.04731,4.36234 3.10429,4.95666 0.77764,9.85634 -3.2875,6.74591 -6.56885,13.79513 -10.27376,21.91936 -4.41931,9.73625 -4.71647,10.39385 -6.27169,14.62979 -0.71442,1.97263 -1.669,4.36235 -2.09272,5.37391 -0.4805,0.95466 -1.37194,3.10429 -2.09272,4.7796 -1.78925,4.24225 -2.63006,4.95665 -6.51188,5.3739 -1.85237,0.24025 -3.88181,0.65752 -4.59622,0.95466 -0.65751,0.36038 -5.61425,1.01789 -11.05128,1.43516 -10.09038,0.83453 -18.03819,2.02944 -18.81507,2.80713 -0.24026,0.29714 -2.44669,0.4805 -4.83657,0.4805 -5.61426,0 -15.64767,1.13168 -17.08328,1.90934 -0.5943,0.29714 -5.43719,0.83453 -10.691006,1.13169 -5.317099,0.29714 -9.976601,0.83453 -10.393851,1.19491 -0.417265,0.36037 -3.401441,0.89776 -6.632131,1.1949 -3.224377,0.29714 -7.346537,0.65752 -9.135628,0.83454 -5.791158,0.53739 -13.434852,1.66899 -14.035478,2.09272 -0.29714,0.24025 -4.362345,0.59429 -8.958726,0.83453 -4.596219,0.24025 -9.319004,0.65751 -10.45066,0.95465 -1.131688,0.29715 -3.287499,0.83455 -4.779595,1.19491 -7.283254,1.85238 -16.602582,8.24432 -19.112877,13.08073 -0.594298,1.25181 -1.492048,2.56678 -2.029439,2.98419 -0.53739,0.41726 -1.074781,1.669 -1.315032,2.80713 -0.177031,1.13168 -0.594297,2.21281 -0.897766,2.38987 -0.29714,0.17704 -1.017891,1.31504 -1.555282,2.50998 -0.8345314,1.85237 -1.0747817,5.494 -1.4351571,24.0056 -0.3603754,20.96444 -0.657516,24.30988 -2.6870352,32.85071 -1.9726289,8.54132 -2.0927217,11.6456 -1.9093455,49.26879 0.1201235,31.35198 0.2971406,37.86483 1.0178914,39.11593 2.2696238,3.88181 3.5846558,17.49923 3.641627,36.84679 0,17.37946 0.4172657,21.55843 2.4466874,24.90387 0.594298,1.01789 1.131689,2.26963 1.131689,2.80713 0,0.53739 0.954656,2.14953 2.092721,3.58466 1.131688,1.43515 2.092722,2.92722 2.092722,3.22437 0,0.77765 5.494001,6.2717 6.271691,6.2717 0.29714,0 1.074782,0.53739 1.732281,1.13168 0.714423,0.5943 2.750157,1.73229 4.53941,2.44669 1.789253,0.71442 3.76172,1.55528 4.299062,1.85238 0.537342,0.29709 2.149531,0.71442 3.584656,0.89776 1.435157,0.24025 2.984192,0.65752 3.584655,0.89777 0.537391,0.29714 5.373909,0.77764 10.811101,1.07478 5.437192,0.29714 10.45066,0.89777 11.165066,1.25181 0.714423,0.36038 5.911251,1.07478 11.525507,1.49207 5.671065,0.4805 12.303197,1.25181 14.749884,1.78925 2.446688,0.53739 7.706816,1.25181 11.645598,1.49206 8.66157,0.5943 12.3032,1.13169 13.20082,1.85238 0.41726,0.29714 4.29906,0.71442 8.66157,0.89776 4.41931,0.17704 8.66157,0.5943 9.49607,0.89777 1.85237,0.65752 13.61822,2.21281 22.28028,2.92722 8.00397,0.65752 9.91332,1.61217 10.98816,5.37391 0.41727,1.49206 1.19491,3.52153 1.669,4.59622 0.48049,1.01789 0.89777,2.14953 0.89777,2.50997 0,0.36044 0.29714,1.13169 0.5943,1.73228 0.65751,1.07478 4.41931,11.34844 5.494,14.99007 0.29714,1.13169 0.95465,2.63006 1.37194,3.2875 0.4805,0.71442 1.01789,2.26962 1.1949,3.52153 0.24025,1.19491 0.65752,2.38988 0.95466,2.56678 0.29714,0.17691 0.53739,0.71443 0.53739,1.19491 0,0.83453 1.31503,3.93878 6.39178,15.16713 0.83454,1.78926 1.669,3.82501 1.97263,4.47613 0.24025,0.65752 1.01789,2.44669 1.73228,4.05888 0.65752,1.55528 1.25182,3.46456 1.25182,4.24225 0,1.49206 -1.90935,4.6595 -5.19685,8.42122 -7.10619,8.24432 -11.6456,13.91539 -12.12613,14.93326 -0.24025,0.65752 -2.02944,3.04732 -3.93878,5.25382 -6.03151,6.866 -7.22629,8.42122 -8.66157,10.86791 -0.71443,1.31503 -2.98419,4.24225 -5.01994,6.56885 -2.02944,2.26962 -4.17897,4.95665 -4.7796,5.97453 -0.65752,0.95466 -2.38988,3.2875 -3.93878,5.07675 -1.55529,1.78925 -3.76172,5.3171 -5.01995,7.76379 -1.25181,2.44669 -2.56678,4.89969 -2.98419,5.37391 -0.41726,0.4805 -1.1949,2.26962 -1.73228,4.00206 -0.5943,1.669 -1.43516,3.40145 -1.90935,3.76172 -0.41726,0.41727 -0.83453,1.13169 -0.83453,1.55529 0,0.41726 -1.78925,2.92722 -4.00206,5.55728 -11.46854,13.55495 -14.39576,17.20305 -16.30478,20.60352 l -2.09272,3.64162 v 9.25589 c 0.0569,8.12406 0.17703,9.49607 1.1949,10.98816 0.65752,0.95466 1.61218,3.10429 2.21282,4.71647 0.5943,1.61218 1.43516,3.40145 1.90934,3.93879 0.41727,0.53739 1.01789,1.61217 1.25182,2.44669 0.24025,0.83453 0.83453,1.90934 1.31503,2.44668 1.01789,1.19491 4.95666,7.70682 4.95666,8.24432 0,0.17704 1.73228,2.21282 3.88181,4.53941 2.14953,2.26963 5.3171,6.44876 7.04938,9.13563 1.669,2.75016 4.36235,6.44876 5.97454,8.24432 1.55528,1.78925 2.80712,3.46456 2.80712,3.76172 0,0.53739 3.82501,4.95666 10.21048,11.88595 1.61217,1.7893 2.92722,3.4646 2.92722,3.7617 0,0.5943 5.43719,5.9113 6.09463,5.9113 0.24025,0 0.89776,0.8977 1.43515,1.9093 1.07478,2.0927 33.68424,35.1134 34.63916,35.1134 0.29714,0 2.26962,1.7323 4.36234,3.8818 2.02944,2.1495 4.47613,4.2991 5.3171,4.7165 0.89777,0.4805 2.21282,1.6121 2.92722,2.63 1.78926,2.4467 9.85635,8.8385 14.15557,11.2854 2.02944,1.1317 3.88182,2.3266 4.17897,2.63 0.36038,0.2972 1.0179,0.5374 1.55529,0.5374 0.53739,0 1.61217,0.6575 2.38987,1.4921 0.77771,0.8345 1.61218,1.492 1.90935,1.492 0.29714,0 1.669,1.0748 3.04731,2.4467 1.37194,1.3151 3.46457,2.9273 4.59622,3.5847 1.13166,0.6574 3.2875,1.9726 4.7796,2.9272 1.49206,0.9547 4.95666,2.8639 7.76378,4.179 2.80713,1.3719 6.03151,2.9272 7.16948,3.5846 4.29906,2.2128 12.66347,2.9842 19.28929,1.7893 3.88181,-0.7144 9.4391,-3.4646 11.70888,-5.7912 0.83454,-0.8345 4.12216,-3.5846 7.22629,-6.0946 3.10428,-2.4467 6.866,-5.6711 8.3581,-7.0494 1.43515,-1.4351 2.86393,-2.5668 3.10428,-2.5668 0.24035,0 1.73228,-0.7776 3.2875,-1.7892 1.55528,-0.9547 3.40144,-1.7893 4.12216,-1.7893 0.71442,0 1.90935,-0.4805 2.68704,-1.1317 0.77764,-0.5943 3.46456,-2.0927 5.91125,-3.3444 2.44668,-1.1949 5.97453,-3.5216 7.76378,-5.0768 1.78926,-1.5553 4.12216,-3.2244 5.07676,-3.7617 1.01789,-0.5374 3.1674,-2.2128 4.77959,-3.7049 2.98419,-2.7502 5.79116,-4.8997 9.67313,-7.2263 1.07478,-0.6575 4.17897,-3.2244 6.86601,-5.6711 2.68703,-2.4466 6.44875,-5.494 8.30113,-6.809 3.52153,-2.4467 8.47819,-6.3286 13.91538,-10.8679 3.52154,-3.0473 5.37391,-3.2244 9.31901,-1.0748 1.49206,0.7777 3.34447,1.7323 4.17897,2.0295 0.83453,0.3603 1.90934,0.9546 2.38987,1.2518 0.48049,0.3603 1.55529,0.8977 2.38988,1.2518 0.83453,0.3604 2.14953,1.0179 2.98419,1.4351 0.83454,0.4805 2.68704,1.372 4.17897,2.0928 1.49207,0.6575 3.10429,1.492 3.58466,1.7892 0.4805,0.3604 1.31503,0.7777 1.78925,0.9547 0.4805,0.2402 1.97263,0.8977 3.2875,1.4351 3.825,1.7323 6.86601,2.9273 11.52551,4.5394 2.32659,0.8346 5.01994,1.9094 5.97453,2.3899 0.89777,0.4173 1.97263,0.8346 2.38988,0.8346 0.83453,0 6.27169,2.1495 11.34844,4.5394 1.73229,0.7776 4.41932,1.7322 5.97454,2.0927 5.13372,1.1317 5.3171,1.315 5.79116,9.319 0.24025,3.8818 0.65751,7.2832 0.89776,7.6437 0.4805,0.5943 1.55528,9.496 2.02944,16.7223 0.41727,5.3739 1.49206,12.36 2.21281,13.9722 0.36038,0.8346 0.83454,5.7344 1.13169,10.9312 0.29714,5.2538 0.77764,9.8564 1.13169,10.2738 0.36038,0.4172 1.07478,5.4372 1.55528,11.165 0.77764,9.2559 1.78926,16.4246 2.80713,19.0498 0.17702,0.4805 0.5943,5.3739 0.95466,10.8679 0.29714,5.494 0.83453,10.3306 1.13169,10.7478 0.36037,0.4173 0.83453,1.7893 1.01789,3.1043 0.24025,1.2518 0.95465,3.2875 1.61217,4.4761 0.5943,1.1949 1.13169,2.3899 1.13169,2.6301 0,1.315 8.12406,10.5708 9.319,10.5708 0.41727,0 1.49207,0.5943 2.44669,1.3719 0.89777,0.7776 3.40144,2.3266 5.55729,3.4014 l 3.88181,2.0295 20.30733,0.4172 c 11.16506,0.1771 23.82919,0.7145 28.07128,1.1317 5.67106,0.5943 18.03819,0.7777 45.98808,0.6575 21.02109,-0.057 39.83616,-0.177 41.80264,-0.2402 1.97263,0 7.76379,0.177 12.84054,0.4173 7.8206,0.4172 9.85635,0.3603 13.0176,-0.4805 2.86394,-0.7777 7.46663,-1.0748 19.70687,-1.2519 19.65022,-0.3603 22.93092,-0.6575 24.84723,-2.1495 0.77764,-0.5943 1.78925,-1.1317 2.14953,-1.1317 1.61217,0 9.13563,-5.671 12.54338,-9.4391 1.97263,-2.2128 3.58466,-4.2422 3.58466,-4.5962 0.0569,-0.2971 0.53739,-1.669 1.1949,-2.9842 0.65752,-1.3152 1.13169,-2.687 1.19491,-3.0473 0,-0.3604 0.36038,-1.4352 0.83453,-2.3899 0.95466,-1.9093 1.97263,-9.2559 2.68704,-19.9464 0.24025,-3.825 0.77764,-7.5234 1.1949,-8.2443 0.41727,-0.7776 1.01789,-5.7343 1.37194,-11.0513 0.29714,-5.3171 0.83453,-10.2105 1.07478,-10.8679 0.71443,-1.7323 1.31504,-5.7343 1.85238,-13.1377 0.4805,-7.2832 1.43515,-13.5549 2.32659,-15.8246 0.29714,-0.8345 0.83453,-5.8544 1.13169,-11.165 0.29714,-5.3171 0.83455,-10.1535 1.19491,-10.8111 0.36036,-0.6576 0.95465,-5.02 1.31503,-9.7363 0.83453,-11.0513 0.83453,-11.0513 2.75016,-11.7089 4.12216,-1.492 15.16713,-4.9566 15.82457,-4.9566 0.41726,0 3.04731,-1.0748 5.85444,-2.3266 7.28325,-3.3445 9.07882,-4.1222 13.55494,-5.7912 2.26963,-0.8345 6.51188,-2.687 9.4391,-4.1221 19.52883,-9.376 24.4863,-11.6456 25.68075,-11.6456 1.55528,0 5.25382,2.687 11.70889,8.4782 2.50997,2.2128 4.77959,4.0588 4.95665,4.0588 0.71443,0 6.56885,4.5963 8.66157,6.8091 1.13169,1.1949 2.3266,2.1495 2.63007,2.1495 0.36037,0 1.73228,1.0748 3.1674,2.3899 1.43513,1.3151 2.92722,2.3899 3.2875,2.3899 0.71443,0 8.42122,6.2084 10.62773,8.5982 0.83453,0.8346 1.78925,1.5553 2.14953,1.5553 0.36037,0 1.43516,0.8346 2.44669,1.8524 2.14953,2.3266 5.19684,4.2991 11.28532,7.4033 2.63006,1.3151 5.43719,2.864 6.27169,3.4646 0.77764,0.5374 1.78925,1.0179 2.21281,1.0179 1.85238,0 6.80904,2.9272 10.74782,6.3918 1.55528,1.4351 5.3171,4.5394 8.24432,6.9861 2.98419,2.3899 6.09463,5.0767 6.92913,5.8544 0.83453,0.7777 3.52153,2.4467 6.0315,3.6416 l 4.41932,2.2129 h 8.3581 c 7.10619,0 8.66157,-0.1771 10.62772,-1.1949 1.31503,-0.6576 3.64163,-1.6122 5.19685,-2.0928 1.55528,-0.5374 3.1674,-1.3719 3.52153,-1.8523 0.41727,-0.4173 1.13169,-0.8346 1.55528,-0.8346 0.4805,0 2.86394,-1.3719 5.37391,-2.9842 2.44669,-1.669 4.71648,-2.9842 5.01994,-2.9842 0.24025,0 2.09273,-1.315 4.00207,-2.9272 1.90935,-1.6121 4.41932,-3.3444 5.55729,-3.8818 3.76172,-1.8524 6.09462,-3.2244 7.70681,-4.7165 0.83453,-0.8345 1.85238,-1.5552 2.26963,-1.669 0.4805,-0.177 22.33693,-21.021 29.97953,-28.6652 0.5373,-0.5374 2.0294,-1.669 3.3444,-2.4467 2.3266,-1.4352 19.3524,-18.2777 21.976,-21.7365 1.9094,-2.4467 5.9113,-6.809 12.36,-13.4348 11.4055,-11.70892 13.6183,-14.03551 16.065,-16.96193 3.1674,-3.76171 4.1789,-5.13372 5.9112,-7.58672 0.7144,-1.07478 2.0294,-2.92722 2.8071,-4.05887 0.8346,-1.13169 1.7893,-2.75016 2.2128,-3.58466 0.4173,-0.83453 1.9727,-2.98419 3.4646,-4.7796 1.4921,-1.78925 3.0473,-3.93878 3.4646,-4.77959 0.4172,-0.83453 1.5553,-2.68704 2.5099,-4.17897 1.0179,-1.49206 2.2129,-3.64163 2.7502,-4.77959 0.5374,-1.13169 1.4921,-2.80713 2.0927,-3.70492 0.6575,-0.83453 1.1317,-1.97262 1.1317,-2.44668 0,-0.4805 0.6575,-2.09272 1.4921,-3.70491 2.2696,-4.17897 3.0473,-10.33057 2.2128,-17.13993 -0.4805,-3.76172 -1.0748,-6.0315 -1.9094,-7.16947 -0.6575,-0.89777 -1.1949,-1.90935 -1.1949,-2.21282 0,-0.36037 -1.4351,-2.26962 -3.1042,-4.29906 -1.7323,-1.97263 -3.6417,-4.36234 -4.179,-5.19684 -0.5943,-0.89777 -2.8071,-3.52154 -4.8997,-5.85444 -4.7165,-5.19685 -8.9018,-11.16507 -9.8564,-14.09229 -0.9546,-2.86394 -6.866,-13.91539 -8.9017,-16.6657 -2.8639,-3.82501 -8.2443,-10.39386 -9.2559,-11.22835 -0.5943,-0.41727 -1.0179,-1.07479 -1.0179,-1.37194 0,-0.29714 -1.0179,-1.78926 -2.3266,-3.34447 -1.2518,-1.55529 -2.687,-3.52154 -3.1043,-4.41932 -0.4805,-0.89777 -2.9272,-3.93878 -5.494,-6.68894 -2.5099,-2.80713 -4.5962,-5.25382 -4.5962,-5.494 0,-0.53739 -6.0946,-8.30113 -12.2462,-15.4706 -6.0946,-7.22629 -7.3465,-9.37598 -6.4488,-11.52551 0.3604,-0.89777 1.2519,-3.10429 1.9727,-4.89969 0.7776,-1.78925 1.9726,-4.6595 2.7501,-6.39178 0.7777,-1.669 1.4352,-3.22438 1.4352,-3.40144 0,-0.17704 0.6575,-1.73229 1.492,-3.46457 0.7777,-1.73228 1.9094,-4.36234 2.4467,-5.85444 0.9547,-2.75016 2.6301,-7.10619 3.5216,-9.25588 0.2971,-0.65752 1.0179,-2.56678 1.6121,-4.17897 0.6576,-1.669 1.4921,-3.825 1.9727,-4.7796 0.4172,-1.01789 1.0748,-2.75015 1.492,-3.88181 0.4173,-1.13169 0.9547,-2.63006 1.1949,-3.2875 1.3151,-3.22437 2.9842,-8.59828 3.2875,-10.51394 0.6575,-3.58466 2.4467,-5.25382 6.5689,-5.91125 1.9726,-0.36038 5.3739,-0.5943 7.5867,-0.5943 2.2128,0 4.179,-0.29714 4.3623,-0.5943 0.1771,-0.36037 1.7893,-0.59429 3.4646,-0.65751 1.7323,0 5.1337,-0.41727 7.5867,-0.89777 2.4467,-0.53739 8.3012,-1.19491 13.0176,-1.49206 4.6595,-0.29714 9.0156,-0.77764 9.6162,-1.07478 1.4351,-0.77764 10.0904,-1.85238 14.9332,-1.85238 2.1496,0 4.6596,-0.24025 5.6711,-0.53739 3.7049,-1.13169 9.2559,-1.97263 19.4091,-2.80713 5.7343,-0.41726 10.691,-1.13169 11.1082,-1.43515 0.4173,-0.36038 5.4372,-0.89777 11.1083,-1.25182 5.7343,-0.29714 10.6277,-0.83453 10.9312,-1.13169 0.3604,-0.36037 1.4351,-0.59429 2.4467,-0.59429 0.9546,-0.0569 4.299,-1.07478 7.3465,-2.26963 8.4212,-3.40144 13.9154,-8.71838 18.0948,-17.43611 0.7145,-1.49204 1.7323,-3.1674 2.2697,-3.825 0.8345,-0.95466 1.0179,-3.825 1.2518,-22.39358 0.2402,-17.37946 0.4805,-21.55843 1.1949,-22.7545 1.3719,-2.26963 1.3719,-96.87052 0,-99.13966 -0.7144,-1.25181 -0.9547,-6.39178 -1.1949,-31.47175 l -0.2972,-29.92284 -1.315,-1.43516 c -0.7776,-0.83453 -1.3719,-1.97263 -1.4351,-2.63006 0,-1.13169 -0.3604,-1.73228 -3.6417,-6.63213 -3.6416,-5.494 -12.8975,-11.94276 -18.6953,-13.01761 -1.315,-0.24025 -2.687,-0.65751 -3.0473,-0.95465 -0.5374,-0.41727 -6.4487,-1.07478 -18.1579,-1.97263 -1.7893,-0.12012 -5.3171,-0.65752 -7.7638,-1.19491 -2.4467,-0.53739 -6.2717,-0.95465 -8.4782,-0.95465 -2.2128,0 -4.179,-0.29714 -4.3624,-0.5943 -0.177,-0.36038 -2.2128,-0.5943 -4.4193,-0.5943 -3.2244,0 -4.4193,-0.24025 -5.6711,-1.25181 -1.1316,-0.89777 -2.1495,-1.19491 -3.5215,-0.95466 -2.8639,0.41727 -19.5288,-0.65751 -20.3073,-1.31503 -0.6575,-0.4805 -8.9018,-1.49206 -18.0382,-2.09272 -3.8818,-0.24025 -9.5529,-1.19491 -12.8406,-2.14953 -1.1316,-0.29714 -6.2084,-0.83455 -11.2853,-1.19491 -5.0767,-0.36038 -9.496,-0.83453 -9.8563,-1.13169 -0.3604,-0.29714 -2.4467,-0.71442 -4.6595,-0.95465 -4.3624,-0.41727 -4.5962,-0.65752 -5.7912,-4.17897 -0.4805,-1.31504 -1.5553,-3.93879 -2.51,-5.91126 -0.9546,-1.90934 -1.7322,-3.70491 -1.7322,-4.05887 0,-0.29714 -0.9547,-2.75016 -2.1496,-5.43719 -3.2875,-7.58673 -3.4645,-7.94069 -7.4033,-16.84212 -2.0294,-4.59622 -5.02,-11.05129 -6.6321,-14.33264 l -2.9842,-6.0315 2.0294,-3.40145 c 1.1317,-1.90934 3.0473,-4.59621 4.2423,-6.0315 1.1949,-1.49206 2.1495,-2.86394 2.1495,-3.10429 0,-0.24025 1.2518,-1.90934 2.8639,-3.70491 1.5553,-1.78925 3.825,-4.6595 5.1337,-6.32866 1.2519,-1.669 3.4646,-4.29906 4.8997,-5.85444 1.4352,-1.55528 2.6301,-3.16741 2.6301,-3.64163 0,-0.4805 1.9093,-2.92722 4.2423,-5.55728 6.2084,-6.92913 6.0946,-6.80903 8.5982,-10.69101 1.3151,-1.97263 4.179,-5.73435 6.3918,-8.30113 2.2128,-2.56678 4.0589,-4.95666 4.0589,-5.25381 0,-0.36038 1.3719,-2.09273 3.0473,-3.93879 1.6122,-1.90934 3.6416,-4.71647 4.4761,-6.32866 0.7777,-1.61217 2.3899,-4.53941 3.4646,-6.56885 1.1317,-1.97263 2.2128,-4.53941 2.4467,-5.55728 0.177,-1.07478 0.6575,-2.09272 0.9546,-2.3266 0.2972,-0.17703 1.0748,-1.31503 1.7323,-2.50997 0.5943,-1.19491 2.7502,-3.93878 4.7165,-6.09463 2.0294,-2.14953 3.6416,-4.05887 3.6416,-4.29906 0,-0.4805 7.5235,-9.319 8.7817,-10.33056 2.7501,-2.26963 5.5573,-11.58879 5.5573,-18.33438 0,-3.64163 -1.6122,-10.62773 -2.6871,-11.82267 -0.4805,-0.53739 -0.8977,-1.37193 -0.8977,-1.85237 0,-1.13169 -4.5962,-9.79323 -7.2833,-13.79513 -1.2518,-1.78925 -2.2696,-3.52154 -2.2696,-3.88181 0,-0.29714 -0.7776,-1.31504 -1.7893,-2.26963 -0.9546,-0.95465 -1.7892,-1.97263 -1.7892,-2.26962 0,-0.297 -0.5943,-1.31503 -1.315,-2.26963 -0.7777,-0.89776 -2.1496,-2.80712 -3.1674,-4.12216 -0.9547,-1.31503 -3.0474,-3.825 -4.5963,-5.55728 -1.5552,-1.669 -4.1221,-4.77959 -5.671,-6.866 -1.6122,-2.09273 -4.8366,-5.97454 -7.2833,-8.66157 -2.3899,-2.68704 -4.7796,-5.73435 -5.2538,-6.68894 -1.3719,-2.68704 -5.1968,-6.9861 -13.3779,-14.93326 -4.0021,-3.93879 -12.8405,-12.72045 -19.5871,-19.47219 -11.5255,-11.58879 -17.4361,-16.96189 -20.96442,-19.16952 -0.83453,-0.53739 -3.40144,-2.63007 -5.67107,-4.71648 -2.32659,-2.09272 -5.01994,-4.41931 -5.97453,-5.19684 -6.44876,-4.95666 -10.15351,-7.70682 -14.27567,-10.69101 -2.56678,-1.90934 -5.55728,-4.17897 -6.63213,-5.13372 -1.07478,-0.89777 -2.09272,-1.61217 -2.26962,-1.61217 -0.1769,0 -2.02944,-1.13169 -4.05888,-2.56678 -4.41931,-2.9842 -3.93878,-2.75016 -9.19891,-5.19685 -2.26962,-1.07478 -5.494,-2.63006 -7.16947,-3.46456 -2.80713,-1.37194 -3.58466,-1.49207 -12.00604,-1.49207 l -9.01554,0.0569 -3.825,2.14953 c -3.52154,1.97263 -8.12407,5.61426 -19.47219,15.40732 -2.38987,2.02944 -4.83656,3.88182 -5.43719,4.12216 -0.59429,0.24025 -2.09272,1.07479 -3.34447,1.97263 -1.25181,0.83455 -3.1674,1.669 -4.29906,1.90935 -1.13169,0.17703 -2.21281,0.5943 -2.32659,0.89776 -0.17704,0.24026 -2.56678,1.61218 -5.25382,2.9842 -2.68704,1.37194 -6.39178,3.76172 -8.18104,5.25381 -1.78925,1.55528 -4.05887,3.2875 -5.07675,3.93879 -0.95465,0.59429 -3.70491,2.80712 -6.0315,4.89968 -2.3266,2.02944 -4.41932,3.76172 -4.65951,3.76172 -0.36037,0 -3.58465,2.21282 -7.22628,4.95666 -0.95466,0.71443 -3.58465,2.98419 -5.79116,5.01995 -2.21281,2.09272 -4.29906,3.76171 -4.6595,3.76171 -0.36044,0 -3.34447,2.26963 -6.74591,5.07676 -3.34447,2.75015 -7.58672,6.27169 -9.37598,7.76378 -1.78925,1.49207 -4.05887,3.22438 -5.07675,3.88182 -2.38988,1.55528 -9.79322,7.04938 -12.54338,9.19891 -2.44669,1.97263 -2.98419,1.90934 -9.55288,-1.13169 -4.05887,-1.90935 -6.56885,-2.98419 -10.45066,-4.47613 -1.78925,-0.65751 -4.05887,-1.61217 -5.07675,-2.02943 -4.6595,-2.14954 -9.19891,-3.93879 -10.03341,-3.93879 -0.53739,0 -1.07478,-0.24025 -1.25181,-0.53739 -0.17704,-0.29714 -2.44669,-1.25181 -4.95666,-2.21281 -2.56678,-0.89777 -4.89969,-1.85238 -5.25382,-2.02944 -0.29714,-0.24025 -2.02944,-0.77764 -3.76172,-1.25182 -1.73228,-0.41726 -3.46456,-1.13168 -3.825,-1.55528 -0.36038,-0.4805 -0.83453,-3.2875 -1.13169,-6.32866 -0.53739,-6.09463 -1.49206,-12.3032 -2.32659,-15.04704 -0.29715,-0.95466 -0.83454,-6.09463 -1.19491,-11.34844 -0.36038,-5.19685 -0.95466,-9.85635 -1.31503,-10.27376 -0.29714,-0.41727 -0.83454,-5.01994 -1.13169,-10.15351 -0.29714,-5.19684 -0.77764,-10.09038 -1.13169,-10.93119 -0.83455,-2.21281 -1.78925,-9.01553 -2.3266,-16.72235 -0.53739,-7.403346 -1.07478,-10.931193 -1.85237,-12.840538 -0.24025,-0.657516 -0.77764,-5.734349 -1.07478,-11.22835 -0.36038,-5.854442 -0.89777,-10.393851 -1.31503,-10.86791 -0.41727,-0.4805 -0.95466,-4.002067 -1.19491,-7.88388 -1.37194,-18.695303 -3.22438,-25.384568 -8.90175,-32.426665 -2.9842,-3.70491 -10.15351,-9.552878 -11.6456,-9.552878 -0.29714,0 -2.3266,-0.897766 -4.47613,-1.9093453 L 702.42198,7.7054848 681.52066,7.2882191 C 669.09737,7.0479688 659.30349,6.6307031 657.33216,6.1565309 653.33009,5.3219994 576.70492,4.9047175 567.44871,5.6760303 Z M 611.56366,381.38517 c 5.91125,0.36038 11.22835,0.89777 11.82266,1.19491 0.53739,0.29714 4.41932,0.83453 8.54132,1.19491 4.17896,0.29714 8.00397,0.77764 8.54131,1.07478 0.53739,0.24025 4.17897,1.07478 8.12407,1.78925 3.93878,0.71442 8.3581,1.73228 9.85634,2.14953 1.49207,0.4805 3.88181,1.01789 5.37391,1.25181 1.49206,0.24025 3.70491,0.89777 4.89969,1.49207 1.25181,0.65751 2.80713,1.13169 3.46456,1.13169 0.65744,0 3.16741,0.95465 5.55729,2.09272 2.32659,1.13169 4.77959,2.09272 5.3171,2.09272 0.89776,0 3.46456,1.13169 16.00794,7.04938 2.44669,1.13169 5.43719,2.80713 6.56885,3.70491 1.13169,0.83453 3.40144,2.02944 4.95666,2.63006 1.55528,0.5943 3.64162,1.73229 4.53941,2.50998 0.95465,0.77764 1.97263,1.43515 2.32659,1.43515 0.29714,0 1.73228,0.89777 3.16741,1.97263 1.43515,1.07478 3.2875,2.26963 4.12216,2.63007 0.83453,0.36037 3.04731,2.02943 4.89969,3.70491 1.85237,1.66899 3.52153,3.04731 3.76172,3.04731 0.24025,0 1.90934,1.31503 3.76171,2.98419 1.85238,1.61217 3.64163,2.98419 4.00207,2.98419 1.78925,0 27.34943,25.80053 31.35198,31.59314 1.19491,1.85237 2.86394,3.88181 3.58466,4.53941 0.71442,0.65752 1.669,1.90935 2.14953,2.80713 0.48053,0.89778 2.09272,2.98419 3.52153,4.6595 1.49207,1.669 2.68704,3.34447 2.68704,3.70491 0,0.36038 0.95466,1.97263 2.09272,3.52153 1.13169,1.61218 2.09272,3.04732 2.09272,3.16741 0,0.17703 1.31503,2.38988 2.86394,4.95666 1.61217,2.56678 3.22438,5.67107 3.64163,6.866 0.41726,1.19491 1.49206,3.2875 2.50997,4.59622 0.95465,1.37194 1.73228,2.75016 1.73228,3.16741 0,0.65752 3.58466,8.95873 5.43719,12.54338 1.07478,2.14953 2.92722,8.30113 2.92722,9.85635 0,0.89776 0.53739,2.75015 1.13169,4.05887 0.5943,1.31504 1.25181,3.52154 1.43516,4.83657 0.24025,1.37194 0.83453,3.22438 1.31503,4.17897 0.4805,0.95466 0.89777,2.26962 0.89777,2.92722 0,0.6576 0.41726,1.90935 0.83453,2.80713 0.4805,0.89777 1.07478,3.10428 1.25181,4.95666 0.24025,1.78925 0.65752,3.46456 0.95466,3.64162 0.29714,0.17707 0.53739,1.31504 0.53739,2.50998 0.0569,2.44668 0.89776,6.92912 1.73228,8.78166 0.29714,0.65751 0.83453,4.29906 1.19491,8.06094 0.41726,3.76172 1.07478,9.79323 1.55528,13.43485 1.07478,8.71838 1.13169,21.91936 0,29.80308 -0.48049,3.58466 -1.19491,9.85635 -1.55528,14.03548 -0.36038,4.12216 -0.95466,8.59828 -1.37194,9.91332 -0.4805,1.31503 -1.01789,4.24225 -1.25182,6.51187 -0.24025,2.26963 -0.65751,4.59622 -0.89776,5.07675 -0.5943,1.07479 -1.55528,4.59622 -2.75016,10.21048 -0.4805,2.14953 -1.07478,4.29906 -1.37194,4.77959 -0.29714,0.53739 -0.89776,2.56678 -1.31503,4.47613 -0.41726,1.97263 -1.55528,5.01994 -2.44669,6.68894 -0.89776,1.73228 -1.669,3.52153 -1.669,3.93878 0,1.0179 -4.41931,10.8111 -6.98609,15.52758 -1.01789,1.90934 -2.02944,4.24225 -2.26963,5.19684 -0.17703,0.95466 -0.77764,2.02944 -1.25181,2.44669 -0.48048,0.36038 -0.83453,0.89777 -0.83453,1.19491 0,0.65751 -4.24225,7.82059 -5.494,9.25588 -0.5943,0.65752 -1.07478,1.43516 -1.07478,1.73228 0,0.29714 -1.61218,2.44669 -3.52154,4.83657 -1.97263,2.32659 -4.05887,5.3171 -4.71647,6.56885 -0.65752,1.31503 -1.78925,2.98419 -2.56678,3.76171 -1.90935,2.02944 -5.19685,6.68895 -5.91125,8.35811 -0.83453,1.85237 -29.0262,29.92284 -30.10088,29.92284 -0.41727,0 -2.44669,1.49206 -4.47613,3.2875 -2.02944,1.78925 -4.00207,3.2875 -4.47612,3.2875 -0.41727,0 -1.49205,0.83453 -2.50998,1.85237 -0.95465,1.01789 -2.50997,2.26963 -3.52153,2.75016 -0.95466,0.53739 -3.34447,2.02944 -5.19684,3.40144 -4.36235,3.16741 -7.76379,5.25382 -11.82267,7.28325 -1.78925,0.89777 -4.6595,2.50998 -6.39178,3.64163 -1.73228,1.07478 -3.46456,1.97263 -3.88181,1.97263 -0.41727,0 -4.00207,1.55528 -7.94069,3.46456 -3.93879,1.97263 -8.06095,3.70491 -9.19892,3.93879 -1.13168,0.17703 -3.70491,1.13169 -5.67106,2.09272 -2.02944,0.95466 -4.59622,1.90934 -5.73435,2.14953 -1.13169,0.24025 -2.32659,0.65752 -2.68703,0.89777 -0.29714,0.24025 -2.09273,0.77764 -3.88182,1.1949 -1.78925,0.41727 -3.88181,0.95466 -4.6595,1.25182 -0.71442,0.29714 -2.86394,0.71442 -4.77959,0.89776 -1.85238,0.24025 -3.88182,0.65752 -4.53941,0.95466 -0.5943,0.36037 -3.04732,0.95466 -5.37391,1.43516 -2.3266,0.41726 -5.3171,1.07478 -6.63213,1.43515 -1.31504,0.36038 -6.63213,0.77764 -11.82267,1.01789 -5.19684,0.17704 -9.55287,0.5943 -9.73625,0.89777 -0.41727,0.65752 -30.2773,0.5943 -30.99753,-0.0569 -0.36038,-0.29714 -4.24225,-0.71442 -8.66157,-0.89777 -4.41932,-0.17703 -9.55288,-0.59429 -11.34844,-0.95465 -1.78925,-0.29714 -5.73435,-0.95466 -8.71838,-1.43516 -3.04731,-0.48049 -6.03151,-1.13169 -6.68894,-1.49205 -0.65752,-0.36037 -2.68704,-0.83455 -4.53941,-1.01789 -1.85237,-0.24025 -3.52153,-0.65752 -3.70491,-0.89777 -0.17703,-0.29714 -0.83453,-0.53739 -1.49206,-0.53739 -0.65754,0 -2.14954,-0.48048 -3.40145,-1.13168 -1.1949,-0.5943 -3.40144,-1.31504 -4.89968,-1.55529 -1.49207,-0.24025 -3.64163,-0.95465 -4.7796,-1.55528 -1.13169,-0.65752 -2.56678,-1.13169 -3.10428,-1.13169 -0.5943,0 -1.55529,-0.24025 -2.14953,-0.53739 -0.5374,-0.29714 -2.3266,-1.13169 -4.00207,-1.85237 -6.51188,-2.75016 -28.42411,-13.91539 -30.2773,-15.35051 -0.41726,-0.36038 -1.43515,-0.83453 -2.26962,-1.07478 -0.83447,-0.24025 -2.56678,-1.37194 -3.93879,-2.44669 -1.37193,-1.13169 -2.75015,-2.02944 -3.10428,-2.02944 -0.29714,0 -1.97263,-1.07478 -3.64163,-2.38988 -1.669,-1.3151 -3.1674,-2.38988 -3.40144,-2.38988 -0.24025,0 -1.73228,-1.25181 -3.34447,-2.75015 -1.55528,-1.49207 -3.825,-3.10429 -4.95666,-3.58466 -2.09272,-0.83455 -31.95244,-30.22065 -31.95244,-31.35198 0,-0.29714 -1.61217,-2.44669 -3.58466,-4.83657 -1.97263,-2.32659 -3.58465,-4.53941 -3.58465,-4.89968 0,-0.29714 -1.07479,-1.669 -2.38988,-3.04732 -2.21282,-2.21281 -5.55729,-7.22628 -7.6437,-11.34844 -0.4805,-1.01789 -1.61217,-2.75016 -2.50997,-3.88181 -0.89776,-1.13169 -2.38988,-3.76172 -3.2875,-5.79116 -0.89776,-2.09272 -2.02943,-4.05888 -2.44668,-4.41932 -0.48051,-0.36037 -0.83454,-1.13169 -0.83454,-1.669 0,-0.59429 -1.07478,-3.1674 -2.38987,-5.73434 -1.31504,-2.56679 -2.38988,-5.07676 -2.38988,-5.55729 0,-0.48053 -0.53739,-1.49206 -1.19491,-2.32659 -0.65752,-0.83454 -1.19491,-1.90935 -1.19491,-2.3266 0,-0.41727 -0.65751,-2.02944 -1.49206,-3.58466 -0.83455,-1.55521 -1.78925,-3.93878 -2.21281,-5.25381 -0.36038,-1.37194 -0.89777,-2.75016 -1.07479,-3.04731 -0.24025,-0.36038 -0.77764,-1.97263 -1.1949,-3.58466 -0.41727,-1.669 -0.95466,-3.2875 -1.25182,-3.58466 -0.24025,-0.36037 -0.59429,-1.97262 -0.83454,-3.58465 -0.17702,-1.669 -0.5943,-3.52154 -0.89777,-4.17897 -1.07478,-2.50997 -1.78925,-5.3171 -1.78925,-6.92913 0,-0.89776 -0.24025,-1.78925 -0.53739,-1.97263 -0.29714,-0.17703 -0.71443,-2.02943 -0.95466,-4.05887 -0.17703,-2.09272 -0.77764,-4.95666 -1.25181,-6.44876 -0.4805,-1.49206 -1.13169,-5.91125 -1.49207,-9.85634 -0.83453,-9.07882 -1.37194,-50.94556 -0.59429,-51.89885 0.24025,-0.36038 0.71442,-3.76172 0.95465,-7.52344 0.24025,-3.76172 0.65752,-7.34654 0.95466,-7.88388 0.29714,-0.53739 0.83453,-3.10429 1.19491,-5.67107 0.36037,-2.56678 0.83453,-4.95666 1.07478,-5.25381 0.29714,-0.36038 0.65751,-1.97263 0.89776,-3.58466 0.36038,-2.98419 1.25182,-6.20841 3.34447,-11.94276 0.5943,-1.66899 1.31504,-3.93878 1.55529,-5.07675 0.17703,-1.13169 0.71442,-2.63006 1.13168,-3.2875 0.41727,-0.65751 0.95466,-2.14953 1.19491,-3.2875 0.4805,-2.63006 0.77764,-3.40144 3.40144,-8.95872 2.68704,-5.73435 4.83657,-10.45066 6.09463,-13.43485 0.53739,-1.31504 1.43516,-3.22438 1.97263,-4.17897 0.53739,-1.01789 1.61217,-3.16741 2.44669,-4.7796 0.77764,-1.669 2.32659,-4.24225 3.46456,-5.85444 1.13169,-1.55528 2.02944,-2.98419 2.02944,-3.2875 0,-0.24025 1.07478,-1.78925 2.38988,-3.40144 1.31503,-1.669 2.38987,-3.22438 2.38987,-3.46456 0,-1.01789 5.07676,-7.88388 8.59829,-11.6456 2.09272,-2.21282 4.24225,-4.89969 4.83657,-6.03151 1.37193,-2.68703 26.93347,-28.31082 29.56353,-29.62018 1.13169,-0.5943 3.58466,-2.44669 5.4372,-4.12216 1.85237,-1.669 4.6595,-3.70491 6.27169,-4.53941 1.61217,-0.83453 4.00206,-2.44669 5.3739,-3.58466 2.21282,-1.90934 4.83657,-3.58465 11.10826,-6.9861 1.31503,-0.71442 2.86394,-1.66899 3.40144,-2.14953 0.53739,-0.4805 2.14953,-1.31503 3.64163,-1.85237 1.49206,-0.5943 4.36235,-2.09272 6.39178,-3.40144 2.02944,-1.25182 4.00207,-2.3266 4.36235,-2.3266 0.29714,0 2.98419,-1.07478 5.91125,-2.38988 2.92722,-1.31503 5.67107,-2.38987 6.1516,-2.38987 0.41726,0 1.37194,-0.41727 2.09272,-0.89777 0.65752,-0.4805 2.75016,-1.25181 4.53941,-1.73228 1.78925,-0.48049 4.29906,-1.37194 5.55728,-2.02944 1.31504,-0.65752 3.52154,-1.37194 5.01995,-1.61217 1.49206,-0.24025 3.46456,-0.77764 4.47612,-1.25182 0.95466,-0.4805 3.52154,-1.13168 5.67107,-1.43515 2.14953,-0.36038 4.95666,-0.95466 6.27169,-1.49207 1.31503,-0.4805 3.46456,-0.83453 4.83657,-0.89776 1.31503,0 2.68703,-0.29714 3.04731,-0.65752 0.36037,-0.36037 3.88181,-0.83453 7.8206,-1.13169 4.00206,-0.29714 7.58672,-0.71442 8.00397,-1.01789 0.65751,-0.41726 13.32107,-1.49206 21.976,-1.90934 1.13169,0 6.92913,0.24025 12.84054,0.59429 z"
     id="path172"
     style="stroke-width:1.6185" />
</svg>
