<?xml version="1.0" encoding="UTF-8"?>
<svg width="1200pt" height="1200pt" version="1.1" viewBox="0 0 1200 1200" xmlns="http://www.w3.org/2000/svg">
 <path d="m492.22 0c-12.551-0.03125-24.18 6.6094-30.531 17.438l-357.9 604.84c-4.2148 7.1875-5.75 15.637-4.332 23.848 1.418 8.2109 5.6953 15.656 12.074 21.02 6.3828 5.3594 14.453 8.2891 22.789 8.2695h267.48l-122.95 480.37h-0.003906c-2.6328 10.074-0.67969 20.797 5.332 29.297 6.0117 8.5 15.469 13.914 25.844 14.789s20.605-2.875 27.957-10.246l752.81-751.23c6.5898-6.6289 10.277-15.602 10.262-24.945-0.019532-9.3477-3.7422-18.305-10.355-24.906-6.6133-6.6016-15.578-10.312-24.922-10.316h-341.98l201.04-324.34c4.4531-7.1758 6.1836-15.715 4.8789-24.062-1.3086-8.3438-5.5664-15.945-12-21.422-6.4336-5.4727-14.617-8.457-23.066-8.4102z"/>
</svg>
