<?xml version="1.0" encoding="UTF-8"?>
<svg width="1200pt" height="1200pt" version="1.1" viewBox="0 0 1200 1200" xmlns="http://www.w3.org/2000/svg">
 <path d="m1162.5 825-205.82-13.5-26.344-1.6133-179.49-11.812 90.711-90.695-23.852-22.762h0.003906c-14.285-15.07-29.984-28.738-46.875-40.816l-49.895-37.258c-17.246-11.094-35.086-21.238-53.438-30.395l-27.148-15c-9.6016-4.1055-19.199-7.125-28.801-10.668-19.25-8.125-39.051-14.887-59.25-20.23-84.68-22.508-173.51-24.438-259.09-5.625-91.688 19.234-178.62 56.562-255.71 109.8 63.617-75.539 141.61-137.69 229.45-182.83 93.266-48.516 196.6-74.516 301.72-75.918 27.047-0.56641 54.102 0.76953 80.965 3.9922 13.125 1.0859 27.168 1.875 40.613 3.75l39.508 8.7188c26.344 6.5625 54.375 10.914 79.574 19.648l76.258 28.988h-0.003907c25.488 9.2539 50.09 20.797 73.5 34.484l71.586 38.586c1.0859 0.54297 1.6328 1.0859 2.7383 1.6484l102.24-102.26z"/>
</svg>
