<?xml version="1.0" encoding="UTF-8"?>
<svg width="1200pt" height="1200pt" version="1.1" viewBox="0 0 1200 1200" xmlns="http://www.w3.org/2000/svg">
 <path d="m751.82 138.79c-11.016 53.859-46.969 99.234-96.891 122.29-7.9688-23.531-30.094-39.375-54.938-39.375s-46.969 15.844-54.938 39.375c-49.922-23.016-85.875-68.438-96.891-122.29-93.938 8.8594-167.76 98.531-167.76 207.89 0 114.61 81.094 207.61 181.45 208.6v0.046875c16.406-36 45.094-65.016 80.953-81.75 2.9531 16.922 13.219 31.641 28.031 40.312v468.98-0.046875c-33.516 13.922-52.547 49.594-45.469 85.172s38.344 61.219 74.625 61.219 67.547-25.641 74.625-61.219c7.125-35.578-11.906-71.25-45.469-85.172v-468.98c14.859-8.625 25.078-23.344 28.031-40.266 35.859 16.734 64.594 45.703 81 81.75 100.36-0.98438 181.45-93.984 181.45-208.6-0.046875-109.36-73.875-199.08-167.81-207.94z"/>
</svg>
