<?xml version="1.0" encoding="UTF-8" standalone="no"?>
<svg
   width="1200pt"
   height="1200pt"
   version="1.1"
   viewBox="0 0 1200 1200"
   id="svg738"
   sodipodi:docname="dragon.svg"
   inkscape:version="1.2.2 (b0a8486541, 2022-12-01)"
   xmlns:inkscape="http://www.inkscape.org/namespaces/inkscape"
   xmlns:sodipodi="http://sodipodi.sourceforge.net/DTD/sodipodi-0.dtd"
   xmlns="http://www.w3.org/2000/svg"
   xmlns:svg="http://www.w3.org/2000/svg">
  <defs
     id="defs742" />
  <sodipodi:namedview
     id="namedview740"
     pagecolor="#ffffff"
     bordercolor="#666666"
     borderopacity="1.0"
     inkscape:showpageshadow="2"
     inkscape:pageopacity="0.0"
     inkscape:pagecheckerboard="0"
     inkscape:deskcolor="#d1d1d1"
     inkscape:document-units="pt"
     showgrid="false"
     inkscape:zoom="0.2703125"
     inkscape:cx="142.42775"
     inkscape:cy="998.84393"
     inkscape:window-width="2560"
     inkscape:window-height="1011"
     inkscape:window-x="0"
     inkscape:window-y="32"
     inkscape:window-maximized="1"
     inkscape:current-layer="svg738" />
  <path
     d="m 472.91973,91.545887 c -14.36894,19.643203 -44.87291,33.690383 -87.1947,40.402503 -14.5295,2.23131 -34.97569,3.67673 -70.74549,4.95315 -54.13831,1.75809 -63.71313,3.0343 -84.16105,11.17409 -16.28759,6.55048 -31.45951,15.49325 -72.33589,43.27603 -45.19531,30.65674 -102.044869,61.64237 -109.702562,59.72524 -6.863361,-1.59749 -17.885117,-27.78321 -15.80592,-37.20656 0.794526,-3.67673 0.64239,-3.98962 -0.955123,-1.75809 -1.1157,1.2763 -4.792388,5.58694 -7.987457,9.58499 -3.355623,3.98962 -7.987456,11.4952 -10.379539,16.76946 -3.9896167,8.30013 -4.4712789,11.17409 -4.3107248,24.59593 0,17.09057 3.0342988,26.50657 18.0456708,57.96608 13.895716,28.58598 27.943331,47.4262 48.068848,64.03554 l 12.458736,10.37954 -3.989617,-14.69027 c -3.034299,-11.17408 -3.828847,-17.40345 -3.355624,-26.98909 0.64239,-14.69027 3.195069,-19.16155 15.171927,-25.55233 13.895715,-7.66635 26.506565,-8.30013 73.619015,-4.47128 46.30968,3.98961 64.82965,3.67673 80.32247,-1.4369 16.76946,-5.26582 32.57603,-21.40129 36.88632,-37.36885 l 1.91869,-7.18447 4.63183,6.38993 c 10.21899,14.20838 11.4952,25.22992 5.42638,47.58632 -10.05821,36.41245 -29.21997,64.03553 -81.91935,118.17168 -40.24238,41.35674 -73.61902,80.96512 -94.21841,111.9421 -14.05627,21.08019 -34.493155,61.64238 -40.402497,80.32247 -9.424437,29.21998 -13.413838,53.17326 -14.208385,84.63277 -0.794527,37.20656 2.71319,61.32213 15.011372,98.52869 5.426381,16.60891 22.3564,49.66574 35.12715,68.66608 27.46946,41.03649 83.51841,97.25205 104.11563,104.59816 7.66635,2.7132 17.09057,2.7132 24.90968,-0.1606 6.22937,-2.23131 6.38993,-2.23131 15.17193,4.6318 7.50579,5.587 8.94256,7.6664 9.42444,12.1377 0.32119,3.0343 -0.64239,7.0239 -1.91869,8.782 -2.23131,3.0343 -4.63183,3.195 -63.71313,3.9896 l -61.48225,0.7945 -6.06882,4.9532 c -7.02391,5.5869 -11.02197,15.6538 -9.58499,23.633 1.4369,7.345 9.26367,18.6797 15.65381,22.5165 5.11371,3.0343 8.14801,3.1951 90.70222,3.1951 h 85.43554 l 9.42443,-4.6318 c 16.60891,-8.1481 27.14922,-19.9646 31.78192,-35.4496 2.71319,-9.4244 1.59749,-20.4378 -3.51618,-31.942 -1.91868,-4.1502 -3.0343,-7.8269 -2.71319,-8.3002 0.48179,-0.3212 2.71319,0.7946 5.26583,2.5527 2.39208,1.7581 7.34502,4.6318 10.8612,6.3899 3.51618,1.7581 12.45874,6.3899 19.96453,10.3795 36.7262,19.1616 46.63208,23.9533 66.74894,31.9421 12.13763,4.6318 31.29939,11.0219 42.7935,13.8957 l 20.91964,5.4264 -3.82885,5.4264 c -6.55048,9.8976 -3.51618,23.3106 6.86336,30.0227 9.42444,6.2294 20.2772,7.0239 110.02497,7.0239 83.196,0 86.39194,-0.1606 91.505,-3.1951 10.54009,-6.5504 14.5295,-19.8037 8.62145,-29.5402 l -2.87374,-4.7924 11.33464,-4.9531 c 19.3221,-8.4609 42.63338,-26.0327 53.33337,-40.2424 3.98962,-5.1137 7.18447,-11.9771 8.94256,-19.0008 1.59749,-5.9082 4.15017,-12.2982 5.58694,-14.0562 1.59749,-1.75813 5.42638,-7.50584 8.782,-12.77145 3.19507,-5.26582 9.58499,-13.57439 14.20839,-18.36699 4.63183,-4.79239 15.6538,-17.09057 24.43581,-27.14922 43.91867,-49.97948 81.12524,-78.25171 115.45828,-87.66858 39.44613,-11.02197 82.08163,6.06882 101.24213,40.0801 13.7351,24.74956 14.0562,49.50561 0.7945,75.85206 -11.8163,23.47291 -28.1035,36.72618 -54.1383,43.91868 -20.2772,5.5869 -53.33339,4.9532 -109.06859,-1.7581 -23.63304,-2.8737 -43.27603,-4.9532 -43.59627,-4.4713 -0.48179,0.4818 3.82885,2.3921 9.58499,4.3107 5.74749,1.9187 23.63304,10.219 39.59973,18.5276 59.0826,30.6567 66.58666,33.5389 95.01254,37.6891 11.6557,1.7581 14.2084,1.5975 26.5065,-1.4369 24.596,-6.0688 47.5864,-18.5276 65.6325,-35.4496 28.9062,-27.3093 45.033,-63.55297 46.7922,-105.23211 0.9551,-22.19628 -0.4818,-34.97569 -5.9083,-53.01314 l -2.8737,-9.42443 5.4264,-1.75809 c 6.2293,-2.07929 26.0326,-15.01138 34.1729,-22.3564 l 5.5869,-5.11371 -23.1505,1.1157 c -12.7714,0.48179 -24.7496,1.1157 -26.5066,1.2763 -2.3921,0.16059 -5.5869,-2.39209 -10.8612,-9.10312 -3.9896,-5.26582 -7.345,-9.89766 -7.345,-10.37954 0.1606,-1.91868 11.6557,-13.25328 16.93,-16.93001 l 5.4264,-3.67673 -6.7113,-2.55264 c -15.8059,-5.58693 -24.4358,-7.18447 -39.9199,-7.50579 -8.4609,-0.1606 -12.6193,-1.2763 -19.9646,-5.11371 -5.1137,-2.55264 -13.7351,-7.02392 -19.322,-9.89767 -5.4264,-2.87374 -14.5295,-6.55047 -20.1167,-8.14801 l -9.8977,-2.87374 -0.3211,-25.39005 c -0.1606,-14.05627 -0.6424,-25.87257 -0.9552,-26.34644 -2.3921,-2.23131 -45.667,39.4461 -45.667,43.91868 0,1.59749 -3.51618,2.07928 -13.89572,2.23131 -7.8269,0.16059 -14.52949,0.16059 -15.17192,0.16059 -8.30013,-1.1157 -61.48226,12.93218 -69.1486,18.20644 -3.51618,2.55264 -7.18447,2.87375 -7.18447,0.79453 0,-2.23131 -19.48266,-36.88632 -20.59831,-36.88632 -1.59749,0 -19.96453,33.53892 -24.59593,44.71279 -2.23131,5.74749 -4.95316,13.41384 -5.90826,17.09057 -0.95513,3.82885 -2.55264,6.86336 -3.51618,6.86336 -3.51618,0 -62.75889,32.73615 -85.59782,47.26608 -4.63183,3.0343 -8.62145,5.42638 -9.10311,5.42638 -1.2763,0 -14.69026,-15.01137 -24.74956,-27.62309 -5.58694,-6.86336 -10.54009,-11.97707 -11.33464,-11.17409 -2.71319,2.87375 -11.02197,31.13927 -11.97707,40.72275 -1.5975,19.96453 -1.75809,20.11664 -8.4609,22.03615 -20.2772,5.42638 -60.67948,7.50579 -66.74895,3.35562 -2.55263,-1.59749 -7.02391,-28.10345 -7.18447,-41.67914 l -0.16059,-12.45874 -9.26367,6.22937 c -11.33464,7.66635 -28.58598,21.87387 -31.45951,25.71245 -1.91868,2.71319 -2.87374,2.39209 -13.89571,-5.26582 -12.29818,-8.4609 -44.55267,-40.56262 -60.20561,-59.88537 -10.05822,-12.29818 -9.73711,-10.37954 -4.31073,-29.05985 0.95513,-3.19507 2.07929,-7.5058 2.55264,-9.58499 0.48179,-1.91869 1.1157,-3.51618 1.2763,-3.51618 0.32119,0 6.38992,1.1157 13.73516,2.55264 22.67664,4.15017 50.94237,11.8163 68.50595,18.67966 16.28758,6.22937 45.98943,20.91963 54.61002,26.98909 3.98962,2.7132 3.67673,1.75809 -4.95316,-17.40345 -12.45873,-27.30934 -21.87387,-55.41279 -25.0698,-74.25301 -4.15017,-25.0698 -0.79453,-36.09221 13.89571,-44.23026 7.18447,-3.82885 7.82691,-3.98962 18.367,-2.23131 13.89572,2.39208 30.34299,10.54009 46.30968,22.99904 14.52949,11.4952 64.03554,60.51936 65.79254,65.1499 0.64239,1.75808 1.1157,-21.4013 1.1157,-51.42491 0,-81.27671 5.74749,-121.2075 23.95328,-164.001 16.76946,-40.24237 46.79221,-67.55171 92.62152,-84.79505 16.76946,-6.38992 46.47196,-14.05627 54.61002,-14.36893 2.55264,0 -7.02391,-3.82885 -21.08018,-8.4609 -33.37881,-10.8612 -42.63338,-15.49325 -54.29844,-27.46946 -16.93001,-17.09057 -25.87257,-39.59973 -24.27568,-61.64237 1.27629,-18.67967 13.09272,-38.00068 31.13926,-51.26262 7.02392,-5.11371 34.81557,-21.71375 48.70284,-29.05985 l 6.06882,-3.19507 -9.26367,-0.95513 c -34.97569,-3.98961 -65.31218,3.19507 -137.33431,31.94204 -18.52755,7.34502 -81.27671,36.88632 -99.4851,46.7922 -25.55233,13.89572 -31.45951,17.2429 -40.72274,22.51652 -5.26583,3.19507 -14.52949,8.62145 -20.75908,12.13763 -13.73516,7.8269 -41.83926,26.03269 -66.58666,43.27603 -26.18632,18.04567 -26.03269,17.72456 -22.67664,51.4249 2.07929,19.96453 2.39209,35.28944 1.75809,65.95267 -0.95512,42.7935 -2.23131,57.64583 -7.66635,88.14894 l -3.51617,19.32209 -16.93002,7.34503 c -38.32308,16.28758 -57.01184,22.67664 -86.39193,29.54022 -29.54022,7.02391 -51.1025,11.17408 -75.52965,14.20838 l -21.87387,2.87375 v -7.5058 c 0,-32.25362 16.28758,-97.25205 30.97698,-122.80438 5.42638,-9.73711 18.367,-24.74956 26.34645,-30.81686 10.70064,-8.14801 30.02274,-16.76946 46.94367,-20.91963 l 14.36894,-3.51618 -9.42444,-4.31073 c -16.93002,-7.8269 -33.05639,-25.71245 -35.12715,-38.80561 -4.63184,-31.61963 34.49316,-73.13865 75.05794,-79.36824 l 11.8163,-1.91868 -12.61929,-8.62145 c -15.17192,-10.21899 -22.83892,-18.52755 -28.10345,-30.02275 -3.19507,-7.02391 -4.15017,-12.45873 -5.42638,-31.29938 -2.07928,-32.25363 -5.42638,-48.86297 -12.77141,-63.55301 l -2.87374,-5.74749 14.85082,-2.55264 c 17.09057,-3.19507 22.99904,-3.35562 29.05985,-1.1157 2.39208,0.95512 4.47128,1.43689 4.79239,1.1157 1.59749,-1.43689 -11.17409,-15.6538 -18.84022,-21.08019 -20.75908,-15.01137 -40.24238,-20.27719 -76.49471,-20.5983 l -26.50656,-0.1606 1.59749,-3.67673 c 2.39208,-5.11371 17.56401,-13.89572 29.05985,-16.93001 5.26583,-1.2763 17.88512,-3.82885 27.94333,-5.74749 50.62213,-9.42444 74.89566,-18.367 91.65646,-33.69039 12.61929,-11.4952 18.67967,-24.27569 19.64321,-41.999386 0.48179,-7.505794 0.64239,-13.735162 0.16059,-13.735162 -0.32119,0 -3.19506,3.355623 -6.22936,7.345024 z M 192.51271,215.46679 c -1.43689,2.71319 -3.51618,9.73711 -4.79239,15.49325 -3.51618,16.76946 -10.8612,24.11557 -27.62309,26.9891 -11.8163,2.23131 -18.04567,0.32119 -20.75907,-6.06882 -3.51618,-8.46089 -1.5975,-10.05821 34.33303,-29.7025 11.33464,-6.22937 20.91963,-11.49519 21.08019,-11.65575 0.16059,0 -0.95513,2.07929 -2.23131,4.95316 z"
     id="path736"
     style="stroke-width:2.1638" />
</svg>
