<?xml version="1.0" encoding="UTF-8" standalone="no"?>
<svg
   width="1200pt"
   height="1200pt"
   version="1.1"
   viewBox="0 0 1200 1200"
   id="svg186"
   sodipodi:docname="eldritch-lands.svg"
   inkscape:version="1.2.2 (b0a8486541, 2022-12-01)"
   xmlns:inkscape="http://www.inkscape.org/namespaces/inkscape"
   xmlns:sodipodi="http://sodipodi.sourceforge.net/DTD/sodipodi-0.dtd"
   xmlns="http://www.w3.org/2000/svg"
   xmlns:svg="http://www.w3.org/2000/svg">
  <defs
     id="defs190" />
  <sodipodi:namedview
     id="namedview188"
     pagecolor="#ffffff"
     bordercolor="#666666"
     borderopacity="1.0"
     inkscape:showpageshadow="2"
     inkscape:pageopacity="0.0"
     inkscape:pagecheckerboard="0"
     inkscape:deskcolor="#d1d1d1"
     inkscape:document-units="pt"
     showgrid="false"
     inkscape:zoom="0.496875"
     inkscape:cx="800"
     inkscape:cy="798.99371"
     inkscape:window-width="2560"
     inkscape:window-height="1011"
     inkscape:window-x="0"
     inkscape:window-y="32"
     inkscape:window-maximized="1"
     inkscape:current-layer="svg186" />
  <path
     d="m 76.360288,784.20712 c 5.125388,-59.36851 32.461402,-108.85333 79.199662,-131.36595 69.06996,-33.25413 158.40193,3.59993 217.45933,83.40931 4.39318,-40.14914 24.52893,-74.37953 57.96529,-90.42669 57.96529,-27.8235 133.5658,9.21344 168.84144,82.92117 -35.45006,-73.5855 -17.20696,-155.90268 40.75833,-183.71967 33.43765,-16.10835 72.79277,-10.49483 106.83961,11.22702 -25.44401,-95.91849 1.5865,-188.66608 70.59554,-221.79394 45.4574,-21.84355 99.51765,-13.42297 148.09258,17.63391 C 960.9867,338.17989 955.00715,324.26879 948.47816,310.72346 899.1157,208.27703 819.30685,130.29704 724.966,82.642393 700.6206,198.57297 635.14981,304.43633 536.91171,378.20276 c -7.19987,-11.10492 -16.41293,-20.31798 -27.03076,-27.5189 2.01357,-10.00669 5.12537,-46.67708 -39.96561,-98.41902 -2.19659,-2.50171 -6.10164,-0.30508 -5.3084,2.80668 4.39319,17.02343 7.32198,47.65335 -14.39923,78.58918 -12.81351,0.61017 -25.62755,3.72203 -37.82954,9.51856 -11.71515,5.61351 -21.84356,13.42297 -30.14179,22.51523 -37.15918,-2.68472 -59.06392,-23.7349 -69.49821,-37.6473 -2.01357,-2.68473 -6.10164,-0.79321 -5.49154,2.31856 11.53214,63.70181 39.53864,85.60654 50.15518,91.70754 -1.22033,13.11837 0.18304,26.72488 4.39318,39.84325 -118.55477,30.44769 -241.80082,15.31561 -347.237225,-37.9519 -21.7225023,103.42269 -10.7999415,214.46545 38.562389,316.921 7.016858,15.0709 14.827483,29.47143 23.246771,43.32135 z"
     id="path182"
     style="stroke-width:1.30168" />
  <path
     d="M 903.86461,866.54799 C 852.79,818.88778 821.79766,755.36369 814.90317,688.35952 c -56.22832,21.42032 -106.2319,60.64662 -140.16883,115.87105 -4.95352,8.03262 -9.43836,16.2666 -13.52164,24.49914 29.98843,-15.79677 62.18603,-17.80601 87.42202,-2.40979 37.21708,22.95972 46.92334,77.11314 26.90963,129.86138 20.55065,-10.3086 43.17479,-11.11172 61.18214,0 31.19368,19.21117 36.683,66.8043 12.18273,106.566 24.49912,-39.5604 69.54891,-56.2283 100.60836,-36.8157 18.00593,11.1117 27.44514,31.7292 27.44514,54.6888 38.22238,-41.6354 90.96928,-57.2322 128.18778,-34.2724 24.4991,15.0613 37.0172,43.7103 37.0172,76.4433 5.1543,-6.8275 9.9068,-13.8562 14.3915,-21.2189 34.0712,-55.1573 46.7906,-117.41045 40.7658,-177.38877 -63.0558,23.96363 -134.1455,25.16887 -199.80877,0.53551 3.07907,-6.82766 4.81957,-14.05715 4.95347,-21.21897 5.2881,-2.07505 23.9637,-11.51341 35.1422,-49.53519 0.5355,-1.74047 -1.7405,-3.0791 -2.9453,-1.74047 -6.8277,7.36316 -20.5506,18.14015 -42.17086,17.3376 -4.28407,-6.02453 -9.57218,-11.11171 -16.2666,-15.26269 -6.35911,-3.94933 -13.18691,-6.35912 -20.08082,-7.56409 -10.10768,-18.67565 -6.82766,-35.61198 -3.28003,-45.04977 0.66938,-1.74048 -1.53954,-3.28002 -2.9453,-1.87428 -27.44513,25.50303 -28.98453,45.58529 -28.64895,52.41266 -6.62687,3.74855 -12.45064,8.36734 -17.40472,14.32447 z"
     id="path184"
     style="stroke-width:1.42802" />
</svg>
