<?xml version="1.0" encoding="UTF-8"?>
<svg width="1200pt" height="1200pt" version="1.1" viewBox="0 0 1200 1200" xmlns="http://www.w3.org/2000/svg">
 <path d="m295.22 426c-72 38.391-133.22 86.391-175.22 126l37.219 36v1.2188h1.2188s0 1.2188 1.2188 2.3906c1.2188 2.3906 2.3906 4.7812 3.6094 7.2188v2.3906c0 4.7812-2.3906 8.3906-6 12l-37.219 36c40.781 38.391 102 87.609 175.22 124.78 104.34-116.39 104.34-230.39-0.046875-348zm-36 133.22c-15.609 0-28.781-13.219-28.781-28.781 0-15.609 13.219-28.781 28.781-28.781 15.609 0 28.781 13.219 28.781 28.781s-13.219 28.781-28.781 28.781z"/>
 <path d="m992.39 620.39c-3.6094-2.3906-7.2188-3.6094-12-4.7812-1.2188 0-1.2188-1.2188-2.3906-1.2188-2.3906-1.2188-3.6094-2.3906-6-4.7812-1.2188-1.2188-2.3906-2.3906-2.3906-3.6094s-1.2188-1.2188-1.2188-2.3906v-4.7812c0-2.3906-1.2188-2.3906 0-4.7812 0-1.2188 1.2188-1.2188 1.2188-1.2188 1.2188-2.3906 2.3906-2.3906 3.6094-4.7812s2.3906-3.6094 4.7812-3.6094c1.2188 0 1.2188-1.2188 1.2188-1.2188 3.6094-1.2188 7.2188-2.3906 10.781-4.7812 46.781-24 75.609-70.781 88.781-96-27.609-4.7812-82.781-10.781-129.61 13.219-22.781 12-44.391 30-63.609 55.219 0 1.2188-1.2188 0-2.3906 1.2188 0 0 0 1.2188-1.2188 2.3906-1.2188 1.2188-2.3906 0-3.6094 1.2188-2.3906 1.2188-4.7812 2.3906-7.2188 2.3906-1.2188 0-2.3906-1.2188-3.6094-1.2188-2.3906 0-3.6094 0-6-1.2188-1.2188 0-1.2188-1.2188-1.2188-2.3906 0 0-1.2188 0-1.2188-1.2188-56.391-69.609-175.22-186-346.78-186-61.219 0-124.78 15.609-189.61 45.609 108 124.78 108 250.78 0 376.78 64.781 28.781 128.39 44.391 189.61 44.391 171.61 0 290.39-116.39 346.78-186 0 0 1.2188 0 2.3906-1.2188 0 0 0-1.2188 1.2188-2.3906 1.2188-1.2188 2.3906 0 3.6094-1.2188 2.3906-1.2188 4.7812-1.2188 7.2188-1.2188 1.2188 0 2.3906 1.2188 3.6094 1.2188 1.2188 1.2188 3.6094 0 4.7812 1.2188 1.2188 1.2188 1.2188 2.3906 1.2188 2.3906s1.2188 0 1.2188 1.2188c9.6094 13.219 31.219 39.609 63.609 55.219 46.781 24 102 18 129.61 13.219-10.781-24.047-38.344-70.875-85.172-94.875z"/>
</svg>
