<?xml version="1.0" encoding="UTF-8"?>
<svg width="1200pt" height="1200pt" version="1.1" viewBox="0 0 1200 1200" xmlns="http://www.w3.org/2000/svg">
 <path d="m990 94.801 180 315.6-201.6-0.003906-135.6-315.6zm-253.2 0 136.8 315.6-547.2-0.003906 136.8-315.6zm-525.6 0h156l-135.6 315.6h-201.6zm-181.2 379.2h199.2l242.4 496.8c1.1992 2.3984 0 6-2.3984 7.1992-2.3984 1.1992-4.8008 1.1992-7.1992-1.1992zm292.8 0h553.2l-270 627.6c-1.1992 2.3984-3.6016 3.6016-6 3.6016s-4.8008-1.1992-6-3.6016zm402 496.8 242.4-496.8h201.6l-432 502.8c-2.3984 2.3984-4.8008 2.3984-7.1992 1.1992-2.3984-1.1992-3.6016-4.8008-2.3984-7.1992z"/>
</svg>
