<?xml version="1.0" encoding="UTF-8"?>
<svg width="1200pt" height="1200pt" version="1.1" viewBox="0 0 1200 1200" xmlns="http://www.w3.org/2000/svg">
 <path d="m406.8 240s18 32.398 33.602 75.602c13.199 36 46.801 45.602 80.398 42 32.398-3.6016 68.398-58.801 114-105.6 4.8008-4.8008 7.1992-10.801 8.3984-16.801l2.3984-24s22.801 26.398 52.801 10.801c30-15.602 42-49.199 79.199-60 0 0 19.199-52.801 72-75.602 52.801-22.801 72-52.801 72-52.801s-93.602 19.199-135.6 19.199-154.8 26.398-158.4 45.602c0 0-7.1992-15.602 49.199-42 0 0-75.602-33.602-128.4-30 0 0-49.199-7.1992-79.199 7.1992-30 14.402-54 50.402-54 50.402s-32.398 50.398-32.398 84 24 72 24 72zm255.6-66c2.3984-2.3984 6-6 9.6016-8.3984 9.6016-9.6016-18-42 43.199-58.801 60-18 92.398-22.801 92.398-22.801s-30 22.801-50.398 52.801c-3.6016 6-16.801 9.6016-24 12-19.199 7.1992-30 15.602-37.199 32.398-4.8008 10.801-19.199 8.3984-28.801 4.8008-7.1992-1.1992-9.5977-8.3984-4.8008-12zm-133.2 36 68.398-15.602s-3.6016 33.602-37.199 37.199c-34.797 4.8008-31.199-21.598-31.199-21.598zm-78-4.8008s15.602 30-10.801 30c-26.398 0-26.398-42-26.398-42z"/>
 <path d="m246 104.4c37.199 22.801 56.398 72 56.398 72 26.398 7.1992 33.602 37.199 63.602 60 30 22.801 26.398 15.602 26.398 15.602s-19.199-19.199-26.398-63.602c-7.1992-3.6016-18-12-36-27.602 0 0-9.6016-19.199-49.199-63.602 0 0 14.398 6 57.602 30 13.199 7.1992 27.602 1.1992 36-2.3984 9.6016-24 20.398-43.199 20.398-43.199s-52.801 6-72 0c-45.602-15.602-135.6-45.602-135.6-45.602 0 0.003906 20.402 46.805 58.801 68.402z"/>
 <path d="m709.2 808.8c22.801-45.602 62.398-27.602 62.398-27.602l-32.398-92.398s-52.801 45.602-138 37.199c-72-6-130.8-32.398-130.8-32.398l-55.199 57.602s56.398 39.602 68.398 55.199c30 43.199 62.398 92.398 62.398 92.398l22.801-52.801s22.801 9.6016 22.801 18 15.602 34.801 15.602 34.801l12-55.199 32.398 87.602v-50.398s0-27.602 15.602-18l18 4.8008c-1.1992 2.3945 14.402-39.605 24-58.805z"/>
 <path d="m399.6 769.2s-43.199 57.602-57.602 73.199c-15.602 15.602-12 37.199-12 37.199s57.602 153.6 50.398 172.8c-7.1992 20.398-32.398 27.602-52.801 50.398 0 0-34.801 7.1992-34.801 22.801 0 15.602 18 9.6016 18 9.6016l27.602-12s-37.199 25.199-2.3984 25.199l30-20.398s-22.801 18-7.1992 30c15.602 12 39.602-12 48-18 7.1992-4.8008 57.602-20.398 48-57.602-9.6016-37.199 4.8008-73.199 4.8008-126 0-52.801-20.398-75.602-20.398-75.602s15.602 0 22.801 20.398l37.199-39.602c-1.2031 0.007812-26.402-55.195-99.602-92.395z"/>
 <path d="m867.6 1065.6s-20.398-108-43.199-130.8c-22.801-22.801-48-128.4-48-128.4s-27.602-12-48 7.1992c-20.398 20.398-30 75.602-30 75.602h-20.398l39.602 60s8.3984 14.398 13.199 32.398c3.6016 16.801 13.199 32.398 25.199 44.398 9.6016 9.6016 20.398 20.398 30 27.602 25.199 20.398 32.398 32.398 34.801 48 2.3984 15.602-2.3984 27.602-18 45.602-15.602 18-7.1992 22.801 18 22.801 25.199 0 37.199 4.8008 52.801 4.8008 15.602 0 50.398-9.6016 39.602-27.602-8.4062-16.805-45.605-81.602-45.605-81.602z"/>
 <path d="m1017.6 746.4c-7.1992-43.199-18-57.602-30-60-12-2.3984-37.199-39.602-37.199-39.602s0-62.398-34.801-120c-34.801-57.602-68.398-55.199-103.2-115.2-34.801-60-92.398-80.398-123.6-92.398-30-12-50.398-39.602-50.398-39.602l-20.402 20.402-15.602 18c-15.602 18-55.199 50.398-55.199 50.398-85.199 39.602-112.8-20.398-112.8-20.398l-22.801-45.602s-57.602 50.398-64.801 87.602c-7.1992 37.199 4.8008 133.2 4.8008 133.2-7.1992 20.398-90 80.398-90 80.398s-73.199 70.801-80.398 90c-7.1992 20.398 37.199 73.199 52.801 73.199s34.801-12 39.602-22.801c4.8008-9.6016-4.8008-32.398-4.8008-32.398 15.602-2.3984 22.801-50.398 22.801-50.398s70.801-30 90-43.199c43.199-27.602 43.199-70.801 43.199-70.801l-2.3984-45.602s-7.1992-37.199-9.6016-50.398c-2.3984-12-27.602-34.801-27.602-34.801s27.602-4.8008 37.199 22.801c9.6016 27.602 18 57.602 18 57.602s3.6016 9.6016 4.8008 32.398c7.1992-3.6016 20.398-9.6016 27.602-15.602 0 0-14.398 24-25.199 49.199v19.199c0 62.398 27.602 87.602 27.602 87.602l60 22.801c105.6 43.199 198-20.398 198-20.398l-22.801-78-32.398 78s-4.8008-22.801 7.1992-48 39.602-112.8 39.602-112.8c-0.003907 0-43.203-43.199-51.605-43.199-7.1992 0-39.602 15.602-39.602 15.602s32.398-48 45.602-32.398c13.199 15.602 117.6 80.398 117.6 80.398 45.602 80.398 85.199 100.8 85.199 108 0 7.1992 20.398 20.398-25.199 39.602-45.602 20.398-7.1992 68.398 2.3984 48 9.6016-20.398 39.602-18 48-7.1992 7.1992 9.6016-15.602 34.801-22.801 52.801-7.1992 18 0 32.398 9.6016 32.398s34.801-57.602 34.801-57.602-15.602 60 0 62.398c15.602 2.3984 30-70.801 30-70.801s2.3984 25.199-2.3984 39.602c-4.8008 15.602-4.8008 45.602 15.602 22.801 20.398-22.801 18-64.801 18-64.801 12 25.199 9.6016 48 9.6016 48-0.003907 0 25.195 4.8008 17.996-38.402z"/>
</svg>
