<?xml version="1.0" encoding="UTF-8"?>
<svg width="1200pt" height="1200pt" version="1.1" viewBox="0 0 1200 1200" xmlns="http://www.w3.org/2000/svg">
 <path d="m560.2 699.8c-65.398-65.602-173.8-60-178.4-59.602-10 0.60156-18 8.6016-18.602 18.801-0.39844 4.6016-6 112.8 59.398 178.4 49 49 121.8 58.199 157.4 59.398l0.003906 183.2c0 11.199 9 20 20 20s20-8.8008 20-20v-183.2c35.602-1.1992 108.4-10.398 157.4-59.398 65.398-65.602 59.801-173.8 59.602-178.4-0.60156-10.199-8.8008-18.199-18.801-18.801-4.6016-0.39844-113-6-178.4 59.602-7.6016 7.6016-14.199 15.602-19.801 24.199v-75.801c35.602-1.1992 108.4-10.398 157.4-59.398 65.398-65.602 59.801-173.8 59.602-178.4-0.60156-10.199-8.8008-18.199-18.801-18.801-4.6016-0.39844-113-6-178.4 59.602-7.6016 7.6016-14.199 15.602-19.801 24.199v-40.199c20-19.801 77.398-83.602 77.398-161.8 0-92.602-80.602-165.2-84-168.2-7.6016-6.8008-19-6.8008-26.602-0.19922-3.3984 3.1992-84 75.801-84 168.4 0 77.801 57 141.6 77.199 161.6v40.199c-5.6016-8.3984-12.199-16.398-19.801-24-65.398-65.602-173.8-60-178.4-59.602-10 0.60156-18 8.6016-18.602 18.801-0.39844 4.6016-6 112.8 59.398 178.4 49 49 121.8 58.199 157.4 59.398v75.602c-5.5938-8.4062-12.191-16.406-19.793-24.004z"/>
</svg>
