<?xml version="1.0" encoding="UTF-8"?>
<svg width="1200pt" height="1200pt" version="1.1" viewBox="0 0 1200 1200" xmlns="http://www.w3.org/2000/svg">
 <path d="m371.63 595.5v135.84c0 12.562-5.0156 24.844-13.734 33.656l-80.906 81.938c-4.5 4.5469-2.7188 9.9375-2.0625 11.531 0.89062 2.1094 3.0469 5.625 7.8281 5.625h515.29c5.0625 0 7.2188-3.8438 8.0156-6.0938 0.60938-1.6406 2.1562-7.4062-2.9062-11.625l-120.42-100.12c-10.875-9-17.062-22.406-17.062-36.75v-28.406c0-26.109 20.719-47.297 46.172-47.297h102.19c4.7812 0 8.6719-4.4062 8.6719-9.7969v-278.21c0-5.4375-3.8906-9.7969-8.6719-9.7969l-730.36-0.046876c-4.7812 0-8.6719 4.4062-8.6719 9.7969v55.031c0 4.7344 3.0938 8.7188 7.5469 9.75 151.13 34.312 249.1 124.6 275.53 151.5 8.7656 8.9062 13.594 20.812 13.594 33.516z"/>
 <path d="m860.26 590.53c152.68-38.016 246.28-129.42 263.63-153 0.84375-1.125 1.1719-2.0625 1.1719-3.2812v-76.406l-264.74 0.5625v232.13z"/>
</svg>
