<?xml version="1.0" encoding="UTF-8"?>
<svg width="1200pt" height="1200pt" version="1.1" viewBox="0 0 1200 1200" xmlns="http://www.w3.org/2000/svg">
 <path d="m1004.2 364.97c-16.125-30.938-35.344-59.906-57.281-86.344-117.66 12.375-222.75-59.156-244.5-153.75-68.156-16.406-136.59-16.406-204.75 0-21.844 94.969-127.31 166.12-244.5 153.75-21.938 26.438-41.156 55.406-57.281 86.344 205.03 116.25 221.44 382.88 29.156 518.44 30.656 45.281 67.875 84.281 110.72 115.97 95.531-30 206.25-1.2188 264.28 76.688 58.125-78 168.94-106.59 264.28-76.688 42.844-31.688 80.062-70.594 110.72-115.97-192.47-135.66-175.69-402.28 29.156-518.44z"/>
</svg>
