<?xml version="1.0" encoding="UTF-8"?>
<svg width="1200pt" height="1200pt" version="1.1" viewBox="0 0 1200 1200" xmlns="http://www.w3.org/2000/svg">
 <path d="m1061.7 724.24h-210.94c-27.867 0-50.508 22.664-50.508 50.508v84.234c0 27.844 22.641 50.508 50.508 50.508h210.94c27.844 0 50.508-22.664 50.508-50.508v-84.234c0-27.844-22.664-50.508-50.508-50.508zm7.7812 36.164c1.4062 0.75 2.6719 1.7109 3.75 2.8125-1.1016-1.1016-2.3672-2.0625-3.75-2.8125z"/>
 <path d="m494.55 475.76h210.94c27.867 0 50.531-22.664 50.531-50.508v-84.234c0-27.844-22.664-50.508-50.531-50.508h-210.94c-27.867 0-50.531 22.664-50.531 50.508v84.234c0 27.844 22.664 50.508 50.531 50.508z"/>
 <path d="m705.47 724.24h-210.94c-27.867 0-50.531 22.664-50.531 50.508v84.234c0 27.844 22.664 50.508 50.531 50.508h210.94c27.867 0 50.531-22.664 50.531-50.508v-84.234c0-27.844-22.664-50.508-50.531-50.508z"/>
 <path d="m622.15 557.88v84.234c0 27.844 22.641 50.508 50.508 50.508h210.94c27.867 0 50.531-22.664 50.531-50.508v-84.234c0-27.844-22.664-50.508-50.531-50.508h-210.94c-27.867 0-50.508 22.664-50.508 50.508z"/>
 <path d="m316.43 692.62h210.94c27.867 0 50.508-22.664 50.508-50.508v-84.234c0-27.844-22.641-50.508-50.508-50.508h-210.94c-27.867 0-50.531 22.664-50.531 50.508v84.234c0 27.844 22.688 50.508 50.531 50.508zm226.55-45.68c-0.46875 1.5234-1.1719 2.9766-2.0625 4.2891 0.89063-1.3125 1.5703-2.7422 2.0625-4.2891z"/>
 <path d="m349.24 724.24h-210.94c-27.867 0-50.508 22.664-50.508 50.508v84.234c0 27.844 22.641 50.508 50.508 50.508h210.94c27.867 0 50.508-22.664 50.508-50.508v-84.234c0.023438-27.844-22.641-50.508-50.508-50.508z"/>
</svg>
