<?xml version="1.0" encoding="UTF-8" standalone="no"?>
<svg
   width="1200pt"
   height="1200pt"
   version="1.1"
   viewBox="0 0 1200 1200"
   id="svg3971"
   sodipodi:docname="renowned-cavalry.svg"
   inkscape:version="1.2.2 (b0a8486541, 2022-12-01)"
   xmlns:inkscape="http://www.inkscape.org/namespaces/inkscape"
   xmlns:sodipodi="http://sodipodi.sourceforge.net/DTD/sodipodi-0.dtd"
   xmlns="http://www.w3.org/2000/svg"
   xmlns:svg="http://www.w3.org/2000/svg">
  <defs
     id="defs3975" />
  <sodipodi:namedview
     id="namedview3973"
     pagecolor="#ffffff"
     bordercolor="#666666"
     borderopacity="1.0"
     inkscape:showpageshadow="2"
     inkscape:pageopacity="0.0"
     inkscape:pagecheckerboard="0"
     inkscape:deskcolor="#d1d1d1"
     inkscape:document-units="pt"
     showgrid="false"
     inkscape:zoom="0.2703125"
     inkscape:cx="538.2659"
     inkscape:cy="1054.3353"
     inkscape:window-width="2560"
     inkscape:window-height="1011"
     inkscape:window-x="0"
     inkscape:window-y="32"
     inkscape:window-maximized="1"
     inkscape:current-layer="svg3971" />
  <path
     id="path3965"
     d="m 976.82321,122.62199 c 0,0 -67.07027,41.80404 -81.81249,85.94691 0,0 -187.96841,-48.23568 -371.76708,100.02471 l 75.42283,-5.88849 c 0,0 -9.64681,6.05536 -25.14097,16.78847 -36.50042,25.26586 -67.40476,56.21275 -92.13161,91.04451 -24.63953,34.70437 -33.74396,78.17862 -25.7256,119.94537 14.78408,77.17673 52.99575,152.30471 101.85967,207.09685 60.17955,67.48787 147.66282,136.06361 246.35995,193.18998 59.51137,34.41215 89.24446,85.3612 103.77553,132.8461 3.67509,-7.5591 45.43707,-100.39933 -40.34247,-253.66586 -89.07865,-159.15558 -51.49174,-237.70869 23.76413,-287.15526 0,0 79.93317,87.07476 153.0081,110.63628 0,0 21.2141,89.45825 103.6945,54.12399 82.4805,-35.33424 21.2147,-136.52632 9.3966,-164.7955 l 0.017,-0.0157 c -11.7771,-28.2317 -54.2081,-204.75332 -124.9175,-249.48688 V 146.17595 c 0,0 -53.41375,29.81846 -54.20757,58.84314 0,0 -19.62808,-25.89259 -1.25283,-82.3971 z m 38.22159,244.18182 c 13.9074,0 25.1827,11.27528 25.1827,25.18268 0,13.9074 -11.2753,25.1827 -25.1827,25.1827 -13.9064,0 -25.18398,-11.2753 -25.18398,-25.1827 0,-13.9074 11.27668,-25.18268 25.18398,-25.18268 z M 415.99145,522.72742 c 0,0 -101.52101,271.16286 162.12269,450.69398 0,0 232.47348,151.5923 294.00039,207.4218 0.0179,-0.1264 20.57905,-144.3367 -91.87457,-209.41725 C 592.27182,862.63459 401.87023,689.49152 415.99145,522.72742 Z m 456.12308,658.11578 c 0,10e-5 0,0.023 0,0.023 l 0.009,-0.017 c 0,0 -0.009,0 -0.009,-0.01 z M 386.79436,752.35375 c -4.9697,74.50394 12.65342,189.72437 141.06928,277.17805 0,0 181.79543,118.5646 229.90564,162.2023 0,0 0.0838,-0.6265 0.20874,-1.8376 4.17624,-38.2956 -13.23868,-75.7564 -44.97797,-97.6012 -74.00243,-50.9914 -146.46078,-98.30503 -147.75263,-99.14249 l -0.009,0.003 -0.3759,-0.25057 C 456.02677,918.81881 407.25659,829.36572 386.79195,752.35381 Z"
     style="stroke-width:0.89093" />
  <path
     d="m 341.62096,410.51477 c 6.23673,3.2794 13.52602,-2.01745 12.3358,-8.96148 L 330.87467,266.82913 428.719,171.45018 c 5.04614,-4.91816 2.26157,-13.48772 -4.71242,-14.50068 L 288.79785,137.37764 228.27102,14.738448 c -3.11831,-6.3179307 -12.12786,-6.3179307 -15.24628,0 L 152.44689,137.30962 17.289185,156.9495 c -6.973865,1.01288 -9.7585627,9.58252 -4.712418,14.50068 l 97.874143,95.37045 -23.108511,134.73266 c -1.190464,6.94407 6.099071,12.24097 12.335801,8.96148 l 121.02809,-63.62989 z"
     fill-rule="evenodd"
     id="path3500"
     style="stroke-width:0.425077" />
</svg>
