<?xml version="1.0" encoding="UTF-8" standalone="no"?>
<svg
   width="1200pt"
   height="1200pt"
   version="1.1"
   viewBox="0 0 1200 1200"
   id="svg1471"
   sodipodi:docname="renowned-infantry.svg"
   inkscape:version="1.2.2 (b0a8486541, 2022-12-01)"
   xmlns:inkscape="http://www.inkscape.org/namespaces/inkscape"
   xmlns:sodipodi="http://sodipodi.sourceforge.net/DTD/sodipodi-0.dtd"
   xmlns="http://www.w3.org/2000/svg"
   xmlns:svg="http://www.w3.org/2000/svg">
  <defs
     id="defs1475" />
  <sodipodi:namedview
     id="namedview1473"
     pagecolor="#ffffff"
     bordercolor="#666666"
     borderopacity="1.0"
     inkscape:showpageshadow="2"
     inkscape:pageopacity="0.0"
     inkscape:pagecheckerboard="0"
     inkscape:deskcolor="#d1d1d1"
     inkscape:document-units="pt"
     showgrid="false"
     inkscape:zoom="0.18539456"
     inkscape:cx="-606.81392"
     inkscape:cy="1359.2632"
     inkscape:window-width="2560"
     inkscape:window-height="1011"
     inkscape:window-x="0"
     inkscape:window-y="32"
     inkscape:window-maximized="1"
     inkscape:current-layer="svg1471" />
  <path
     id="path1463"
     d="M 233.98242 621.50098 C 233.4043 621.50488 232.82676 621.57129 232.26416 621.7002 C 229.99856 622.19238 228.15862 623.84133 227.42432 626.04053 L 216.00146 660.66064 C 214.74367 664.42234 214.54837 668.4577 215.43896 672.3208 C 216.32958 676.1841 218.26703 679.7268 221.04053 682.55859 L 319.54102 780.82178 C 284.14305 818.82174 191.61773 948.14143 132.27979 1025.8813 L 174.00293 1067.7612 C 251.78385 1008.4213 317.14312 950.00063 355.16309 914.68066 L 355.16016 914.68066 L 405.12305 874.68018 C 410.42774 874.68018 415.51319 876.78955 419.26318 880.53955 L 517.54395 978.84082 L 517.54102 978.84082 C 520.35351 981.64162 523.87684 983.61376 527.73193 984.54346 C 531.58743 985.47315 535.62202 985.32862 539.39941 984.12158 L 573.89941 972.62256 C 576.12991 971.88037 577.82128 970.04008 578.37598 967.75488 C 578.92676 965.46969 578.26708 963.05958 576.62256 961.37988 L 238.58057 623.38037 C 237.36577 622.16157 235.70512 621.48148 233.98242 621.50098 z " />
  <path
     d="m 207.72,1130.2 c 0.71875,-0.4219 1.1797,-1.168 1.2422,-2 0.125,-1.1719 -0.3125,-2.3398 -1.1797,-3.1367 l -132.86,-133.08 c -0.64453,-0.6836 -1.543,-1.0742 -2.4805,-1.0781 h -0.42188 c -0.9375,0.098 -1.7695,0.6406 -2.2383,1.457 -11.031,19.184 -15.375,41.488 -12.348,63.41 3.027,21.922 13.25,42.215 29.066,57.691 15.512,15.797 35.824,26.012 57.754,29.039 21.934,3.0312 44.254,-1.2969 63.465,-12.301 z"
     id="path1465" />
  <path
     d="m 480.398,838.658 662.82,-628 c 1.0898,-1.0781 1.7266,-2.5273 1.7812,-4.0586 v -145.8 c -0.043,-3.1875 -2.6133,-5.7578 -5.8008,-5.8008 h -145.8 c -1.5859,0.05078 -3.0898,0.72656 -4.1797,1.8789 l -627.78,662.8 z"
     id="path1469"
     sodipodi:nodetypes="ccccccccc" />
  <path
     d="m 341.62096,410.51477 c 6.23673,3.2794 13.52602,-2.01745 12.3358,-8.96148 L 330.87467,266.82913 428.719,171.45018 c 5.04614,-4.91816 2.26157,-13.48772 -4.71242,-14.50068 L 288.79785,137.37764 228.27102,14.738448 c -3.11831,-6.3179308 -12.12786,-6.3179308 -15.24628,0 L 152.44689,137.30962 17.289183,156.9495 c -6.97386,1.01288 -9.7585596,9.58252 -4.71242,14.50068 l 97.874147,95.37045 -23.108507,134.73266 c -1.19047,6.94407 6.09907,12.24097 12.3358,8.96148 L 220.70629,346.88488 Z"
     fill-rule="evenodd"
     id="path3500"
     style="stroke-width:0.425077" />
</svg>
