<?xml version="1.0" encoding="UTF-8" standalone="no"?>
<svg
   width="1200pt"
   height="1200pt"
   version="1.1"
   viewBox="0 0 1200 1200"
   id="svg4211"
   sodipodi:docname="renowned-militia.svg"
   inkscape:version="1.2.2 (b0a8486541, 2022-12-01)"
   xmlns:inkscape="http://www.inkscape.org/namespaces/inkscape"
   xmlns:sodipodi="http://sodipodi.sourceforge.net/DTD/sodipodi-0.dtd"
   xmlns="http://www.w3.org/2000/svg"
   xmlns:svg="http://www.w3.org/2000/svg">
  <defs
     id="defs4215" />
  <sodipodi:namedview
     id="namedview4213"
     pagecolor="#ffffff"
     bordercolor="#666666"
     borderopacity="1.0"
     inkscape:showpageshadow="2"
     inkscape:pageopacity="0.0"
     inkscape:pagecheckerboard="0"
     inkscape:deskcolor="#d1d1d1"
     inkscape:document-units="pt"
     showgrid="false"
     inkscape:zoom="0.43082197"
     inkscape:cx="1022.4641"
     inkscape:cy="851.85999"
     inkscape:window-width="2560"
     inkscape:window-height="1011"
     inkscape:window-x="0"
     inkscape:window-y="32"
     inkscape:window-maximized="1"
     inkscape:current-layer="svg4211" />
  <path
     d="m352.57 783.56-285.92 280.38c-29.137 29.352-28.945 76.754 0.44531 105.9 29.352 29.172 76.789 28.945 105.93-0.38281l286.14-281.64z"
     id="path4207" />
  <path
     d="m1154.4 385.31c-13.738-186.19-154.25-333.66-333.35-381.14l-148.23 22.332c175.91 19.43 318.09 151.92 325.66 322.73 8.8203 199.16-166.34 371.95-391.89 372.18-90.625 0.097656-157.69-32.676-157.69-32.676l-68.711 67.812 106.51 104.21 31.957-31.453c47.219 14.652 106.62 25.355 158.95 25.355 282.46 0.003906 495.2-220.14 476.8-469.34z"
     id="path4209" />
  <path
     d="m 341.62096,410.51477 c 6.23673,3.2794 13.52602,-2.01745 12.3358,-8.96148 L 330.87467,266.82913 428.719,171.45018 c 5.04614,-4.91816 2.26157,-13.48772 -4.71242,-14.50068 L 288.79785,137.37764 228.27102,14.738448 c -3.11831,-6.3179308 -12.12786,-6.3179308 -15.24628,0 L 152.44689,137.30962 17.289183,156.9495 c -6.97386,1.01288 -9.7585597,9.58252 -4.71242,14.50068 l 97.874147,95.37045 -23.108507,134.73266 c -1.19047,6.94407 6.09907,12.24097 12.3358,8.96148 L 220.70629,346.88488 Z"
     fill-rule="evenodd"
     id="path3500"
     style="stroke-width:0.425077" />
</svg>
