<?xml version="1.0" encoding="UTF-8" standalone="no"?>
<svg
   width="1200pt"
   height="1200pt"
   version="1.1"
   viewBox="0 0 1200 1200"
   id="svg4415"
   sodipodi:docname="renowned-archers.svg"
   inkscape:version="1.2.2 (b0a8486541, 2022-12-01)"
   xmlns:inkscape="http://www.inkscape.org/namespaces/inkscape"
   xmlns:sodipodi="http://sodipodi.sourceforge.net/DTD/sodipodi-0.dtd"
   xmlns="http://www.w3.org/2000/svg"
   xmlns:svg="http://www.w3.org/2000/svg">
  <defs
     id="defs4419" />
  <sodipodi:namedview
     id="namedview4417"
     pagecolor="#ffffff"
     bordercolor="#666666"
     borderopacity="1.0"
     inkscape:showpageshadow="2"
     inkscape:pageopacity="0.0"
     inkscape:pagecheckerboard="0"
     inkscape:deskcolor="#d1d1d1"
     inkscape:document-units="pt"
     showgrid="false"
     inkscape:zoom="0.3822796"
     inkscape:cx="48.393898"
     inkscape:cy="931.25554"
     inkscape:window-width="2560"
     inkscape:window-height="1011"
     inkscape:window-x="0"
     inkscape:window-y="32"
     inkscape:window-maximized="1"
     inkscape:current-layer="svg4415" />
  <path
     id="path4399"
     d="m 1189.6669,703.63458 c -0.9898,-0.98653 -2.1445,-1.86288 -3.4643,-2.59212 L 1039.3034,619.4696 c -13.1135,-7.27983 -27.842,6.43661 -21.5024,20.00772 l 15.7885,33.86771 c 12.1735,26.10662 12.1971,56.26294 0,82.39323 l -15.7891,33.86846 c -6.3155,13.54709 8.4134,27.26388 21.4781,20.03183 l 146.9,-81.57363 c 9.2595,-5.20977 10.4173,-17.52477 3.4884,-24.43034 z M 812.22635,389.4487 c -36.98662,-36.51737 -80.54478,-65.58935 -129.08591,-84.67872 -10.31743,-4.09815 -17.01821,-12.82389 -17.01784,-24.87631 -0.0241,-25.47974 -20.68354,-44.88532 -46.18725,-44.88552 -25.50391,0 -46.18561,21.93692 -46.18572,47.44072 0,47.6806 29.64991,90.20209 75.5954,108.2812 l -9.3e-4,-9.3e-4 c 106.49786,41.89525 182.21572,147.50491 199.01947,271.62731 l 92.80611,-7.3e-4 C 929.4991,556.01542 882.83715,459.16369 812.22635,389.4487 Z m 201.16865,296.04108 -755.59999,0.0256 c -12.48712,0 -22.63524,10.14811 -22.63521,22.63521 l -2e-5,12.77602 c -1e-5,12.48712 10.14811,22.63523 22.63523,22.63523 l 755.59929,-0.0249 c 7.9308,-18.58513 7.9558,-39.38855 7e-4,-58.04722 z M 559.54912,330.19846 380.75657,582.03122 c 17.69342,1.15707 34.8093,8.4859 47.36841,21.04501 2.16952,2.16953 3.85682,4.7246 5.71304,7.11119 L 595.05754,383.06295 c -1.25351,-1.15709 -2.72394,-2.00077 -3.88101,-3.15783 l -7.3e-4,-7.3e-4 c -14.34309,-14.34308 -24.78047,-31.38558 -31.62668,-49.70593 z m 381.54167,436.55381 -92.78277,-0.024 c -16.7801,124.09463 -92.5203,229.72307 -199.02024,271.62653 -45.92133,18.0549 -75.54228,60.549 -75.54792,108.2351 l -10e-6,2.5553 c -2e-5,25.5039 20.70686,44.9088 46.18647,44.933 25.50389,0 46.18555,-21.9838 46.1616,-47.4633 0,-11.4741 8.79869,-19.0677 17.01863,-22.3218 C 824.3397,1068.7314 923.32169,928.76964 941.08401,766.75906 Z M 412.67624,620.46849 c -9.42572,-9.97642 -22.63395,-15.75607 -36.63761,-15.77567 l -104.42505,-7.2e-4 c -9.8351,0 -15.7893,10.87182 -10.51008,19.1399 l 24.51624,38.49752 154.82851,0.0234 -21.88796,-34.32649 c -1.73559,-2.72995 -3.70888,-5.25565 -5.88405,-7.5579 z m 27.72078,146.25742 -154.75997,2e-5 -24.51623,38.49753 c -5.30335,8.2924 0.67528,19.1401 10.51009,19.13989 h 104.42581 c 17.25938,0 33.24068,-8.7984 42.52089,-23.33431 z m -6.68029,52.04869 c -12.92042,16.6327 -31.93989,26.82903 -53.07992,28.15465 L 559.6915,1099.1689 c 7.52098,-20.3455 19.54987,-38.4001 35.31482,-53.1531 z"
     style="stroke-width:0.727265" />
  <path
     d="m 341.62096,410.51477 c 6.23673,3.2794 13.52602,-2.01745 12.3358,-8.96148 L 330.87467,266.82913 428.719,171.45018 c 5.04614,-4.91816 2.26157,-13.48772 -4.71242,-14.50068 L 288.79785,137.37764 228.27102,14.738448 c -3.11831,-6.3179307 -12.12786,-6.3179307 -15.24628,0 L 152.44689,137.30962 17.289183,156.9495 c -6.97386,1.01288 -9.7585597,9.58252 -4.71242,14.50068 l 97.874147,95.37045 -23.108507,134.73266 c -1.19047,6.94407 6.09907,12.24097 12.3358,8.96148 L 220.70629,346.88488 Z"
     fill-rule="evenodd"
     id="path3500"
     style="stroke-width:0.425077" />
</svg>
