<?xml version="1.0" encoding="UTF-8" standalone="no"?>
<svg
   width="1200pt"
   height="1200pt"
   version="1.1"
   viewBox="0 0 1200 1200"
   id="svg10"
   sodipodi:docname="ruined-monument.svg"
   inkscape:version="1.2.2 (b0a8486541, 2022-12-01)"
   xmlns:inkscape="http://www.inkscape.org/namespaces/inkscape"
   xmlns:sodipodi="http://sodipodi.sourceforge.net/DTD/sodipodi-0.dtd"
   xmlns="http://www.w3.org/2000/svg"
   xmlns:svg="http://www.w3.org/2000/svg">
  <defs
     id="defs14" />
  <sodipodi:namedview
     id="namedview12"
     pagecolor="#ffffff"
     bordercolor="#666666"
     borderopacity="1.0"
     inkscape:showpageshadow="2"
     inkscape:pageopacity="0.0"
     inkscape:pagecheckerboard="0"
     inkscape:deskcolor="#d1d1d1"
     inkscape:document-units="pt"
     showgrid="false"
     inkscape:zoom="0.1767767"
     inkscape:cx="-2350.4229"
     inkscape:cy="865.4987"
     inkscape:window-width="2560"
     inkscape:window-height="1011"
     inkscape:window-x="0"
     inkscape:window-y="32"
     inkscape:window-maximized="1"
     inkscape:current-layer="svg10" />
  <path
     id="path2"
     d="M 600.04395 0.074707031 C 589.64197 0.074707031 579.7708 4.68406 573.09082 12.660645 L 477.86426 126.7998 L 599.99414 224.51074 L 722.12988 126.7998 L 626.99707 12.660645 C 620.31739 4.68406 610.44591 0.074707031 600.04395 0.074707031 z M 444.75 190.35938 L 355.68164 727.7417 L 382.77393 766.83545 L 436.12793 588.9375 L 504.73242 679.75781 L 564.83936 458.76123 L 564.83936 286.42969 L 444.75 190.35938 z M 755.25 190.35938 L 635.16064 286.42969 L 635.16064 631.98486 L 698.68506 396.68701 L 781.5835 560.81689 L 807.10547 503.2251 L 755.25 190.35938 z M 712.396 648.33398 L 635.7583 790.00781 L 635.16064 789.0249 L 635.16064 989.05957 L 887.62939 989.05957 L 842.61621 717.47754 L 786.62256 761.6748 L 712.396 648.33398 z M 564.83936 684.24609 L 504.36621 808.15283 L 445.97021 736.86328 L 399.1582 849.99902 L 342.65625 806.3291 L 312.37061 989.05957 L 564.83936 989.05957 L 564.83936 684.24609 z M 154.64941 1059.3867 C 142.21545 1059.3867 130.29439 1064.3242 121.50439 1073.1167 C 112.71141 1081.9058 107.77441 1093.8277 107.77441 1106.2617 L 107.77441 1129.7007 L 35.118164 1129.7007 C 22.55919 1129.7007 10.949839 1136.3987 4.6728516 1147.2773 C -1.608336 1158.1563 -1.608336 1171.5546 4.6728516 1182.4336 C 10.950139 1193.3126 22.56019 1200.0117 35.118164 1200.0117 L 1164.8174 1200.0117 C 1177.3764 1200.0117 1188.9857 1193.3124 1195.2627 1182.4336 C 1201.5439 1171.5546 1201.5439 1158.1563 1195.2627 1147.2773 C 1188.9854 1136.3985 1177.3754 1129.7007 1164.8174 1129.7007 L 1164.7998 1129.7007 L 1092.1436 1129.7007 L 1092.1436 1106.2617 C 1092.1436 1093.8277 1087.2061 1081.9067 1078.4136 1073.1167 C 1069.6245 1064.3237 1057.7024 1059.3867 1045.2686 1059.3867 L 154.64941 1059.3867 z " />
</svg>
