<?xml version="1.0" encoding="UTF-8" standalone="no"?>
<svg
   width="1200pt"
   height="1200pt"
   version="1.1"
   viewBox="0 0 1200 1200"
   id="svg1201"
   sodipodi:docname="ruined-castle.svg"
   inkscape:version="1.2.2 (b0a8486541, 2022-12-01)"
   xmlns:inkscape="http://www.inkscape.org/namespaces/inkscape"
   xmlns:sodipodi="http://sodipodi.sourceforge.net/DTD/sodipodi-0.dtd"
   xmlns="http://www.w3.org/2000/svg"
   xmlns:svg="http://www.w3.org/2000/svg">
  <defs
     id="defs1205" />
  <sodipodi:namedview
     id="namedview1203"
     pagecolor="#ffffff"
     bordercolor="#666666"
     borderopacity="1.0"
     inkscape:showpageshadow="2"
     inkscape:pageopacity="0.0"
     inkscape:pagecheckerboard="0"
     inkscape:deskcolor="#d1d1d1"
     inkscape:document-units="pt"
     showgrid="false"
     inkscape:zoom="0.096946036"
     inkscape:cx="-861.30391"
     inkscape:cy="2434.344"
     inkscape:window-width="2560"
     inkscape:window-height="1011"
     inkscape:window-x="0"
     inkscape:window-y="32"
     inkscape:window-maximized="1"
     inkscape:current-layer="svg1201" />
  <path
     id="path1199"
     style="stroke-width:1.13219"
     d="M 201.7207 99.183105 L 201.7207 285.91553 L 281.8418 379.69336 C 284.31402 382.16562 285.83496 385.54797 285.83496 389.30273 L 285.83496 650.92236 L 313.40332 606.58154 L 461.20459 650.43604 L 577.77832 424.89551 L 701.58398 517.69629 L 799.36377 348.30762 L 914.14746 422.86963 L 914.14746 389.30713 C 914.19616 386.1936 915.27033 383.04941 917.45068 380.49756 L 998.2793 285.91553 L 998.2793 99.183105 L 899.6543 99.183105 L 899.6543 162.11719 C 899.6543 169.60909 893.5555 175.70801 886.06348 175.70801 L 783.48926 175.70801 C 775.99735 175.70801 769.89844 169.60921 769.89844 162.11719 L 769.89844 99.183105 L 664.86914 99.183105 L 664.86914 162.11719 C 664.86914 169.60909 658.77035 175.70801 651.27832 175.70801 L 548.7041 175.70801 C 541.2122 175.70801 535.11328 169.60921 535.11328 162.11719 L 535.11328 99.183105 L 430.08398 99.183105 L 430.08398 162.11719 C 430.08398 169.60909 423.98522 175.70801 416.49316 175.70801 L 313.91895 175.70801 C 306.427 175.70801 300.32812 169.60921 300.32813 162.11719 L 300.32813 99.183105 L 201.7207 99.183105 z M 425.96631 458.26172 C 430.84231 458.47762 435.75196 459.25049 440.44629 460.62598 C 448.25446 462.9138 457.3827 469.40354 459.72363 474.32959 C 461.12137 477.27073 461.63634 494.66648 461.26172 526.31543 L 460.69922 573.88184 L 455.3877 579 C 451.44523 582.80001 447.47287 584.85412 439.96289 586.97461 C 427.54019 590.48225 418.51643 590.58878 407.35254 587.35693 C 402.65054 585.99577 396.1331 582.9795 392.86816 580.65527 L 386.93115 576.4292 L 386.39063 525.40137 C 385.87041 476.3469 385.99848 474.20879 389.70264 470.09473 C 397.01168 461.97687 411.33827 457.61403 425.96631 458.26172 z M 807.00439 589.7168 L 736.771 689.29834 L 588.04834 630.31934 L 474.104 741.74707 L 348.93311 708.69141 L 285.83496 781.15137 L 285.83496 1100.8066 L 467.34814 1100.8066 L 467.35254 1100.8169 L 467.35254 860.18115 C 467.35254 823.73828 482.29253 790.58544 506.29834 766.56152 C 530.3834 742.48895 563.5527 727.5498 599.99561 727.5498 C 636.48603 727.5498 669.68765 742.47281 693.71045 766.49561 C 717.71626 790.50138 732.65625 823.68939 732.65625 860.17529 L 732.65625 1100.811 L 914.14746 1100.811 L 914.14746 656.98682 L 807.00439 589.7168 z " />
  <path
     id="path3035"
     style="stroke-width:1.13219"
     d="M 600.96973 753.52295 C 571.97556 753.52295 545.57669 765.38146 526.46191 784.47803 C 507.36529 803.58831 495.5083 829.96949 495.5083 858.96826 L 495.5083 981.05859 L 503.38184 961.85449 L 552.69873 1009.4224 L 598.62158 907.0752 L 657.6709 959.32617 L 705.1582 842.62354 C 701.61168 820.1432 690.89193 799.94537 675.45996 784.50879 C 656.34968 765.39859 629.9685 753.52295 600.96973 753.52295 z M 706.4458 965.96338 L 657.35596 1033.1924 L 607.09277 992.17822 L 566.80225 1057.2671 L 508.43115 1027.1118 L 495.5083 1038.3047 L 495.5083 1099.604 L 706.4458 1099.604 L 706.4458 965.96338 z " />
</svg>
