<?xml version="1.0" encoding="UTF-8" standalone="no"?>
<svg
   width="1200pt"
   height="1200pt"
   version="1.1"
   viewBox="0 0 1200 1200"
   id="svg2425"
   sodipodi:docname="ruined-mage-tower.svg"
   inkscape:version="1.2.2 (b0a8486541, 2022-12-01)"
   xmlns:inkscape="http://www.inkscape.org/namespaces/inkscape"
   xmlns:sodipodi="http://sodipodi.sourceforge.net/DTD/sodipodi-0.dtd"
   xmlns="http://www.w3.org/2000/svg"
   xmlns:svg="http://www.w3.org/2000/svg">
  <defs
     id="defs2429" />
  <sodipodi:namedview
     id="namedview2427"
     pagecolor="#ffffff"
     bordercolor="#666666"
     borderopacity="1.0"
     inkscape:showpageshadow="2"
     inkscape:pageopacity="0.0"
     inkscape:pagecheckerboard="0"
     inkscape:deskcolor="#d1d1d1"
     inkscape:document-units="pt"
     showgrid="false"
     inkscape:zoom="0.088388348"
     inkscape:cx="-5130.7668"
     inkscape:cy="1312.3902"
     inkscape:window-width="2560"
     inkscape:window-height="1011"
     inkscape:window-x="0"
     inkscape:window-y="32"
     inkscape:window-maximized="1"
     inkscape:current-layer="svg2425" />
  <path
     id="path2415"
     d="M 600.01172 29.381836 L 552.15527 176.66016 L 597.54932 206.16064 L 635.30859 138.00879 L 600.01172 29.381836 z M 673.93945 256.8999 L 596.80371 334.48682 L 516.50684 286.36523 L 470.07129 429.271 L 574.23047 429.271 L 600 350.02002 L 701.02002 660.83936 L 784.17627 600.41748 L 785.30127 599.62061 L 673.93945 256.8999 z M -0.005859375 465.32959 L 103.81494 540.75146 L 195.36035 465.32959 L -0.005859375 465.32959 z M 203.29248 465.32959 L 184.17627 599.13135 L 340.1748 712.45898 L 372.37061 613.35938 L 304.91748 564.37646 L 631.77686 564.37646 L 599.99561 466.59521 L 599.57373 465.32959 L 203.29248 465.32959 z M 779.53564 465.32959 L 811.74023 564.37061 L 895.08398 564.37061 L 880.05469 575.29102 L 929.57373 661.79883 L 1200.0044 465.32959 L 779.53564 465.32959 z M 414.47021 600.43945 L 317.03174 900.28857 L 336.7793 1016.9546 L 492.01172 979.69189 L 569.35986 923.50049 L 485.07861 862.28027 L 417.60938 911.26025 L 518.62939 600.43945 L 414.47021 600.43945 z M 841.43262 680.13721 L 712.15137 697.29785 L 630.66357 756.50977 L 713.81982 816.93164 L 714.94482 817.72852 L 867.53906 706.86768 L 841.43262 680.13721 z M 517.92041 719.146 L 486.1875 816.92725 L 485.76563 818.19287 L 744.79395 1006.3784 L 771.17432 903.09961 L 517.92041 719.146 z M 840.88477 770.75244 L 756.60938 831.97998 L 779.75537 903.14355 L 894.55371 935.89893 L 840.88477 770.75244 z M 273.01025 1035.7529 L 229.18066 1170.6299 L 330.79395 1096.8105 L 301.47949 1099.27 L 273.01025 1035.7529 z M 834.35742 1036.2832 L 822.93604 1063.1499 L 970.8252 1170.5933 L 935.25586 1061.1431 L 834.35742 1036.2832 z " />
</svg>
