<?xml version="1.0" encoding="UTF-8" standalone="no"?>
<svg
   width="1200pt"
   height="1200pt"
   version="1.1"
   viewBox="0 0 1200 1200"
   id="svg1584"
   sodipodi:docname="ruined-portal.svg"
   inkscape:version="1.2.2 (b0a8486541, 2022-12-01)"
   xmlns:inkscape="http://www.inkscape.org/namespaces/inkscape"
   xmlns:sodipodi="http://sodipodi.sourceforge.net/DTD/sodipodi-0.dtd"
   xmlns="http://www.w3.org/2000/svg"
   xmlns:svg="http://www.w3.org/2000/svg">
  <defs
     id="defs1588" />
  <sodipodi:namedview
     id="namedview1586"
     pagecolor="#ffffff"
     bordercolor="#666666"
     borderopacity="1.0"
     inkscape:showpageshadow="2"
     inkscape:pageopacity="0.0"
     inkscape:pagecheckerboard="0"
     inkscape:deskcolor="#d1d1d1"
     inkscape:document-units="pt"
     showgrid="false"
     inkscape:zoom="0.25"
     inkscape:cx="116"
     inkscape:cy="964"
     inkscape:window-width="2560"
     inkscape:window-height="1011"
     inkscape:window-x="0"
     inkscape:window-y="32"
     inkscape:window-maximized="1"
     inkscape:current-layer="svg1584" />
  <path
     id="path1574"
     d="M 758.97363 77.293945 C 568.58076 76.70268 372.92106 177.93872 304.97461 358.36523 C 276.79265 357.1139 281.08052 258.24742 308.55469 227.14014 C 326.74565 186.44922 345.54932 158.93262 345.54932 158.93262 L 345.54932 158.92969 C 190.52431 288.88126 181.83157 476.88082 230.46826 659.67773 L 256.00342 677.76563 L 364.63037 499.96436 L 465.00146 565.19092 C 472.15551 549.2538 490.85394 536.41145 528.29736 527.72021 C 533.88733 523.22712 540.03724 518.82616 546.5127 514.55859 L 627.40723 368.55029 L 769.80762 543.07031 L 887.90332 328.33154 C 874.20593 321.82585 860.04191 315.99965 845.29248 311.1123 C 843.55181 307.4551 841.72236 303.63921 839.99854 300 C 815.99858 252.0001 959.9987 300.00002 1019.9985 312 C 860.02368 189.66625 648.40436 178.06224 466.13379 259.75195 C 471.94405 255.62592 477.82838 251.58734 483.89063 247.76953 L 483.8877 247.76367 C 483.8877 247.76367 511.50235 225.68112 560.19727 198.99316 C 707.99697 119.99732 887.99698 143.99707 1025.8667 221.58691 C 1090.1985 259.93841 1109.1094 260.58691 1109.1094 260.58691 L 939.40869 90.877441 C 939.40869 90.877441 920.49794 96.743896 841.8501 84.169922 C 814.61889 79.64868 786.85375 77.380527 758.97363 77.293945 z M 260.5957 90.874512 L 90.88623 260.59424 C 90.88623 260.59424 96.574283 279.2898 82.570313 356.16064 C 61.945511 453.52282 74.029359 554.8216 111.20801 645.5376 L 139.34912 595.12939 L 182.02295 625.35938 C 126.79046 476.31759 132.26986 310.66342 228.24463 164.83154 C 259.07317 110.01566 260.5957 90.874512 260.5957 90.874512 z M 927.10107 559.32861 L 771.07031 700.92627 L 740.88281 676.53662 C 702.81521 733.15611 609.79763 756.62799 527.99561 780 C 530.68768 755.77128 524.12526 731.58741 514.39307 708.16846 L 503.56348 719.0625 L 384.66943 647.80957 L 289.36377 760.88672 L 258.78369 749.28369 C 264.35408 764.62375 270.16741 779.87247 276.30762 794.94434 C 263.18854 777.81309 250.92377 760.13364 239.5752 741.99463 L 151.29346 708.49805 L 144.49658 712.82227 C 187.07591 785.31833 246.79687 847.23531 318.87158 889.33301 C 320.60238 892.85673 322.25164 896.50618 323.99854 900 C 347.99848 947.9999 215.99844 899.99996 167.99854 876 C 337.3856 1055.351 572.93779 1027.7885 785.39355 923.99414 C 605.60595 1053.685 382.18765 1120.3067 184.63477 994.7168 C 120.04889 955.57288 90.877441 939.38525 90.877441 939.38525 C 90.877441 939.38525 137.295 986.80766 183.0249 1031.1006 C 228.74382 1075.3934 260.57959 1109.1006 260.57959 1109.1006 L 260.58545 1109.0991 C 260.58545 1109.0991 306.48432 1120.2943 393.78516 1133.4463 C 595.99584 1172.8561 816.80028 1052.0473 895.86475 862.25391 C 901.26012 858.85811 906.66079 855.46954 911.99854 852 C 947.99846 828.00004 911.9985 960.0001 899.99854 1008 C 1014.9665 878.66106 1009.4117 732.16138 963.30762 586.46777 L 927.10107 559.32861 z M 1035.9873 640.94824 C 1073.9566 753.12693 1074.4142 874.30268 1006.5967 998.72021 C 969.9991 1067.4212 939.50937 1108.9791 939.44385 1109.0684 C 939.48361 1109.0303 1002.2025 1048.9361 1041.3311 1006.4106 C 1080.4749 963.87178 1109.1196 939.37939 1109.1196 939.37939 C 1109.1196 939.37939 1120.4474 890.85953 1131.0454 802.94971 C 1135.8101 754.05624 1133.2208 703.87911 1123.7915 654.95068 L 1078.2231 672.60791 L 1035.9873 640.94824 z M 939.44385 1109.0684 L 939.42041 1109.0903 L 939.42041 1109.1006 L 939.44385 1109.0684 z " />
</svg>
