<?xml version="1.0" encoding="UTF-8"?>
<svg width="1200pt" height="1200pt" version="1.1" viewBox="0 0 1200 1200" xmlns="http://www.w3.org/2000/svg">
 <path d="m808.89 728.89c17.777 35.555 88.891 53.332 124.45 53.332 35.555 0 106.67-35.555 106.67-106.67 0-71.109-53.332-88.891-71.109-106.67-17.777-17.777-213.33-53.332-266.67-53.332 35.555-17.777 71.109-17.777 106.67-17.777 35.555 0 124.45 35.555 160 17.777 35.555-17.777 97.777-44.445 97.777-115.55s-53.332-124.45-88.891-124.45c-35.555 0-71.109 53.332-71.109 53.332s35.555-35.555 71.109-35.555 53.332 53.332 53.332 88.891c0 35.555-16 77.867-71.109 88.891-44.445 8.8906-71.109 0-71.109 0s-115.55-44.445-195.55 0c71.109-53.332 17.777-266.67 17.777-266.67l53.332-53.332c17.777-17.777-160-142.22-160-142.22h-8.8906s-177.78 124.45-160 142.22l53.332 53.332s-53.332 213.33 17.777 266.67c-80-44.445-195.55 0-195.55 0s-26.668 8.8906-71.109 0c-55.109-11.023-71.109-53.332-71.109-88.891 0-35.555 17.777-88.891 53.332-88.891 35.555 0 71.109 35.555 71.109 35.555s-35.555-53.332-71.109-53.332c-35.555 0-88.891 53.332-88.891 124.45-0.003907 71.109 62.219 97.777 97.773 115.55 35.555 17.777 124.45-17.777 160-17.777s71.109 0 106.67 17.777c-53.332 0-248.89 35.555-266.67 53.332-17.777 17.777-71.109 35.555-71.109 106.67 0 71.109 71.109 106.67 106.67 106.67 35.555 0 106.67-17.777 124.45-53.332 17.777-35.555-71.109-88.891-71.109-88.891s53.332 71.109 35.555 88.891c-17.777 17.777-53.332 17.777-88.891 17.777-35.555 0-71.109-35.555-71.109-71.109 0-35.555 53.332-71.109 88.891-88.891 35.555-17.777 213.33-35.555 213.33-35.555s-71.109 106.67-71.109 195.55c0 88.891-17.777 177.78-35.555 213.33-17.777 35.555-71.109 88.891-106.67 88.891-35.555 0-124.45-17.777-124.45-35.555 0 53.332 88.891 88.891 195.55 53.332 88.891-53.332 106.67-231.11 106.67-231.11s8.8906-231.11 62.223-248.89c0 124.45 62.223 248.89 62.223 248.89s-71.109 142.22-71.109 213.33 53.332 142.22 53.332 142.22-35.555-71.109-17.777-142.22c16.355-65.246 32.535-130.13 48.891-140.62 16.355 10.488 32.535 75.379 48.891 140.62 17.777 71.109-17.777 142.22-17.777 142.22s53.332-71.109 53.332-142.22c0-71.109-71.109-213.33-71.109-213.33s53.332-124.45 53.332-248.89c53.332 17.777 71.109 248.89 71.109 248.89s17.777 177.78 106.67 231.11c106.67 35.555 195.55 0 195.55-53.332 0 17.777-88.891 35.555-124.45 35.555s-88.891-53.332-106.67-88.891c-17.777-35.555-35.555-124.45-35.555-213.33 0-88.891-71.109-195.55-71.109-195.55s177.78 17.777 213.33 35.555c35.555 17.777 88.891 53.332 88.891 88.891 0 35.555-35.555 71.109-71.109 71.109s-71.109 0-88.891-17.777c-17.777-17.777 35.555-88.891 35.555-88.891-0.007812 0-88.898 53.332-71.117 88.891zm-213.51 17.777s-35.379-124.45-35.379-160h1.6016 69.512c-0.003906 35.555-35.734 160-35.734 160z"/>
 <path d="m568.89 1200c-2.668 0-5.332-1.2461-7.1094-3.5547-2.3125-3.0234-55.109-74.312-55.109-147.55 0-66.488 58.312-189.33 70.043-213.33-10.312-21.512-56.18-123.55-60.801-231.46-27.199 34.668-41.957 154.84-44.801 231.82-0.71094 8-19.379 183.46-110.93 238.4-0.53516 0.35547-1.0664 0.53516-1.7773 0.89062-68.09 22.754-137.96 18.668-177.96-10.133-18.844-13.691-29.336-32.004-29.336-51.738 0-4.9766 3.9102-8.8906 8.8906-8.8906 4.9766 0 8.8906 3.9102 8.8906 8.8906 5.8672 9.4219 77.332 26.668 115.55 26.668 31.289 0 82.133-50.844 98.668-83.91 17.066-33.957 34.668-121.6 34.668-209.42 0-71.109 43.023-151.46 62.754-184.89-57.777 6.2227-167.11 20.266-192.18 32.711-38.754 19.555-83.91 52.266-83.91 81.066 0 30.754 31.465 62.223 62.223 62.223 33.066 0 67.379 0 82.668-15.109 6.3984-6.3984-11.379-43.91-36.445-77.332-2.4883-3.3789-2.3125-8.1797 0.53516-11.199 2.8438-3.1992 7.4648-3.9102 11.199-1.6016 9.7773 5.8672 95.289 58.844 74.488 100.45-20.445 40.531-97.602 58.129-132.45 58.129-40.355 0-115.55-39.645-115.55-115.55 0-60.445 35.734-85.332 59.379-101.87 5.8672-4.0898 11.023-7.8203 14.398-11.023 17.066-17.066 150.93-42.844 228.62-52.266-20.445-3.7305-41.066-3.7305-62.402-3.7305-11.734 0-31.465 4.6211-52.266 9.4219-40.355 9.4219-86.043 20.09-111.64 7.2891l-5.8672-3.0234c-36.266-17.602-96.887-47.465-96.887-120.36 0-77.332 58.488-133.33 97.777-133.33 39.82 0 76.977 54.934 78.578 57.246 2.4883 3.7344 1.7773 8.8906-1.7773 11.734-3.5547 2.8438-8.7109 2.668-11.91-0.53516-0.35938-0.17969-33.426-32.891-64.891-32.891-27.555 0-44.445 46.578-44.445 80 0 25.246 8.3555 68.977 64 80.18 41.246 8.1797 66.312 0.35547 66.668 0.35547 3.9102-1.6016 92.621-35.023 170.13-12.621-36.445-71.82-6.2227-213.87 0.53516-242.84l-49.777-49.777c-2.8438-2.8438-4.0898-6.7539-3.7344-10.844 2.4883-28.977 126.93-118.22 164.98-144.89 1.4219-1.2461 3.1992-1.7812 4.9766-1.7812h8.8906c1.7773 0 3.5547 0.53516 5.1562 1.6016 38.043 26.668 162.49 115.91 164.98 144.89 0.35547 4.2656-0.89062 8.1797-3.7344 10.844l-49.777 49.777c6.7539 28.977 37.156 170.84 0.53516 242.84 77.512-22.398 166.4 11.199 170.67 12.801 0 0 25.066 7.8203 66.133-0.35547 57.777-11.555 64-59.91 64-80.18 0-33.422-16.891-80-44.445-80-31.465 0-64.535 32.711-64.891 32.891-3.1992 3.1992-8.3555 3.5547-11.91 0.53516-3.5547-2.8438-4.2656-8-1.7773-11.734 1.4219-2.3125 38.578-57.246 78.398-57.246 39.289 0 97.777 56 97.777 133.33 0 72.891-60.621 102.75-96.711 120.54l-5.8672 3.0234c-25.602 12.801-71.289 2.1328-111.64-7.2891-20.801-4.8008-40.535-9.4219-52.266-9.4219-21.332 0-41.957 0-62.398 3.7344 77.688 9.4219 211.55 35.199 228.62 52.266 3.1992 3.1992 8.3555 6.9336 14.398 11.023 23.469 16.352 59.203 41.238 59.203 101.68 0 75.91-75.199 115.55-115.55 115.55-34.844 0-112-17.602-132.45-58.312-20.801-41.777 64.711-94.578 74.488-100.45 3.5547-2.1328 8.3555-1.4219 11.199 1.6016 2.8438 3.1992 3.0234 7.8203 0.53516 11.199-25.066 33.422-42.668 70.934-36.445 77.332 15.109 15.109 49.422 15.109 82.668 15.109 30.754 0 62.223-31.465 62.223-62.223 0-28.801-45.156-61.512-83.91-80.891-25.066-12.445-134.4-26.488-192.18-32.711 19.73 33.43 62.754 113.79 62.754 184.9 0 87.645 17.602 175.29 34.668 209.42 16.535 33.246 67.379 83.91 98.668 83.91 37.867 0 108.27-16.891 115.55-27.555 0-0.53516 0.17969-1.0664 0.17969-1.4219 0.53516-4.2656 4.2656-7.1094 8.7109-7.1094 4.9766 0 8.7109 4.6211 8.7109 9.4219 0 19.734-10.488 38.043-29.332 51.734-40 28.801-109.87 32.711-177.96 10.133-0.53516-0.17969-1.2461-0.53516-1.7773-0.89062-91.734-54.934-110.22-230.4-110.93-237.87-6.043-77.332-25.246-198.22-53.688-232.71-3.9102 108.09-43.555 210.31-52.09 231.46 11.551 23.289 70.395 146.84 70.395 213.69 0 73.246-52.801 144.54-55.109 147.55-2.8438 3.7344-7.8203 4.6211-11.734 2.3125-3.9102-2.4883-5.332-7.4648-3.1992-11.555 0.35547-0.71094 33.777-69.156 17.066-136.18-11.91-47.289-27.555-110.22-40.18-129.96-12.801 19.734-28.445 82.488-40.355 129.96-16.711 67.199 16.711 135.46 17.066 136.18 2.1328 4.0898 0.71094 9.0664-3.1992 11.555-1.5977 0.88672-3.1992 1.2422-4.7969 1.2422zm31.109-300.62c1.6016 0 3.3789 0.53516 4.8008 1.4219 17.957 11.555 32 62.754 52.801 145.96 6.043 24.355 6.2227 48.535 3.7344 70.043 8.1797-20.801 14.223-44.445 14.223-67.91 0-68.266-69.512-208-70.223-209.42-1.2461-2.3125-1.2461-5.1562-0.17969-7.4648 0.53125-1.25 52.621-124.27 52.621-245.34 0-2.8438 1.4219-5.5117 3.7344-7.2891 2.3125-1.6016 5.332-2.1328 8-1.2461 57.242 19.199 75.199 232.54 77.156 256.71 0.17969 1.6016 18.312 172.62 101.51 223.64 75.91 25.066 134.04 11.379 160.89-8 4.6211-3.3789 9.7773-7.8203 13.867-13.512-34.844 14.398-94.223 20.621-107.38 20.621-40.711 0-96-56.535-114.67-93.867-17.602-35.195-36.445-123.38-36.445-217.06 0-85.156-68.977-189.51-69.688-190.58-1.957-2.8438-1.957-6.5781-0.17969-9.6016 1.7773-3.0234 5.1562-4.6211 8.5352-4.2656 7.2891 0.71094 179.91 18.133 216.36 36.445 22.043 11.02 93.863 50.488 93.863 96.887 0 40.355-39.645 80-80 80-36.801 0-74.844 0-95.109-20.445-12.266-12.266-4.2656-36.801 8.1797-59.734-19.734 17.066-35.91 36.621-29.512 49.422 14.754 29.512 78.934 48.355 116.45 48.355 27.91 0 97.777-29.156 97.777-97.777 0-51.199-29.867-72.18-51.734-87.289-6.5781-4.6211-12.445-8.7109-16.711-12.977-14.578-14.223-201.96-50.668-260.45-50.668-4.0898 0-7.6445-2.8438-8.7109-6.9336-0.89062-4.0898 1.0664-8.1797 4.6211-9.957 37.512-18.668 74.668-18.668 110.58-18.668 13.867 0 33.602 4.6211 56.355 9.957 35.555 8.3555 79.82 18.668 99.734 8.7109l6.043-3.0234c34.668-17.066 86.934-42.844 86.934-104.71 0-47.109-24.711-85.688-50.312-104.18 22.043 19.023 32.535 57.602 32.535 86.398 0 51.379-29.332 87.82-78.223 97.602-46.223 9.2461-74.488 0.17969-75.734-0.35547-1.4219-0.53516-113.07-42.488-188.45-0.71094-4.0898 2.3125-9.2461 1.0664-11.734-3.0234-2.4883-3.9102-1.6016-9.0664 2.1328-11.91 54.398-40.891 28.977-199.64 14.398-257.42-0.71094-3.0234 0.17969-6.2227 2.3125-8.3555l51.555-51.555c-6.75-17.059-83.551-78.75-154.66-128.53h-3.1992c-70.934 49.777-147.91 111.46-154.67 128.89l51.555 51.555c2.1328 2.1328 3.0234 5.332 2.3125 8.3555-14.398 57.777-40 216.54 14.398 257.42 3.7344 2.8438 4.6211 8 2.1328 11.91-2.4883 3.9102-7.6445 5.1562-11.734 3.0234-75.379-41.777-187.02 0.17969-188.09 0.53516-1.5977 0.53125-29.688 9.5977-76.086 0.35156-48.891-9.7773-78.223-46.219-78.223-97.598 0-28.621 10.488-67.379 32.535-86.398-25.602 18.488-50.312 57.066-50.312 104.18 0 61.688 52.266 87.645 86.934 104.71l6.043 3.0234c19.91 9.957 64.18-0.35547 99.734-8.7109 22.754-5.332 42.488-9.957 56.355-9.957 35.91 0 73.246 0 110.58 18.668 3.7344 1.7773 5.6875 6.043 4.6211 9.957-1.0664 3.9102-4.6211 6.7539-8.7109 6.7539-58.312 0-245.69 36.445-260.45 50.668-4.4453 4.4453-10.133 8.3555-16.711 12.977-21.867 15.289-51.73 36.266-51.73 87.465 0 68.621 69.867 97.777 97.777 97.777 37.688 0 101.69-18.844 116.45-48.355 6.3984-12.801-9.7773-32.355-29.512-49.422 12.266 22.934 20.445 47.465 8.1797 59.734-20.27 20.266-58.316 20.266-95.113 20.266-40.355 0-80-39.645-80-80 0-46.398 71.82-85.867 93.867-96.891 36.621-18.312 209.07-35.734 216.36-36.445 3.3789-0.35547 6.7539 1.2461 8.5352 4.2656 1.7773 3.0234 1.7773 6.5781-0.17969 9.6016-0.71094 1.0703-69.691 105.43-69.691 190.58 0 93.688-18.844 181.87-36.445 217.25-18.664 37.332-73.953 93.863-114.66 93.863-13.156 0-72.535-6.2227-107.38-20.621 4.0898 5.6875 9.2461 10.133 13.867 13.512 26.844 19.379 84.977 32.891 160.89 8 83.379-51.023 101.33-222.22 101.51-223.82 1.4219-39.109 11.91-237.69 68.266-256.36 2.668-0.89063 5.6875-0.53516 8 1.2461 2.3086 1.418 3.7305 4.082 3.7305 6.9297 0 120.89 60.621 243.73 61.332 244.98 1.2461 2.4883 1.2461 5.5117 0 8-0.70703 1.2461-70.219 140.98-70.219 209.25 0 23.465 6.2227 47.109 14.223 67.91-2.4883-21.512-2.3125-45.688 3.7344-70.043 20.801-83.199 34.668-134.4 52.801-145.96 1.418-0.89062 3.1953-1.4219 4.7969-1.4219zm377.78-614.93m-382.4 471.11c-3.9102 0-7.4648-2.668-8.5352-6.3984-1.4219-5.1562-35.734-126.22-35.555-162.49 0-4.9766 3.9102-8.8906 8.8906-8.8906h9.0664 6.5781 55.465c2.3125 0 4.6211 0.89062 6.2227 2.668 1.6016 1.6016 2.668 3.9102 2.668 6.2227 0 36.445-34.668 157.33-36.09 162.31-1.2461 3.9102-4.625 6.5742-8.7109 6.5742zm-25.777-160c2.8438 27.91 16.711 82.844 25.957 117.51 9.4219-34.668 23.289-89.602 26.312-117.51z"/>
</svg>
