<?xml version="1.0" encoding="UTF-8"?>
<svg width="1200pt" height="1200pt" version="1.1" viewBox="0 0 1200 1200" xmlns="http://www.w3.org/2000/svg">
 <path d="m51.562 932.81h159.37v84.375h-159.37zm300 84.375h496.87v-84.375h-496.87zm637.5 0h159.37v-84.375h-159.37zm0-112.5h159.37v-103.12h-159.37zm0-131.26h159.37v-84.375h-159.37zm0-112.5h159.37v-103.12h-159.37zm-112.5 356.26h84.375v-459.37h-84.375zm-525-112.5h496.87v-103.12h-496.87zm0-131.26h496.87v-84.375h-496.87zm-300 0h159.37v-84.375h-159.37zm0 131.26h159.37v-103.12h-159.37zm0-243.74h159.37v-103.12h-159.37zm187.5 356.26h84.375v-459.37h-84.375zm409.69-457.31c-0.9375 2.625-2.0625 5.25-3.375 7.875-0.5625 0.9375-1.125 2.0625-1.6875 3.1875-2.0625 3.1875-4.5 6.375-7.3125 9.1875l-0.1875 0.1875c-9.375 9.5625-22.312 15-36.188 15-3.375 0-6.5625-0.375-9.5625-0.9375-1.125-0.1875-2.0625-0.5625-3-0.75-2.0625-0.5625-4.125-1.125-6.1875-1.875-0.9375-0.5625-2.0625-0.9375-3-1.5-1.875-0.75-3.5625-1.6875-5.25-2.8125-0.9375-0.5625-1.875-1.125-2.8125-1.875-1.875-1.125-3.375-2.625-4.875-3.9375-0.75-0.75-1.5-1.3125-2.25-1.875-2.0625-2.25-3.9375-4.5-5.625-7.125-0.375-0.375-0.375-0.5625-0.75-0.9375-1.3125-2.25-2.625-4.6875-3.75-7.125l-1.125-2.8125c-0.375-1.3125-1.125-2.625-1.5-3.9375h-198.74v103.12h496.87v-103.12h-198.74c-0.1875 0.75-0.75 1.3125-0.9375 2.0625zm-100.31-62.438c-3.5625-3.75-6.5625-8.0625-9.1875-12.375-0.75-1.5-1.3125-3-2.0625-4.5-1.5-3-3-6.1875-3.9375-9.375-0.5625-1.875-0.9375-3.75-1.5-5.625-0.5625-3-1.125-6-1.5-9.1875-0.1875-2.0625-0.1875-4.125-0.1875-6.1875 0-1.6875-0.375-3.1875-0.1875-4.875h-478.31v84.375h496.87zm51.562 69.75c6.1875 0 12-2.4375 16.312-6.75 4.6875-4.5 7.125-10.5 7.125-16.688v-52.125c0-3.9375 1.6875-7.875 4.6875-10.5 9-8.0625 14.062-19.312 14.062-31.125 0-4.875-0.75-9.5625-2.4375-14.062-1.3125-3.9375-3.375-7.5-5.8125-10.688-0.1875-0.375-0.5625-0.9375-0.9375-1.3125-2.25-3-5.0625-5.4375-8.0625-7.6875-0.5625-0.375-1.125-0.75-1.6875-1.3125-3-1.875-6.375-3.5625-9.9375-4.6875-0.5625-0.375-1.125-0.375-1.875-0.5625-3.5625-1.125-7.5-1.875-11.438-1.875-2.625 0-5.0625 0.1875-7.6875 0.75-14.25 2.4375-26.812 13.125-32.062 27.375-0.75 2.0625-1.3125 4.5-1.6875 6.75-2.625 14.438 2.25 28.5 13.312 38.438 3 2.8125 4.6875 6.5625 4.6875 10.5v52.125c0 12.938 10.5 23.438 23.438 23.438zm70.312-117.19c0 17.812-6.5625 34.5-18.75 47.438v32.25h496.87v-84.375h-478.31c0.1875 1.5 0.1875 3.1875 0.1875 4.6875zm304.69-267.19h-84.938c1.3125 0.75 2.25 1.6875 3.5625 2.4375 4.875 3 9.5625 6.1875 14.25 9.5625l5.0625 3.9375c6.1875 4.875 12 9.9375 17.438 15.375 0.375 0.5625 0.75 1.125 1.3125 1.5 4.875 5.0625 9.5625 10.5 13.875 15.938 1.5 1.875 2.8125 3.75 4.125 5.625 3.375 4.5 6.75 9.375 9.75 14.25 1.125 1.875 2.25 3.75 3.375 5.8125 3.9375 6.75 7.5 13.688 10.5 20.812 0.1875 0.375 0.1875 0.75 0.375 1.125 2.8125 6.9375 5.25 13.875 7.3125 21.188 0.75 2.25 1.3125 4.6875 1.875 6.9375 1.3125 5.625 2.4375 11.438 3.375 17.25 0.375 2.4375 0.9375 4.6875 1.125 7.125 0.9375 8.0625 1.6875 16.312 1.6875 24.562v60.938h159.37v-60.938c0-95.625-77.812-173.44-173.44-173.44zm-179.63 12 5.0625 3.9375c6.1875 4.875 12 9.9375 17.438 15.375 0.375 0.5625 0.75 1.125 1.3125 1.5 4.875 5.0625 9.5625 10.5 13.875 15.938 1.5 1.875 2.8125 3.75 4.125 5.625 3.375 4.5 6.75 9.375 9.75 14.25 1.125 1.875 2.25 3.75 3.375 5.8125 3.9375 6.75 7.5 13.688 10.5 20.812 0.1875 0.375 0.1875 0.75 0.375 1.125 2.8125 6.9375 5.25 13.875 7.3125 21.188 0.75 2.25 1.3125 4.6875 1.875 6.9375 1.3125 5.625 2.4375 11.438 3.375 17.25 0.375 2.4375 0.9375 4.6875 1.125 7.125 0.9375 8.0625 1.6875 16.312 1.6875 24.562v60.938h84.375v-60.938c0-95.625-77.812-173.44-173.44-173.44h-9.9375c1.3125 0.75 2.25 1.6875 3.5625 2.4375 4.875 3 9.5625 6.1875 14.25 9.5625zm-443.81 161.44v60.938h186.37c0.1875-0.5625 0.5625-0.9375 0.9375-1.5 2.0625-3.5625 4.5-6.9375 7.125-10.125 0.5625-0.75 0.9375-1.5 1.6875-2.0625 3-3.375 6.375-6.375 9.75-9.1875 0.9375-0.5625 1.6875-1.125 2.4375-1.6875 3.75-2.625 7.6875-5.0625 11.812-6.75 0.5625-0.375 1.3125-0.5625 2.0625-0.9375 4.5-1.875 9-3.375 13.688-4.125 4.125-0.75 8.0625-0.9375 12-0.9375 1.6875 0 3.1875 0.1875 4.6875 0.1875 2.4375 0.1875 4.875 0.375 7.125 0.75 1.6875 0.1875 3.375 0.75 4.875 1.125 2.25 0.375 4.5 0.9375 6.5625 1.6875 1.5 0.5625 3 1.125 4.6875 1.875 2.0625 0.75 3.9375 1.6875 6 2.8125 1.3125 0.75 2.8125 1.6875 4.125 2.4375l5.625 3.9375c1.3125 0.9375 2.4375 2.0625 3.75 3l4.875 4.875c1.125 1.3125 2.0625 2.4375 3.1875 3.5625 1.5 1.875 2.8125 3.9375 4.125 6 0.75 1.3125 1.6875 2.625 2.4375 3.9375 0.1875 0.375 0.5625 0.75 0.75 1.125h186.19v-60.938c0-95.625-77.812-173.44-173.44-173.44h-150c-95.625 0-173.44 77.812-173.44 173.44zm-112.5 0v60.938h84.375v-60.938c0-8.25 0.75-16.5 1.6875-24.562 0.1875-2.4375 0.75-4.6875 1.125-7.125 0.9375-5.8125 2.0625-11.625 3.375-17.25 0.5625-2.25 1.125-4.6875 1.875-6.9375 2.0625-7.125 4.5-14.25 7.3125-21.188 0.1875-0.375 0.1875-0.75 0.375-1.125 3-7.125 6.5625-14.062 10.5-20.812 1.125-2.0625 2.25-3.9375 3.375-5.8125 3-4.875 6.375-9.75 9.75-14.25 1.3125-1.875 2.625-3.75 4.125-5.625 4.3125-5.4375 9-10.875 13.875-15.938 0.5625-0.375 0.9375-0.9375 1.3125-1.5 5.4375-5.4375 11.25-10.5 17.438-15.375l5.0625-3.9375c4.6875-3.375 9.375-6.5625 14.25-9.5625 1.3125-0.75 2.25-1.6875 3.5625-2.4375h-9.9375c-95.625 0-173.44 77.812-173.44 173.44zm-28.125 0c0-8.25 0.75-16.5 1.6875-24.562 0.1875-2.4375 0.75-4.6875 1.125-7.125 0.9375-5.8125 2.0625-11.625 3.375-17.25 0.5625-2.25 1.125-4.6875 1.875-6.9375 2.0625-7.125 4.5-14.25 7.3125-21.188 0.1875-0.375 0.1875-0.75 0.375-1.125 3-7.125 6.5625-14.062 10.5-20.812 1.125-2.0625 2.25-3.9375 3.375-5.8125 3-4.875 6.375-9.75 9.75-14.25 1.3125-1.875 2.625-3.75 4.125-5.625 4.3125-5.4375 9-10.875 13.875-15.938 0.5625-0.375 0.9375-0.9375 1.3125-1.5 5.4375-5.4375 11.25-10.5 17.438-15.375l5.0625-3.9375c4.6875-3.375 9.375-6.5625 14.25-9.5625 1.3125-0.75 2.25-1.6875 3.5625-2.4375h-84.938c-95.625 0-173.44 77.812-173.44 173.44v60.938h159.37z"/>
</svg>
