<?xml version="1.0" encoding="UTF-8"?>
<svg width="1200pt" height="1200pt" version="1.1" viewBox="0 0 1200 1200" xmlns="http://www.w3.org/2000/svg">
 <path d="m711.94 260.62c20.25 7.6875 37.5 20.438 50.625 36.562 13.5-25.125 35.625-45 63-55.312 11.438-29.812 33.75-53.25 62.062-66-10.688-8.25-23.438-14.062-37.5-16.125-6-39.375-40.125-69.75-81.375-69.75s-75.375 30.375-81.375 69.75c-20.625 3.1875-38.625 14.062-51.375 29.438 34.688 10.688 62.812 36.938 75.938 71.438z"/>
 <path d="m393.19 241.88c22.875 8.625 42 23.812 55.688 43.125 11.25-10.5 24.375-18.75 39.188-24.375 14.438-37.875 46.688-65.625 86.25-74.062-11.625-23.812-34.5-41.25-61.688-45.562-6-39.375-40.125-69.75-81.375-69.75s-75.375 30.375-81.375 69.75c-19.125 2.8125-36 12.375-48.188 25.875 41.812 6.9375 76.5 35.438 91.5 75z"/>
 <path d="m75 587.44c0 45.562 36.938 82.5 82.5 82.5 18.938 0 36.562-6.375 50.438-17.25 7.875 15.375 20.438 27.75 35.812 35.625v194.62c6.1875-1.125 12.375-1.6875 18.75-1.6875 20.062 0 39.375 5.4375 56.25 15.375v-208.31c15.375-7.875 27.938-20.25 35.812-35.625 4.875 3.75 10.125 6.9375 15.75 9.75-9-16.688-14.062-35.812-14.062-56.25 0-26.812 9-52.312 24.938-73.125-7.3125-15.75-11.25-33-11.25-50.625 0-35.812 16.125-69.188 42.75-91.688-0.9375-6-1.5-12-1.5-18.188 0-19.688 4.6875-38.438 13.125-54.938-11.812-23.812-34.5-41.062-61.688-45.375-6-39.375-40.125-69.75-81.375-69.75s-75.375 30.375-81.375 69.75c-39.562 6.1875-69.938 40.312-69.938 81.562 0 12.375 2.8125 24 7.6875 34.688-28.688 12.75-48.938 41.625-48.938 75.188 0 21.562 8.4375 41.25 21.938 55.875-21.562 15-35.625 39.75-35.625 67.875z"/>
 <path d="m856.12 272.25c-38.062 6-67.688 37.688-69.75 76.875-0.1875 1.5-0.1875 3.1875-0.1875 4.6875 0 6.9375 0.9375 13.5 2.625 19.875 1.125 5.0625 2.8125 10.125 5.0625 14.812-2.0625 0.9375-3.9375 1.875-5.8125 3 26.25 22.312 42 55.5 42 90.938 0 17.625-3.9375 34.875-11.25 50.625 15.938 20.812 24.938 46.312 24.938 73.125 0 23.062-6.5625 44.625-18 62.812 14.438-2.0625 27.562-7.6875 38.438-16.312 7.875 15.375 20.438 27.75 35.812 35.625v199.5c12-4.3125 24.562-6.5625 37.5-6.5625s25.688 2.25 37.5 6.5625v-199.5c15.375-7.875 27.938-20.25 35.812-35.625 13.875 10.875 31.5 17.25 50.438 17.25 45.562 0 82.5-36.938 82.5-82.5 0-28.125-14.062-52.875-35.625-67.875 13.5-14.625 21.938-34.312 21.938-55.875 0-33.562-20.25-62.438-48.938-75.188 4.875-10.688 7.6875-22.312 7.6875-34.688 0-41.25-30.375-75.375-69.938-81.562-6-39.375-40.125-69.75-81.375-69.75s-75.375 30.375-81.375 69.75z"/>
 <path d="m518.62 291c-39.562 6.1875-69.75 40.125-69.75 81.375 0 12.375 2.8125 24.188 7.6875 34.688-28.875 12.938-48.938 41.812-48.938 75.375 0 21.562 8.4375 41.25 21.938 55.875-21.562 14.812-35.625 39.75-35.625 67.875 0 45.562 36.938 82.5 82.5 82.5 18.938 0 36.562-6.5625 50.438-17.25 7.875 15.375 20.438 27.75 35.812 35.625v199.69c11.812-4.5 24.562-6.75 37.5-6.75s25.688 2.25 37.5 6.75v-199.69c15.375-7.875 27.938-20.25 35.812-35.625 13.875 10.875 31.5 17.25 50.438 17.25 45.562 0 82.5-36.938 82.5-82.5 0-28.125-14.062-53.062-35.625-67.875 13.5-14.625 21.938-34.312 21.938-55.875 0-33.562-20.062-62.438-48.938-75.375 4.875-10.5 7.6875-22.312 7.6875-34.688 0-41.25-30.375-75.375-69.75-81.375-6.1875-39.562-40.125-69.75-81.375-69.75s-75.375 30.375-81.375 69.75z"/>
 <path d="m1063.1 901.12c-32.812-5.625-62.25 10.312-77.25 35.625-13.125-11.062-29.812-18-48.375-18-27.375 0-51.188 14.812-64.125 36.75-13.125-11.062-29.812-18-48.375-18-22.5 0-42.562 10.125-56.25 25.875-13.688-15.75-33.75-25.875-56.25-25.875s-42.562 10.125-56.25 25.875c-13.688-15.75-33.75-25.875-56.25-25.875s-42.562 10.125-56.25 25.875c-13.688-15.75-33.75-25.875-56.25-25.875s-42.562 10.125-56.25 25.875c-13.688-15.75-33.75-25.875-56.25-25.875-18.562 0-35.25 6.9375-48.375 18-12.938-21.938-36.75-36.75-64.125-36.75-18.562 0-35.25 6.9375-48.375 18-15-25.312-44.438-41.25-77.25-35.625-36.375 6.1875-61.875 39.75-61.875 76.688v109.69c0 10.312 8.4375 18.75 18.75 18.75h1012.5c10.312 0 18.75-8.4375 18.75-18.75v-109.69c0-36.938-25.5-70.5-61.875-76.688z"/>
</svg>
