<?xml version="1.0" encoding="UTF-8"?>
<svg width="1200pt" height="1200pt" version="1.1" viewBox="0 0 1200 1200" xmlns="http://www.w3.org/2000/svg">
 <path d="m714 691.2c-61.199 7.1992-75.602 63.602-147.6 58.801s-122.4-37.199-122.4-37.199-34.801 0-40.801-8.3984l2.3984 8.3984 7.1992 55.199-7.1992 66s13.199-44.398 26.398-24c13.199 20.398 21.602 40.801 21.602 40.801s16.801-48 38.398-34.801c20.398 13.199 68.398 75.602 82.801 93.602 13.199 16.801 27.602-34.801 27.602-34.801l31.199 13.199s38.398-103.2 58.801-103.2c20.398 0 34.801 16.801 34.801 16.801l31.199-38.398s24-16.801 40.801 3.6016c16.801 20.398 16.801-34.801 16.801-34.801l-20.398-79.199c-2.4023 2.3945-21.602 31.195-81.602 38.395z"/>
 <path d="m594 1101.6c0-2.3984-1.1992-3.6016-1.1992-6-4.8008-31.199-12-68.398-24-92.398-18-37.199-34.801-75.602-30-96s-55.199-67.199-55.199-67.199-9.6016 3.6016-13.199 12c-3.6016 8.3984-21.602 31.199-21.602 31.199s-32.398-79.199-32.398-42c0 0-13.199 93.602 4.8008 117.6 18 22.801 27.602 108 27.602 108s-12 43.199-27.602 50.398-22.801 34.801-2.3984 40.801c20.398 7.1992 20.398 7.1992 20.398 7.1992s-2.3984-30 22.801-45.602c0 0-20.398 48 0 55.199 20.398 7.1992 39.602-4.8008 55.199-9.6016 15.602-4.8008 78-4.8008 78-27.602 1.1953-8.3984-0.003906-20.398-1.2031-35.996z"/>
 <path d="m764.4 777.6c-14.398 10.801-39.602 46.801-39.602 46.801s-26.398-32.398-36-20.398-26.398 44.398-26.398 44.398l6 13.199c0 21.602-24 56.398-49.199 87.602-10.801 14.398-21.602 34.801-31.199 56.398 12 34.801 20.398 82.801 22.801 103.2 9.6016 3.6016 19.199 6 24 8.3984 14.398 8.3984 31.199 22.801 52.801 20.398 21.602-2.3984 12-54 12-54 21.602 21.602 13.199 49.199 13.199 49.199l21.602-2.3984c21.602-2.3984 20.398-31.199 6-40.801-14.398-9.6016-16.801-55.199-16.801-55.199s26.398-81.602 49.199-99.602c22.801-19.199 28.801-114 28.801-114l-7.1992-37.199c-0.003906 0.003906-15.602-17.996-30.004-5.9961z"/>
 <path d="m1041.6 762c-3.6016-34.801-3.6016-58.801-10.801-93.602-7.1992-34.801-90-58.801-90-58.801s-75.602-121.2-123.6-169.2c-43.199-42-37.199-152.4-132-216-24-16.801-39.602-42-43.199-70.801l3.6016-6s8.3984-16.801 8.3984-26.398c0-8.3984 20.398-15.602 12-27.602-4.8008-9.5977-21.602 6.0039-30 15.602-1.1992-8.3984-2.3984-16.801-4.8008-26.398 0 0-13.199-55.199-72-58.801s-75.602 62.398-86.398 75.602c-10.801 13.199-20.398 24-13.199 51.602 7.1992 27.602 10.801 90 79.199 96 32.398 3.6016 49.199-1.1992 60-6-15.602 14.398-46.801 31.199-97.199 20.398 0 0-27.602-13.199-44.398-44.398l-75.602 40.801s-34.801 31.199-44.398 82.801c-10.801 51.602-20.398 110.4-44.398 138-24 27.602-24 27.602-24 27.602-0.003907-0.007812-106.8 165.59-110.41 200.39-2.3984 24 15.602 75.602 26.398 105.6 4.8008 13.199 18 21.602 31.199 20.398l15.602-1.1992c6 0 12-2.3984 18-6 15.602-9.6016 46.801-32.398 46.801-50.398 0-24-16.801-51.602-16.801-51.602s-3.6016-16.801-31.199-13.199c0 0 10.801-24 13.199-44.398 3.6016-20.398 96-103.2 114-141.6 16.801-38.398 62.398-114 62.398-114s-13.199 40.801-3.6016 55.199c10.801 13.199 86.398-24 86.398-24s-27.602 31.199-44.398 38.398c-16.801 7.1992-62.398 16.801-62.398 16.801s-51.602 80.398-44.398 158.4c2.3984 32.398 34.801 37.199 61.199 39.602-4.8008-16.801-12-57.602 7.1992-112.8 0 0-7.1992 73.199 16.801 117.6 31.199 13.199 92.398 60 176.4 14.398 0 0 51.602-38.398 82.801-38.398 31.199 0 93.602-31.199 68.398-96-16.801-46.801-39.602-96-50.398-120-15.602 16.801-57.602 42-140.4-27.602 0 0 78 38.398 98.398 30 19.199-7.1992 28.801-16.801 32.398-24-6-19.199-20.398-69.602-22.801-91.199 0 0 16.801 55.199 40.801 90 0 0 62.398 145.2 79.199 182.4 16.801 38.398 96 62.398 96 75.602 0 13.199 0 38.398 16.801 51.602l16.801 13.199s-20.398 3.6016-20.398 13.199c0 10.801 24 48 48 38.398 26.402-12 67.203-15.598 64.805-49.199zm-565.2-622.8s12-4.8008 22.801 1.1992c9.6016 7.2031-19.199 25.203-22.801-1.1992zm84 0s12-4.8008 22.801 1.1992c9.6016 7.2031-19.199 25.203-22.801-1.1992zm1.2031 478.8c-6 0-12-4.8008-12-12 0-6 4.8008-12 12-12 6 0 12 4.8008 12 12s-4.8008 12-12 12z"/>
 <path d="m460.8 86.398c-24-19.199-28.801-13.199-28.801-8.3984s13.199 34.801 13.199 34.801z"/>
</svg>
