<?xml version="1.0" encoding="UTF-8"?>
<svg width="1200pt" height="1200pt" version="1.1" viewBox="0 0 1200 1200" xmlns="http://www.w3.org/2000/svg">
 <path d="m593.82 943.98c-2.5078 3.0312-5.168 5.9375-7.9648 8.7031-19.508 19.289-45.781 31.867-74.965 33.941l-0.17188 0.011719c-2.1562 4.6875-3.9102 9.5508-5.2188 14.539-1.8672 7.1406-2.8633 14.734-2.8633 22.684 0 24.895 10.195 47.426 26.676 63.73 16.488 16.312 39.316 26.402 64.57 26.402 25.258 0 48.086-10.09 64.57-26.402 16.48-16.305 26.676-38.84 26.676-63.73 0-7.875-0.98437-15.422-2.8359-22.523-1.2852-4.918-3.0039-9.7031-5.1172-14.32-12.648-0.88281-24.746-3.7422-35.992-8.2617l-0.16797-0.066406-0.65625-0.26953-0.32031-0.13281-0.40234-0.16797-0.50391-0.21094-0.19141-0.082031c-4.5977-1.957-9.0508-4.1992-13.328-6.6953-12.16-7.0977-22.926-16.316-31.793-27.148z"/>
 <path d="m511.28 789.53c-3.1875 4.1133-6.6406 8.0156-10.34 11.676-21.312 21.086-50.664 34.176-83.043 34.316-1.7188 4.1133-3.1328 8.3633-4.2188 12.727-1.6992 6.8281-2.6016 14.051-2.6016 21.582 0 24.887 10.172 47.379 26.613 63.637 16.504 16.316 39.328 26.41 64.562 26.43h0.125c0.35547 0 0.70703 0 1.0625-0.003906l0.1875-0.003906 0.88672-0.015625 0.25781-0.007813c0.33984-0.007812 0.67578-0.019531 1.0156-0.03125l0.1875-0.007812c23.809-0.92188 45.262-10.816 60.98-26.359 5.7539-5.6914 10.738-12.145 14.789-19.195 0.23047-0.47656 0.49219-0.94141 0.78125-1.3867 6.8633-12.457 10.84-26.707 11.035-41.875v-0.066406c0.003906-0.37109 0.007812-0.74219 0.007812-1.1133v-0.84375l-0.003906-0.26562-0.003906-0.15234c-0.11719-8.5273-1.4141-16.73-3.7383-24.461-1.875-6.2422-4.4102-12.195-7.5234-17.773l-0.023437 0.011719c-0.070313-0.12891-0.14062-0.26172-0.21094-0.39062-27.07-3.6172-52.105-16.535-70.785-36.426z"/>
 <path d="m788.18 624.42c-4.1172 5.918-8.7656 11.441-13.883 16.504-17.027 16.848-39.191 28.578-63.938 32.68 9.7852 29.848 7.1406 62.621-7.6602 90.543 7.625 11.285 17.746 20.758 29.574 27.648 13.535 7.8828 29.352 12.402 46.285 12.402 25.262 0 48.113-10.098 64.633-26.43 16.441-16.258 26.613-38.754 26.613-63.637 0.003906-46.195-35.316-84.902-81.625-89.711z"/>
 <path d="m796.77 506.24c7.2539 14.523 11.555 30.75 12.129 47.918v0.027344l0.015624 0.48828 0.003907 0.15234 0.011719 0.37109c0.023437 0.97266 0.039062 1.9414 0.039062 2.918 0 0.96484-0.011719 1.9336-0.035156 2.8945l-0.011719 0.42578-0.003906 0.11328-0.015625 0.48828c-0.43359 13.031-3.0195 25.527-7.4141 37.145 13.254 2.5742 25.703 7.3359 36.938 13.891 15.059 8.7852 27.977 20.766 37.805 34.992 23.371-1.1797 44.41-11.008 59.887-26.312 16.441-16.258 26.613-38.75 26.613-63.637 0-24.914-10.188-47.445-26.66-63.738-16.488-16.312-39.32-26.395-64.586-26.395-16.551 0-32.016 4.3047-45.32 11.844-11.66 6.6055-21.699 15.648-29.395 26.414z"/>
 <path d="m526.53 673.3c12.383 29.293 12.141 62.684-0.70312 91.824 37.18 47.262 113.11 47.441 148.51-6l0.007813 0.003906 0.003906-0.003906-0.03125-0.019532c0.17188-0.26172 0.35547-0.51562 0.53906-0.75781l0.37109-0.57812c0.21484-0.38281 0.44922-0.75781 0.69922-1.1172 15.129-24.594 17.43-55.234 6.1406-81.742-19.027-1.3711-36.863-7.2305-52.41-16.531-12.152-7.2695-22.883-16.656-31.75-27.691-17.738 22.191-43.121 37.484-71.375 42.613z"/>
 <path d="m613.2 510.51c13.574 30.172 13.582 64.992 0 95.168 7.6602 12.082 18.004 22.234 30.297 29.582 13.504 8.0703 29.363 12.77 46.387 12.926h1c0.35938 0 0.71484-0.003906 1.0703-0.007813h0.007813c35.281-0.44141 67.195-20.785 82.02-53.113 15.402-33.883 8.1367-74.168-18.664-100.7-16.473-16.309-39.285-26.387-64.547-26.387-17.336 0-33.492 4.7266-47.223 12.934-12.312 7.3555-22.723 17.516-30.348 29.594z"/>
 <path d="m417.29 583.84c-2.4688 8.168-6.0586 15.824-10.602 22.797-0.28125 0.36719-0.54297 0.75-0.78125 1.1406l-0.007813 0.015625-0.085937 0.14062-0.03125 0.050781-0.10156 0.17578-0.011719 0.019532-0.10937 0.19531-0.007813 0.011719-0.097656 0.18359c-16.344 23.777-42.902 38.441-72.07 39.543l-0.089844 0.003906c-0.36719 0.015625-0.73047 0.023437-1.0977 0.035156h-0.019531c-0.36328 0.007812-0.72656 0.015625-1.0938 0.019531l-0.17969 0.003907c-0.35938 0.003906-0.72266 0.007812-1.082 0.007812-25.262 0-48.113-10.102-64.633-26.43-35.57-35.172-35.488-92.219 0.046875-127.38 16.488-16.312 39.32-26.395 64.586-26.395s48.102 10.082 64.586 26.395c23.336 23.086 32.371 58.086 22.883 89.465z"/>
 <path d="m417.46 636.69c-20.582 22.488-48.898 36.141-79.332 38.238h-0.027343l-0.80078 0.054687c-3.0664 5.543-5.5742 11.465-7.4492 17.699-2.4297 8.0938-3.7383 16.703-3.7383 25.672 0 24.891 10.195 47.426 26.676 63.73 48.969 48.445 129.84 26.73 151.03-34.82 3.1016-9.0742 4.7852-18.797 4.7852-28.91 0-4.4844-0.32812-8.8789-0.95703-13.164-0.058594-0.40234-0.12109-0.80078-0.18359-1.1992l-0.13281-0.79688-0.070313-0.39844-0.070313-0.39453-0.22266-1.1836-0.078125-0.39453-0.078125-0.39062-0.16406-0.78125-0.25781-1.1719-0.089843-0.39062-0.089844-0.38672-0.1875-0.77344-0.29297-1.1602-0.20312-0.76562-0.21094-0.76562c-0.14062-0.51172-0.28906-1.0156-0.44141-1.5234-1.8711-6.2227-4.4023-12.152-7.5039-17.719l-0.8125-0.054688-0.80859-0.0625c-29.742-2.3477-57.898-15.941-78.289-38.188z"/>
 <path d="m433.65 501.99c19.078 34.527 19.473 76.961 0 112.19 55.555 68.926 159.66 24.875 162.64-52.57v-0.011719c0.94531-25.117-8.5781-49.398-26.594-67.223-16.488-16.312-39.32-26.395-64.586-26.395-15.781 0-30.551 3.8945-43.387 10.754-10.855 5.8086-20.398 13.746-28.07 23.258z"/>
 <path d="m609.35 919.69c7.6406 11.445 17.887 21.086 29.918 28.117 35.5 20.742 81.406 15.312 110.92-13.91 16.461-16.297 26.637-38.828 26.637-63.75 0-8.3242-1.0859-16.258-3.1172-23.668-1.4883-5.4297-3.5078-10.695-6-15.738-31.859-2.8828-61.172-18.523-81.273-43.27-1.5977 1.7891-3.2539 3.5273-4.957 5.2148-18.273 18.082-42.457 30.277-69.391 33.48 1.3555 3.3398 2.5586 6.7539 3.6055 10.23 3.0195 10.051 4.7188 20.637 4.8945 31.559l0.003906 0.24609 0.003906 0.22266 0.003906 0.32031v0.14844l0.003906 0.39453v0.54297c0 0.46875-0.003906 0.94141-0.007812 1.4102v0.125c-0.003906 0.4375-0.011719 0.87109-0.023438 1.3047l-0.011718 0.44922-0.015625 0.46875-0.003907 0.15234c-0.55078 16.387-4.5039 31.93-11.191 45.949z"/>
 <path d="m587.4 137.24c-8.0664-9.4258-22.25-10.531-31.676-2.4648-9.4258 8.0664-10.531 22.25-2.4648 31.676 12.387 14.523 22.625 29.25 31.688 46.82 9.082 17.609 17.125 38.367 25.078 64.875 0.73047 4.543 1.3672 9.0312 1.9297 13.469-46.75-14.828-126.71-23.664-178.79 60.848 83.602 46.328 146.96 5.7812 181.5-28.988 3.0664 69.898-13.598 123.7-25.344 152.31 3.0664 3.082 5.9258 6.3086 8.5742 9.668 8.8164-11.043 19.582-20.457 31.758-27.738 5.0039-2.9922 10.195-5.5898 15.531-7.7891 12.027-44.016 20.953-105.95 9.2148-178.8-0.125-1.5352-0.41016-3.082-0.87109-4.6211l-0.03125 0.007813c-8.8477-29.684-18.008-53.281-28.609-73.836-10.754-20.867-22.867-38.301-37.488-55.441z"/>
 <path d="m684.75 347.75c22.531 20.438 51.73 35.934 86.617 31.09l-16.137-29.602s85.043 8.1094 128.41-60.016l-31.324-4.293s39.207-39.504 73.82-124.25c-82.566-39.523-138.14-42.449-138.14-42.449l20.32-24.223c-77.887-21.332-135.43 41.805-135.43 41.805l-7.9336-32.762c-17.43 11.887-28.441 27.812-35.113 45.176 6.9531 10.211 13.297 20.832 19.09 32.062 8.7969 17.055 16.047 34.844 22.312 52.973l0.55859-0.16016 3.0156 10.129 1.7656-0.68359 23.379-62.895c2.5938-6.9688 10.348-10.516 17.316-7.9219s10.516 10.348 7.918 17.316l-15.074 40.555 99.621-38.445c6.9375-2.6836 14.742 0.76953 17.422 7.707 2.6836 6.9375-0.76953 14.742-7.707 17.422l-99.613 38.441 38.375 19.898c6.6211 3.4102 9.2188 11.543 5.8086 18.16-3.4102 6.6211-11.543 9.2188-18.16 5.8086l-59.605-30.906-4.8125 1.8555c3.0586 25.922 4.1758 52.094 3.3125 78.203z" fill-rule="evenodd"/>
</svg>
