<?xml version="1.0" encoding="UTF-8"?>
<svg width="1200pt" height="1200pt" version="1.1" viewBox="0 0 1200 1200" xmlns="http://www.w3.org/2000/svg">
 <path d="m759.88 161.75c11.285 3.7617 22.57 7.5234 33.855 15.047 18.809 7.5234 41.379 7.5234 60.188 0l97.805-41.379c11.285-7.5234 30.094-3.7617 41.379 7.5234l63.949 63.949c11.285 11.285 11.285 26.332 7.5234 41.379l-41.379 94.043c-11.285 22.57-7.5234 41.379 0 63.949 3.7617 7.5234 11.285 18.809 15.047 30.094 7.5234 22.57 22.57 37.617 41.379 45.141l97.805 37.617c11.285 7.5234 22.57 18.809 22.57 33.855v90.281c0 18.809-11.285 30.094-22.57 37.617l-97.805 37.617c-18.809 7.5234-33.855 22.57-41.379 41.379-3.7617 11.285-11.285 22.57-15.047 33.855-7.5234 18.809-11.285 41.379 0 60.188l41.379 97.805c3.7617 11.285 3.7617 30.094-7.5234 41.379l-63.949 63.949c-11.285 11.285-30.094 11.285-41.379 7.5234l-97.805-41.379c-18.809-11.285-41.379-7.5234-60.188 0-11.285 3.7617-22.57 11.285-33.855 15.047-18.809 7.5234-33.855 22.57-41.379 41.379l-37.617 97.805c-7.5234 11.285-18.809 22.57-37.617 22.57h-90.281c-15.047 0-26.332-11.285-33.855-22.57l-37.617-97.805c-7.5234-18.809-22.57-33.855-45.141-41.379-11.285-3.7617-22.57-11.285-30.094-15.047-22.57-7.5234-41.379-11.285-63.949 0l-94.043 41.379c-15.047 3.7617-30.094 3.7617-41.379-7.5234l-63.949-63.949c-11.285-11.285-15.047-30.094-7.5234-41.379l41.379-97.805c7.5234-18.809 7.5234-41.379 0-60.188-7.5234-11.285-11.285-22.57-15.047-33.855-7.5234-18.809-22.57-33.855-41.379-41.379l-97.805-37.617c-15.047-7.5234-22.57-18.809-22.57-37.617v-90.281c0-15.047 7.5234-26.332 22.57-33.855l97.805-37.617c18.809-7.5234 33.855-22.57 41.379-45.141 3.7617-11.285 7.5234-22.57 15.047-30.094 7.5234-22.57 7.5234-41.379 0-63.949l-41.379-94.043c-7.5234-15.047-3.7617-30.094 7.5234-41.379l63.949-63.949c11.285-11.285 26.332-15.047 41.379-7.5234l94.043 41.379c22.57 7.5234 41.379 7.5234 63.949 0 7.5234-7.5234 18.809-11.285 30.094-15.047 22.57-7.5234 37.617-22.57 45.141-41.379l37.617-97.805c7.5234-15.047 18.809-22.57 33.855-22.57h90.281c18.809 0 30.094 7.5234 37.617 22.57l37.617 97.805c7.5234 18.809 22.57 33.855 41.379 41.379zm-161.75 150.47c161.75 0 289.66 127.9 289.66 285.89 0 161.75-127.9 289.66-289.66 289.66-157.99 0-285.89-127.9-285.89-289.66 0-157.99 127.9-285.89 285.89-285.89z" fill-rule="evenodd"/>
</svg>
