<?xml version="1.0" encoding="UTF-8" standalone="no"?>
<svg
   width="1200pt"
   height="1200pt"
   version="1.1"
   viewBox="0 0 1200 1200"
   id="svg6"
   sodipodi:docname="at-game-end.svg"
   inkscape:version="1.2.2 (b0a8486541, 2022-12-01)"
   xmlns:inkscape="http://www.inkscape.org/namespaces/inkscape"
   xmlns:sodipodi="http://sodipodi.sourceforge.net/DTD/sodipodi-0.dtd"
   xmlns="http://www.w3.org/2000/svg"
   xmlns:svg="http://www.w3.org/2000/svg">
  <defs
     id="defs10" />
  <sodipodi:namedview
     id="namedview8"
     pagecolor="#ffffff"
     bordercolor="#666666"
     borderopacity="1.0"
     inkscape:showpageshadow="2"
     inkscape:pageopacity="0.0"
     inkscape:pagecheckerboard="0"
     inkscape:deskcolor="#d1d1d1"
     inkscape:document-units="pt"
     showgrid="false"
     inkscape:zoom="0.2703125"
     inkscape:cx="-138.72832"
     inkscape:cy="406.93642"
     inkscape:window-width="2560"
     inkscape:window-height="1011"
     inkscape:window-x="0"
     inkscape:window-y="32"
     inkscape:window-maximized="1"
     inkscape:current-layer="svg6" />
  <path
     d="M 323.33342,1193.3 H 25.373304 v -75 H 323.33342 Z M 280.76769,1080.8 H 67.939035 v -37.5 H 280.76769 Z m -148.99141,-75 v -675 c 0,-5.625 -2.12829,-11.25 -8.51315,-15 -21.28286,-15 -34.05258,-35.625 -34.05258,-60 0,-41.25 38.30916,-75 85.13146,-75 46.82231,0 85.13146,33.75 85.13146,75 0,24.375 -12.76971,45 -34.05258,60 -6.38486,3.75 -8.51315,9.375 -8.51315,15 v 675 z M 259.47347,638.3 V 377.67 c 225.58703,86.25 455.46468,86.25 681.0517,0 v 258.74 c -225.58702,91.875 -455.46467,91.875 -681.0517,1.875 z m 723.61744,11.25 V 330.81 c 0,-5.625 -2.12829,-11.25 -8.51315,-15 -21.28287,-15 -34.05259,-35.625 -34.05259,-60 0,-41.25 38.30916,-75 85.13143,-75 46.8223,0 85.1315,33.75 85.1315,75 0,24.375 -12.7697,45 -34.0526,60 -6.3848,3.75 -8.5131,9.375 -8.5131,15 v 675 h -85.13149 z m -63.8486,393.74 H 1132.071 v 37.5 H 919.24231 Z m 255.39439,150 H 876.67658 v -75 h 297.96012 z"
     id="path2"
     style="stroke-width:1.0654" />
  <path
     d="m 477.06391,260.32138 -38.26446,105.81665 c -3.82645,13.22709 0,29.76094 15.3058,36.37448 15.30577,6.61353 30.61156,9.92031 45.91733,0 l 103.31406,-66.13541 103.31405,66.13541 c 7.65289,3.30677 15.30578,6.61353 22.95868,6.61353 7.65289,0 15.30577,-3.30676 22.95867,-6.61353 15.30579,-9.92032 19.13224,-23.14739 15.30579,-36.37448 l -38.26446,-105.81665 103.31405,-66.1354 c 15.30579,-9.9203 19.13223,-23.14737 15.30579,-36.37446 -3.82646,-13.22708 -26.78511,-23.14739 -42.09092,-23.14739 H 676.03913 L 637.77465,28.847484 C 633.94821,15.620403 618.64243,5.7000929 599.51019,5.7000929 c -19.13223,0 -30.61157,9.9203101 -38.26446,23.1473911 L 522.98126,134.66413 H 392.88209 c -15.30579,0 -30.61155,9.92031 -38.26446,23.14739 -7.6529,13.22709 0,29.76093 15.30578,36.37446 z"
     id="path4"
     style="stroke-width:1.89713" />
</svg>
