<?xml version="1.0" encoding="UTF-8"?>
<svg width="1200pt" height="1200pt" version="1.1" viewBox="0 0 1200 1200" xmlns="http://www.w3.org/2000/svg">
 <path d="m782.44 517.5-581.25-390.94c-20.062-13.016-44.129-18.402-67.824-15.188-23.695 3.2148-45.457 14.82-61.324 32.711-15.871 17.891-24.797 40.879-25.164 64.789v782.25c0.28125 24.031 9.2109 47.156 25.156 65.137 15.941 17.98 37.832 29.617 61.656 32.77 23.824 3.1562 47.988-2.3828 68.062-15.594l581.25-390.94c27.02-18.824 43.078-49.715 42.969-82.648-0.11328-32.93-16.383-63.711-43.531-82.352z"/>
 <path d="m1021.9 110.06c-34.809 0-68.195 13.828-92.809 38.441-24.613 24.613-38.441 58-38.441 92.809v717.38c0 46.891 25.016 90.219 65.625 113.66 40.609 23.449 90.641 23.449 131.25 0 40.609-23.445 65.625-66.773 65.625-113.66v-717.38c0-34.809-13.828-68.195-38.441-92.809-24.613-24.613-58-38.441-92.809-38.441z"/>
</svg>
