<?xml version="1.0" encoding="UTF-8"?>
<svg width="1200pt" height="1200pt" version="1.1" viewBox="0 0 1200 1200" xmlns="http://www.w3.org/2000/svg">
 <path d="m600 120c-264.8 0-480 215.2-480 480s215.2 480 480 480 480-215.2 480-480-215.2-480-480-480zm0 771.6c-38.402 0-70-31.602-70-70 0-38.801 31.598-70 70-70s70 31.199 70 70c0 38.398-31.598 70-70 70zm56.801-252.8c-2.4023 29.602-27.203 52.801-56.801 52.801s-54.398-23.199-56.801-52.801l-22.801-288.4c-2.8008-33.199 23.598-61.598 56.801-61.598h45.602c33.199 0 59.598 28.398 56.801 61.598z"/>
</svg>
