<?xml version="1.0" encoding="UTF-8" standalone="no"?>
<svg
   width="1200pt"
   height="1200pt"
   version="1.1"
   viewBox="0 0 1200 1200"
   id="svg4"
   sodipodi:docname="limitation.svg"
   inkscape:version="1.2.2 (b0a8486541, 2022-12-01)"
   xmlns:inkscape="http://www.inkscape.org/namespaces/inkscape"
   xmlns:sodipodi="http://sodipodi.sourceforge.net/DTD/sodipodi-0.dtd"
   xmlns="http://www.w3.org/2000/svg"
   xmlns:svg="http://www.w3.org/2000/svg">
  <defs
     id="defs8" />
  <sodipodi:namedview
     id="namedview6"
     pagecolor="#ffffff"
     bordercolor="#666666"
     borderopacity="1.0"
     inkscape:showpageshadow="2"
     inkscape:pageopacity="0.0"
     inkscape:pagecheckerboard="0"
     inkscape:deskcolor="#d1d1d1"
     inkscape:document-units="pt"
     showgrid="false"
     inkscape:zoom="0.540625"
     inkscape:cx="646.47399"
     inkscape:cy="800.92486"
     inkscape:window-width="2560"
     inkscape:window-height="1011"
     inkscape:window-x="0"
     inkscape:window-y="32"
     inkscape:window-maximized="1"
     inkscape:current-layer="svg4" />
  <path
     d="M 600,44.606291 C 293.60781,44.606291 44.606291,293.60781 44.606291,600 c 0,306.39219 249.001519,555.3938 555.393709,555.3938 306.39219,0 555.3938,-249.00161 555.3938,-555.3938 C 1155.3938,293.60781 906.39219,44.606291 600,44.606291 Z m 0,892.795389 c -44.43381,0 -80.99491,-36.56574 -80.99491,-80.99491 0,-44.89549 36.5611,-80.99493 80.99491,-80.99493 44.43382,0 80.99491,36.09944 80.99491,80.99493 0,44.42917 -36.56109,80.99491 -80.99491,80.99491 z m 65.72274,-292.50735 c -2.77962,34.25159 -31.47578,61.09446 -65.72274,61.09446 -34.24696,0 -62.94231,-26.84287 -65.72274,-61.09446 L 507.8949,311.19527 c -3.24073,-38.41357 27.30454,-71.27321 65.72274,-71.27321 h 52.76472 c 38.41358,0 68.95907,32.85848 65.72274,71.27321 z"
     id="path2"
     style="stroke-width:1.15707" />
</svg>
