<?xml version="1.0" encoding="UTF-8"?>
<svg width="1200pt" height="1200pt" version="1.1" viewBox="0 0 1200 1200" xmlns="http://www.w3.org/2000/svg">
 <path d="m101.62 87.75c-4.875 3.375-7.875 9.1875-7.875 15.188v879.37c0 7.875 5.0625 15 12.562 17.625l312.37 110.25v-918.94l-300-105.94c-5.625-2.0625-12-1.125-17.062 2.4375zm192.19 341.06v21.188c0 10.312-8.4375 18.75-18.75 18.75s-18.75-8.4375-18.75-18.75v-21.188c-32.438-8.25-56.25-37.688-56.25-72.562 0-41.438 33.562-75 75-75s75 33.562 75 75c0 34.875-24 64.312-56.25 72.562zm94.875 411.56c9.75 3.5625 14.812 14.25 11.25 24-2.625 7.6875-9.9375 12.375-17.625 12.375-2.0625 0-4.125-0.375-6.1875-1.125-26.438-9.5625-50.625-25.312-70.125-45.75-7.125-7.5-6.75-19.5 0.75-26.625s19.312-6.75 26.438 0.75c15.562 16.312 34.688 28.875 55.5 36.375zm-113.62-182.06c10.312 0 18.75 8.4375 18.75 18.75v28.125c0 14.25 2.0625 28.125 6 41.438 3 9.9375-2.625 20.438-12.375 23.438-1.875 0.5625-3.75 0.75-5.4375 0.75-8.0625 0-15.562-5.25-18-13.312-5.0625-16.875-7.6875-34.5-7.6875-52.312v-28.125c0-10.312 8.4375-18.75 18.75-18.75zm-18.75-57v-75.562c0-10.5 8.4375-18.75 18.75-18.75s18.75 8.25 18.75 18.75v75.562c0 10.5-8.4375 18.75-18.75 18.75s-18.75-8.25-18.75-18.75z"/>
 <path d="m456.19 230.81v616.87c21.562-3 42.562-10.688 60.75-22.875 8.625-5.625 20.25-3.375 26.062 5.25 5.625 8.625 3.375 20.25-5.25 26.062-23.625 15.562-50.625 25.5-78.562 28.875h-3v225l287.63-101.44v-656.06h-0.1875c-21.75 2.625-42.938 10.688-60.938 22.875-3.1875 2.0625-6.9375 3.1875-10.5 3.1875-6 0-12-3-15.562-8.4375-5.8125-8.625-3.5625-20.25 5.0625-25.875 23.438-15.75 50.625-25.875 78.562-29.25 1.125-0.1875 2.25-0.1875 3.375 0h0.1875v-225.37l-287.63 101.62zm143.81 426c-10.312 0-18.75-8.4375-18.75-18.75v-75.75c0-10.312 8.4375-18.75 18.75-18.75s18.75 8.4375 18.75 18.75v75.75c0 10.312-8.4375 18.75-18.75 18.75zm18.562 57.938c-1.5 28.125-9.75 55.875-23.812 80.25-3.375 6-9.75 9.375-16.125 9.375-3.1875 0-6.375-0.75-9.375-2.4375-9-5.0625-12.188-16.5-6.9375-25.5 11.25-19.688 17.625-41.062 18.75-63.562 0.5625-10.5 9.9375-18.562 19.688-17.812 10.312 0.5625 18.188 9.375 17.812 19.688zm-18.375-209.26h-0.9375c-10.312-0.5625-18.375-9.375-17.812-19.688 1.5-28.125 9.5625-56.062 23.438-80.438 5.0625-9 16.5-12.188 25.5-6.9375 9 5.0625 12.188 16.5 7.125 25.5-11.25 19.688-17.438 41.062-18.562 63.75-0.5625 9.9375-8.8125 17.812-18.75 17.812z"/>
 <path d="m1093.7 200.06-312.37-110.25v39.562h-0.1875v839.63h0.1875v39.75l300 105.94c2.0625 0.75 4.125 1.125 6.1875 1.125 3.75 0 7.6875-1.125 10.875-3.5625 4.875-3.375 7.875-9.1875 7.875-15.188v-879.37c0-7.875-5.0625-15-12.562-17.625zm-187.5 571.13v-21.188c0-10.312 8.4375-18.75 18.75-18.75s18.75 8.4375 18.75 18.75v21.188c32.25 8.25 56.25 37.688 56.25 72.562 0 41.438-33.75 75-75 75s-75-33.562-75-75c0-34.875 23.812-64.312 56.25-72.562zm-95.438-411.74c-9.75-3.375-14.812-14.25-11.438-24 3.5625-9.75 14.25-14.812 24-11.25 26.438 9.375 50.625 25.125 70.125 45.562 7.125 7.5 6.9375 19.312-0.5625 26.438-3.5625 3.5625-8.25 5.25-12.938 5.25s-9.9375-2.0625-13.5-5.8125c-15.562-16.125-34.688-28.688-55.688-36.188zm114.19 181.69c-10.312 0-18.75-8.4375-18.75-18.75v-27.562c0-14.25-2.0625-28.5-6.1875-42-3.1875-9.9375 2.4375-20.438 12.375-23.438s20.438 2.625 23.438 12.562c5.25 17.062 7.875 34.875 7.875 52.875v27.562c0 10.312-8.4375 18.75-18.75 18.75zm18.75 56.812v75.75c0 10.312-8.4375 18.75-18.75 18.75s-18.75-8.4375-18.75-18.75v-75.75c0-10.312 8.4375-18.75 18.75-18.75s18.75 8.4375 18.75 18.75z"/>
 <path d="m312.56 356.26c0 50.016-75 50.016-75 0 0-50.016 75-50.016 75 0"/>
 <path d="m962.44 843.74c0 50.016-75 50.016-75 0 0-50.016 75-50.016 75 0"/>
</svg>
