<?xml version="1.0" encoding="UTF-8" standalone="no"?>
<svg
   width="1200pt"
   height="1200pt"
   version="1.1"
   viewBox="0 0 1200 1200"
   id="svg178"
   sodipodi:docname="areas.svg"
   inkscape:version="1.2.2 (b0a8486541, 2022-12-01)"
   xmlns:inkscape="http://www.inkscape.org/namespaces/inkscape"
   xmlns:sodipodi="http://sodipodi.sourceforge.net/DTD/sodipodi-0.dtd"
   xmlns="http://www.w3.org/2000/svg"
   xmlns:svg="http://www.w3.org/2000/svg">
  <defs
     id="defs182" />
  <sodipodi:namedview
     id="namedview180"
     pagecolor="#ffffff"
     bordercolor="#666666"
     borderopacity="1.0"
     inkscape:showpageshadow="2"
     inkscape:pageopacity="0.0"
     inkscape:pagecheckerboard="0"
     inkscape:deskcolor="#d1d1d1"
     inkscape:document-units="pt"
     showgrid="false"
     inkscape:zoom="0.5175"
     inkscape:cx="578.74396"
     inkscape:cy="800"
     inkscape:window-width="2560"
     inkscape:window-height="1011"
     inkscape:window-x="0"
     inkscape:window-y="32"
     inkscape:window-maximized="1"
     inkscape:current-layer="svg178" />
  <path
     d="m 809.82785,423.0548 c 1.1934,3.67155 1.19721,7.62907 0,11.30442 -1.19339,3.67156 -3.5229,6.87422 -6.64924,9.14271 l -108.16412,78.58248 41.32139,127.17729 c 1.60128,4.93356 1.03323,10.31278 -1.55942,14.80449 -2.59643,4.49132 -6.97327,7.67104 -12.04816,8.74615 -5.0746,1.0752 -10.36646,-0.0534 -14.56048,-3.10731 L 600.00369,591.12255 491.83955,669.70503 c -4.19392,3.05011 -9.48588,4.17479 -14.55658,3.09969 -5.07459,-1.0752 -9.45152,-4.25492 -12.04426,-8.74234 -2.59645,-4.49132 -3.1645,-9.87064 -1.56702,-14.80059 L 504.99308,522.08452 396.82895,443.50203 v -0.003 c -4.19392,-3.04629 -6.90085,-7.73203 -7.44226,-12.89048 -0.5414,-5.15463 1.13239,-10.30205 4.6018,-14.1564 3.46951,-3.85075 8.41449,-6.05063 13.60006,-6.05063 h 133.70696 l 41.30967,-127.15777 v 0.003 c 1.60129,-4.93737 5.22335,-8.95971 9.96239,-11.07213 4.73913,-2.10844 10.15271,-2.10844 14.89234,0 4.73913,2.11223 8.36109,6.13457 9.96238,11.07213 l 41.30968,127.15776 h 133.70695 l -0.003,-0.003 c 3.86598,0 7.63289,1.22765 10.75883,3.49996 3.12595,2.27231 5.45584,5.47877 6.64924,9.15413 z m 229.38765,67.14433 c 0,334.78956 -410.84221,642.30867 -428.3425,655.23137 -3.14547,2.3334 -6.95805,3.5915 -10.874,3.5915 -3.91595,0 -7.72824,-1.2581 -10.874,-3.5915 -17.49639,-12.9208 -428.34246,-320.44181 -428.34246,-655.23137 0,-116.48971 46.27379,-228.2066 128.64133,-310.57414 82.36754,-82.367556 194.08444,-128.641349 310.57415,-128.641349 116.48971,0 228.20661,46.273793 310.57415,128.641349 82.36755,82.36754 128.64133,194.08443 128.64133,310.57414 z m -128.10456,0 c 0,-82.51298 -32.77719,-161.64106 -91.12159,-219.9884 -58.34441,-58.34733 -137.47444,-91.12159 -219.98839,-91.12159 -82.51395,0 -161.64106,32.77718 -219.9884,91.12159 -58.34734,58.34441 -91.1216,137.47445 -91.1216,219.9884 0,82.51395 32.77719,161.64106 91.1216,219.98839 58.3444,58.34734 137.47445,91.1216 219.9884,91.1216 82.48271,-0.0953 161.56297,-32.90309 219.89079,-91.22506 58.32195,-58.32586 91.1294,-137.40612 91.22505,-219.89079 z"
     id="path176"
     style="stroke-width:0.976035" />
</svg>
