<?xml version="1.0" encoding="UTF-8"?>
<svg width="1200pt" height="1200pt" version="1.1" viewBox="0 0 1200 1200" xmlns="http://www.w3.org/2000/svg">
 <path d="m1144.8 493.2-180-140.4v-174c0-9.6016-7.1992-16.801-16.801-16.801h-85.199c-9.6016 0-16.801 7.1992-16.801 16.801v81.602l-188.4-146.4c-33.602-26.398-81.602-26.398-115.2 0l-487.2 379.2c-15.602 12-25.199 31.199-25.199 51.602v25.199c0 21.602 18 39.602 39.602 39.602h96v432c0 34.801 28.801 63.602 63.602 63.602h250.8v-324c0-21.602 18-39.602 39.602-39.602h159.6c21.602 0 39.602 18 39.602 39.602v324h250.8c34.801 0 63.602-28.801 63.602-63.602v-432h96c21.602 0 39.602-18 39.602-39.602v-25.199c1.1875-20.402-8.4141-38.402-24.012-51.602z"/>
</svg>
