<?xml version="1.0" encoding="UTF-8"?>
<svg width="1200pt" height="1200pt" version="1.1" viewBox="0 0 1200 1200" xmlns="http://www.w3.org/2000/svg">
 <path d="m1095.2 218.1-90.711 689.91c-6.1719 46.898-49.367 79.605-95.957 73.434l-48.441-6.4805-90.402-686.82c-7.7148-57.699-57.078-101.2-115.39-101.2-4.9375 0-10.184 0.30859-15.117 0.92578l-188.52 24.684 10.184-78.062c6.1719-46.898 49.059-79.91 95.957-73.742l464.67 61.402c46.895 6.168 79.906 49.055 73.738 95.957zm-265.34 764.03-90.773-689.9c-6.1641-46.852-49.141-79.836-95.996-73.672l-464.63 61.129c-46.852 6.1641-79.836 49.145-73.672 95.996l90.77 689.9c6.1641 46.852 49.145 79.836 95.996 73.672l464.63-61.133c46.855-6.1641 79.84-49.141 73.676-95.992z"/>
</svg>
