<?xml version="1.0" encoding="UTF-8" standalone="no"?>
<svg
   width="1200pt"
   height="1200pt"
   version="1.1"
   viewBox="0 0 1200 1200"
   id="svg218"
   sodipodi:docname="exploration.svg"
   inkscape:version="1.2.2 (b0a8486541, 2022-12-01)"
   xmlns:inkscape="http://www.inkscape.org/namespaces/inkscape"
   xmlns:sodipodi="http://sodipodi.sourceforge.net/DTD/sodipodi-0.dtd"
   xmlns="http://www.w3.org/2000/svg"
   xmlns:svg="http://www.w3.org/2000/svg">
  <defs
     id="defs222" />
  <sodipodi:namedview
     id="namedview220"
     pagecolor="#ffffff"
     bordercolor="#666666"
     borderopacity="1.0"
     inkscape:showpageshadow="2"
     inkscape:pageopacity="0.0"
     inkscape:pagecheckerboard="0"
     inkscape:deskcolor="#d1d1d1"
     inkscape:document-units="pt"
     showgrid="true"
     inkscape:zoom="0.31681719"
     inkscape:cx="-104.16101"
     inkscape:cy="659.68643"
     inkscape:window-width="2560"
     inkscape:window-height="1011"
     inkscape:window-x="0"
     inkscape:window-y="32"
     inkscape:window-maximized="1"
     inkscape:current-layer="svg218"
     showguides="true">
    <inkscape:grid
       type="xygrid"
       id="grid533"
       spacingx="600"
       spacingy="600"
       units="pt"
       originx="0"
       originy="0" />
  </sodipodi:namedview>
  <path
     d="M 308.2259,737.4507 117.7394,1082.2606 462.5493,891.7741 428.79106,771.20894 Z"
     id="path210"
     style="stroke-width:1.28603"
     inkscape:transform-center-x="309.74722"
     inkscape:transform-center-y="310.07346" />
  <path
     d="M 1188.3579,600 744.67818,472.20094 c -7.23391,-2.4113 -14.46782,-9.64521 -16.87912,-16.87912 L 600,11.642062 472.20094,455.32182 c -2.4113,7.23391 -9.64521,14.46782 -16.87912,16.87912 L 11.642062,600 455.32182,727.79906 c 7.23391,2.4113 14.46782,9.64521 16.87912,16.87912 L 600,1188.3579 727.79906,744.67818 c 2.4113,-7.23391 9.64521,-14.46782 16.87912,-16.87912 z M 600,708.50864 c -60.28258,0 -108.50864,-48.22606 -108.50864,-108.50864 0,-60.28258 48.22606,-108.50864 108.50864,-108.50864 60.28258,0 108.50864,48.22606 108.50864,108.50864 0,60.28258 -48.22606,108.50864 -108.50864,108.50864 z"
     id="path216"
     style="stroke-width:1.28603" />
  <path
     d="M 462.5493,308.2259 117.7394,117.7394 308.2259,462.5493 428.79106,428.79106 Z"
     id="path673"
     style="stroke-width:1.28603"
     inkscape:transform-center-x="309.74722"
     inkscape:transform-center-y="310.07346" />
  <path
     d="M 737.4507,891.7741 1082.2606,1082.2606 891.7741,737.4507 771.20894,771.20894 Z"
     id="path687"
     style="stroke-width:1.28603"
     inkscape:transform-center-x="309.74722"
     inkscape:transform-center-y="310.07346"
     class="secondary" />
  <path
     d="M 891.7741,462.5493 1082.2606,117.7394 737.4507,308.2259 771.20894,428.79106 Z"
     id="path701"
     style="stroke-width:1.28603"
     inkscape:transform-center-x="309.74722"
     inkscape:transform-center-y="310.07346"
     class="secondary" />
</svg>
