<?xml version="1.0" encoding="UTF-8" standalone="no"?>
<svg
   width="1161.0502pt"
   height="1161.0502pt"
   version="1.1"
   viewBox="0 0 1161.0501 1161.0501"
   id="svg4"
   sodipodi:docname="focuses.svg"
   inkscape:version="1.2.2 (b0a8486541, 2022-12-01)"
   inkscape:export-filename="../../../../../../tmp/any-drive.png"
   inkscape:export-xdpi="56.71"
   inkscape:export-ydpi="56.71"
   xmlns:inkscape="http://www.inkscape.org/namespaces/inkscape"
   xmlns:sodipodi="http://sodipodi.sourceforge.net/DTD/sodipodi-0.dtd"
   xmlns="http://www.w3.org/2000/svg"
   xmlns:svg="http://www.w3.org/2000/svg">
  <defs
     id="defs8" />
  <sodipodi:namedview
     id="namedview6"
     pagecolor="#ffffff"
     bordercolor="#666666"
     borderopacity="1.0"
     inkscape:showpageshadow="2"
     inkscape:pageopacity="0.0"
     inkscape:pagecheckerboard="0"
     inkscape:deskcolor="#d1d1d1"
     inkscape:document-units="pt"
     showgrid="false"
     inkscape:zoom="0.3822796"
     inkscape:cx="91.556023"
     inkscape:cy="902.4808"
     inkscape:window-width="2560"
     inkscape:window-height="1011"
     inkscape:window-x="0"
     inkscape:window-y="32"
     inkscape:window-maximized="1"
     inkscape:current-layer="svg4" />
  <path
     id="path771"
     d="M 199.02563 3.2916161 C 143.49694 26.292353 88.429799 50.406529 83.973986 54.862342 C 75.062359 63.773969 -12.485275 275.13265 -12.485274 287.7356 C -12.485274 300.33854 75.061965 511.69627 83.973592 520.6079 C 92.885219 529.51953 304.24355 617.06631 316.84649 617.06631 C 329.44944 617.06631 540.80717 529.51907 549.7188 520.60744 C 558.63042 511.69581 646.17756 300.33833 646.17756 287.73539 C 646.17756 275.13245 558.63032 63.774716 549.71869 54.863089 C 540.80706 45.951463 329.44923 -41.596524 316.84629 -41.596524 C 310.54482 -41.596524 254.55431 -19.709121 199.02563 3.2916161 z M 263.66787 112.24577 L 284.19916 103.74143 L 338.43964 234.68953 L 469.84464 180.2598 L 479.10528 202.61696 L 444.15206 276.96515 L 368.86755 308.14902 L 400.61811 384.80165 L 372.30647 462.27796 L 349.94931 471.5386 L 294.95288 338.76548 L 163.09184 393.38411 L 154.58715 372.85197 L 188.78442 296.67876 L 264.52497 265.30599 L 233.53036 190.47839 L 263.66787 112.24577 z "
     transform="matrix(1.4667988,0.60756796,-0.60756796,1.4667988,290.59423,-34.030007)" />
</svg>
