<?xml version="1.0" encoding="UTF-8" standalone="no"?>
<svg
   width="1161.0502pt"
   height="1161.0502pt"
   version="1.1"
   viewBox="0 0 1161.0501 1161.0501"
   id="svg4"
   sodipodi:docname="focuses.svg"
   inkscape:version="1.2.2 (b0a8486541, 2022-12-01)"
   inkscape:export-filename="../../../../../../tmp/any-drive.png"
   inkscape:export-xdpi="56.71"
   inkscape:export-ydpi="56.71"
   xmlns:inkscape="http://www.inkscape.org/namespaces/inkscape"
   xmlns:sodipodi="http://sodipodi.sourceforge.net/DTD/sodipodi-0.dtd"
   xmlns="http://www.w3.org/2000/svg"
   xmlns:svg="http://www.w3.org/2000/svg">
  <defs
     id="defs8" />
  <sodipodi:namedview
     id="namedview6"
     pagecolor="#ffffff"
     bordercolor="#666666"
     borderopacity="1.0"
     inkscape:showpageshadow="2"
     inkscape:pageopacity="0.0"
     inkscape:pagecheckerboard="0"
     inkscape:deskcolor="#d1d1d1"
     inkscape:document-units="pt"
     showgrid="false"
     inkscape:zoom="0.3822796"
     inkscape:cx="-210.57885"
     inkscape:cy="902.4808"
     inkscape:window-width="2560"
     inkscape:window-height="1011"
     inkscape:window-x="0"
     inkscape:window-y="32"
     inkscape:window-maximized="1"
     inkscape:current-layer="svg4" />
  <path
     id="path771"
     d="m 580.5249,155.16627 c -83.03798,0 -166.07551,1.66523 -174.11878,4.99685 -16.08651,6.66325 -239.57979,230.15652 -246.24305,246.24305 -6.66325,16.08651 -6.66325,332.15231 1e-5,348.23883 6.66325,16.08652 230.15652,239.57856 246.24304,246.2418 16.08652,6.6633 332.15232,6.6633 348.23884,0 16.08651,-6.66334 239.57848,-230.15528 246.24174,-246.2418 6.6633,-16.08651 6.6633,-332.15232 0,-348.23883 -6.66326,-16.08652 -230.15523,-239.5798 -246.24174,-246.24305 -8.04325,-3.33162 -91.08208,-4.99686 -174.12006,-4.99685 z m 24.90524,173.24687 h 30.70264 v 195.82069 h 196.50393 v 33.43305 l -83.92296,76.41876 H 636.13277 v 114.62687 l -77.09945,83.92296 H 525.60027 V 634.08564 h -197.1859 v -30.7039 l 83.92297,-79.1479 113.26294,-10e-6 -10e-6,-111.89772 z"
     style="stroke-width:1.38157" />
</svg>
