<?xml version="1.0" encoding="UTF-8" standalone="no"?>
<svg
   width="1200pt"
   height="1200pt"
   version="1.1"
   viewBox="0 0 1200 1200"
   id="svg178"
   sodipodi:docname="terrain-features.svg"
   inkscape:version="1.2.2 (b0a8486541, 2022-12-01)"
   xmlns:inkscape="http://www.inkscape.org/namespaces/inkscape"
   xmlns:sodipodi="http://sodipodi.sourceforge.net/DTD/sodipodi-0.dtd"
   xmlns="http://www.w3.org/2000/svg"
   xmlns:svg="http://www.w3.org/2000/svg">
  <defs
     id="defs182" />
  <sodipodi:namedview
     id="namedview180"
     pagecolor="#ffffff"
     bordercolor="#666666"
     borderopacity="1.0"
     inkscape:showpageshadow="2"
     inkscape:pageopacity="0.0"
     inkscape:pagecheckerboard="0"
     inkscape:deskcolor="#d1d1d1"
     inkscape:document-units="pt"
     showgrid="false"
     inkscape:zoom="0.5175"
     inkscape:cx="799.03382"
     inkscape:cy="800"
     inkscape:window-width="2560"
     inkscape:window-height="1011"
     inkscape:window-x="0"
     inkscape:window-y="32"
     inkscape:window-maximized="1"
     inkscape:current-layer="svg178" />
  <path
     d="m 786.54056,442.6929 c 1.06095,3.26407 1.06434,6.78238 0,10.04983 -1.06095,3.26408 -3.13192,6.1113 -5.91129,8.12803 l -96.15982,69.86122 36.73545,113.06286 c 1.42356,4.38602 0.91856,9.16824 -1.38635,13.16145 -2.30828,3.99286 -6.19936,6.81969 -10.71103,7.77548 -4.51141,0.95587 -9.21597,-0.0475 -12.94453,-2.76245 l -96.15982,-69.86122 -96.15983,69.86122 c -3.72847,2.7116 -8.43312,3.71146 -12.94106,2.75568 -4.5114,-0.95587 -8.40257,-3.7827 -10.70756,-7.7721 -2.30829,-3.99286 -2.8133,-8.77517 -1.39311,-13.15798 l 36.73545,-113.06285 -96.15983,-69.86122 v -0.003 c -3.72847,-2.70821 -6.13498,-6.87392 -6.6163,-11.45987 -0.48131,-4.58256 1.00672,-9.1587 4.09108,-12.58529 3.08446,-3.42338 7.48063,-5.37912 12.0907,-5.37912 h 118.86785 l 36.72503,-113.0455 v 0.003 c 1.42357,-4.38941 4.64365,-7.96534 8.85674,-9.84332 4.21317,-1.87444 9.02594,-1.87444 13.23955,0 4.21317,1.87781 7.43316,5.45374 8.85673,9.84332 l 36.72504,113.0455 h 118.86784 l -0.003,-0.003 c 3.43692,0 6.78577,1.09141 9.56479,3.11153 2.77902,2.02012 4.85034,4.87072 5.91129,8.13818 z m 203.92964,59.6925 c 0,297.63384 -365.24595,571.0238 -380.80402,582.5123 -2.79638,2.0744 -6.18583,3.1929 -9.66718,3.1929 -3.48135,0 -6.87054,-1.1185 -9.66718,-3.1929 -15.5546,-11.4868 -380.80402,-284.87846 -380.80402,-582.5123 0,-103.56141 41.13822,-202.87971 114.36442,-276.10591 73.2262,-73.22621 172.5445,-114.36443 276.10591,-114.36443 103.56141,0 202.87971,41.13822 276.10591,114.36443 73.22621,73.2262 114.36443,172.5445 114.36443,276.10591 z m -113.88718,0 c 0,-73.3555 -29.1395,-143.70176 -81.00871,-195.57358 -51.86921,-51.87181 -122.21721,-81.00871 -195.57357,-81.00871 -73.35636,0 -143.70176,29.1395 -195.57358,81.00871 -51.87181,51.86921 -81.00871,122.21722 -81.00871,195.57358 0,73.35636 29.1395,143.70176 81.00871,195.57357 51.86921,51.87182 122.21722,81.00871 195.57358,81.00871 73.32859,-0.0847 143.63234,-29.25143 195.4868,-81.10069 51.84925,-51.85272 81.01565,-122.15647 81.10069,-195.4868 z"
     id="path176"
     style="stroke-width:0.867712" />
</svg>
