<?xml version="1.0" encoding="UTF-8"?>
<svg width="1200pt" height="1200pt" version="1.1" viewBox="0 0 1200 1200" xmlns="http://www.w3.org/2000/svg">
 <path d="m480.14 921.94c3.6094 28.734-4.9688 57.141-24.234 78.984l419.34 71.156c-12.469-27.094-18.328-56.344-17.344-86.016z"/>
 <path d="m273.61 296.11c144.28-62.812 320.58-33.75 457.6 70.594l90.234-90.234c-174.84-140.26-407.26-180.1-598.55-96.797-14.016 6.0469-29.016 4.0781-40.734-7.6406-24.797-24.75-63.75-23.531-88.547 1.2656-24.797 24.797-23.578 66.234 1.2188 91.031 46.359 46.359 116.53 58.875 178.78 31.781z"/>
 <path d="m922.87 378.05-90.234 90.188c104.34 136.97 133.4 313.31 70.594 457.6-27.094 62.203-14.578 132.32 31.781 178.69l2.4844 2.4844c24.797 24.797 63.797 23.531 88.594-1.2188 24.797-24.797 23.531-66.281-1.2656-91.031-11.156-11.156-9.9844-27.094-5.1562-38.25 83.297-191.34 43.453-423.66-96.797-598.45z"/>
 <path d="m436.03 864.84-150.47 150.47 13.594 61.266c2.9062 13.219 19.266 17.953 28.828 8.3906l101.53-101.53c16.781-16.781 23.766-40.875 18.656-64.031z"/>
 <path d="m334.6 763.31-54.656-12.094c-23.156-5.1562-47.25 1.9219-64.031 18.656l-101.53 101.53c-9.5625 9.5625-4.7812 25.922 8.3906 28.828l61.266 13.594z"/>
 <path d="m914.16 228.74-734.63 734.68c-12.141 12.141-12.141 31.875 0 44.016l12.422 12.422c12.141 12.141 31.875 12.141 44.016 0l734.63-734.68c-10.359-25.781-30.562-46.031-56.438-56.438z"/>
 <path d="m1097.3 75.844-222.14 63.516c-19.828 5.6719-20.812 33.328-1.4531 40.359l48.281 17.578c37.219 13.547 66.562 42.844 80.109 80.109l17.578 48.281c7.0312 19.312 34.688 18.328 40.359-1.4062l63.516-222.14c4.5-16.078-10.312-30.891-26.25-26.297z"/>
 <path d="m206.53 342.14c-27.891 0-54.609-6.4219-79.078-17.578l71.016 418.69c18.328-16.078 42.094-25.594 66.516-25.594 4.2188 0 8.3438 0.84375 12.469 1.3594l-64.078-377.58c-2.3438 0.09375-4.5938 0.70313-6.8438 0.70313z"/>
</svg>
