<?xml version="1.0" encoding="UTF-8" standalone="no"?>
<svg
   width="1200pt"
   height="1200pt"
   version="1.1"
   viewBox="0 0 1200 1200"
   id="svg3719"
   sodipodi:docname="cavalry.svg"
   inkscape:version="1.2.2 (b0a8486541, 2022-12-01)"
   xmlns:inkscape="http://www.inkscape.org/namespaces/inkscape"
   xmlns:sodipodi="http://sodipodi.sourceforge.net/DTD/sodipodi-0.dtd"
   xmlns="http://www.w3.org/2000/svg"
   xmlns:svg="http://www.w3.org/2000/svg">
  <defs
     id="defs3723" />
  <sodipodi:namedview
     id="namedview3721"
     pagecolor="#ffffff"
     bordercolor="#666666"
     borderopacity="1.0"
     inkscape:showpageshadow="2"
     inkscape:pageopacity="0.0"
     inkscape:pagecheckerboard="0"
     inkscape:deskcolor="#d1d1d1"
     inkscape:document-units="pt"
     showgrid="false"
     inkscape:zoom="0.28247466"
     inkscape:cx="408.88623"
     inkscape:cy="796.53162"
     inkscape:window-width="2560"
     inkscape:window-height="1011"
     inkscape:window-x="0"
     inkscape:window-y="32"
     inkscape:window-maximized="1"
     inkscape:current-layer="svg3719" />
  <path
     id="path3711"
     d="M 811.83984 0.0029296875 C 811.83984 0.0029296875 736.5587 46.924729 720.01172 96.47168 C 720.01172 96.47168 509.03173 42.330866 302.73193 208.7417 L 387.38818 202.13232 C 387.38818 202.13232 376.56042 208.92899 359.16943 220.97607 C 318.20047 249.33505 283.51276 284.07054 255.75879 323.1665 C 228.10282 362.11946 217.8838 410.91595 226.88379 457.7959 C 243.47777 544.42081 286.36743 628.74616 341.21338 690.24609 C 408.76031 765.99602 506.95351 842.96698 617.7334 907.08691 C 684.53033 945.71188 717.9034 1002.8983 734.21338 1056.1963 C 738.33837 1047.7119 785.21303 943.5059 688.93213 771.47607 C 588.94823 592.83625 631.13655 504.66645 715.60547 449.1665 C 715.60547 449.1665 805.3243 546.90119 887.34521 573.34717 C 887.34521 573.34717 911.15647 673.75713 1003.7344 634.09717 C 1096.3123 594.43721 1027.5462 480.85692 1014.2813 449.12695 L 1014.3003 449.10938 C 1001.0813 417.42141 953.45576 219.28954 874.08984 169.07959 L 874.08984 26.44043 C 874.08984 26.44043 814.13709 59.909337 813.24609 92.487305 C 813.24609 92.487305 791.21506 63.424866 811.83984 0.0029296875 z M 854.74072 274.07813 C 870.35071 274.07813 883.00635 286.73377 883.00635 302.34375 C 883.00635 317.95373 870.35071 330.60938 854.74072 330.60938 C 839.13174 330.60938 826.47363 317.95373 826.47363 302.34375 C 826.47363 286.73377 839.13074 274.07813 854.74072 274.07813 z M 182.34961 449.09033 C 182.34961 449.09033 68.40012 753.44967 364.31982 954.95947 C 364.31982 954.95947 625.25329 1125.11 694.3125 1187.7744 C 694.33278 1187.6324 717.41089 1025.7676 591.19043 952.71973 C 380.21064 830.60985 166.49963 636.27014 182.34961 449.09033 z M 694.3125 1187.7744 C 694.31249 1187.7745 694.30957 1187.7993 694.30957 1187.7993 L 694.31982 1187.7803 C 694.31779 1187.7784 694.31454 1187.7763 694.3125 1187.7744 z M 149.57813 706.82813 C 144.00003 790.45304 163.78062 919.77906 307.91748 1017.939 C 307.91748 1017.939 511.9688 1151.0186 565.96875 1199.9985 C 565.96875 1199.9985 566.0625 1199.2954 566.20313 1197.936 C 570.89062 1154.9521 551.34371 1112.9052 515.71875 1088.3862 C 432.65683 1031.1523 351.32793 978.04644 349.87793 977.10645 L 349.87061 977.10938 L 349.44873 976.82813 C 227.28885 893.67221 172.5481 793.26804 149.57813 706.82813 z " />
</svg>
