<?xml version="1.0" encoding="UTF-8"?>
<svg width="1200pt" height="1200pt" version="1.1" viewBox="0 0 1200 1200" xmlns="http://www.w3.org/2000/svg">
 <path d="m694.31 1187.8s23.156-162-103.12-235.08c-210.98-122.11-424.69-316.45-408.84-503.63 0 0-113.95 304.36 181.97 505.87 0 0 260.95 170.16 330 232.82z"/>
 <path d="m694.31 1187.8s23.156-162-103.12-235.08c-210.98-122.11-424.69-316.45-408.84-503.63 0 0-113.95 304.36 181.97 505.87 0 0 260.95 170.16 330 232.82z"/>
 <path d="m349.87 977.11-0.42188-0.28125c-122.16-83.156-176.9-183.56-199.87-270-5.5781 83.625 14.203 212.95 158.34 311.11 0 0 204.05 133.08 258.05 182.06 0 0 0.09375-0.70312 0.23438-2.0625 4.6875-42.984-14.859-85.031-50.484-109.55-83.062-57.234-164.39-110.34-165.84-111.28z"/>
 <path d="m1014.3 449.11c-13.219-31.688-60.844-229.82-140.21-280.03v-142.64s-59.953 33.469-60.844 66.047c0 0-22.031-29.062-1.4062-92.484 0 0-75.281 46.922-91.828 96.469 0 0-210.98-54.141-417.28 112.27l84.656-6.6094s-10.828 6.7969-28.219 18.844c-40.969 28.359-75.656 63.094-103.41 102.19-27.656 38.953-37.875 87.75-28.875 134.63 16.594 86.625 59.484 170.95 114.33 232.45 67.547 75.75 165.74 152.72 276.52 216.84 66.797 38.625 100.17 95.812 116.48 149.11 4.125-8.4844 51-112.69-45.281-284.72-99.984-178.64-57.797-266.81 26.672-322.31 0 0 89.719 97.734 171.74 124.18 0 0 23.812 100.41 116.39 60.75s23.812-153.24 10.547-184.97zm-159.56-118.5c-15.609 0-28.266-12.656-28.266-28.266s12.656-28.266 28.266-28.266 28.266 12.656 28.266 28.266-12.656 28.266-28.266 28.266z"/>
</svg>
