<?xml version="1.0" encoding="UTF-8" standalone="no"?>
<svg
   width="1200pt"
   height="1200pt"
   version="1.1"
   viewBox="0 0 1200 1200"
   id="svg218"
   sodipodi:docname="explorer.svg"
   inkscape:version="1.2.2 (b0a8486541, 2022-12-01)"
   xmlns:inkscape="http://www.inkscape.org/namespaces/inkscape"
   xmlns:sodipodi="http://sodipodi.sourceforge.net/DTD/sodipodi-0.dtd"
   xmlns="http://www.w3.org/2000/svg"
   xmlns:svg="http://www.w3.org/2000/svg">
  <defs
     id="defs222" />
  <sodipodi:namedview
     id="namedview220"
     pagecolor="#ffffff"
     bordercolor="#666666"
     borderopacity="1.0"
     inkscape:showpageshadow="2"
     inkscape:pageopacity="0.0"
     inkscape:pagecheckerboard="0"
     inkscape:deskcolor="#d1d1d1"
     inkscape:document-units="pt"
     showgrid="true"
     inkscape:zoom="0.31681719"
     inkscape:cx="265.13713"
     inkscape:cy="656.53004"
     inkscape:window-width="2560"
     inkscape:window-height="1011"
     inkscape:window-x="0"
     inkscape:window-y="32"
     inkscape:window-maximized="1"
     inkscape:current-layer="svg218"
     showguides="true">
    <inkscape:grid
       type="xygrid"
       id="grid533"
       spacingx="600"
       spacingy="600"
       units="pt"
       originx="0"
       originy="0" />
  </sodipodi:namedview>
  <circle
     style="fill:#b3b3b3;stroke-width:0.566929"
     id="path784"
     cx="600"
     cy="600"
     r="134.43005" />
  <path
     id="path502"
     style="fill:#999999;stroke-width:1.46706"
     d="m 333.01904,692.5708 -24.79248,44.87988 120.56397,33.75879 33.75879,120.56397 44.87988,-24.79248 -35.22803,-122.30274 c -2.4113,-7.2339 -9.64549,-14.46809 -16.87939,-16.87939 z"
     inkscape:transform-center-x="192.06369"
     inkscape:transform-center-y="192.38993" />
  <path
     d="M 308.2259,737.4507 117.7394,1082.2606 462.5493,891.7741 428.79106,771.20894 Z"
     id="path210"
     style="stroke-width:1.28603"
     inkscape:transform-center-x="309.74722"
     inkscape:transform-center-y="310.07346" />
  <path
     d="M 1188.3579,600 744.67818,472.20094 c -7.23391,-2.4113 -14.46782,-9.64521 -16.87912,-16.87912 L 600,11.642062 472.20094,455.32182 c -2.4113,7.23391 -9.64521,14.46782 -16.87912,16.87912 L 11.642062,600 455.32182,727.79906 c 7.23391,2.4113 14.46782,9.64521 16.87912,16.87912 L 600,1188.3579 727.79906,744.67818 c 2.4113,-7.23391 9.64521,-14.46782 16.87912,-16.87912 z M 600,708.50864 c -60.28258,0 -108.50864,-48.22606 -108.50864,-108.50864 0,-60.28258 48.22606,-108.50864 108.50864,-108.50864 60.28258,0 108.50864,48.22606 108.50864,108.50864 0,60.28258 -48.22606,108.50864 -108.50864,108.50864 z"
     id="path216"
     style="stroke-width:1.28603" />
  <path
     id="path671"
     style="fill:#999999;stroke-width:1.46706"
     d="m 507.4292,333.01904 -44.87988,-24.79248 -33.75879,120.56397 -120.56397,33.75879 24.79248,44.87988 122.30274,-35.22803 c 7.2339,-2.4113 14.46809,-9.64549 16.87939,-16.87939 z"
     inkscape:transform-center-x="192.06369"
     inkscape:transform-center-y="192.38993" />
  <path
     d="M 462.5493,308.2259 117.7394,117.7394 308.2259,462.5493 428.79106,428.79106 Z"
     id="path673"
     style="stroke-width:1.28603"
     inkscape:transform-center-x="309.74722"
     inkscape:transform-center-y="310.07346" />
  <path
     id="path685"
     style="fill:#999999;stroke-width:1.46706"
     d="m 692.5708,866.98096 44.87988,24.79248 33.75879,-120.56397 120.56397,-33.75879 -24.79248,-44.87988 -122.30274,35.22803 c -7.2339,2.4113 -14.46809,9.64549 -16.87939,16.87939 z"
     inkscape:transform-center-x="192.06369"
     inkscape:transform-center-y="192.38993" />
  <path
     d="M 737.4507,891.7741 1082.2606,1082.2606 891.7741,737.4507 771.20894,771.20894 Z"
     id="path687"
     style="stroke-width:1.28603"
     inkscape:transform-center-x="309.74722"
     inkscape:transform-center-y="310.07346" />
  <path
     id="path699"
     style="fill:#999999;stroke-width:1.46706"
     d="m 866.98096,507.4292 24.79248,-44.87988 -120.56397,-33.75879 -33.75879,-120.56397 -44.87988,24.79248 35.22803,122.30274 c 2.4113,7.2339 9.64549,14.46809 16.87939,16.87939 z"
     inkscape:transform-center-x="192.06369"
     inkscape:transform-center-y="192.38993" />
  <path
     d="M 891.7741,462.5493 1082.2606,117.7394 737.4507,308.2259 771.20894,428.79106 Z"
     id="path701"
     style="stroke-width:1.28603"
     inkscape:transform-center-x="309.74722"
     inkscape:transform-center-y="310.07346" />
</svg>
