<?xml version="1.0" encoding="UTF-8"?>
<svg width="1200pt" height="1200pt" version="1.1" viewBox="0 0 1200 1200" xmlns="http://www.w3.org/2000/svg">
 <path d="m352.57 783.56-285.92 280.38c-29.137 29.352-28.945 76.754 0.44531 105.9 29.352 29.172 76.789 28.945 105.93-0.38281l286.14-281.64z"/>
 <path d="m1154.4 385.31c-13.738-186.19-154.25-333.66-333.35-381.14l-148.23 22.332c175.91 19.43 318.09 151.92 325.66 322.73 8.8203 199.16-166.34 371.95-391.89 372.18-90.625 0.097656-157.69-32.676-157.69-32.676l-68.711 67.812 106.51 104.21 31.957-31.453c47.219 14.652 106.62 25.355 158.95 25.355 282.46 0.003906 495.2-220.14 476.8-469.34z"/>
</svg>
