<?xml version="1.0" encoding="UTF-8" standalone="no"?>
<svg
   width="1200pt"
   height="1200pt"
   version="1.1"
   viewBox="0 0 1200 1200"
   id="svg228"
   sodipodi:docname="ship.svg"
   inkscape:version="1.2.2 (b0a8486541, 2022-12-01)"
   xmlns:inkscape="http://www.inkscape.org/namespaces/inkscape"
   xmlns:sodipodi="http://sodipodi.sourceforge.net/DTD/sodipodi-0.dtd"
   xmlns="http://www.w3.org/2000/svg"
   xmlns:svg="http://www.w3.org/2000/svg">
  <sodipodi:namedview
     id="namedview230"
     pagecolor="#ffffff"
     bordercolor="#666666"
     borderopacity="1.0"
     inkscape:showpageshadow="2"
     inkscape:pageopacity="0.0"
     inkscape:pagecheckerboard="0"
     inkscape:deskcolor="#d1d1d1"
     inkscape:document-units="pt"
     showgrid="false"
     inkscape:zoom="0.5175"
     inkscape:cx="742.02899"
     inkscape:cy="800"
     inkscape:window-width="2560"
     inkscape:window-height="1011"
     inkscape:window-x="0"
     inkscape:window-y="32"
     inkscape:window-maximized="1"
     inkscape:current-layer="svg228" />
  <defs
     id="defs222">
    <clipPath
       id="a">
      <path
         d="m222.14 227h755.71v746h-755.71z"
         id="path219" />
    </clipPath>
  </defs>
  <g
     clip-path="url(#a)"
     id="g226"
     transform="matrix(1.5651988,0,0,1.5651988,-339.11693,-339.11928)">
    <path
       d="M 244.37,716.69 H 555.55 V 650.01 H 444.42 c -18.441,0 -28.863,-21.16 -17.617,-35.777 34.027,-44.234 50.957,-95.031 50.957,-153.15 0,-58.121 -16.93,-108.91 -50.957,-153.15 -11.246,-14.617 -0.82422,-35.777 17.617,-35.777 h 111.13 v -22.227 c 0,-12.277 9.9531,-22.227 22.227,-22.227 12.277,0 22.227,9.9492 22.227,22.227 v 22.227 h 66.684 c 6.8984,0 13.41,3.2031 17.617,8.6719 40.062,52.086 60.176,112.43 60.176,180.25 0,67.832 -20.113,128.17 -60.176,180.25 -4.207,5.4727 -10.719,8.6758 -17.617,8.6758 h -66.684 v 66.68 h 79.703 l 60.172,-60.168 c 4.168,-4.168 9.8203,-6.5117 15.715,-6.5117 h 200.04 c 12.273,0 22.227,9.9531 22.227,22.227 0,12.277 -9.9531,22.227 -22.227,22.227 h -44.812 c -6.0039,182.71 -88.504,277.84 -299.71,277.84 h -77.793 c -186.99,0 -259.85,-64.125 -266.25,-211.15 h -22.695 c -12.273,0 -22.227,-9.9531 -22.227,-22.23 0,-12.273 9.9531,-22.227 22.227,-22.227 z m 466.77,144.48 c 12.273,0 22.227,-9.9531 22.227,-22.227 0,-12.277 -9.9531,-22.227 -22.227,-22.227 -12.277,0 -22.227,9.9492 -22.227,22.227 0,12.273 9.9492,22.227 22.227,22.227 z m -133.36,0 c 12.277,0 22.227,-9.9531 22.227,-22.227 0,-12.277 -9.9492,-22.227 -22.227,-22.227 -12.273,0 -22.227,9.9492 -22.227,22.227 0,12.273 9.9531,22.227 22.227,22.227 z m -133.36,0 c 12.273,0 22.227,-9.9531 22.227,-22.227 0,-12.277 -9.9531,-22.227 -22.227,-22.227 -12.277,0 -22.227,9.9492 -22.227,22.227 0,12.273 9.9492,22.227 22.227,22.227 z"
       id="path224" />
  </g>
</svg>
