<?xml version="1.0" encoding="UTF-8" standalone="no"?>
<svg
   width="1181.2419pt"
   height="1181.2419pt"
   version="1.1"
   viewBox="0 0 1181.2419 1181.2419"
   id="svg4"
   sodipodi:docname="curiosity.svg"
   inkscape:version="1.2.2 (b0a8486541, 2022-12-01)"
   inkscape:export-filename="../../../../../../tmp/curiosity.png"
   inkscape:export-xdpi="30.719999"
   inkscape:export-ydpi="30.719999"
   xml:space="preserve"
   xmlns:inkscape="http://www.inkscape.org/namespaces/inkscape"
   xmlns:sodipodi="http://sodipodi.sourceforge.net/DTD/sodipodi-0.dtd"
   xmlns="http://www.w3.org/2000/svg"
   xmlns:svg="http://www.w3.org/2000/svg"><defs
     id="defs8" /><sodipodi:namedview
     id="namedview6"
     pagecolor="#ffffff"
     bordercolor="#666666"
     borderopacity="1.0"
     inkscape:showpageshadow="2"
     inkscape:pageopacity="0.0"
     inkscape:pagecheckerboard="0"
     inkscape:deskcolor="#d1d1d1"
     inkscape:document-units="pt"
     showgrid="false"
     inkscape:zoom="0.44065399"
     inkscape:cx="28.366928"
     inkscape:cy="998.51587"
     inkscape:window-width="2560"
     inkscape:window-height="1011"
     inkscape:window-x="0"
     inkscape:window-y="32"
     inkscape:window-maximized="1"
     inkscape:current-layer="svg4" /><g
     id="g220"
     transform="matrix(0.64254203,0,0,0.64254203,205.10154,205.09865)"><path
       d="m 745.99,1054 c 0,80.629 -65.363,145.99 -145.99,145.99 -80.627,0 -145.99,-65.363 -145.99,-145.99 0,-80.633 65.363,-146 145.99,-146 80.627,0 145.99,65.363 145.99,146"
       fill-rule="evenodd"
       id="path208" /><path
       d="m 197.62,338.28 14.242,-46.289 c 46.289,-178.04 202.97,-291.99 384.57,-291.99 217.21,0 405.93,170.92 405.93,391.69 0,178.04 -121.07,327.6 -288.43,373.89 v 78.34 h -231.45 v -138.87 c 0,-78.34 56.973,-145.99 135.31,-153.12 85.461,-10.684 156.68,-74.777 156.68,-160.24 0,-96.141 -85.461,-160.24 -178.04,-160.24 -78.34,0 -142.43,42.73 -163.8,121.07 L 418.39,398.81 197.62,338.275 Z"
       id="path210" /></g></svg>
