<?xml version="1.0" encoding="UTF-8" standalone="no"?>
<svg
   width="1181.2419pt"
   height="1181.2419pt"
   version="1.1"
   viewBox="0 0 1181.2419 1181.2419"
   id="svg4"
   sodipodi:docname="domination.svg"
   inkscape:version="1.2.2 (b0a8486541, 2022-12-01)"
   inkscape:export-filename="../../../../../../tmp/curiosity.png"
   inkscape:export-xdpi="30.719999"
   inkscape:export-ydpi="30.719999"
   xml:space="preserve"
   xmlns:inkscape="http://www.inkscape.org/namespaces/inkscape"
   xmlns:sodipodi="http://sodipodi.sourceforge.net/DTD/sodipodi-0.dtd"
   xmlns="http://www.w3.org/2000/svg"
   xmlns:svg="http://www.w3.org/2000/svg"><defs
     id="defs8" /><sodipodi:namedview
     id="namedview6"
     pagecolor="#ffffff"
     bordercolor="#666666"
     borderopacity="1.0"
     inkscape:showpageshadow="2"
     inkscape:pageopacity="0.0"
     inkscape:pagecheckerboard="0"
     inkscape:deskcolor="#d1d1d1"
     inkscape:document-units="pt"
     showgrid="false"
     inkscape:zoom="0.44065399"
     inkscape:cx="30.636282"
     inkscape:cy="998.51587"
     inkscape:window-width="2560"
     inkscape:window-height="1011"
     inkscape:window-x="0"
     inkscape:window-y="32"
     inkscape:window-maximized="1"
     inkscape:current-layer="svg4" /><path
     id="path347"
     style="stroke-width:0.77142"
     d="M 590.62354 220.3374 C 565.0641 220.3374 544.3374 241.06408 544.3374 266.62354 L 544.3374 325.396 C 571.9789 341.40295 590.62354 371.23884 590.62354 405.47754 L 590.62354 405.479 C 590.62354 421.68807 586.43804 436.89604 579.11865 450.14209 C 582.81908 451.09734 586.62489 451.76367 590.62354 451.76367 C 616.18299 451.76367 636.9082 431.03846 636.9082 405.479 L 636.9082 266.62354 C 636.9082 241.06408 616.18299 220.3374 590.62354 220.3374 z M 729.479 220.33887 C 703.91956 220.33887 683.19434 241.06408 683.19434 266.62354 L 683.19434 405.479 C 683.19434 431.03845 703.91956 451.76367 729.479 451.76367 C 755.03845 451.76367 775.76367 431.03845 775.76367 405.479 L 775.76367 266.62354 C 775.76367 241.06408 755.03845 220.33887 729.479 220.33887 z M 868.33447 266.62354 C 842.77498 266.62354 822.0498 287.34875 822.0498 312.9082 L 822.0498 405.479 C 822.0498 431.03845 842.77498 451.76367 868.33447 451.76367 C 893.89391 451.76367 914.61914 431.03845 914.61914 405.479 L 914.61914 312.9082 C 914.61914 287.34875 893.89391 266.62354 868.33447 266.62354 z M 452.7627 266.63086 C 426.82371 266.0764 405.48633 286.95001 405.48633 312.90674 L 498.05713 312.90674 C 498.05713 287.72683 477.93026 267.17626 452.7627 266.63086 z M 359.19727 359.19287 C 341.66521 359.19287 325.63123 369.09741 317.79053 384.78809 L 292.21289 435.95215 C 253.33488 513.66497 257.01757 613.0091 315.23584 683.19287 L 451.76953 845.19141 L 451.76953 960.90381 L 868.33594 960.90381 L 868.33594 845.19141 C 896.67943 819.77078 914.62061 782.97411 914.62061 741.90527 L 914.62061 485.5708 C 900.99431 493.4655 885.21999 498.05859 868.33594 498.05859 C 840.64891 498.05859 815.87636 485.8386 798.9082 466.57471 L 798.90674 466.56738 C 781.93859 485.83204 757.16603 498.05127 729.479 498.05127 C 701.79198 498.05127 677.01941 485.83126 660.05127 466.56738 C 644.35134 484.3972 621.91903 496.06259 596.71289 497.71729 C 635.46439 531.65358 660.05127 581.35387 660.05127 636.90381 L 613.76514 636.90381 C 613.76514 560.22006 551.59341 498.04834 474.90967 498.04834 L 382.34033 498.04834 L 405.48193 451.76367 L 498.05273 451.76367 C 523.61219 451.76367 544.3374 431.03845 544.3374 405.479 C 544.3374 379.91955 523.61219 359.19287 498.05273 359.19287 L 359.19727 359.19287 z " /></svg>
