<?xml version="1.0" encoding="UTF-8"?>
<svg width="1200pt" height="1200pt" version="1.1" viewBox="0 0 1200 1200" xmlns="http://www.w3.org/2000/svg">
 <path d="m966.94 318.74h-160.69v-215.63c0-46.688 37.688-84.375 84.375-84.375 23.25 0 44.438 9.375 59.625 24.75 15.375 15.188 24.75 36.375 24.75 59.625v215.81c-3.9375-0.1875-7.875-0.1875-8.0625-0.1875zm158.06 248.06-53.062-138.37c-16.875-44.062-61.312-72.188-105-72.188h-237.94c-20.812 2.25-35.25 18.188-35.25 37.5 0 6.1875 0.375 12.188 0.9375 18.188 1.5 12.562 4.125 24.75 8.0625 36.562 8.4375 24 22.125 46.125 40.5 64.5 31.875 31.875 74.25 49.5 119.25 49.5h75c9.375 0 17.438 6.9375 18.562 16.312 1.3125 9.375-4.6875 18.188-13.688 20.625l-45.75 12.188c-11.25 3-23.25 7.125-36.562 12.562-75.375 30.938-132.74 89.812-162.56 161.81-14.625 35.438-22.5 73.875-22.5 114 0 10.312-8.4375 18.75-18.75 18.75s-18.75-8.4375-18.75-18.75c0-42 7.6875-82.5 22.125-120-40.312-54.188-104.06-86.25-172.13-86.25-10.312 0-18.75-8.4375-18.75-18.75s8.4375-18.75 18.75-18.75c73.125 0 141.94 31.5 189.37 85.688 33-62.062 85.5-113.25 151.5-144.74-42-6.9375-80.812-26.812-111.75-57.562-25.875-25.875-43.875-57.188-53.062-91.5-24.75-4.125-47.062-15.938-64.125-32.812-6.1875 61.5-58.312 109.69-121.31 109.69-32.812 0-62.625-12.938-84.375-34.312v43.688c0 67.125-54.75 121.87-121.87 121.87-24.188 0-46.688-7.125-65.625-19.312v100.69c0 23.812 6.375 47.062 18.75 67.5l80.438 134.06c8.625 14.625 13.312 31.312 13.312 48.188v193.87c0 10.312 8.4375 18.75 18.75 18.75h600c10.312 0 18.75-8.4375 18.75-18.75v-238.13c0-24.562 7.125-48.188 20.812-68.625l136.69-204.94c20.062-30.375 24.375-68.812 11.25-102.75zm-468.37-159c-0.1875-4.6875-0.375-9.375-0.375-14.062 0-38.625 28.875-70.688 67.312-74.625 1.3125-0.1875 4.6875-0.375 7.6875-0.375h37.5v-234.37c0-23.25-9.375-44.438-24.75-59.625-15.188-15.375-36.375-24.75-59.625-24.75-46.688 0-84.375 37.688-84.375 84.375v243.74c0 36.938 23.625 68.25 56.625 79.688zm-178.5 79.688c46.594 0 84.375-37.781 84.375-84.375v-243.74c0-46.594-37.781-84.375-84.375-84.375s-84.375 37.781-84.375 84.375v243.74c0 46.594 37.781 84.375 84.375 84.375zm-206.26 131.26c46.594 0 84.375-37.781 84.375-84.375v-243.74c0-46.594-37.781-84.375-84.375-84.375s-84.375 37.781-84.375 84.375v243.74c0 46.594 37.781 84.375 84.375 84.375z"/>
</svg>
