<?xml version="1.0" encoding="UTF-8" standalone="no"?>
<svg
   width="1181.2419pt"
   height="1181.2419pt"
   version="1.1"
   viewBox="0 0 1181.2419 1181.2419"
   id="svg4"
   sodipodi:docname="effort.svg"
   inkscape:version="1.2.2 (b0a8486541, 2022-12-01)"
   inkscape:export-filename="../../../../../../tmp/effort.png"
   inkscape:export-xdpi="30.719999"
   inkscape:export-ydpi="30.719999"
   xml:space="preserve"
   xmlns:inkscape="http://www.inkscape.org/namespaces/inkscape"
   xmlns:sodipodi="http://sodipodi.sourceforge.net/DTD/sodipodi-0.dtd"
   xmlns="http://www.w3.org/2000/svg"
   xmlns:svg="http://www.w3.org/2000/svg"><defs
     id="defs8" /><sodipodi:namedview
     id="namedview6"
     pagecolor="#ffffff"
     bordercolor="#666666"
     borderopacity="1.0"
     inkscape:showpageshadow="2"
     inkscape:pageopacity="0.0"
     inkscape:pagecheckerboard="0"
     inkscape:deskcolor="#d1d1d1"
     inkscape:document-units="pt"
     showgrid="false"
     inkscape:zoom="0.44065399"
     inkscape:cx="375.57813"
     inkscape:cy="717.11594"
     inkscape:window-width="2560"
     inkscape:window-height="1011"
     inkscape:window-x="0"
     inkscape:window-y="32"
     inkscape:window-maximized="1"
     inkscape:current-layer="svg4" /><g
     id="g354"
     transform="matrix(0.61190035,0,0,0.61190035,223.48075,223.48076)"><path
       d="m 35.026427,984.24235 c -35.94575681,35.94575 -35.94575681,94.87725 0,132.20535 35.945757,37.385 94.877273,35.9458 132.205383,0 l 550.42723,-597.84819 -84.7969,-84.7969 z"
       id="path332"
       style="stroke-width:1.13774" /><path
       d="m 1095.6731,393.60739 c -139.40723,21.54652 -99.14375,-99.1438 -99.14375,-99.1438 L 861.44548,159.37972 C 699.04448,-3.0212803 497.82378,74.582826 497.82378,74.582826 779.47131,213.99011 671.68183,392.17156 671.68183,392.17156 l 84.7969,84.7969 c 4.31988,-11.51961 10.07969,-21.54652 18.66576,-30.18538 31.62576,-31.62575 83.35766,-31.62575 116.42493,0 31.62576,31.62576 31.62576,83.35766 0,116.42494 l -4.31988,4.31988 113.54306,112.10266 191.1403,-191.14032 z"
       id="path334"
       style="stroke-width:1.13774" /></g></svg>
