<?xml version="1.0" encoding="UTF-8" standalone="no"?>
<svg
   width="1181.2419pt"
   height="1181.2419pt"
   version="1.1"
   viewBox="0 0 1181.2419 1181.2419"
   id="svg4"
   sodipodi:docname="growth.svg"
   inkscape:version="1.2.2 (b0a8486541, 2022-12-01)"
   inkscape:export-filename="../../../../../../tmp/growth.png"
   inkscape:export-xdpi="30.719999"
   inkscape:export-ydpi="30.719999"
   xml:space="preserve"
   xmlns:inkscape="http://www.inkscape.org/namespaces/inkscape"
   xmlns:sodipodi="http://sodipodi.sourceforge.net/DTD/sodipodi-0.dtd"
   xmlns="http://www.w3.org/2000/svg"
   xmlns:svg="http://www.w3.org/2000/svg"><defs
     id="defs8" /><sodipodi:namedview
     id="namedview6"
     pagecolor="#ffffff"
     bordercolor="#666666"
     borderopacity="1.0"
     inkscape:showpageshadow="2"
     inkscape:pageopacity="0.0"
     inkscape:pagecheckerboard="0"
     inkscape:deskcolor="#d1d1d1"
     inkscape:document-units="pt"
     showgrid="false"
     inkscape:zoom="0.44065399"
     inkscape:cx="375.57813"
     inkscape:cy="717.11594"
     inkscape:window-width="2560"
     inkscape:window-height="1011"
     inkscape:window-x="0"
     inkscape:window-y="32"
     inkscape:window-maximized="1"
     inkscape:current-layer="svg4" /><path
     d="m 880.19567,516.76637 c 46.66542,-109.38882 31.68717,-211.4266 18.52729,-262.54244 -0.99567,-3.63628 -4.19909,-6.19032 -8.09503,-6.19032 -128.44071,1.34194 -246.44584,74.93389 -300.55383,187.39708 -47.87803,99.38725 -31.03797,195.14523 -11.29812,253.75988 1.64493,5.1081 1.55839,10.51964 -0.43296,15.4973 -5.3245,13.41943 -10.30258,27.05589 -14.71875,40.77816 -1.64495,5.1947 -8.65784,5.97396 -11.29812,1.21212 -5.32456,-9.17727 -10.95182,-18.26781 -16.96937,-27.05586 -3.11679,-4.67521 -4.67523,-10.21574 -4.11244,-15.75681 4.19908,-40.77816 0.43297,-97.31864 -36.36286,-150.60472 -47.7478,-69.13242 -133.98166,-105.63014 -219.52566,-93.07056 -2.55405,0.3463 -4.41546,2.42422 -4.76177,4.97827 -3.41982,35.36733 -2.77051,104.71592 39.78262,172.6395 53.98148,86.1018 141.95151,114.71744 183.28746,123.54613 3.76616,0.77919 7.18599,1.55838 10.21581,1.99124 -28.3543,-77.57423 -72.89943,-150.04142 -131.98695,-209.43184 61.73058,54.63071 111.04192,123.67542 145.06373,199.81816 10.43281,25.93012 18.52727,52.50939 23.72292,79.47846 0.13003,0.56279 0.3463,1.2121 0.56278,1.90473 -3.63631,20.51931 -6.32031,41.21125 -8.09509,62.0769 h -78.91601 c -8.96084,0 -17.27227,6.10378 -18.74431,14.97828 -1.90475,11.29811 6.88296,21.03831 17.74877,21.03831 h 218.00191 c 8.96083,0 17.27227,-6.10383 18.74433,-14.97829 1.90474,-11.29814 -6.88294,-21.0383 -17.74882,-21.0383 h -79.56519 c -3.33333,-59.5225 1.99122,-119.9999 16.18987,-179.21484 32.89976,-113.46149 87.44458,-220.0798 161.81607,-310.29673 -72.89946,100.86489 -121.56058,217.53089 -145.19303,338.0018 4.19909,-1.34194 9.09077,-3.20345 14.41493,-5.1947 58.57042,-22.55376 181.03414,-84.71656 240.3045,-223.72767 z"
     id="path41"
     style="stroke-width:3.3228" /></svg>
