<?xml version="1.0" encoding="UTF-8" standalone="no"?>
<!-- Created with Inkscape (http://www.inkscape.org/) -->

<svg
   width="79.340141mm"
   height="68.710579mm"
   viewBox="0 0 79.340141 68.710579"
   version="1.1"
   id="svg5"
   inkscape:version="1.2.2 (b0a8486541, 2022-12-01)"
   sodipodi:docname="forest-hex.svg"
   xmlns:inkscape="http://www.inkscape.org/namespaces/inkscape"
   xmlns:sodipodi="http://sodipodi.sourceforge.net/DTD/sodipodi-0.dtd"
   xmlns="http://www.w3.org/2000/svg"
   xmlns:svg="http://www.w3.org/2000/svg">
  <sodipodi:namedview
     id="namedview7"
     pagecolor="#ffffff"
     bordercolor="#666666"
     borderopacity="1.0"
     inkscape:showpageshadow="2"
     inkscape:pageopacity="0.0"
     inkscape:pagecheckerboard="0"
     inkscape:deskcolor="#d1d1d1"
     inkscape:document-units="mm"
     showgrid="false"
     inkscape:zoom="0.54488787"
     inkscape:cx="-343.18987"
     inkscape:cy="271.61551"
     inkscape:window-width="2560"
     inkscape:window-height="1011"
     inkscape:window-x="0"
     inkscape:window-y="32"
     inkscape:window-maximized="1"
     inkscape:current-layer="layer1" />
  <defs
     id="defs2" />
  <g
     inkscape:label="Capa 1"
     inkscape:groupmode="layer"
     id="layer1"
     transform="translate(-31.588039,-65.159153)">
    <path
       id="path234"
       inkscape:transform-center-y="-1.2537253e-06"
       d="M 51.423004 65.159153 L 31.588039 99.514679 L 51.423004 133.86969 L 91.092934 133.86969 L 110.92842 99.514679 L 91.092934 65.159153 L 51.423004 65.159153 z M 71.035244 72.124103 C 71.428206 72.124103 71.821159 72.263941 72.054303 72.543198 C 72.618383 73.22838 73.188068 73.91319 73.75239 74.59837 C 77.759535 79.440329 81.766734 84.276972 85.773879 89.118931 C 86.539661 90.045686 86.090535 91.577179 84.75482 91.577179 L 81.455796 91.577179 C 83.966023 95.618861 86.481948 99.660431 88.997971 103.70202 C 89.579332 104.63477 88.824987 105.86675 87.75412 105.86675 L 87.379982 105.86675 C 87.23024 105.91865 87.074772 105.95925 86.901975 105.95925 L 83.919728 105.95925 C 86.470256 110.21972 89.02093 114.47985 91.571458 118.74038 L 91.577659 118.74038 C 92.141794 119.67893 91.416146 120.90562 90.333807 120.90562 L 73.649038 120.90562 L 73.649038 125.46503 C 73.649038 126.27112 72.123661 126.90474 70.695729 126.90474 C 69.18739 126.90474 67.741905 126.21921 67.741905 125.46503 L 67.741905 120.90562 L 65.111057 120.90562 L 52.191433 120.90562 C 51.131968 120.90562 50.354616 119.67312 50.947581 118.74038 C 51.344887 118.11272 51.747605 117.49094 52.144924 116.86349 C 54.465201 113.22481 56.785557 109.59211 59.105739 105.95925 L 55.610862 105.95925 C 55.438068 105.95925 55.283117 105.91845 55.133372 105.86675 L 54.30965 105.86675 C 53.267428 105.86675 52.450274 104.62896 53.066315 103.70202 C 53.469237 103.1032 53.866401 102.49883 54.269342 101.90006 C 56.566495 98.457137 58.858075 95.020187 61.155226 91.577179 L 57.315151 91.577179 C 55.985264 91.577179 55.530309 90.040066 56.296092 89.118931 C 56.860172 88.433761 57.430375 87.748424 57.994696 87.063242 C 62.001842 82.221283 66.009042 77.385168 70.016184 72.543198 C 70.249311 72.263941 70.642281 72.124103 71.035244 72.124103 z " />
  </g>
</svg>
