<?xml version="1.0" encoding="UTF-8"?>
<svg width="1200pt" height="1200pt" version="1.1" viewBox="0 0 1200 1200" xmlns="http://www.w3.org/2000/svg">
 <path d="m1012.7 1004c-53.16-88.801-106.32-177.6-159.48-266.4h62.16c3.6016 0 6.8398-0.83984 9.9609-1.9219h7.8008c22.32 0 38.039-25.68 25.922-45.121-52.441-84.238-104.88-168.48-157.2-252.72h68.762c27.84 0 37.199-31.922 21.238-51.238-83.52-100.92-167.04-201.72-250.56-302.64-11.762-14.281-23.641-28.559-35.398-42.84-9.7188-11.641-32.762-11.641-42.48 0-83.52 100.92-167.04 201.72-250.56 302.64-11.762 14.281-23.641 28.559-35.398 42.84-15.961 19.199-6.4805 51.238 21.238 51.238h80.039c-47.879 71.762-95.641 143.4-143.52 215.16-8.3984 12.48-16.68 25.078-25.078 37.559-12.84 19.32 4.1992 45.121 25.922 45.121h17.16c3.1211 1.0781 6.3594 1.9219 9.9609 1.9219h72.84c-48.359 75.719-96.719 151.44-145.08 227.28-8.2812 13.078-16.68 26.039-24.961 39.121-12.359 19.441 3.8398 45.121 25.922 45.121h269.28 54.84v95.039c0 15.719 30.121 30 61.559 30 29.762 0 61.559-13.199 61.559-30v-95.039h347.76c22.559 0 37.68-25.559 25.922-45.121z"/>
</svg>
