<?xml version="1.0" encoding="UTF-8" standalone="no"?>
<svg
   width="1200pt"
   height="1200pt"
   version="1.1"
   viewBox="0 0 1200 1200"
   id="svg372"
   sodipodi:docname="forest.svg"
   inkscape:version="1.2.2 (b0a8486541, 2022-12-01)"
   xmlns:inkscape="http://www.inkscape.org/namespaces/inkscape"
   xmlns:sodipodi="http://sodipodi.sourceforge.net/DTD/sodipodi-0.dtd"
   xmlns="http://www.w3.org/2000/svg"
   xmlns:svg="http://www.w3.org/2000/svg">
  <defs
     id="defs376" />
  <sodipodi:namedview
     id="namedview374"
     pagecolor="#ffffff"
     bordercolor="#666666"
     borderopacity="1.0"
     inkscape:showpageshadow="2"
     inkscape:pageopacity="0.0"
     inkscape:pagecheckerboard="0"
     inkscape:deskcolor="#d1d1d1"
     inkscape:document-units="pt"
     showgrid="false"
     inkscape:zoom="0.3822796"
     inkscape:cx="175.26439"
     inkscape:cy="931.25554"
     inkscape:window-width="2560"
     inkscape:window-height="1011"
     inkscape:window-x="0"
     inkscape:window-y="32"
     inkscape:window-maximized="1"
     inkscape:current-layer="svg372" />
  <path
     d="M 1042.2664,1018.5976 C 986.73553,925.83619 931.20468,833.0769 875.67381,740.31654 h 64.93224 c 3.76223,0 7.14485,-0.87729 10.40514,-2.00761 h 8.14871 c 23.31544,0 39.73548,-26.8253 27.07809,-47.13333 C 931.45819,603.18071 876.68049,515.18164 822.0271,427.18466 h 71.82868 c 29.08162,0 38.85802,-33.34568 22.18518,-53.52314 C 828.7961,268.24064 741.55122,162.94511 654.30636,57.524227 642.01979,42.606309 629.61101,27.691534 617.32966,12.773616 607.17742,0.61345 583.10652,0.61345 572.95511,12.773616 485.71025,118.19451 398.46538,223.49004 311.2205,328.91092 c -12.28656,14.9179 -24.69534,29.83269 -36.9767,44.7506 -16.67283,20.05525 -6.76952,53.52314 22.18519,53.52314 h 83.60863 c -50.01434,74.96248 -99.90645,149.79543 -149.92079,224.75581 -8.77295,13.0366 -17.4239,26.19645 -26.19644,39.23408 -13.41264,20.18165 4.38648,47.13333 27.07808,47.13333 h 17.92531 c 3.2603,1.12619 6.64302,2.00762 10.40514,2.00762 h 76.08856 c -50.51574,79.09595 -101.03252,158.194 -151.55034,237.41635 -8.65054,13.66126 -17.42392,27.20035 -26.07423,40.86575 -12.9102,20.308 4.01105,47.1333 27.07807,47.1333 h 281.2895 57.28578 v 99.2776 c 0,16.4201 31.46435,31.338 64.30445,31.338 31.08933,0 64.30443,-13.7877 64.30443,-31.338 v -99.2776 h 363.26956 c 23.5651,0 39.3605,-26.6989 27.0781,-47.1333 z"
     id="path370"
     style="stroke-width:1.0446" />
</svg>
