<?xml version="1.0" encoding="UTF-8" standalone="no"?>
<svg
   width="1200pt"
   height="1200pt"
   version="1.1"
   viewBox="0 0 1200 1200"
   id="svg296"
   sodipodi:docname="grassland.svg"
   inkscape:version="1.2.2 (b0a8486541, 2022-12-01)"
   xmlns:inkscape="http://www.inkscape.org/namespaces/inkscape"
   xmlns:sodipodi="http://sodipodi.sourceforge.net/DTD/sodipodi-0.dtd"
   xmlns="http://www.w3.org/2000/svg"
   xmlns:svg="http://www.w3.org/2000/svg">
  <defs
     id="defs300" />
  <sodipodi:namedview
     id="namedview298"
     pagecolor="#ffffff"
     bordercolor="#666666"
     borderopacity="1.0"
     inkscape:showpageshadow="2"
     inkscape:pageopacity="0.0"
     inkscape:pagecheckerboard="0"
     inkscape:deskcolor="#d1d1d1"
     inkscape:document-units="pt"
     showgrid="false"
     inkscape:zoom="0.3822796"
     inkscape:cx="112.48311"
     inkscape:cy="920.792"
     inkscape:window-width="2560"
     inkscape:window-height="1011"
     inkscape:window-x="0"
     inkscape:window-y="32"
     inkscape:window-maximized="1"
     inkscape:current-layer="svg296" />
  <path
     id="path286"
     d="M 519.8027,3.5586252 C 546.85461,88.14602 574.5462,236.84584 554.99912,467.10437 c 34.90552,52.00892 65.85455,107.73991 92.61607,167.42121 l 0.005,0.0872 C 669.84302,570.67708 697.47664,505.68816 731.56801,441.98325 718.18787,312.88558 669.32069,140.69849 519.8022,3.5585876 Z M 1083.7765,109.01338 C 615.8129,430.67782 600.57135,1070.3083 602.30887,1196.3778 H 854.67059 C 858.04483,575.23946 993.88465,253.81078 1083.7765,109.01338 Z m -907.66989,71.3255 c 90.81267,133.10638 229.56427,431.96096 233.22546,1016.10252 h 146.42334 c -0.81446,-68.0078 3.72378,-268.59669 70.10199,-493.5682 h 0.007 C 534.58658,472.03137 383.55398,296.6906 176.10661,180.33888 Z M 19.598828,572.49732 c 0.01117,0.006 0.02023,0.0125 0.0309,0.0181 -0.0038,-0.005 -0.0074,-0.0126 -0.01117,-0.0181 z m 0.0309,0.0181 C 86.297974,669.20855 172.1488,858.86073 175.9339,1196.4413 h 186.85743 c -0.52358,-80.8642 -3.72329,-156.0801 -9.01726,-226.01527 C 313.22745,844.12748 222.53717,681.24695 19.629731,572.51551 Z M 1180.4012,645.73348 C 1021.9891,737.65079 945.77249,867.03149 909.12325,968.14269 h 0.0563 c -4.71228,71.03231 -7.44653,147.06941 -7.91193,228.28601 h 137.06618 c 3.8397,-289.95477 79.1195,-459.3637 142.0674,-550.69516 z"
     style="stroke-width:1.24108" />
</svg>
