<?xml version="1.0" encoding="UTF-8"?>
<svg width="1200pt" height="1200pt" version="1.1" viewBox="0 0 1200 1200" xmlns="http://www.w3.org/2000/svg">
 <path d="m129.52 599.21c53.719 77.906 122.9 230.72 125.95 502.74h150.56c-0.42188-65.156-3-125.76-7.2656-182.11-32.672-101.77-105.75-233.02-269.26-320.63z"/>
 <path d="m618 704.26c-73.547-186-195.24-327.28-362.39-421.03 73.172 107.25 184.97 348.05 187.92 818.72h117.98c-0.65625-54.797 3-216.42 56.484-397.69z"/>
 <path d="m635.53 649.26c17.906-51.516 40.172-103.88 67.641-155.21-10.781-104.02-50.156-242.76-170.63-353.26 21.797 68.156 44.109 187.97 28.359 373.5 28.125 41.906 53.062 86.812 74.625 134.9z"/>
 <path d="m846.28 918c-3.7969 57.234-6 118.5-6.375 183.94h110.44c3.0938-233.63 63.75-370.13 114.47-443.72-127.64 74.062-189.05 178.31-218.58 259.78z"/>
 <path d="m599.02 1101.9h203.34c2.7188-500.48 112.17-759.47 184.6-876.14-377.06 259.18-389.34 774.56-387.94 876.14z"/>
</svg>
