<?xml version="1.0" encoding="UTF-8" standalone="no"?>
<svg
   width="1200pt"
   height="1200pt"
   version="1.1"
   viewBox="0 0 1200 1200"
   id="svg95"
   sodipodi:docname="mountain.svg"
   inkscape:version="1.2.2 (b0a8486541, 2022-12-01)"
   xmlns:inkscape="http://www.inkscape.org/namespaces/inkscape"
   xmlns:sodipodi="http://sodipodi.sourceforge.net/DTD/sodipodi-0.dtd"
   xmlns="http://www.w3.org/2000/svg"
   xmlns:svg="http://www.w3.org/2000/svg">
  <defs
     id="defs99" />
  <sodipodi:namedview
     id="namedview97"
     pagecolor="#ffffff"
     bordercolor="#666666"
     borderopacity="1.0"
     inkscape:showpageshadow="2"
     inkscape:pageopacity="0.0"
     inkscape:pagecheckerboard="0"
     inkscape:deskcolor="#d1d1d1"
     inkscape:document-units="pt"
     showgrid="false"
     inkscape:zoom="0.5175"
     inkscape:cx="800.96618"
     inkscape:cy="800"
     inkscape:window-width="2560"
     inkscape:window-height="1011"
     inkscape:window-x="0"
     inkscape:window-y="32"
     inkscape:window-maximized="1"
     inkscape:current-layer="svg95" />
  <path
     id="path83"
     d="M 600.00439 288.9917 L 511.87939 441.85254 L 543.52002 471.94043 L 562.27002 450.79834 C 568.12941 444.18895 577.83203 442.59522 585.52002 446.90771 L 638.30127 476.76709 L 688.22314 441.89209 L 600.00439 288.9917 z M 707.10938 474.52002 L 650.15771 514.27002 C 644.20462 518.39502 636.46849 518.77001 630.1875 515.25439 L 580.3125 487.12939 L 558.75146 511.50439 L 558.70459 511.50439 C 555.37649 515.25439 550.64208 517.55134 545.57959 517.78564 C 540.51709 517.92626 535.59422 516.09809 531.89063 512.62939 L 492.61084 475.36377 L 398.62646 638.15332 L 425.48584 684.65332 L 425.62646 684.8877 L 567.04541 929.85791 L 633.13916 929.85791 L 801.55957 638.14746 L 707.10938 474.52002 z M 893.8125 553.11621 L 821.39063 678.55664 L 849.51563 706.68164 L 897 676.25977 C 900 674.33787 903.51573 673.30664 907.07813 673.30664 L 963.1875 673.30664 L 893.8125 553.11621 z M 306.18604 553.125 L 233.76416 678.56543 L 261.89063 706.69043 L 309.37354 676.26855 C 312.37353 674.34666 315.88914 673.31543 319.49854 673.31543 L 375.56104 673.31543 L 306.18604 553.125 z M 324.97998 710.80957 L 269.43311 746.43457 C 261.98001 751.16897 252.27747 750.13761 246.04248 743.90332 L 214.35352 712.21582 L 88.724121 929.71582 L 523.72412 929.71582 L 397.2041 710.81543 L 324.97998 710.80957 z M 912.55957 710.80957 L 857.0127 746.43457 C 849.6065 751.16897 839.90394 750.09071 833.66895 743.90332 L 801.98145 712.21582 L 676.35059 929.71582 L 1111.3506 929.71582 L 984.83057 710.81543 L 912.55957 710.80957 z " />
</svg>
