<?xml version="1.0" encoding="UTF-8" standalone="no"?>
<svg
   width="1200pt"
   height="1200pt"
   version="1.1"
   viewBox="0 0 1200 1200"
   id="svg95"
   sodipodi:docname="mountain.svg"
   inkscape:version="1.2.2 (b0a8486541, 2022-12-01)"
   xmlns:inkscape="http://www.inkscape.org/namespaces/inkscape"
   xmlns:sodipodi="http://sodipodi.sourceforge.net/DTD/sodipodi-0.dtd"
   xmlns="http://www.w3.org/2000/svg"
   xmlns:svg="http://www.w3.org/2000/svg">
  <defs
     id="defs99" />
  <sodipodi:namedview
     id="namedview97"
     pagecolor="#ffffff"
     bordercolor="#666666"
     borderopacity="1.0"
     inkscape:showpageshadow="2"
     inkscape:pageopacity="0.0"
     inkscape:pagecheckerboard="0"
     inkscape:deskcolor="#d1d1d1"
     inkscape:document-units="pt"
     showgrid="false"
     inkscape:zoom="0.5175"
     inkscape:cx="580.67633"
     inkscape:cy="798.06763"
     inkscape:window-width="2560"
     inkscape:window-height="1011"
     inkscape:window-x="0"
     inkscape:window-y="32"
     inkscape:window-maximized="1"
     inkscape:current-layer="svg95" />
  <path
     id="path83"
     d="m 599.99883,234.93371 -102.99194,178.64891 36.97849,35.1638 21.91318,-24.70882 c 6.84789,-7.72441 18.18737,-9.58701 27.17234,-4.54699 l 61.6856,34.89674 58.34383,-40.75851 z m 125.17391,216.82748 -66.55958,46.45594 c -6.9574,4.8209 -15.99863,5.25916 -23.33924,1.15044 l -58.28906,-32.86977 -25.19845,28.48713 h -0.0548 c -3.88956,4.38264 -9.42268,7.06709 -15.33922,7.34092 -5.91656,0.16434 -11.66993,-1.97225 -15.99833,-6.02612 l -45.9064,-43.55244 -109.83982,190.25261 31.39064,54.34469 0.16434,0.27392 165.27673,286.29739 h 77.24396 L 835.55695,642.99305 Z m 218.20047,91.8556 -84.63965,146.60259 32.86977,32.86977 55.49512,-35.55413 c 3.50611,-2.24613 7.61495,-3.45133 11.77834,-3.45133 h 65.57521 z m -686.76073,0.0103 -84.63966,146.60259 32.87148,32.86977 55.49342,-35.55414 c 3.50609,-2.24612 7.6148,-3.45132 11.83311,-3.45132 h 65.52041 z m 21.96453,184.28641 -64.91779,41.63504 c -8.71046,5.53311 -20.04984,4.32775 -27.33669,-2.95828 L 149.28755,729.55696 2.4641077,983.74983 H 510.84986 L 362.98555,727.92032 Z m 686.70596,0 -64.91779,41.63504 c -8.65565,5.53311 -19.99506,4.27294 -27.28191,-2.95828 L 836.05,729.55696 689.22485,983.74983 H 1197.6106 L 1049.7463,727.92032 Z"
     style="stroke-width:1.1687" />
</svg>
