<?xml version="1.0" encoding="UTF-8" standalone="no"?>
<!-- Created with Inkscape (http://www.inkscape.org/) -->

<svg
   width="79.340141mm"
   height="68.710579mm"
   viewBox="0 0 79.340141 68.710579"
   version="1.1"
   id="svg1219"
   inkscape:version="1.2.2 (b0a8486541, 2022-12-01)"
   sodipodi:docname="sea-hex.svg"
   xmlns:inkscape="http://www.inkscape.org/namespaces/inkscape"
   xmlns:sodipodi="http://sodipodi.sourceforge.net/DTD/sodipodi-0.dtd"
   xmlns="http://www.w3.org/2000/svg"
   xmlns:svg="http://www.w3.org/2000/svg">
  <sodipodi:namedview
     id="namedview1221"
     pagecolor="#ffffff"
     bordercolor="#666666"
     borderopacity="1.0"
     inkscape:showpageshadow="2"
     inkscape:pageopacity="0.0"
     inkscape:pagecheckerboard="0"
     inkscape:deskcolor="#d1d1d1"
     inkscape:document-units="mm"
     showgrid="false"
     inkscape:zoom="0.77058782"
     inkscape:cx="-33.091621"
     inkscape:cy="184.27491"
     inkscape:window-width="2560"
     inkscape:window-height="1011"
     inkscape:window-x="0"
     inkscape:window-y="32"
     inkscape:window-maximized="1"
     inkscape:current-layer="layer1" />
  <defs
     id="defs1216" />
  <g
     inkscape:label="Capa 1"
     inkscape:groupmode="layer"
     id="layer1"
     transform="translate(-65.329929,-114.14471)">
    <path
       id="path234"
       inkscape:transform-center-y="-1.2537253e-06"
       d="M 51.423004 65.159152 L 31.588039 99.514678 L 51.423004 133.86969 L 91.092934 133.86969 L 110.92842 99.514678 L 91.092934 65.159152 L 51.423004 65.159152 z M 55.290468 84.570887 C 56.491083 84.533617 57.771601 84.847636 59.094887 85.634905 C 60.10077 86.233584 61.701209 87.633635 60.831732 89.979342 C 60.831732 89.979342 57.095187 89.28421 56.83456 91.804037 C 56.72254 92.900566 59.141871 95.642056 61.628066 94.415247 C 62.080122 94.193298 61.957582 93.42871 62.047162 92.846351 C 62.743572 88.329035 67.902021 82.035908 73.951345 85.634905 C 74.957244 86.233584 76.557669 87.633635 75.68819 89.979342 C 75.68819 89.979342 71.951657 89.28421 71.691018 91.804037 C 71.572738 92.942276 74.177041 95.777239 76.793548 94.502581 C 77.270078 94.270461 77.156218 93.46739 77.251918 92.846351 C 77.946258 88.329035 83.104174 82.035908 89.153518 85.634905 C 90.159397 86.233584 91.761929 87.633635 90.892429 89.979342 C 90.892429 89.979342 87.155887 89.28421 86.895257 91.804037 L 86.897324 91.804037 C 86.636695 94.323845 98.800822 95.018955 100.01642 98.233102 L 42.499518 98.233102 C 42.499518 98.233102 46.496901 97.363666 47.191221 92.846351 C 47.735293 89.317204 51.002559 84.704087 55.290468 84.570887 z M 55.290468 100.79884 C 56.491083 100.76157 57.771601 101.07557 59.094887 101.86285 C 60.100788 102.46151 61.701209 103.86107 60.831732 106.20678 C 60.831732 106.20678 57.095187 105.51166 56.83456 108.03147 C 56.72254 109.12802 59.141871 111.86948 61.628066 110.64268 C 62.080122 110.42071 61.957582 109.65616 62.047162 109.07378 C 62.743572 104.55647 67.902021 98.263858 73.951345 101.86285 C 74.957244 102.46151 76.557669 103.86107 75.68819 106.20678 C 75.68819 106.20678 71.951657 105.51166 71.691018 108.03147 C 71.572738 109.16971 74.177041 112.00518 76.793548 110.73053 C 77.270078 110.49839 77.156218 109.69482 77.251918 109.07378 C 77.946258 104.55647 83.104174 98.263858 89.153518 101.86285 C 90.159397 102.46151 91.761929 103.86107 90.892429 106.20678 C 90.892429 106.20678 87.155887 105.51166 86.895257 108.03147 L 86.897324 108.03147 C 86.636695 110.55128 98.800822 111.24641 100.01642 114.46054 L 42.499518 114.46054 C 42.499518 114.46054 46.496901 113.59111 47.191221 109.07378 C 47.735293 105.54464 51.002559 100.93204 55.290468 100.79884 z "
       transform="translate(33.74189,48.985558)" />
  </g>
</svg>
