<?xml version="1.0" encoding="UTF-8" standalone="no"?>
<svg
   width="1200pt"
   height="1200pt"
   version="1.1"
   viewBox="0 0 1200 1200"
   id="svg252"
   sodipodi:docname="sea.svg"
   inkscape:version="1.2.2 (b0a8486541, 2022-12-01)"
   xmlns:inkscape="http://www.inkscape.org/namespaces/inkscape"
   xmlns:sodipodi="http://sodipodi.sourceforge.net/DTD/sodipodi-0.dtd"
   xmlns="http://www.w3.org/2000/svg"
   xmlns:svg="http://www.w3.org/2000/svg">
  <defs
     id="defs256" />
  <sodipodi:namedview
     id="namedview254"
     pagecolor="#ffffff"
     bordercolor="#666666"
     borderopacity="1.0"
     inkscape:showpageshadow="2"
     inkscape:pageopacity="0.0"
     inkscape:pagecheckerboard="0"
     inkscape:deskcolor="#d1d1d1"
     inkscape:document-units="pt"
     showgrid="false"
     inkscape:zoom="0.540625"
     inkscape:cx="801.84971"
     inkscape:cy="800.92486"
     inkscape:window-width="2560"
     inkscape:window-height="1011"
     inkscape:window-x="0"
     inkscape:window-y="32"
     inkscape:window-maximized="1"
     inkscape:current-layer="svg252" />
  <path
     id="path246"
     d="M 293.69531,468.8291 C 211.43649,471.38305 148.75829,559.87702 138.3208,627.58008 125.00081,714.23999 48.320801,730.92041 48.320801,730.92041 H 1151.7217 C 1128.4017,669.26047 895.04102,655.92052 900.04102,607.58057 H 900 c 5,-48.33996 76.68018,-35.00098 76.68018,-35.00098 16.67998,-44.99996 -14.06191,-71.85437 -33.35889,-83.33936 -116.04988,-69.04293 -215.00082,51.67993 -228.3208,138.33985 -1.8359,11.91399 0.35159,27.32386 -8.78906,31.77685 -50.19495,24.45298 -100.16012,-29.94039 -97.89112,-51.77636 5,-48.33996 76.68018,-35.00098 76.68018,-35.00098 16.67998,-44.99996 -14.02236,-71.85437 -33.31934,-83.33936 -116.04988,-69.04293 -215.00036,51.67993 -228.36035,138.33985 -1.7188,11.17199 0.62551,25.84015 -8.04639,30.09814 -47.69495,23.53498 -94.1031,-29.06167 -91.9541,-50.09765 5,-48.33996 76.68018,-35.00098 76.68018,-35.00098 16.67998,-44.99996 -14.02236,-71.85437 -33.31934,-83.33936 C 341.29524,474.13709 316.72778,468.114 293.69531,468.8291 Z m 0,311.31006 C 211.43649,782.69311 148.75829,871.18708 138.3208,938.89014 125.00081,1025.5501 48.320801,1042.2305 48.320801,1042.2305 H 1151.7217 C 1128.4017,980.57053 895.04102,967.23058 900.04102,918.89063 H 900 c 5,-48.33996 76.68018,-35.00098 76.68018,-35.00098 16.67998,-44.99996 -14.06191,-71.85437 -33.35889,-83.33936 -116.04988,-69.04293 -215.00082,51.67993 -228.3208,138.33985 -1.8359,11.91398 0.35159,27.32386 -8.78906,31.77685 -50.19495,24.45298 -100.16012,-29.94039 -97.89112,-51.77636 5,-48.33996 76.68018,-35.00098 76.68018,-35.00098 16.67998,-44.99996 -14.02236,-71.85437 -33.31934,-83.33936 -116.04988,-69.04293 -215.00036,51.67993 -228.36035,138.33985 -1.7188,11.17199 0.62551,25.84015 -8.04639,30.09814 -47.69495,23.53498 -94.1031,-29.06168 -91.9541,-50.09765 5,-48.33996 76.68018,-35.00098 76.68018,-35.00098 16.67998,-44.99996 -14.02236,-71.85437 -33.31934,-83.33936 -25.38591,-15.10314 -49.95337,-21.12624 -72.98584,-20.41113 z"
     sodipodi:nodetypes="sccccccccsccccccccssccccccccsccccccccs" />
</svg>
