<?xml version="1.0" encoding="UTF-8" standalone="no"?>
<svg
   width="1200pt"
   height="1200pt"
   version="1.1"
   viewBox="0 0 1200 1200"
   id="svg252"
   sodipodi:docname="sea.svg"
   inkscape:version="1.2.2 (b0a8486541, 2022-12-01)"
   xmlns:inkscape="http://www.inkscape.org/namespaces/inkscape"
   xmlns:sodipodi="http://sodipodi.sourceforge.net/DTD/sodipodi-0.dtd"
   xmlns="http://www.w3.org/2000/svg"
   xmlns:svg="http://www.w3.org/2000/svg">
  <defs
     id="defs256" />
  <sodipodi:namedview
     id="namedview254"
     pagecolor="#ffffff"
     bordercolor="#666666"
     borderopacity="1.0"
     inkscape:showpageshadow="2"
     inkscape:pageopacity="0.0"
     inkscape:pagecheckerboard="0"
     inkscape:deskcolor="#d1d1d1"
     inkscape:document-units="pt"
     showgrid="false"
     inkscape:zoom="0.540625"
     inkscape:cx="534.56647"
     inkscape:cy="802.77457"
     inkscape:window-width="2560"
     inkscape:window-height="1011"
     inkscape:window-x="0"
     inkscape:window-y="32"
     inkscape:window-maximized="1"
     inkscape:current-layer="svg252" />
  <path
     id="path246"
     d="M 269.31977,290.53584 C 180.521,293.29284 112.8596,388.82248 101.59228,461.90824 87.213295,555.458 4.4368784,573.46459 4.4368784,573.46459 H 1195.5631 C 1170.389,506.90241 918.47517,492.50187 923.8727,440.31868 h -0.0443 c 5.39752,-52.18321 82.7766,-37.78372 82.7766,-37.78372 18.0062,-48.57766 -15.1799,-77.56711 -36.01108,-89.96521 -125.27636,-74.53216 -232.09435,55.78871 -246.47333,149.33849 -1.98186,12.86121 0.37954,29.49623 -9.48783,34.30325 -54.18567,26.3971 -108.1233,-32.32078 -105.6739,-55.89281 5.39752,-52.18321 82.7766,-37.78372 82.7766,-37.78372 18.00611,-48.57766 -15.1372,-77.56711 -35.96838,-89.96521 -125.27637,-74.53216 -232.09386,55.78871 -246.51603,149.33849 -1.85545,12.06021 0.67524,27.89456 -8.68611,32.49108 -51.48692,25.40611 -101.58472,-31.37221 -99.26487,-54.08064 5.39752,-52.18321 82.7766,-37.78372 82.7766,-37.78372 18.00609,-48.57766 -15.13722,-77.56711 -35.9684,-89.96521 -27.4042,-16.30391 -53.92489,-22.80586 -78.78854,-22.03391 z m 0,336.06061 C 180.521,629.35345 112.8596,724.88309 101.59228,797.96885 87.213295,891.51867 4.4368784,909.52524 4.4368784,909.52524 H 1195.5631 C 1170.389,842.96302 918.47517,828.56249 923.8727,776.37929 h -0.0443 c 5.39752,-52.1832 82.7766,-37.78371 82.7766,-37.78371 18.0062,-48.57766 -15.1799,-77.56712 -36.01108,-89.96522 -125.27636,-74.53215 -232.09435,55.78872 -246.47333,149.33849 -1.98186,12.8612 0.37954,29.49623 -9.48783,34.30326 -54.18567,26.3971 -108.1233,-32.32079 -105.6739,-55.89282 5.39752,-52.1832 82.7766,-37.78371 82.7766,-37.78371 18.00611,-48.57766 -15.1372,-77.56712 -35.96838,-89.96522 -125.27637,-74.53215 -232.09386,55.78872 -246.51603,149.33849 -1.85545,12.06022 0.67524,27.89456 -8.68611,32.49108 -51.48692,25.40612 -101.58472,-31.37221 -99.26487,-54.08064 5.39752,-52.1832 82.7766,-37.78371 82.7766,-37.78371 18.00611,-48.57766 -15.1372,-77.56712 -35.96838,-89.96522 -27.4042,-16.30391 -53.92488,-22.80587 -78.78854,-22.03391 z"
     sodipodi:nodetypes="sccccccccsccccccccssccccccccsccccccccs"
     style="stroke-width:1.0795" />
</svg>
