<?xml version="1.0" encoding="UTF-8" standalone="no"?>
<!-- Created with Inkscape (http://www.inkscape.org/) -->

<svg
   width="79.340141mm"
   height="68.710579mm"
   viewBox="0 0 79.340141 68.710579"
   version="1.1"
   id="svg5"
   inkscape:version="1.2.2 (b0a8486541, 2022-12-01)"
   sodipodi:docname="wasteland-hex.svg"
   xmlns:inkscape="http://www.inkscape.org/namespaces/inkscape"
   xmlns:sodipodi="http://sodipodi.sourceforge.net/DTD/sodipodi-0.dtd"
   xmlns="http://www.w3.org/2000/svg"
   xmlns:svg="http://www.w3.org/2000/svg">
  <sodipodi:namedview
     id="namedview7"
     pagecolor="#ffffff"
     bordercolor="#666666"
     borderopacity="1.0"
     inkscape:showpageshadow="2"
     inkscape:pageopacity="0.0"
     inkscape:pagecheckerboard="0"
     inkscape:deskcolor="#d1d1d1"
     inkscape:document-units="mm"
     showgrid="false"
     inkscape:zoom="0.54488787"
     inkscape:cx="-300.97935"
     inkscape:cy="222.06404"
     inkscape:window-width="2560"
     inkscape:window-height="1011"
     inkscape:window-x="0"
     inkscape:window-y="32"
     inkscape:window-maximized="1"
     inkscape:current-layer="layer1" />
  <defs
     id="defs2" />
  <g
     inkscape:label="Capa 1"
     inkscape:groupmode="layer"
     id="layer1"
     transform="translate(-31.588039,-65.159153)">
    <path
       id="path234"
       inkscape:transform-center-y="-1.2537253e-06"
       d="M 51.423004 65.159153 L 31.588039 99.514679 L 51.423004 133.86969 L 91.092934 133.86969 L 110.92842 99.514679 L 91.092934 65.159153 L 51.423004 65.159153 z M 83.551275 78.148541 L 83.551792 78.148541 C 85.659374 78.148869 87.388818 80.135412 87.564984 82.666095 C 89.846368 82.593715 91.825293 83.853541 92.207078 85.761513 C 92.643787 87.943162 90.827082 90.146151 88.149444 90.682143 C 86.798318 90.952722 85.486496 90.746963 84.461814 90.196384 L 75.228269 99.499693 L 84.664903 108.86605 C 85.602117 108.3032 86.802754 108.02096 88.077614 108.14516 C 90.795539 108.41007 92.823642 110.42033 92.608087 112.63481 C 92.403572 114.73272 90.258027 116.26179 87.72208 116.1917 C 87.57294 118.46918 86.12754 120.31625 84.191546 120.51133 C 81.977688 120.73447 79.960919 118.71282 79.686912 115.99584 C 79.582957 114.96485 79.745132 113.98199 80.107041 113.14692 L 70.825954 103.93508 L 61.906085 112.92213 C 62.468938 113.85934 62.750648 115.05948 62.626455 116.33432 C 62.361543 119.05225 60.351801 121.08036 58.137323 120.8648 C 56.039411 120.66029 54.510171 118.51474 54.580434 115.97879 C 52.302781 115.8295 50.455881 114.38425 50.260801 112.44826 C 50.037666 110.2344 52.059147 108.21763 54.776288 107.94362 C 55.807274 107.83966 56.790298 108.00186 57.625209 108.36375 L 66.390049 99.532249 L 57.438141 90.647003 C 56.682571 91.028661 55.791171 91.249033 54.836749 91.249033 C 52.106178 91.249033 49.892348 89.445384 49.892348 87.220339 C 49.892348 85.112517 51.87901 83.382456 54.409902 83.206113 C 54.337522 80.924731 55.597347 78.946321 57.50532 78.564536 C 59.686966 78.127659 61.890475 79.944183 62.426467 82.621653 C 62.697045 83.973114 62.490918 85.284991 61.940192 86.3098 L 70.792881 95.096861 L 80.125128 85.694334 C 79.743469 84.938639 79.523098 84.047529 79.523098 83.092942 C 79.523098 80.362583 81.326462 78.148887 83.551275 78.148541 z " />
  </g>
</svg>
