<?xml version="1.0" encoding="UTF-8"?>
<svg width="1200pt" height="1200pt" version="1.1" viewBox="0 0 1200 1200" xmlns="http://www.w3.org/2000/svg">
 <path d="m895.98 84c50.848 0 92.578 47.926 96.828 108.98 55.035-1.7461 102.77 28.641 111.98 74.668 10.535 52.629-33.281 105.78-97.875 118.71-32.594 6.5273-64.25 1.5625-88.969-11.719l-222.74 224.42 227.65 225.95c22.609-13.578 51.566-20.379 82.32-17.383 65.566 6.3906 114.49 54.879 109.29 108.3-4.9336 50.609-56.684 87.492-117.86 85.801-3.5977 54.941-38.473 99.504-85.176 104.21-53.406 5.3828-102.05-43.387-108.66-108.93-2.5078-24.871 1.3984-48.578 10.129-68.723l-223.89-222.23-215.18 216.8c13.578 22.609 20.375 51.562 17.379 82.316-6.3906 65.566-54.879 114.49-108.3 109.29-50.609-4.9336-87.492-56.684-85.797-117.86-54.945-3.6016-99.504-38.473-104.21-85.176-5.3828-53.406 43.383-102.05 108.93-108.66 24.871-2.5078 48.582 1.3984 68.723 10.129l211.45-213.04-215.96-214.35c-18.227 9.207-39.73 14.523-62.754 14.523-65.871 0-119.27-43.512-119.27-97.188 0-50.848 47.926-92.574 108.98-96.828-1.7461-55.035 28.641-102.77 74.668-111.98 52.629-10.539 105.78 33.281 118.71 97.871 6.5273 32.602 1.5625 64.258-11.723 88.98l213.56 211.97 225.12-226.82c-9.207-18.23-14.527-39.734-14.527-62.762 0-65.871 43.512-119.27 97.188-119.27z" fill-rule="evenodd"/>
</svg>
