<?xml version="1.0" encoding="UTF-8"?>
<svg width="1200pt" height="1200pt" version="1.1" viewBox="0 0 1200 1200" xmlns="http://www.w3.org/2000/svg">
 <path d="m1150.8 453.6h-403.2v-404.4c0-20.398-16.801-37.199-37.199-37.199h-220.8c-20.398 0-37.199 16.801-37.199 37.199v404.4l-403.2 0.003906c-20.398 0-37.199 16.801-37.199 37.199v220.8c0 20.398 16.801 37.199 37.199 37.199h404.4v404.4c0 20.398 16.801 37.199 37.199 37.199h220.8c20.398 0 37.199-16.801 37.199-37.199l0.003906-405.6h404.4c20.398 0 37.199-16.801 37.199-37.199v-220.8c-2.3984-20.402-19.199-36-39.598-36z"/>
</svg>
