<?xml version="1.0" encoding="UTF-8"?>
<svg width="1200pt" height="1200pt" version="1.1" viewBox="0 0 1200 1200" xmlns="http://www.w3.org/2000/svg">
 <path d="m1177.2 956.4-356.4-356.4 356.4-356.4c3.6016-3.6016 7.1992-8.3984 8.3984-13.199 4.8008-13.199 2.3984-28.801-8.3984-38.398l-168-168c-10.801-10.801-25.199-13.199-38.398-8.3984-4.8008 1.1992-9.6016 4.8008-13.199 8.3984l-357.6 355.2-356.4-356.4c-3.6016-3.6016-8.3984-7.1992-13.199-8.3984-13.199-4.8008-28.801-2.3984-38.398 8.3984l-168 168c-10.801 10.801-13.199 25.199-8.3984 38.398 1.1992 4.8008 4.8008 9.6016 8.3984 13.199l355.2 357.6-356.4 356.4c-3.6016 3.6016-7.1992 8.3984-8.3984 13.199-4.8008 13.199-2.3984 28.801 8.3984 38.398l168 168c10.801 10.801 25.199 13.199 38.398 8.3984 4.8008-1.1992 9.6016-4.8008 13.199-8.3984l357.6-355.2 356.4 356.4c3.6016 3.6016 8.3984 7.1992 13.199 8.3984 13.199 4.8008 28.801 2.3984 38.398-8.3984l168-168c10.801-10.801 13.199-25.199 8.3984-38.398 0.003907-6-3.5938-9.6016-7.1953-14.402z"/>
</svg>
