<?xml version="1.0" encoding="UTF-8" standalone="no"?>
<svg
   width="1200pt"
   height="1200pt"
   version="1.1"
   viewBox="0 0 1200 1200"
   id="svg615"
   sodipodi:docname="disadvantage.svg"
   inkscape:version="1.2.2 (b0a8486541, 2022-12-01)"
   xmlns:inkscape="http://www.inkscape.org/namespaces/inkscape"
   xmlns:sodipodi="http://sodipodi.sourceforge.net/DTD/sodipodi-0.dtd"
   xmlns="http://www.w3.org/2000/svg"
   xmlns:svg="http://www.w3.org/2000/svg">
  <defs
     id="defs619" />
  <sodipodi:namedview
     id="namedview617"
     pagecolor="#ffffff"
     bordercolor="#666666"
     borderopacity="1.0"
     inkscape:showpageshadow="2"
     inkscape:pageopacity="0.0"
     inkscape:pagecheckerboard="0"
     inkscape:deskcolor="#d1d1d1"
     inkscape:document-units="pt"
     showgrid="false"
     inkscape:zoom="0.5175"
     inkscape:cx="802.89855"
     inkscape:cy="800"
     inkscape:window-width="2560"
     inkscape:window-height="1011"
     inkscape:window-x="0"
     inkscape:window-y="32"
     inkscape:window-maximized="1"
     inkscape:current-layer="svg615" />
  <path
     d="M 1017.4962,857.78813 759.70796,600 1017.4962,342.21187 c 2.605,-2.60508 5.2071,-6.07466 6.0746,-9.54698 3.4724,-9.54699 1.7348,-20.83209 -6.0746,-27.77371 L 895.9798,183.37489 c -7.81249,-7.81249 -18.22673,-9.54698 -27.77371,-6.07466 -3.47247,0.8674 -6.94494,3.47248 -9.54699,6.07466 L 600.003,440.29504 342.21487,182.50692 c -2.60508,-2.60508 -6.07466,-5.20727 -9.54698,-6.07467 -9.54699,-3.47247 -20.83209,-1.73478 -27.77371,6.07467 L 183.37789,304.0232 c -7.81249,7.8125 -9.54698,18.22673 -6.07466,27.77371 0.8674,3.47247 3.47248,6.94495 6.07466,9.54699 L 440.29804,600 182.50992,857.78813 c -2.60508,2.60508 -5.20727,6.07466 -6.07467,9.54699 -3.47247,9.54698 -1.73478,20.83208 6.07467,27.7737 L 304.0262,1016.6252 c 7.8125,7.8124 18.22673,9.5469 27.77371,6.0746 3.47247,-0.8674 6.94495,-3.4725 9.54699,-6.0746 L 600.003,759.70496 857.79113,1017.4932 c 2.60508,2.605 6.07466,5.2071 9.54699,6.0746 9.54698,3.4724 20.83208,1.7348 27.7737,-6.0746 L 1016.6282,895.9768 c 7.8124,-7.81249 9.5469,-18.22673 6.0746,-27.77371 0,-4.33987 -2.5995,-6.94494 -5.2045,-10.41713 z"
     id="path613"
     style="stroke-width:0.723311" />
</svg>
