<?xml version="1.0" encoding="UTF-8" standalone="no"?>
<svg
   width="1200pt"
   height="1200pt"
   version="1.1"
   viewBox="0 0 1200 1200"
   id="svg194"
   sodipodi:docname="example.svg"
   inkscape:version="1.2.2 (b0a8486541, 2022-12-01)"
   xmlns:inkscape="http://www.inkscape.org/namespaces/inkscape"
   xmlns:sodipodi="http://sodipodi.sourceforge.net/DTD/sodipodi-0.dtd"
   xmlns="http://www.w3.org/2000/svg"
   xmlns:svg="http://www.w3.org/2000/svg">
  <defs
     id="defs198" />
  <sodipodi:namedview
     id="namedview196"
     pagecolor="#ffffff"
     bordercolor="#666666"
     borderopacity="1.0"
     inkscape:showpageshadow="2"
     inkscape:pageopacity="0.0"
     inkscape:pagecheckerboard="0"
     inkscape:deskcolor="#d1d1d1"
     inkscape:document-units="pt"
     showgrid="false"
     inkscape:zoom="0.5175"
     inkscape:cx="799.03382"
     inkscape:cy="800"
     inkscape:window-width="2560"
     inkscape:window-height="1011"
     inkscape:window-x="0"
     inkscape:window-y="32"
     inkscape:window-maximized="1"
     inkscape:current-layer="svg194" />
  <path
     d="m 799.66008,500.55818 c -64.65291,-2.9436 -128.08254,18.3474 -177.86518,59.69959 -5.80668,4.78505 -9.1737,11.90912 -9.20071,19.4296 v 608.59203 c -0.007,2.7489 1.47856,5.2892 3.88454,6.6401 2.39924,1.3442 5.34301,1.2837 7.68857,-0.1613 54.67917,-33.7992 116.52423,-54.3024 180.56636,-59.8819 64.04213,-5.5782 128.49373,3.9384 188.18816,27.7774 2.33885,0.9409 4.99341,0.6519 7.08368,-0.7594 2.0833,-1.4114 3.3334,-3.7703 3.3334,-6.2905 V 622.90293 c -0.01,-5.32288 -1.6869,-10.4978 -4.80532,-14.81247 C 952.11452,543.76617 878.85223,504.16889 799.60949,500.55928 Z m -12.72894,50.26438 0.007,0.007 c 43.5441,-0.1613 86.42066,10.61874 124.71552,31.35265 v 28.6377 -0.007 C 874.46136,587.78059 831.5762,575.5771 787.8308,575.5771 c -43.74541,0 -86.62368,12.20487 -123.81571,35.23581 v -28.6377 0.007 c 37.75635,-20.44469 79.98256,-31.21845 122.92105,-31.35265 z m 0,89.5468 0.007,0.007 c 43.5441,-0.16129 86.42066,10.61875 124.71552,31.35265 v 28.63083 c -37.1923,-23.0326 -80.07746,-35.2361 -123.82286,-35.2361 -43.74541,0 -86.62368,12.20487 -123.81571,35.23582 v -28.63083 c 37.75635,-20.44468 79.98256,-31.21845 122.92105,-31.35265 z m 0,89.54681 h 0.007 c 43.5441,-0.1613 86.42066,10.61875 124.71552,31.35265 v 28.6377 c -37.19202,-23.0392 -80.07718,-35.2427 -123.82258,-35.2427 -43.74541,0 -86.62368,12.20488 -123.81571,35.2427 v -28.6377 c 37.75635,-20.44469 79.98256,-31.21157 122.92105,-31.35265 z m 0,89.48659 h 0.007 c 43.5441,-0.14114 86.42754,10.659 124.71552,31.41286 v 28.63083 c -37.1923,-23.03232 -80.07746,-35.23582 -123.82286,-35.23582 -43.74541,0 -86.62368,12.20487 -123.81571,35.23582 v -28.63083 c 37.74947,-20.46533 79.98256,-31.25802 122.92105,-31.41286 z m 0,89.53992 0.007,0.007 c 43.5441,-0.14113 86.42754,10.65901 124.71552,31.41287 v 28.57576 c -37.19202,-23.0392 -80.07718,-35.24269 -123.82258,-35.24269 -43.74541,0 -86.62368,12.20487 -123.81571,35.24269 v -28.57576 c 37.74947,-20.46534 79.98256,-31.25803 122.92105,-31.41287 z m 0,89.54681 0.007,0.007 c 43.5441,-0.14114 86.42754,10.65901 124.71552,31.40601 v 28.5826 c -37.19202,-23.0392 -80.07718,-35.2427 -123.82258,-35.2427 -43.74541,0 -86.62368,12.2049 -123.81571,35.2427 v -28.5826 c 37.74947,-20.4585 79.98256,-31.25117 122.92105,-31.40601 z"
     id="path184"
     style="stroke-width:1.7205" />
  <path
     d="m 400.40111,500.55818 c -79.24446,3.60909 -152.50675,43.20689 -198.92409,107.53806 -3.1184,4.30796 -4.79864,9.48959 -4.80535,14.80576 v 532.7009 c 0,2.5201 1.25005,4.8791 3.33347,6.2905 2.09006,1.418 4.73808,1.7003 7.08364,0.7594 59.68582,-23.8255 124.13743,-33.3347 188.17096,-27.7637 64.02836,5.5782 125.86482,26.0828 180.53195,59.8682 2.34555,1.4786 5.30928,1.5525 7.73553,0.2083 2.41937,-1.3508 3.91138,-3.9113 3.89125,-6.687 V 579.68651 c -0.007,-7.51377 -3.3603,-14.63766 -9.14015,-19.43648 C 528.50429,518.9116 465.10219,497.62731 400.46476,500.55732 Z m 10.87406,50.26438 0.007,0.007 c 43.53722,-0.1613 86.42065,10.61874 124.71552,31.35265 v 28.6377 -0.007 c -37.1923,-23.03232 -80.07745,-35.23581 -123.82286,-35.23581 -43.7454,0 -86.63056,12.20487 -123.82258,35.23581 v -28.6377 0.007 c 37.75635,-20.44469 79.98943,-31.21845 122.92792,-31.35265 z m 1.80791,89.5468 v 0.007 c 42.93849,0.13442 85.17157,10.90762 122.92104,31.35265 v 28.63083 c -37.18514,-23.03232 -80.0703,-35.23582 -123.8157,-35.23582 -43.75229,0 -86.63056,12.20487 -123.82259,35.23582 v -28.63083 c 38.28798,-20.73373 81.18002,-31.51265 124.71552,-31.35265 z m 0,89.48659 v 0.007 c 42.93849,0.15458 85.17157,10.94134 122.92104,31.40599 v 28.6377 c -37.18514,-23.0392 -80.0703,-35.2427 -123.8157,-35.2427 -43.75229,0 -86.63056,12.20488 -123.82259,35.2427 v -28.6377 c 38.28798,-20.75266 81.17314,-31.55395 124.71552,-31.40599 z m 0,89.54681 c 42.93849,0.15457 85.17157,10.94805 122.92104,31.41286 v 28.63083 c -37.18514,-23.03232 -80.0703,-35.23582 -123.8157,-35.23582 -43.75229,0 -86.63056,12.20487 -123.82259,35.23582 v -28.63083 c 38.28798,-20.75265 81.17314,-31.55394 124.71552,-31.41286 z m 0,89.53992 v 0.007 c 42.94537,0.15458 85.17157,10.94805 122.92104,31.41287 v 28.57576 c -37.18514,-23.0392 -80.0703,-35.24269 -123.8157,-35.24269 -43.75229,0 -86.63056,12.20487 -123.82259,35.24269 v -28.57576 c 38.28798,-20.75266 81.17314,-31.55395 124.71552,-31.41287 z m 0,89.54681 v 0.007 c 42.93849,0.15457 85.17157,10.94811 122.92104,31.40601 v 28.5826 c -37.18514,-23.0392 -80.0703,-35.2427 -123.8157,-35.2427 -43.75229,0 -86.63056,12.2049 -123.82259,35.2427 v -28.5826 c 38.28798,-20.7475 81.17314,-31.54709 124.71552,-31.40601 z"
     id="path186"
     style="stroke-width:1.7205" />
  <path
     d="m 380.44332,270.54469 -12.21159,28.28156 v 0.007 c -6.92225,16.01543 -19.69111,28.79083 -35.70723,35.70723 l -28.28672,12.2183 c -0.83338,0.36292 -1.37774,1.18284 -1.37774,2.09694 0,0.90729 0.54438,1.72721 1.37774,2.09006 l 28.28672,12.2183 c 16.01544,6.92225 28.78395,19.69111 35.70723,35.70723 l 12.21159,28.28156 v 0.007 c 0.37636,0.80649 1.18284,1.31725 2.06993,1.31725 0.88709,0 1.70034,-0.51078 2.06993,-1.31725 l 12.22501,-28.28156 v -0.007 c 6.92225,-16.01543 19.69111,-28.78394 35.70723,-35.70723 l 28.28672,-12.2183 c 0.83338,-0.36292 1.37104,-1.18284 1.37104,-2.09006 0,-0.91401 -0.53766,-1.73392 -1.37104,-2.09694 l -28.28672,-12.2183 c -16.01543,-6.91554 -28.78394,-19.69111 -35.70723,-35.70723 l -12.22501,-28.28156 c -0.36963,-0.80649 -1.18284,-1.32398 -2.06993,-1.32398 -0.88709,0 -1.69362,0.51749 -2.06993,1.32398 z"
     id="path188"
     style="stroke-width:1.7205" />
  <path
     d="m 865.77885,190.02534 -15.26943,35.35109 c -8.64946,20.02144 -24.61862,35.98939 -44.63834,44.63146 l -35.36486,15.27614 c -1.04843,0.45029 -1.72721,1.47856 -1.72721,2.62101 0,1.14251 0.67879,2.17075 1.72721,2.621 l 35.36486,15.26943 c 20.02144,8.64947 35.98939,24.61862 44.63834,44.63835 l 15.26943,35.35797 v -0.007 c 0.44356,1.06187 1.47856,1.74734 2.62772,1.74734 1.14924,0 2.18417,-0.68552 2.63442,-1.74734 l 15.26943,-35.35797 -0.007,0.007 c 8.65618,-20.02145 24.61862,-35.9894 44.64523,-44.63835 l 35.35109,-15.26942 c 1.04171,-0.45029 1.7205,-1.47857 1.7205,-2.62101 0,-1.14252 -0.67879,-2.17076 -1.7205,-2.62101 L 930.94893,270.0146 c -20.02833,-8.64946 -35.9894,-24.61862 -44.64523,-44.63834 l -15.26943,-35.35109 h 0.007 c -0.45028,-1.06188 -1.48527,-1.74734 -2.63442,-1.74734 -1.14924,0 -2.18418,0.68552 -2.62772,1.74734 z"
     id="path190"
     style="stroke-width:1.7205" />
  <path
     d="M 547.46935,6.5169274 525.99752,56.235904 v -0.0067 c -12.16444,28.159405 -34.61815,50.606756 -62.77068,62.770686 l -49.71381,21.4787 c -1.46511,0.63175 -2.41266,2.08336 -2.41266,3.67619 0,1.59953 0.94762,3.04443 2.41266,3.6829 l 49.71381,21.47871 c 28.15253,12.15773 50.60676,34.61128 62.77068,62.7638 l 21.47183,49.71898 c 0.62502,1.48527 2.08335,2.44637 3.68961,2.44637 1.61297,0 3.06455,-0.96105 3.69632,-2.44637 l 21.47183,-49.71898 h -0.007 c 12.16444,-28.15252 34.61815,-50.60675 62.77756,-62.7638 l 49.71381,-21.47871 c 1.46511,-0.63846 2.41266,-2.08335 2.41266,-3.6829 0,-1.5928 -0.94762,-3.04442 -2.41266,-3.67619 l -49.71381,-21.4787 C 610.93854,106.83542 588.48431,84.388589 576.32039,56.229184 L 554.85372,6.5153686 c -0.63175,-1.4852723 -2.08335,-2.4463774 -3.69632,-2.4463774 -1.60624,0 -3.06455,0.9610535 -3.68961,2.4463774 z"
     id="path192"
     style="stroke-width:1.7205" />
</svg>
