<?xml version="1.0" encoding="UTF-8"?>
<svg width="1200pt" height="1200pt" version="1.1" viewBox="0 0 1200 1200" xmlns="http://www.w3.org/2000/svg">
 <path d="m1126.6 605.16c-0.11328 12.629-0.68359 25.258-1.6992 37.852 0 0.027343-0.003906 0.054687-0.007813 0.082031-5.1016 63.352-21.5 125.92-49.32 184.15l-0.15234-0.074219c-11.777 24.715-25.535 48.707-41.375 71.699l-406.57-406.57 84.852-84.855 284 284c12.938-56.539 13.699-115.3 2.2734-172.11l-65.977 65.977-84.852-84.852 104.31-104.32c-0.058594-0.10156-0.11719-0.21094-0.17578-0.31641l87.109-87.105c11.516 17.34 21.863 35.23 31.113 53.535l0.125-0.0625c26.281 51.926 43.344 107.6 51.254 164.4 0.058594 0.41016 0.11719 0.82031 0.17188 1.2305 2.5469 18.594 4.1133 37.301 4.6875 56.047 0.023438 0.93359 0.042969 1.8672 0.066407 2.8047 0.13672 5.4297 0.19531 10.863 0.16797 16.297-0.007812 0.72266 0 1.4492-0.007812 2.1797zm-738.5-352.23-86.734-86.73c22.992-15.844 46.984-29.637 71.695-41.41l-0.054688-0.125c70.297-33.578 148.83-51.328 227.1-51.328 78.273 0 156.8 17.75 227.11 51.332l-0.10156 0.20703c27.32 13.016 53.777 28.426 78.957 46.414l-413.79 413.79-84.855-84.855 293.95-293.95c-8.6758-2.2109-17.41-4.1367-26.195-5.7734-0.69141-0.12891-1.3906-0.25-2.0859-0.375-3.3594-0.60938-6.7305-1.1602-10.102-1.6836-1.4648-0.22656-2.9258-0.45312-4.3945-0.66406-2.5-0.35938-5.0078-0.67188-7.5117-0.98828-8.957-1.1133-17.938-1.9492-26.941-2.4688-0.62891-0.039062-1.25-0.082031-1.8789-0.12109-3.2773-0.17187-6.5547-0.30078-9.8359-0.39844-0.66406-0.019531-1.3281-0.035156-1.9922-0.054687-3.3984-0.085938-6.7969-0.13672-10.199-0.13672h-0.50781c-10.426 0.011719-20.852 0.42969-31.246 1.2266-1.0039 0.078125-2.0039 0.14062-3.0078 0.22656-2.5859 0.21875-5.1719 0.47656-7.7539 0.74219-1.875 0.19141-3.7461 0.39453-5.6211 0.61719-2.0664 0.24219-4.1289 0.49219-6.1914 0.76172-3.125 0.41797-6.2461 0.87109-9.3633 1.3594-0.89844 0.14063-1.8086 0.26563-2.707 0.41016-8.3984 1.375-16.758 3.0391-25.074 4.9414l76.285 76.281-84.855 84.852zm455.68 726.07 55.07 55.07c-22.996 15.844-46.996 29.609-71.715 41.387l0.070312 0.15234c-70.301 33.574-148.84 51.324-227.11 51.324-78.277 0-156.81-17.75-227.11-51.336l0.078126-0.16797c-22.09-10.527-43.617-22.609-64.355-36.383l87.105-87.109c0.10937 0.058594 0.21094 0.11328 0.31641 0.17969l324.36-324.37 84.855 84.852-286.03 286.03c1.3867 0.27734 2.7656 0.59375 4.1523 0.85547 0.34766 0.066406 0.69141 0.125 1.0391 0.1875 3.5508 0.66797 7.1133 1.2734 10.68 1.8477 1.668 0.26172 3.3477 0.51172 5.0195 0.75391 2.1602 0.32031 4.3281 0.61719 6.4883 0.90625 2.3164 0.29687 4.6367 0.59375 6.9531 0.85547 1.3086 0.14844 2.6133 0.27734 3.9258 0.41406 17.73 1.8281 35.566 2.5312 53.375 2.0664 0.28906-0.011719 0.58203-0.019531 0.87109-0.027344 3.5156-0.097656 7.0273-0.24219 10.535-0.42969 0.36328-0.019532 0.72266-0.042969 1.082-0.0625 9.25-0.52344 18.48-1.3828 27.676-2.5195 2.0195-0.25391 4.0391-0.48828 6.0586-0.77344 1.4844-0.20703 2.9688-0.44922 4.4531-0.67578 2.9766-0.44922 5.9453-0.91016 8.9062-1.4297 0.9375-0.15625 1.8672-0.33203 2.8008-0.5 3.875-0.70312 7.7422-1.4453 11.602-2.2617 0.09375-0.019532 0.1875-0.039063 0.28516-0.058594 2.0742-0.4375 4.1367-0.94922 6.207-1.4258l-63.703-63.703 84.852-84.852 99.539 99.539 12.602 12.598zm-563.63-351.5 84.852 84.855-193.74 193.74c-17.984-25.18-33.395-51.629-46.406-78.941l-0.20703 0.09375c-33.582-70.301-51.332-148.84-51.332-227.12s17.746-156.82 51.332-227.11l0.12109 0.058594c11.773-24.711 25.566-48.695 41.406-71.684l80.641 80.641 6.0898 6.0938 332.39 332.39-84.852 84.852-296.58-296.57c-1.8984 8.3086-3.5586 16.66-4.9375 25.055-0.14844 0.92969-0.27344 1.8594-0.41797 2.7852-0.48828 3.0898-0.93359 6.1836-1.3477 9.2812-0.27734 2.0781-0.52734 4.1562-0.76953 6.2383-0.21484 1.8516-0.41797 3.7031-0.61328 5.5586-0.26562 2.6016-0.52734 5.2031-0.74219 7.8086-0.085938 0.97266-0.14453 1.9453-0.22266 2.9141-0.79688 10.445-1.2266 20.922-1.2305 31.391 0 0.13672-0.003907 0.27344-0.003907 0.41016 0 3.4219 0.054688 6.8477 0.14063 10.266 0.015624 0.63672 0.03125 1.2734 0.050781 1.9102 0.097656 3.3008 0.22656 6.5977 0.40625 9.8945 0.03125 0.59766 0.074219 1.1953 0.11328 1.793 0.51953 9.043 1.3633 18.066 2.4766 27.066 0.31641 2.4805 0.625 4.9609 0.98047 7.4336 0.21094 1.4883 0.44531 2.9727 0.67188 4.457 0.52344 3.3477 1.0703 6.6914 1.6719 10.031 0.12891 0.71094 0.25391 1.4297 0.38672 2.1367 1.6328 8.7734 3.5586 17.504 5.7695 26.176z"/>
</svg>
