<?xml version="1.0" encoding="UTF-8"?>
<svg width="1200pt" height="1200pt" version="1.1" viewBox="0 0 1200 1200" xmlns="http://www.w3.org/2000/svg">
 <path d="m251.62 314.25h4.125c47.625 0 84.188-14.25 108.56-42 34.125-39.375 44.062-106.69 29.625-200.06-0.5625-2.8125-2.0625-5.25-4.5-6.5625s-5.25-1.6875-7.6875-0.75c-77.625 27-125.44 62.625-146.06 108.94-16.875 38.25-14.25 83.625 7.6875 135 1.5 3 4.6875 5.25 8.25 5.4375z"/>
 <path d="m98.25 508.12c1.6875 1.3125 3.75 1.875 5.625 1.875 1.3125 0 2.625-0.1875 3.9375-0.75 45-20.062 73.5-48.938 84.188-85.5 15.375-51.75-3.75-117.38-58.125-200.62-1.5-2.4375-4.3125-3.9375-7.125-4.125-3-0.1875-5.8125 1.125-7.5 3.375-61.5 74.062-88.312 136.12-81.938 189.75 4.125 36.75 24.75 69.188 60.938 96z"/>
 <path d="m122.44 764.44h1.6875c2.625 0 5.25-1.125 6.9375-3.375 31.5-37.875 44.25-76.312 37.875-113.62-9-53.25-54.938-103.69-140.44-154.5-2.625-1.5-5.8125-1.6875-8.25-0.5625-2.8125 1.125-4.875 3.5625-5.625 6.375-22.5 93.375-19.125 160.88 10.312 206.44 20.25 30.938 53.062 50.812 97.5 59.25z"/>
 <path d="m50.625 775.69c-2.8125-0.75-6 0-8.0625 2.0625-2.4375 2.0625-3.5625 4.875-3.1875 7.6875 10.125 102.75 37.312 170.62 82.875 207.19 25.312 20.062 56.062 30.188 92.062 30.188 8.4375 0 17.25-0.5625 26.25-1.6875 3.5625-0.375 6.1875-2.625 7.5-6 18.188-48.375 17.812-90.938-1.125-126.75-27.375-51.562-91.688-88.312-196.31-112.69z"/>
 <path d="m338.62 618.56c0.9375 0.1875 1.6875 0.1875 2.4375 0.1875 2.4375 0 4.6875-0.9375 6.375-2.625 35.812-34.5 52.5-70.875 49.312-108.19-4.125-51.375-44.25-102.75-122.81-157.31-2.4375-1.5-5.4375-2.0625-8.0625-1.125-2.8125 0.9375-5.0625 3-6 5.625-32.062 87.938-36 152.81-12 198.56 16.875 31.875 47.438 53.625 90.75 64.875z"/>
 <path d="m264.56 621.75c-2.4375 1.5-4.3125 3.9375-4.6875 6.75-12.562 98.438-1.5 167.06 33.938 209.62 24.375 29.438 60.375 45.75 107.06 48.562h0.5625c3.1875 0 5.8125-1.5 7.6875-4.125 28.312-42.938 37.125-84 25.875-121.69-15.562-53.062-68.625-98.812-162.19-139.88-2.4375-0.9375-5.625-0.75-8.25 0.75z"/>
 <path d="m294.75 881.44c-2.8125-0.375-5.625 0.5625-7.5 2.625-2.0625 2.0625-3 4.875-2.8125 7.5 12.188 112.31 42.375 183.94 92.625 219.56 23.25 16.5 51 24.75 82.5 24.75 15.75 0 32.25-2.0625 50.062-6 3-0.75 5.625-3 6.375-6 20.438-57.375 18.938-105.75-4.6875-143.81-32.062-52.125-102.94-84.562-216.56-98.625z"/>
 <path d="m242.62 348.94c1.5-4.875-1.3125-10.125-6.1875-11.438-4.875-1.5-10.125 1.3125-11.625 6.1875-60.375 197.62-49.875 371.81 31.312 517.69 1.6875 3 4.875 4.6875 8.0625 4.6875 1.5 0 3-0.375 4.5-1.125 4.5-2.4375 6-8.0625 3.5625-12.562-78.375-141.56-88.5-310.88-29.625-503.44z"/>
 <path d="m944.44 314.25h3.9375c3.75-0.1875 6.9375-2.4375 8.4375-5.8125 21.938-51.375 24.562-96.75 7.5-135-20.25-46.312-68.062-81.938-145.88-108.94-2.625-0.9375-5.625-0.5625-7.6875 0.75-2.4375 1.5-4.125 3.9375-4.5 6.5625-14.625 93.375-4.6875 160.69 29.625 200.06 24.188 28.125 60.75 42.375 108.56 42.375z"/>
 <path d="m1092.4 509.25c1.125 0.5625 2.4375 0.75 3.75 0.75 2.0625 0 3.9375-0.5625 5.625-1.875 36.188-26.812 56.812-59.25 61.312-96 6.375-53.625-20.25-115.69-81.75-189.75-2.0625-2.25-5.25-3.375-7.6875-3.375-3 0.1875-5.625 1.6875-7.125 4.125-54.188 83.25-73.312 148.88-58.125 200.62 10.688 36.562 38.812 65.438 84 85.5z"/>
 <path d="m1185.4 498.75c-0.75-3-2.8125-5.4375-5.4375-6.375-2.8125-1.125-5.8125-0.9375-8.25 0.5625-85.5 50.812-131.44 101.25-140.62 154.5-6.375 37.5 6.1875 75.938 37.875 113.62 1.875 2.25 4.5 3.375 7.125 3.375h1.6875c44.438-8.25 77.062-28.312 97.5-59.25 29.25-45.562 32.625-113.06 10.125-206.44z"/>
 <path d="m1149.6 775.69c-104.62 24.375-168.94 61.312-196.31 112.69-19.125 35.812-19.5 78.375-1.125 126.75 1.125 3.375 4.125 5.625 7.3125 6 9 1.125 17.812 1.6875 26.438 1.6875 35.812 0 66.75-10.125 91.875-30.188 45.75-36.562 72.938-104.25 83.062-207.19 0.1875-3-0.9375-5.8125-3.1875-7.6875-2.25-2.0625-5.4375-2.8125-8.0625-2.0625z"/>
 <path d="m934.31 349.69c-2.8125-0.9375-5.8125-0.375-8.0625 1.125-78.562 54.375-118.69 105.94-123 157.31-3 37.312 13.688 73.688 49.5 108.19 1.6875 1.6875 4.125 2.625 6.375 2.625 0.75 0 1.5 0 2.25-0.1875 43.312-11.25 74.062-33 90.562-64.875 24.188-45.75 20.062-110.81-12-198.56-0.9375-2.8125-3-4.875-5.625-5.625z"/>
 <path d="m798.38 886.69h0.5625c46.875-2.8125 82.875-19.125 107.25-48.562 35.25-42.562 46.312-111.38 33.75-209.62-0.375-3-2.0625-5.4375-4.6875-6.75s-5.625-1.6875-8.25-0.5625c-93.562 41.25-146.62 87-162.19 139.88-11.062 37.688-2.4375 78.562 26.062 121.69 1.6875 2.4375 4.5 3.9375 7.5 3.9375z"/>
 <path d="m905.25 881.44c-113.62 14.25-184.5 46.5-216.75 98.812-23.438 38.062-25.125 86.438-4.6875 143.81 1.125 3 3.5625 5.25 6.5625 6 17.625 4.125 34.125 6 49.875 6 31.5 0 59.25-8.25 82.688-24.75 50.25-35.625 80.438-107.44 92.438-219.56 0.375-2.8125-0.75-5.625-2.625-7.5-1.6875-2.25-4.5-3.1875-7.5-2.8125z"/>
 <path d="m943.88 861c81-145.88 91.5-320.06 31.312-517.69-1.5-4.875-6.5625-7.6875-11.625-6.1875-4.875 1.5-7.6875 6.5625-6.1875 11.438 58.875 192.56 48.75 362.06-29.625 503.25-2.4375 4.5-0.9375 10.125 3.5625 12.562 1.5 0.75 3 1.125 4.5 1.125 3.1875 0.375 6.375-1.3125 8.0625-4.5z"/>
</svg>
