<?xml version="1.0" encoding="UTF-8" standalone="no"?>
<svg
   width="1200pt"
   height="1200pt"
   version="1.1"
   viewBox="0 0 1200 1200"
   id="svg395"
   sodipodi:docname="population-loss.svg"
   inkscape:version="1.2.2 (b0a8486541, 2022-12-01)"
   xmlns:inkscape="http://www.inkscape.org/namespaces/inkscape"
   xmlns:sodipodi="http://sodipodi.sourceforge.net/DTD/sodipodi-0.dtd"
   xmlns="http://www.w3.org/2000/svg"
   xmlns:svg="http://www.w3.org/2000/svg">
  <defs
     id="defs399" />
  <sodipodi:namedview
     id="namedview397"
     pagecolor="#ffffff"
     bordercolor="#666666"
     borderopacity="1.0"
     inkscape:showpageshadow="2"
     inkscape:pageopacity="0.0"
     inkscape:pagecheckerboard="0"
     inkscape:deskcolor="#d1d1d1"
     inkscape:document-units="pt"
     showgrid="false"
     inkscape:zoom="0.35355339"
     inkscape:cx="120.20815"
     inkscape:cy="975.80736"
     inkscape:window-width="2560"
     inkscape:window-height="1011"
     inkscape:window-x="0"
     inkscape:window-y="32"
     inkscape:window-maximized="1"
     inkscape:current-layer="svg395" />
  <path
     id="path391"
     d="m 449.55269,312.14158 c -130.34729,0 -236.40935,106.41903 -236.40935,237.2209 0,85.68067 45.50426,160.89968 113.52934,202.61178 v 7.4e-4 c 0.27266,0.15535 0.54547,0.31954 0.81813,0.4876 6.22393,3.77933 12.63139,7.28599 19.20762,10.49165 0.5168,0.23464 1.02375,0.47905 1.53738,0.71049 2.61897,1.24606 5.26888,2.45422 7.93848,3.60521 0.83701,0.36146 1.6749,0.73848 2.52465,1.09045 3.0691,1.28725 6.1569,2.52367 9.29247,3.68097 0.48828,0.1744 0.97332,0.33053 1.46164,0.52712 2.73623,0.99246 5.51349,1.92673 8.29757,2.81455 1.2175,0.3995 2.42611,0.76111 3.64361,1.12889 2.20997,0.67214 4.44158,1.29745 6.68002,1.89978 1.12874,0.30119 2.2609,0.63333 3.40863,0.93452 3.07868,0.77045 6.18577,1.4911 9.31228,2.16335 1.21749,0.25365 2.43527,0.48781 3.66229,0.71929 2.27018,0.43752 4.54936,0.83659 6.84799,1.2266 1.22702,0.2061 2.4452,0.40911 3.67222,0.59301 3.28162,0.48828 6.57624,0.92577 9.90525,1.26505 0.76096,0.0888 1.5177,0.1367 2.27864,0.20644 2.85355,0.26317 5.71733,0.49804 8.60286,0.6534 1.02409,0.0571 2.03533,0.12671 3.05942,0.16475 3.56378,0.16484 7.14053,0.27233 10.74204,0.27233 3.60499,0 7.17767,-0.11698 10.73215,-0.27233 1.0241,-0.0379 2.03572,-0.10767 3.06932,-0.16475 2.87259,-0.16483 5.7265,-0.39023 8.5798,-0.6534 0.76095,-0.0695 1.52828,-0.11768 2.27975,-0.20644 3.32283,-0.34244 6.61405,-0.77994 9.89536,-1.26505 1.23649,-0.1839 2.46274,-0.38056 3.68974,-0.59301 2.28921,-0.38998 4.56906,-0.78872 6.83923,-1.21675 1.22703,-0.24411 2.45428,-0.47867 3.69087,-0.72914 3.11669,-0.66268 6.22355,-1.39283 9.29249,-2.16335 1.16044,-0.2917 2.2987,-0.63365 3.45916,-0.9444 2.21944,-0.60243 4.42392,-1.21776 6.60533,-1.8899 1.23652,-0.37098 2.46346,-0.73894 3.68099,-1.12889 2.75525,-0.88782 5.48532,-1.81055 8.19322,-2.78711 0.54535,-0.20608 1.09975,-0.3897 1.64505,-0.5831 3.07867,-1.16047 6.13505,-2.37786 9.16618,-3.65243 0.85606,-0.35192 1.72456,-0.72934 2.58064,-1.10032 2.6411,-1.13823 5.2701,-2.32736 7.86051,-3.57339 0.53582,-0.24412 1.07141,-0.49746 1.5978,-0.75111 3.27202,-1.58844 6.51582,-3.25274 9.71195,-4.99655 0.0104,-0.0104 0.028,-0.0198 0.0374,-0.0198 3.18649,-1.75338 6.31318,-3.56332 9.41111,-5.44349 0.29169,-0.18388 0.57365,-0.36151 0.86532,-0.53589 C 640.45566,710.23415 685.93792,635.04282 685.93792,549.35403 685.9538,418.56031 579.90008,312.14089 449.55276,312.14089 Z M 312.38034,779.52559 C 172.31726,809.68102 79.34766,889.26536 36.004072,1016.1062 10.613983,1090.4575 10.371968,1160.1064 11.656037,1188.7585 H 887.4581 c 1.27466,-28.8399 0.98269,-99.1636 -24.7027,-173.6592 h 0.008 C 819.2609,888.84978 726.40732,809.61294 586.73383,779.53217 c -3.17383,1.89916 -6.39809,3.72274 -9.6417,5.49509 -0.20609,0.10779 -0.40887,0.21608 -0.61496,0.32069 -3.34185,1.81043 -6.70329,3.53478 -10.11169,5.18982 -0.53585,0.26314 -1.0806,0.53629 -1.61647,0.79944 -3.58283,1.72481 -7.18776,3.35998 -10.83098,4.92628 -0.54536,0.22507 -1.09097,0.43742 -1.63623,0.67205 -3.00888,1.24607 -6.02999,2.44494 -9.07725,3.58323 -1.10025,0.40901 -2.21078,0.82714 -3.31092,1.22664 -3.38941,1.21751 -6.78751,2.39738 -10.21822,3.46901 -0.89732,0.2822 -1.8013,0.53557 -2.70802,0.80825 -2.83455,0.85608 -5.67877,1.66454 -8.53258,2.44447 -1.38235,0.36145 -2.77778,0.72937 -4.16965,1.07179 -2.95182,0.72924 -5.91258,1.424 -8.90265,2.06451 -1.25557,0.2727 -2.53337,0.5264 -3.79845,0.78956 -3.1072,0.6151 -6.22411,1.16944 -9.35069,1.67357 -1.3348,0.21561 -2.66055,0.42791 -4.00494,0.61496 -3.33235,0.47877 -6.67009,0.91668 -10.02166,1.27494 -0.64362,0.0793 -1.28745,0.16451 -1.91843,0.21524 -3.76986,0.38047 -7.54925,0.65373 -11.35701,0.88839 -1.07167,0.0475 -2.14371,0.0976 -3.21537,0.15484 -4.04256,0.1839 -8.07505,0.31079 -12.12678,0.31079 -4.05207,0 -8.08565,-0.1364 -12.1279,-0.31079 -1.06216,-0.057 -2.14373,-0.10731 -3.21536,-0.15484 -3.79842,-0.22509 -7.58732,-0.50786 -11.35698,-0.88839 -0.63416,-0.0571 -1.27371,-0.1455 -1.91738,-0.21524 -3.35134,-0.36145 -6.69018,-0.79936 -10.02277,-1.27494 -1.34429,-0.19341 -2.67011,-0.39935 -4.00491,-0.61496 -3.12625,-0.5073 -6.25258,-1.06164 -9.35071,-1.67357 -1.26505,-0.26316 -2.533,-0.51686 -3.78858,-0.78956 -2.98989,-0.63411 -5.95151,-1.33522 -8.91254,-2.06451 -1.39184,-0.34245 -2.77736,-0.71035 -4.15976,-1.07179 -2.86302,-0.77996 -5.71686,-1.58839 -8.55123,-2.44447 -0.89732,-0.27268 -1.80051,-0.52569 -2.68825,-0.79835 -3.43695,-1.08114 -6.84884,-2.2614 -10.238,-3.47891 -1.10021,-0.3995 -2.19052,-0.79823 -3.28125,-1.21675 -3.05962,-1.14778 -6.08814,-2.35633 -9.11567,-3.61508 -0.53585,-0.2251 -1.07071,-0.42831 -1.60662,-0.6534 -3.65253,-1.55997 -7.26697,-3.2046 -10.84963,-4.92627 -0.53583,-0.26315 -1.06303,-0.5264 -1.59891,-0.78957 -3.41789,-1.6551 -6.78809,-3.39929 -10.14902,-5.21287 -0.19341,-0.11732 -0.38971,-0.20615 -0.5831,-0.3108 -3.25307,-1.77238 -6.48701,-3.59593 -9.67027,-5.49508 z"
     class="primary"
     style="stroke-width:1.07513" />
  <path
     id="rect683"
     d="M 510.84208,57.132591 1193.7484,57.132569 852.29526,540.68904 Z"
     sodipodi:nodetypes="cccc"
     class="secondary"
     style="stroke-width:1.00249" />
</svg>
