<?xml version="1.0" encoding="UTF-8" standalone="no"?>
<svg
   width="1200pt"
   height="1200pt"
   version="1.1"
   viewBox="0 0 1200 1200"
   id="svg395"
   sodipodi:docname="population.svg"
   inkscape:version="1.2.2 (b0a8486541, 2022-12-01)"
   xmlns:inkscape="http://www.inkscape.org/namespaces/inkscape"
   xmlns:sodipodi="http://sodipodi.sourceforge.net/DTD/sodipodi-0.dtd"
   xmlns="http://www.w3.org/2000/svg"
   xmlns:svg="http://www.w3.org/2000/svg">
  <defs
     id="defs399" />
  <sodipodi:namedview
     id="namedview397"
     pagecolor="#ffffff"
     bordercolor="#666666"
     borderopacity="1.0"
     inkscape:showpageshadow="2"
     inkscape:pageopacity="0.0"
     inkscape:pagecheckerboard="0"
     inkscape:deskcolor="#d1d1d1"
     inkscape:document-units="pt"
     showgrid="false"
     inkscape:zoom="0.540625"
     inkscape:cx="799.07514"
     inkscape:cy="800.92486"
     inkscape:window-width="2560"
     inkscape:window-height="1011"
     inkscape:window-x="0"
     inkscape:window-y="32"
     inkscape:window-maximized="1"
     inkscape:current-layer="svg395" />
  <path
     d="m 436.10696,602.03554 c 0.36373,0.20724 0.72746,0.42716 1.09117,0.65132 8.3023,5.04136 16.84929,9.71915 25.62149,13.99524 0.68939,0.31298 1.36607,0.63864 2.05122,0.94739 3.49351,1.66219 7.02924,3.27349 10.59031,4.80879 1.1165,0.48215 2.23311,0.98545 3.36661,1.45496 4.09398,1.71709 8.21341,3.36661 12.39606,4.91035 0.65133,0.23262 1.2984,0.43986 1.94977,0.70208 3.64996,1.32385 7.35492,2.57147 11.06865,3.75574 1.62408,0.53291 3.23549,1.01506 4.85957,1.50564 2.94793,0.89662 5.92541,1.72986 8.91134,2.53335 1.50563,0.40178 3.01559,0.84587 4.54656,1.24761 4.10675,1.02774 8.25152,1.98777 12.42205,2.88448 1.62408,0.33835 3.24816,0.65132 4.88491,0.96007 3.02826,0.58365 6.06919,1.1165 9.13545,1.63675 1.63675,0.27491 3.26083,0.54559 4.89758,0.79089 4.37744,0.65133 8.77177,1.23495 13.21244,1.68753 1.01505,0.11843 2.02588,0.18187 3.04093,0.27492 3.80641,0.35104 7.6256,0.66401 11.47467,0.87125 1.36607,0.0761 2.71525,0.16918 4.08132,0.21992 4.75379,0.21992 9.52458,0.36373 14.32872,0.36373 4.8088,0 9.57536,-0.15648 14.31681,-0.36373 1.36607,-0.0507 2.71525,-0.14379 4.09399,-0.21992 3.83185,-0.21992 7.63827,-0.52021 11.44435,-0.87125 1.01505,-0.093 2.03855,-0.15649 3.04093,-0.27492 4.43244,-0.45678 8.82244,-1.04043 13.19945,-1.68753 1.64942,-0.2453 3.28627,-0.50752 4.92302,-0.79089 3.0536,-0.52022 6.09453,-1.05312 9.12279,-1.62408 1.63675,-0.32566 3.27349,-0.63863 4.92302,-0.97276 4.15743,-0.88395 8.3023,-1.85665 12.39607,-2.88448 1.54796,-0.38911 3.06626,-0.84587 4.61423,-1.26039 2.96059,-0.80359 5.89996,-1.62408 8.80977,-2.52068 1.64942,-0.49484 3.28627,-0.98545 4.91035,-1.50564 3.6753,-1.18427 7.31681,-2.415 10.92899,-3.71762 0.72745,-0.27492 1.46762,-0.52022 2.19499,-0.77821 4.10676,-1.54797 8.18386,-3.17205 12.22717,-4.87224 1.14194,-0.46946 2.30078,-0.97276 3.44272,-1.46763 3.52307,-1.5183 7.02924,-3.10438 10.48464,-4.76646 0.71477,-0.32566 1.42951,-0.66401 2.13166,-1.00236 4.36466,-2.11889 8.69132,-4.33933 12.95475,-6.66545 0.0127,-0.0127 0.0381,-0.0254 0.0507,-0.0254 4.25055,-2.3389 8.42064,-4.7538 12.55306,-7.26181 0.3891,-0.2453 0.76552,-0.48215 1.15462,-0.71477 C 854.67165,546.35593 915.34189,446.05595 915.34189,331.75314 915.36304,157.28355 773.89528,15.328059 600.02119,15.328059 426.1471,15.328059 284.668,157.28355 284.668,331.76397 c 0,114.29198 60.69948,214.62769 151.44013,270.2687 z"
     id="path391"
     style="stroke-width:1.08272" />
  <path
     d="M 1151.2114,953.02106 C 1093.1841,784.6147 969.32518,678.91952 783.01062,638.7939 c -4.23365,2.53335 -8.53487,4.96525 -12.86163,7.32948 -0.27492,0.14379 -0.5456,0.2876 -0.8205,0.42716 -4.45778,2.41501 -8.94089,4.71579 -13.48745,6.92346 -0.71477,0.35104 -1.44218,0.71477 -2.157,1.06581 -4.77923,2.30078 -9.58803,4.48311 -14.44782,6.57244 -0.72746,0.30028 -1.45496,0.58365 -2.18233,0.89663 -4.01365,1.66219 -8.04429,3.26083 -12.10915,4.77924 -1.46762,0.54559 -2.94792,1.10383 -4.41544,1.63675 -4.52122,1.62408 -9.05512,3.19738 -13.63145,4.62689 -1.19695,0.37642 -2.40234,0.71477 -3.61185,1.07849 -3.78108,1.14195 -7.57482,2.22044 -11.38156,3.26083 -1.84398,0.48215 -3.70496,0.97276 -5.56161,1.42952 -3.93753,0.97276 -7.88783,1.89898 -11.87636,2.75335 -1.67486,0.36373 -3.37928,0.70208 -5.06681,1.05312 -4.14476,0.8205 -8.3023,1.56064 -12.47294,2.23311 -1.78053,0.2876 -3.5484,0.57097 -5.34171,0.8205 -4.44511,0.63863 -8.89866,1.22228 -13.36943,1.7002 -0.85857,0.10573 -1.71709,0.21992 -2.55879,0.28759 -5.0287,0.50752 -10.07017,0.87125 -15.14943,1.18428 -1.42952,0.0634 -2.85903,0.13111 -4.28855,0.20724 -5.39249,0.2453 -10.7722,0.41448 -16.17693,0.41448 -5.40515,0 -10.78487,-0.18187 -16.17692,-0.41448 -1.41685,-0.0761 -2.85904,-0.14379 -4.28855,-0.20724 -5.06681,-0.30028 -10.12095,-0.6767 -15.14943,-1.18428 -0.84587,-0.0761 -1.70019,-0.19456 -2.55879,-0.28759 -4.47045,-0.48215 -8.924,-1.06581 -13.36943,-1.7002 -1.79321,-0.25799 -3.56118,-0.5329 -5.34171,-0.8205 -4.17021,-0.6767 -8.34031,-1.41684 -12.47295,-2.23311 -1.68752,-0.35104 -3.37927,-0.68939 -5.05413,-1.05312 -3.98831,-0.84587 -7.93851,-1.78053 -11.88828,-2.75335 -1.85665,-0.45678 -3.70496,-0.94738 -5.54894,-1.42952 -3.81908,-1.04043 -7.6256,-2.11888 -11.40646,-3.26083 -1.19695,-0.36373 -2.40234,-0.70208 -3.58651,-1.06581 -4.58467,-1.44218 -9.13546,-3.01559 -13.65636,-4.63967 -1.46762,-0.53291 -2.92248,-1.06581 -4.37744,-1.62408 -4.08131,-1.53108 -8.1204,-3.14238 -12.15895,-4.82147 -0.71477,-0.30028 -1.42951,-0.57096 -2.14433,-0.87125 -4.87224,-2.08088 -9.6937,-4.27588 -14.47272,-6.57244 -0.71477,-0.35104 -1.41685,-0.70208 -2.13166,-1.05312 -4.55923,-2.20777 -9.05512,-4.53389 -13.53834,-6.95312 -0.25799,-0.15649 -0.52021,-0.27491 -0.7782,-0.41448 -4.33933,-2.36423 -8.65332,-4.79612 -12.89954,-7.32947 C 230.20799,679.01057 106.19317,785.16915 48.375896,954.36589 14.507315,1053.5453 14.185747,1146.4513 15.898611,1184.6714 H 1184.1541 c 1.7002,-38.4702 1.311,-132.276 -32.9515,-231.64808 z"
     id="path393"
     style="stroke-width:1.08272" />
</svg>
