<?xml version="1.0" encoding="UTF-8"?>
<svg width="1200pt" height="1200pt" version="1.1" viewBox="0 0 1200 1200" xmlns="http://www.w3.org/2000/svg">
 <path d="m600 506.25c-51.695 0-93.75 42.055-93.75 93.75s42.055 93.75 93.75 93.75 93.75-42.055 93.75-93.75-42.055-93.75-93.75-93.75z"/>
 <path d="m920.64 431.25h-641.29c-7.4609 36.676-36.43 65.645-73.105 73.105v191.27c36.676 7.4609 65.645 36.43 73.105 73.105h641.27c7.4609-36.676 36.43-65.645 73.105-73.105v-191.27c-36.656-7.4609-65.625-36.43-73.086-73.105zm-320.64 300c-72.375 0-131.25-58.895-131.25-131.25 0-72.375 58.875-131.25 131.25-131.25 72.355 0 131.25 58.875 131.25 131.25 0 72.355-58.895 131.25-131.25 131.25z"/>
 <path d="m1087.5 318.75h-975c-10.352 0-18.75 8.3984-18.75 18.75v525c0 10.367 8.3984 18.75 18.75 18.75h975c10.367 0 18.75-8.3828 18.75-18.75v-525c0-10.352-8.3828-18.75-18.75-18.75zm-56.25 393.75c0 10.367-8.3828 18.75-18.75 18.75-31.012 0-56.25 25.238-56.25 56.25 0 10.367-8.3828 18.75-18.75 18.75h-675c-10.352 0-18.75-8.3828-18.75-18.75 0-31.012-25.238-56.25-56.25-56.25-10.352 0-18.75-8.3828-18.75-18.75v-225c0-10.352 8.3984-18.75 18.75-18.75 31.012 0 56.25-25.238 56.25-56.25 0-10.352 8.3984-18.75 18.75-18.75h675c10.367 0 18.75 8.3984 18.75 18.75 0 31.012 25.238 56.25 56.25 56.25 10.367 0 18.75 8.3984 18.75 18.75z"/>
</svg>
