<?xml version="1.0" encoding="UTF-8" standalone="no"?>
<svg
   width="1200pt"
   height="1200pt"
   version="1.1"
   viewBox="0 0 1200 1200"
   id="svg190"
   sodipodi:docname="bank.svg"
   inkscape:version="1.2.2 (b0a8486541, 2022-12-01)"
   xmlns:inkscape="http://www.inkscape.org/namespaces/inkscape"
   xmlns:sodipodi="http://sodipodi.sourceforge.net/DTD/sodipodi-0.dtd"
   xmlns="http://www.w3.org/2000/svg"
   xmlns:svg="http://www.w3.org/2000/svg">
  <defs
     id="defs194" />
  <sodipodi:namedview
     id="namedview192"
     pagecolor="#ffffff"
     bordercolor="#666666"
     borderopacity="1.0"
     inkscape:showpageshadow="2"
     inkscape:pageopacity="0.0"
     inkscape:pagecheckerboard="0"
     inkscape:deskcolor="#d1d1d1"
     inkscape:document-units="pt"
     showgrid="false"
     inkscape:zoom="0.5175"
     inkscape:cx="798.06763"
     inkscape:cy="800"
     inkscape:window-width="2560"
     inkscape:window-height="1011"
     inkscape:window-x="0"
     inkscape:window-y="32"
     inkscape:window-maximized="1"
     inkscape:current-layer="svg190" />
  <path
     id="path184"
     d="M 112.5 318.75 C 102.14801 318.75 93.75 327.14841 93.75 337.5 L 93.75 862.5 C 93.75 872.86699 102.14841 881.25 112.5 881.25 L 1087.5 881.25 C 1097.867 881.25 1106.25 872.86719 1106.25 862.5 L 1106.25 337.5 C 1106.25 327.14801 1097.8672 318.75 1087.5 318.75 L 112.5 318.75 z M 262.5 393.75 L 937.5 393.75 C 947.86699 393.75 956.25 402.14841 956.25 412.5 C 956.25 443.51197 981.48803 468.75 1012.5 468.75 C 1022.867 468.75 1031.25 477.14841 1031.25 487.5 L 1031.25 712.5 C 1031.25 722.86699 1022.8672 731.25 1012.5 731.25 C 981.48803 731.25 956.25 756.48803 956.25 787.5 C 956.25 797.86699 947.86719 806.25 937.5 806.25 L 262.5 806.25 C 252.14801 806.25 243.75 797.86719 243.75 787.5 C 243.75 756.48803 218.51197 731.25 187.5 731.25 C 177.14801 731.25 168.75 722.86719 168.75 712.5 L 168.75 487.5 C 168.75 477.14801 177.14841 468.75 187.5 468.75 C 218.51197 468.75 243.75 443.51197 243.75 412.5 C 243.75 402.14801 252.14841 393.75 262.5 393.75 z M 279.3501 431.25 C 271.88921 467.92596 242.92057 496.8945 206.24561 504.35449 L 206.24561 695.625 C 242.92157 703.08589 271.89011 732.05453 279.3501 768.72949 L 920.62061 768.72949 C 928.0815 732.05353 957.05013 703.08499 993.7251 695.625 L 993.7251 504.35449 C 957.06913 496.8936 928.10064 467.92496 920.63965 431.25 L 279.3501 431.25 z M 600 468.75 C 672.35493 468.75 731.25 527.62507 731.25 600 C 731.25 672.35493 672.35493 731.25 600 731.25 C 527.62507 731.25 468.75 672.35493 468.75 600 C 468.75 527.62507 527.62507 468.75 600 468.75 z M 600 506.25 C 548.30505 506.25 506.25 548.30505 506.25 600 C 506.25 651.69495 548.30505 693.75 600 693.75 C 651.69495 693.75 693.75 651.69495 693.75 600 C 693.75 548.30505 651.69495 506.25 600 506.25 z " />
</svg>
