<?xml version="1.0" encoding="UTF-8"?>
<svg width="1200pt" height="1200pt" version="1.1" viewBox="0 0 1200 1200" xmlns="http://www.w3.org/2000/svg">
 <path d="m640 620c0 22.09-17.91 40-40 40s-40-17.91-40-40 17.91-40 40-40 40 17.91 40 40"/>
 <path d="m600 740c31.824 0 62.348-12.645 84.852-35.148 22.504-22.504 35.148-53.027 35.148-84.852s-12.645-62.348-35.148-84.852c-22.504-22.504-53.027-35.148-84.852-35.148s-62.348 12.645-84.852 35.148c-22.504 22.504-35.148 53.027-35.148 84.852 0.03125 31.816 12.684 62.32 35.184 84.816 22.496 22.5 53 35.152 84.816 35.184zm0-200c21.219 0 41.566 8.4297 56.57 23.43 15 15.004 23.43 35.352 23.43 56.57s-8.4297 41.566-23.43 56.57c-15.004 15-35.352 23.43-56.57 23.43s-41.566-8.4297-56.57-23.43c-15-15.004-23.43-35.352-23.43-56.57s8.4297-41.566 23.43-56.57c15.004-15 35.352-23.43 56.57-23.43z"/>
 <path d="m745.58 820 74.422-223.24v-156.76c0-5.3047-2.1055-10.391-5.8594-14.141-3.75-3.7539-8.8359-5.8594-14.141-5.8594h-400c-5.3047 0-10.391 2.1055-14.141 5.8594-3.7539 3.75-5.8594 8.8359-5.8594 14.141v156.76l74.422 223.24zm-145.58-360c42.434 0 83.133 16.855 113.14 46.863 30.008 30.004 46.863 70.703 46.863 113.14s-16.855 83.133-46.863 113.14c-30.004 30.008-70.703 46.863-113.14 46.863s-83.133-16.855-113.14-46.863c-30.008-30.004-46.863-70.703-46.863-113.14 0.046875-42.422 16.922-83.09 46.914-113.09 29.996-29.992 70.664-46.867 113.09-46.914z"/>
 <path d="m142.82 460h-102.82v62.84l119.04 18.262z"/>
 <path d="m224 580h116v-140c0-5.3047-2.1055-10.391-5.8594-14.141-3.75-3.7539-8.8359-5.8594-14.141-5.8594h-120c-6.0117-0.007812-11.703 2.6875-15.508 7.3398-3.8047 4.6562-5.3125 10.773-4.1133 16.66l24 120c0.92578 4.5195 3.3828 8.582 6.957 11.5 3.5742 2.9141 8.0508 4.5039 12.664 4.5z"/>
 <path d="m800 960c0-72.621-34.34-95.078-44-100h-311.9c-9.7617 4.9219-44 27.379-44 100 0 5.3047 2.1055 10.391 5.8555 14.141 3.75 3.7539 8.8398 5.8594 14.145 5.8594h359.9c5.3047 0 10.391-2.1055 14.141-5.8594 3.7539-3.75 5.8594-8.8359 5.8594-14.141z"/>
 <path d="m1015.4 427.32c-3.793-4.625-9.457-7.3125-15.441-7.3203h-120c-5.3047 0-10.391 2.1055-14.141 5.8594-3.7539 3.75-5.8594 8.8359-5.8594 14.141v140h116c4.6094 0 9.0781-1.5898 12.652-4.5078 3.5703-2.9141 6.0273-6.9766 6.9492-11.492l24-120c1.2188-5.9023-0.3125-12.039-4.1602-16.68z"/>
 <path d="m1160 522.84v-62.84h-102.82l-16.219 81.102z"/>
 <path d="m640 1020h-80v120c0 5.3047 2.1055 10.391 5.8594 14.141 3.75 3.7539 8.8359 5.8594 14.141 5.8594h40c5.3047 0 10.391-2.1055 14.141-5.8594 3.7539-3.75 5.8594-8.8359 5.8594-14.141z"/>
 <path d="m740 240v-120c0-21.219-8.4297-41.566-23.43-56.57-15.004-15-35.352-23.43-56.57-23.43h-120c-21.219 0-41.566 8.4297-56.57 23.43-15 15.004-23.43 35.352-23.43 56.57v120c0 50.016 26.684 96.234 70 121.24 43.316 25.012 96.684 25.012 140 0 43.316-25.008 70-71.227 70-121.24z"/>
</svg>
