<?xml version="1.0" encoding="UTF-8" standalone="no"?>
<svg
   width="1200pt"
   height="1200pt"
   version="1.1"
   viewBox="0 0 1200 1200"
   id="svg441"
   sodipodi:docname="barracks.svg"
   inkscape:version="1.2.2 (b0a8486541, 2022-12-01)"
   xmlns:inkscape="http://www.inkscape.org/namespaces/inkscape"
   xmlns:sodipodi="http://sodipodi.sourceforge.net/DTD/sodipodi-0.dtd"
   xmlns="http://www.w3.org/2000/svg"
   xmlns:svg="http://www.w3.org/2000/svg">
  <defs
     id="defs445" />
  <sodipodi:namedview
     id="namedview443"
     pagecolor="#ffffff"
     bordercolor="#666666"
     borderopacity="1.0"
     inkscape:showpageshadow="2"
     inkscape:pageopacity="0.0"
     inkscape:pagecheckerboard="0"
     inkscape:deskcolor="#d1d1d1"
     inkscape:document-units="pt"
     showgrid="false"
     inkscape:zoom="0.540625"
     inkscape:cx="643.69942"
     inkscape:cy="652.94798"
     inkscape:window-width="2560"
     inkscape:window-height="1011"
     inkscape:window-x="0"
     inkscape:window-y="32"
     inkscape:window-maximized="1"
     inkscape:current-layer="svg441" />
  <path
     id="path421"
     d="M 540 40.000488 C 518.78102 40.000488 498.43465 48.430379 483.43066 63.430664 C 468.43068 78.434649 460.00049 98.782021 460.00049 120 L 460.00049 240 C 460.00049 290.01595 486.68356 336.23475 529.99951 361.24072 C 573.31547 386.2527 626.68453 386.2527 670.00049 361.24072 C 713.31644 336.23275 739.99951 290.01295 739.99951 240 L 739.99951 120 C 739.99951 98.781021 731.56962 78.434649 716.56934 63.430664 C 701.56535 48.430679 681.21798 40.000488 660 40.000488 L 540 40.000488 z M 199.99951 420 C 193.98782 419.99219 188.29621 422.68657 184.49121 427.33887 C 180.68651 431.99506 179.17873 438.11301 180.37793 444 L 204.37793 564 C 205.30371 568.5195 207.76174 572.58103 211.33594 575.49902 C 214.91013 578.41312 219.38632 580.00292 223.99951 579.99902 L 223.99951 580.00049 L 340.00049 580.00049 L 340.00049 439.99951 C 340.00049 434.69482 337.89501 429.60937 334.14111 425.85938 C 330.39112 422.10548 325.30461 420 319.99951 420 L 199.99951 420 z M 400.00195 420 C 394.69726 420 389.61035 422.10548 385.86035 425.85938 C 382.10646 429.60937 380.00098 434.69442 380.00098 439.99951 L 380.00098 596.75977 L 454.42383 820.00049 L 745.58057 820.00049 L 820.00195 596.75977 L 820.00195 439.99951 C 820.00195 434.69482 817.89647 429.60937 814.14258 425.85938 C 810.39258 422.10548 805.30607 420 800.00098 420 L 400.00195 420 z M 879.95947 420 C 874.65478 420 869.56787 422.10548 865.81787 425.85938 C 862.06397 429.60937 859.9585 434.69442 859.9585 439.99951 L 859.9585 580.00049 L 975.95801 580.00049 C 980.5674 580.00049 985.03743 578.4097 988.61133 575.4917 C 992.18162 572.5776 994.63718 568.5154 995.55908 564 L 1019.5591 444 C 1020.7779 438.09771 1019.2466 431.96082 1015.3989 427.31982 L 1015.4004 427.31982 C 1011.6074 422.69483 1005.9435 420.0078 999.95947 420 L 879.95947 420 z M 600.00146 459.99902 L 600 460.00049 C 642.43396 460.00049 683.13317 476.85433 713.14014 506.8623 C 743.14811 536.86627 760.00342 577.56548 760.00342 620.00244 C 760.00342 662.4394 743.14811 703.13561 713.14014 733.14258 C 683.13617 763.15055 642.43696 780.00586 600 780.00586 C 557.56304 780.00586 516.86683 763.15055 486.85986 733.14258 C 456.85189 703.13861 439.99658 662.4394 439.99658 620.00244 C 440.04346 577.58048 456.91916 536.91354 486.91113 506.91357 C 516.9071 476.9216 557.57551 460.04602 600.00146 459.99902 z M 40.000488 460.00049 L 40.000488 522.83936 L 159.03955 541.10156 L 142.81934 460.00049 L 40.000488 460.00049 z M 1057.1807 460.00049 L 1040.9604 541.10156 L 1159.9995 522.83936 L 1159.9995 460.00049 L 1057.1807 460.00049 z M 600 499.99951 C 568.17503 499.99951 537.65144 512.64546 515.14746 535.14844 C 492.64348 557.65241 480 588.17454 480 619.99951 C 480.03125 651.81548 492.6841 682.31945 515.18408 704.81543 C 537.68006 727.31541 568.18403 739.96751 600 739.99951 C 631.82397 739.99951 662.34856 727.35503 684.85254 704.85205 C 707.35652 682.34807 720 651.82448 720 619.99951 C 720 588.17454 707.35552 557.65241 684.85254 535.14844 C 662.34856 512.64446 631.82497 499.99951 600 499.99951 z M 600 540 C 621.21898 540 641.56535 548.42989 656.56934 563.43018 C 671.56932 578.43416 679.99951 598.78153 679.99951 619.99951 C 679.99951 641.21749 671.56962 661.56633 656.56934 676.57031 C 641.56535 691.5703 621.21798 700.00049 600 700.00049 C 578.78202 700.00049 558.43465 691.5706 543.43066 676.57031 C 528.43068 661.56633 520.00049 641.21749 520.00049 619.99951 C 520.00049 598.78153 528.43038 578.43416 543.43066 563.43018 C 558.43465 548.43019 578.78202 540 600 540 z M 600 580.00049 C 577.91002 580.00049 559.99951 597.90953 559.99951 619.99951 C 559.99951 642.08949 577.91002 660 600 660 C 622.08998 660 640.00049 642.08949 640.00049 619.99951 C 640.00049 597.90953 622.08998 580.00049 600 580.00049 z M 444.09961 859.99951 C 434.33792 864.92141 400.1001 887.37907 400.1001 960 C 400.1001 965.30469 402.20508 970.39161 405.95508 974.1416 C 409.70507 977.8955 414.79588 980.00098 420.10107 980.00098 L 780 980.00098 C 785.30469 980.00098 790.39161 977.8955 794.1416 974.1416 C 797.8955 970.39161 800.00098 965.30509 800.00098 960 L 799.99951 960 C 799.99951 887.37907 765.65999 864.92151 756 859.99951 L 444.09961 859.99951 z M 559.99951 1020 L 559.99951 1140 C 559.99951 1145.3047 562.10499 1150.3916 565.85889 1154.1416 C 569.60888 1157.8955 574.69539 1160.001 580.00049 1160.001 L 620.00098 1160.001 C 625.30567 1160.001 630.39112 1157.8955 634.14111 1154.1416 C 637.89501 1150.3916 640.00049 1145.3051 640.00049 1140 L 640.00049 1020 L 559.99951 1020 z " />
</svg>
