<?xml version="1.0" encoding="UTF-8" standalone="no"?>
<svg
   width="1200pt"
   height="1200pt"
   version="1.1"
   viewBox="0 0 1200 1200"
   id="svg1201"
   sodipodi:docname="castle.svg"
   inkscape:version="1.2.2 (b0a8486541, 2022-12-01)"
   xmlns:inkscape="http://www.inkscape.org/namespaces/inkscape"
   xmlns:sodipodi="http://sodipodi.sourceforge.net/DTD/sodipodi-0.dtd"
   xmlns="http://www.w3.org/2000/svg"
   xmlns:svg="http://www.w3.org/2000/svg">
  <defs
     id="defs1205" />
  <sodipodi:namedview
     id="namedview1203"
     pagecolor="#ffffff"
     bordercolor="#666666"
     borderopacity="1.0"
     inkscape:showpageshadow="2"
     inkscape:pageopacity="0.0"
     inkscape:pagecheckerboard="0"
     inkscape:deskcolor="#d1d1d1"
     inkscape:document-units="pt"
     showgrid="false"
     inkscape:zoom="0.2516058"
     inkscape:cx="1633.5076"
     inkscape:cy="1546.0693"
     inkscape:window-width="2560"
     inkscape:window-height="1011"
     inkscape:window-x="0"
     inkscape:window-y="32"
     inkscape:window-maximized="1"
     inkscape:current-layer="svg1201" />
  <path
     id="path1199"
     style="stroke-width:1.13219"
     d="M 201.7207 99.183105 L 201.7207 285.91553 L 281.8418 379.69336 C 284.31403 382.16562 285.83496 385.54796 285.83496 389.30273 L 285.83496 1100.8066 L 467.34814 1100.8066 L 467.35254 1100.8169 L 467.35254 860.18115 C 467.35254 823.73824 482.29251 790.58546 506.29834 766.56152 C 530.38342 742.48892 563.55267 727.5498 599.99561 727.5498 C 636.48607 727.5498 669.68763 742.47279 693.71045 766.49561 C 717.71628 790.50141 732.65625 823.68935 732.65625 860.17529 L 732.65625 1100.811 L 914.14746 1100.811 L 914.14746 389.30713 C 914.19616 386.1936 915.27032 383.04941 917.45068 380.49756 L 998.2793 285.91553 L 998.2793 99.183105 L 899.6543 99.183105 L 899.6543 162.11719 C 899.6543 169.6091 893.55551 175.70801 886.06348 175.70801 L 783.48926 175.70801 C 775.99734 175.70801 769.89844 169.60922 769.89844 162.11719 L 769.89844 99.183105 L 664.86914 99.183105 L 664.86914 162.11719 C 664.86914 169.6091 658.77036 175.70801 651.27832 175.70801 L 548.7041 175.70801 C 541.21219 175.70801 535.11328 169.60922 535.11328 162.11719 L 535.11328 99.183105 L 430.08398 99.183105 L 430.08398 162.11719 C 430.08398 169.6091 423.98522 175.70801 416.49316 175.70801 L 313.91895 175.70801 C 306.427 175.70801 300.32812 169.60922 300.32813 162.11719 L 300.32813 99.183105 L 201.7207 99.183105 z M 599.45361 458.19873 C 600.36386 458.20037 601.27715 458.22124 602.19141 458.26172 C 607.06741 458.47762 611.97706 459.25049 616.67139 460.62598 C 624.47956 462.9138 633.60925 469.40354 635.9502 474.32959 C 637.34792 477.27073 637.8629 494.66648 637.48828 526.31543 L 636.92432 573.88184 L 631.61426 579 C 627.67179 582.80001 623.69945 584.85412 616.18945 586.97461 C 603.76677 590.48225 594.74299 590.58878 583.5791 587.35693 C 578.87712 585.99577 572.3582 582.9795 569.09326 580.65527 L 563.15771 576.4292 L 562.61719 525.40137 C 562.09697 476.3469 562.22504 474.20879 565.9292 470.09473 C 572.78143 462.48424 585.79992 458.17409 599.45361 458.19873 z M 775.68018 458.19873 C 776.59042 458.20037 777.50372 458.22124 778.41797 458.26172 C 783.29396 458.47762 788.20362 459.25049 792.89795 460.62598 C 800.70611 462.91379 809.83581 469.40354 812.17676 474.32959 C 813.5745 477.27073 814.08946 494.66651 813.71484 526.31543 L 813.15088 573.88184 L 807.84082 579 C 803.89835 582.80001 799.92452 584.85412 792.41455 586.97461 C 779.99186 590.48225 770.96954 590.58878 759.80566 587.35693 C 755.10369 585.99577 748.58476 582.9795 745.31982 580.65527 L 739.38428 576.4292 L 738.84229 525.40137 C 738.32207 476.34695 738.45014 474.20878 742.1543 470.09473 C 749.00651 462.48424 762.02633 458.17409 775.68018 458.19873 z M 425.96631 458.26172 C 430.84232 458.47762 435.75196 459.25049 440.44629 460.62598 C 448.25447 462.91381 457.38269 469.40354 459.72363 474.32959 C 461.12137 477.27073 461.63634 494.66645 461.26172 526.31543 L 460.69922 573.88184 L 455.3877 579 C 451.44523 582.80001 447.47288 584.85412 439.96289 586.97461 C 427.54018 590.48225 418.51644 590.58878 407.35254 587.35693 C 402.65054 585.99577 396.1331 582.9795 392.86816 580.65527 L 386.93115 576.4292 L 386.39063 525.40137 C 385.87041 476.34685 385.99848 474.2088 389.70264 470.09473 C 397.01169 461.97687 411.33826 457.61403 425.96631 458.26172 z M 600 754.73584 C 571.00575 754.73584 544.60695 766.59428 525.49219 785.69092 C 506.39555 804.80114 494.53857 831.18238 494.53857 860.18115 L 494.53857 1100.8169 L 705.47607 1100.8169 L 705.47607 860.18115 C 705.47607 831.19936 693.58237 804.81945 674.49023 785.72168 C 655.38 766.61145 628.99877 754.73584 600 754.73584 z " />
</svg>
