<?xml version="1.0" encoding="UTF-8"?>
<svg width="1200pt" height="1200pt" version="1.1" viewBox="0 0 1200 1200" xmlns="http://www.w3.org/2000/svg">
 <path d="m747.16 532.36c0-6.6172 5.3867-12.004 12.004-12.004 6.6172 0 12.004 5.3867 12.004 12.004v48.316c0 6.6172-5.3867 12.004-12.004 12.004-6.6172 0-12.004-5.3867-12.004-12.004zm-212.23 0c0-6.6172 5.3867-12.004 12.004-12.004 6.6172 0 12.004 5.3867 12.004 12.004v48.316c0 6.6172-5.3867 12.004-12.004 12.004-6.6172 0-12.004-5.3867-12.004-12.004zm106.13 0c0-6.6172 5.3867-12.004 12.004-12.004s12.004 5.3867 12.004 12.004v48.316c0 6.6172-5.3867 12.004-12.004 12.004s-12.004-5.3867-12.004-12.004zm-212.23 0c0-6.6172 5.3867-12.004 12.004-12.004 6.6172 0 12.004 5.3867 12.004 12.004v48.316c0 6.6172-5.3867 12.004-12.004 12.004-6.6172 0-12.004-5.3867-12.004-12.004zm54.016 554.98v-212.54c0-32.188 13.195-61.469 34.398-82.688 21.273-21.262 50.57-34.457 82.758-34.457 32.23 0 61.555 13.18 82.773 34.398 21.203 21.203 34.398 50.516 34.398 82.742v212.54h160.3v-718.43c0.042969-2.75 0.99219-5.5273 2.918-7.7812l71.391-83.539v-164.93h-87.109v55.586c0 6.6172-5.3867 12.004-12.004 12.004h-90.598c-6.6172 0-12.004-5.3867-12.004-12.004v-55.586h-92.766v55.586c0 6.6172-5.3867 12.004-12.004 12.004h-90.598c-6.6172 0-12.004-5.3867-12.004-12.004v-55.586h-92.766v55.586c0 6.6172-5.3867 12.004-12.004 12.004h-90.598c-6.6172 0-12.004-5.3867-12.004-12.004v-55.586h-87.094v164.93l70.766 82.828c2.1836 2.1836 3.5273 5.1719 3.5273 8.4883v718.43h160.32zm210.32 0v-212.54c0-25.598-10.504-48.898-27.367-65.766-16.879-16.879-40.18-27.367-65.793-27.367-25.609 0-48.926 10.473-65.809 27.34-16.867 16.879-27.34 40.18-27.34 65.793v212.54zm-520.11-400.1c0-6.6172 5.3867-12.004 12.004-12.004 6.6172 0 12.004 5.3867 12.004 12.004v48.316c0 6.6172-5.3867 12.004-12.004 12.004-6.6172 0-12.004-5.3867-12.004-12.004zm829.89 0c0-6.6172 5.3867-12.004 12.004-12.004 6.6172 0 12.004 5.3867 12.004 12.004v48.316c0 6.6172-5.3867 12.004-12.004 12.004-6.6172 0-12.004-5.3867-12.004-12.004zm-704.43-189.78h-57.402v70.398c0 6.6172-5.3867 12.004-12.004 12.004h-90.949c-6.6172 0-12.004-5.3867-12.004-12.004v-70.398h-54.156v589.88h226.52v-589.88zm602.96 589.88h226.52v-589.88h-54.156v70.398c0 6.6172-5.3867 12.004-12.004 12.004h-90.949c-6.6172 0-12.004-5.3867-12.004-12.004v-70.398h-57.402v589.88z"/>
</svg>
