<?xml version="1.0" encoding="UTF-8"?>
<svg width="1200pt" height="1200pt" version="1.1" viewBox="0 0 1200 1200" xmlns="http://www.w3.org/2000/svg">
 <path d="m946.8 1057.2v-46.801h-43.199v-384h52.801v-75.602h-40.801c-10.801-164.4-141.6-295.2-306-307.2v-78h133.2l-39.602-51.602 39.602-51.602-134.4 0.003907h-46.797v180c-164.4 12-295.2 142.8-306 307.2l-39.602 0.003906v75.602h81.602v384h-43.199v46.801h-63.602v79.199h819.6v-79.199l-63.602-0.003906zm-486-46.801h-74.398v-384h74.398zm176.4 0h-87.602v-384h87.602zm176.4 0h-87.602v-384h87.602z"/>
</svg>
