<?xml version="1.0" encoding="UTF-8"?>
<svg width="1200pt" height="1200pt" version="1.1" viewBox="0 0 1200 1200" xmlns="http://www.w3.org/2000/svg">
 <path d="m1087.5 975h-44.285l-88.492-73.742c-1.6641-1.3867-3.4258-2.582-5.25-3.6406v-80.234c20.57 0.20703 54.621-3.0664 76.023-24.469 32.277-32.277 23.375-93.508 23.375-93.508s-61.23-8.9023-93.508 23.379c-2.1523 2.1523-4.0938 4.4492-5.8945 6.832v-80.98c20.57 0.20703 54.621-3.0664 76.023-24.469 32.277-32.277 23.375-93.508 23.375-93.508s-61.23-8.9023-93.508 23.379c-2.1523 2.1523-4.0938 4.4492-5.8945 6.832v-80.98c20.57 0.20703 54.621-3.0664 76.023-24.469 32.277-32.277 23.375-93.508 23.375-93.508s-61.23-8.9023-93.508 23.379c-2.1523 2.1523-4.0938 4.4492-5.8945 6.832v-71.645c16.359-16.961 37.492-44.969 37.492-76.719 0-51.777-56.25-93.75-56.25-93.75s-56.25 41.973-56.25 93.75c0 31.758 21.145 59.777 37.508 76.734v71.43c-1.7617-2.3125-3.6641-4.5391-5.7578-6.6289-32.277-32.277-93.508-23.379-93.508-23.379s-8.9023 61.23 23.375 93.508c21.355 21.355 55.305 24.66 75.891 24.469v80.781c-1.7617-2.3125-3.6641-4.5391-5.7578-6.6289-32.277-32.277-93.508-23.379-93.508-23.379s-8.9023 61.23 23.375 93.508c21.355 21.355 55.305 24.66 75.891 24.469v80.781c-1.7617-2.3125-3.6641-4.5391-5.7578-6.6289-32.277-32.277-93.508-23.379-93.508-23.379s-8.9023 61.23 23.375 93.508c21.355 21.355 55.305 24.66 75.891 24.469v80.223c-1.8281 1.0547-3.5977 2.2578-5.2656 3.6484l-88.496 73.742h-105.79l-88.492-73.742c-1.6641-1.3867-3.4297-2.5898-5.2539-3.6445v-80.227c20.57 0.20703 54.625-3.0625 76.031-24.469 32.277-32.277 23.375-93.508 23.375-93.508s-61.23-8.9023-93.508 23.379c-2.1562 2.1562-4.0977 4.4531-5.8984 6.8398v-80.988c20.57 0.20703 54.625-3.0625 76.031-24.469 32.277-32.277 23.375-93.508 23.375-93.508s-61.23-8.9023-93.508 23.379c-2.1562 2.1562-4.0977 4.4531-5.8984 6.8398v-80.988c20.57 0.20703 54.625-3.0625 76.031-24.469 32.277-32.277 23.375-93.508 23.375-93.508s-61.23-8.9023-93.508 23.379c-2.1562 2.1562-4.0977 4.4531-5.8984 6.8398v-71.633c16.363-16.957 37.508-44.977 37.508-76.738 0-51.777-56.25-93.75-56.25-93.75s-56.25 41.973-56.25 93.75c0 31.746 21.129 59.758 37.492 76.719v71.438c-1.7578-2.3086-3.6602-4.5312-5.7539-6.6211-32.277-32.277-93.508-23.379-93.508-23.379s-8.9023 61.23 23.375 93.508c21.355 21.355 55.301 24.66 75.883 24.469v80.773c-1.7578-2.3086-3.6602-4.5312-5.7539-6.6211-32.277-32.277-93.508-23.379-93.508-23.379s-8.9023 61.23 23.375 93.508c21.355 21.355 55.301 24.66 75.883 24.469v80.773c-1.7578-2.3086-3.6602-4.5312-5.7539-6.6211-32.277-32.277-93.508-23.379-93.508-23.379s-8.9023 61.23 23.375 93.508c21.355 21.355 55.301 24.66 75.883 24.469v80.227c-1.8281 1.0547-3.5938 2.2578-5.2578 3.6484l-88.492 73.742h-105.64l-88.496-73.742c-1.6641-1.3867-3.4297-2.5898-5.2539-3.6445v-80.227c20.582 0.19141 54.523-3.1133 75.879-24.469 32.277-32.277 23.375-93.508 23.375-93.508s-61.23-8.9023-93.508 23.379c-2.0898 2.0898-3.9922 4.3086-5.75 6.6172v-80.766c20.582 0.19141 54.523-3.1133 75.879-24.469 32.277-32.277 23.375-93.508 23.375-93.508s-61.23-8.9023-93.508 23.379c-2.0898 2.0898-3.9922 4.3086-5.75 6.6172v-80.766c20.582 0.19141 54.523-3.1133 75.879-24.469 32.277-32.277 23.375-93.508 23.375-93.508s-61.23-8.9023-93.508 23.379c-2.0898 2.0898-3.9922 4.3086-5.75 6.6172v-71.426c16.363-16.961 37.5-44.973 37.5-76.727 0-51.777-56.25-93.75-56.25-93.75s-56.25 41.973-56.25 93.75c0 31.754 21.137 59.77 37.5 76.73v71.648c-1.8047-2.3867-3.7461-4.6875-5.9023-6.8438-32.277-32.277-93.508-23.379-93.508-23.379s-8.9023 61.23 23.375 93.508c21.406 21.406 55.465 24.68 76.031 24.469v80.992c-1.8047-2.3867-3.7461-4.6875-5.9023-6.8438-32.277-32.277-93.508-23.379-93.508-23.379s-8.9023 61.23 23.375 93.508c21.406 21.406 55.465 24.68 76.031 24.469v80.992c-1.8047-2.3867-3.7461-4.6875-5.9023-6.8438-32.277-32.277-93.508-23.379-93.508-23.379s-8.9023 61.23 23.375 93.508c21.406 21.406 55.465 24.68 76.031 24.469v80.227c-1.8281 1.0547-3.5938 2.2578-5.2578 3.6484l-88.492 73.742h-44.285c-20.711 0-37.5 16.789-37.5 37.5v37.5l1050.1-0.015625v-37.5c0-20.711-16.789-37.5-37.5-37.5z"/>
</svg>
