<?xml version="1.0" encoding="UTF-8"?>
<svg width="1200pt" height="1200pt" version="1.1" viewBox="0 0 1200 1200" xmlns="http://www.w3.org/2000/svg">
 <path d="m1075.8 585.6c-197.4-331.2-456-411.6-467.4-415.2l-2.4023-0.003906c-3.9609-0.80078-8.0391-0.80078-12 0h-2.3984c-11.398 3.6016-270 84-467.4 415.2l-0.003906 0.003906c-3.9648 6.7852-5.1172 14.852-3.2109 22.477s6.7188 14.199 13.41 18.32c6.8711 4.0312 15.043 5.2227 22.773 3.3164 7.7344-1.9062 14.418-6.7539 18.629-13.516 8.3984-13.801 16.801-27 25.199-39.602v423.6c0.023438 7.9492 3.1914 15.566 8.8125 21.188 5.6211 5.6211 13.238 8.7891 21.188 8.8125h738c7.9492-0.023438 15.566-3.1914 21.188-8.8125 5.6211-5.6211 8.7891-13.238 8.8125-21.188v-423.6c8.3984 12.602 16.797 25.801 25.199 39.602v-0.003906c4.2109 6.7617 10.895 11.609 18.629 13.516 7.7305 1.9062 15.902 0.71484 22.773-3.3164 6.6914-4.1211 11.504-10.695 13.41-18.32s0.75391-15.691-3.2109-22.477zm-556.2-185.4c-0.078124-7.9805 3.0547-15.656 8.6992-21.297 5.6445-5.6445 13.32-8.7812 21.301-8.7031h100.8c7.9805-0.078125 15.656 3.0586 21.301 8.7031 5.6445 5.6406 8.7773 13.316 8.6992 21.297v100.8c0.082031 7.9805-3.0547 15.656-8.6992 21.301-5.6406 5.6406-13.32 8.7773-21.301 8.6992h-100.8c-7.9805 0.078125-15.66-3.0586-21.301-8.6992-5.6445-5.6445-8.7812-13.32-8.6992-21.301zm187.8 271.2-107.4 106.8-107.4-106.8zm-256.8 42.602 106.8 106.8-106.8 107.4zm42 256.2 107.4-106.8 107.4 106.8zm256.8-42-106.8-107.4 106.8-106.8z"/>
</svg>
