<?xml version="1.0" encoding="UTF-8"?>
<svg width="1200pt" height="1200pt" version="1.1" viewBox="0 0 1200 1200" xmlns="http://www.w3.org/2000/svg">
 <path d="m372.37 613.36-67.453-48.984h326.86l-31.781-97.781-0.42188-1.2656h-599.58l340.18 247.13z"/>
 <path d="m417.61 911.26 101.02-310.82h-104.16l-185.29 570.19 340.18-247.13-84.281-61.219z"/>
 <path d="m600 350.02 101.02 310.82 83.156-60.422 1.125-0.79688-185.29-570.24-129.94 399.89h104.16z"/>
 <path d="m756.61 831.98 25.781 79.266-264.47-192.1-31.734 97.781-0.42188 1.2656 485.06 352.4-129.94-399.84z"/>
 <path d="m811.74 564.37h83.344l-264.42 192.14 83.156 60.422 1.125 0.79688 485.06-352.4h-420.47z"/>
</svg>
