<?xml version="1.0" encoding="UTF-8" standalone="no"?>
<svg
   width="1200pt"
   height="1200pt"
   version="1.1"
   viewBox="0 0 1200 1200"
   id="svg647"
   sodipodi:docname="mageTower.svg"
   inkscape:version="1.2.2 (b0a8486541, 2022-12-01)"
   xmlns:inkscape="http://www.inkscape.org/namespaces/inkscape"
   xmlns:sodipodi="http://sodipodi.sourceforge.net/DTD/sodipodi-0.dtd"
   xmlns="http://www.w3.org/2000/svg"
   xmlns:svg="http://www.w3.org/2000/svg">
  <defs
     id="defs651" />
  <sodipodi:namedview
     id="namedview649"
     pagecolor="#ffffff"
     bordercolor="#666666"
     borderopacity="1.0"
     inkscape:showpageshadow="2"
     inkscape:pageopacity="0.0"
     inkscape:pagecheckerboard="0"
     inkscape:deskcolor="#d1d1d1"
     inkscape:document-units="pt"
     showgrid="false"
     inkscape:zoom="0.540625"
     inkscape:cx="643.69942"
     inkscape:cy="1244.8555"
     inkscape:window-width="2560"
     inkscape:window-height="1011"
     inkscape:window-x="0"
     inkscape:window-y="32"
     inkscape:window-maximized="1"
     inkscape:current-layer="svg647" />
  <path
     id="path621"
     d="M 916.73584 -0.060058594 C 907.93272 -0.12906658 899.41294 3.2168498 892.95264 9.28125 C 886.06164 15.749944 882.17139 24.797634 882.17139 34.265625 C 882.17139 43.733616 886.06224 52.733542 892.95264 59.248535 C 899.84323 65.717329 909.07752 69.092385 918.49951 68.529785 L 945.6416 68.529785 C 964.48558 68.57666 979.76648 83.859144 979.81348 102.70313 L 979.81348 129.84375 C 979.25098 139.26564 982.62603 148.54663 989.09473 155.39063 C 995.61032 162.28122 1004.6556 166.17188 1014.0776 166.17188 C 1023.5464 166.17188 1032.594 162.28102 1039.062 155.39063 C 1045.5308 148.54683 1048.9059 139.26574 1048.3433 129.84375 L 1048.3433 33.84375 C 1048.1089 15.281769 1033.1095 0.28199972 1014.4995 0 L 918.49951 0 C 917.91064 -0.035156215 917.32271 -0.055458061 916.73584 -0.060058594 z M 282.82617 -0.055664063 C 282.23929 -0.051063725 281.65137 -0.030767934 281.0625 0.0043945313 L 185.0625 0.0043945313 C 166.31252 0.28564425 151.26429 15.473163 151.21729 34.223145 L 151.21729 130.22314 C 151.40478 149.02013 166.6868 164.16211 185.52979 164.16211 L 185.52979 164.16064 C 204.42077 164.11377 219.70166 148.73813 219.70166 129.84814 L 219.70166 102.70752 C 219.79541 83.863538 235.07643 68.582644 253.92041 68.535645 L 281.0625 68.535645 C 290.48439 69.098144 299.71838 65.723088 306.60938 59.254395 C 313.49997 52.738801 317.39062 43.73801 317.39063 34.27002 C 317.39063 24.802029 313.49977 15.753638 306.60938 9.2856445 C 300.14963 3.2219006 291.62943 -0.12466912 282.82617 -0.055664063 z M 358.08545 34.227539 C 358.03857 76.743497 323.58432 111.19763 281.06836 111.24463 L 262.46045 111.24463 L 262.46045 129.85254 C 262.3667 172.3685 227.91291 206.82263 185.39795 206.86963 L 185.39795 878.15918 C 227.91391 878.15918 262.36745 912.5651 262.46045 955.08105 L 262.46045 973.69043 L 281.06836 973.69043 C 323.58432 973.7373 358.03845 1008.1901 358.08545 1050.7061 L 841.9248 1050.7061 C 841.97168 1008.1901 876.42447 973.73743 918.94043 973.69043 L 937.5498 973.69043 L 937.5498 955.08105 C 937.64355 912.5651 972.09735 878.15918 1014.6123 878.15918 L 1014.6123 206.86963 C 972.09635 206.82275 937.6428 172.3685 937.5498 129.85254 L 937.5498 111.24463 L 918.94043 111.24463 C 876.42447 111.19775 841.9718 76.743497 841.9248 34.227539 L 358.08545 34.227539 z M 600 226.22314 C 683.90992 226.22314 764.34049 259.5512 823.69043 318.84814 C 882.98737 378.19209 916.31543 458.62866 916.31543 542.53857 C 916.22168 626.39749 882.89228 706.79844 823.54834 766.08838 C 764.2514 825.38532 683.85845 858.76 599.99854 858.854 L 600 858.84961 C 516.09408 858.84961 435.65951 825.52168 376.30957 766.17773 C 317.01263 706.88079 283.68457 626.39849 283.68457 542.53857 C 283.68457 458.63266 317.01263 378.19809 376.30957 318.84814 C 435.65351 259.5512 516.09008 226.22314 600 226.22314 z M 599.99268 294.70313 L 600 294.71045 C 534.28107 294.71045 471.23974 320.81841 424.77979 367.31836 C 378.32683 413.77131 352.21729 476.81864 352.21729 542.53857 C 352.21729 608.25751 378.32683 671.25884 424.77979 717.75879 C 471.23274 764.21174 534.28007 790.32129 600 790.32129 C 665.71993 790.32129 728.76026 764.21174 775.22021 717.75879 C 821.67317 671.25884 847.78271 608.25851 847.78271 542.53857 C 847.73584 476.81964 821.62629 413.81933 775.17334 367.35938 C 728.67339 320.90642 665.72261 294.79712 599.99268 294.70313 z M 600.37207 325.88818 C 615.84105 325.88818 629.94874 334.70107 636.69873 348.62256 L 679.16895 434.68359 L 681.46582 434.68359 L 682.0752 436.83984 L 777.13623 450.62109 C 792.27722 452.91799 804.84033 463.60548 809.52832 478.23047 L 809.52979 478.23047 C 814.31098 492.85545 810.37377 508.97939 799.31104 519.71338 L 730.45166 586.7915 L 731.15479 588.854 L 729.37354 590.1665 L 745.68604 684.85547 C 747.84223 696.71446 744.6548 708.9496 736.92041 718.18359 C 729.23292 727.46478 717.79565 732.85547 705.70166 732.85547 C 699.09227 732.85547 692.62269 731.21487 686.7627 728.16797 L 601.8252 683.54297 L 599.99707 684.01172 L 598.21582 682.69922 L 513.27832 727.32422 L 513.23145 727.32422 C 499.54346 734.44921 483.04318 733.23038 470.5752 724.18359 C 458.10721 715.1368 451.82557 699.80808 454.30957 684.62109 L 470.62061 589.93359 L 468.83936 588.62109 L 469.54248 586.55859 L 400.68457 519.48047 C 389.66858 508.69948 385.7317 492.5742 390.5127 477.94922 C 395.29389 463.27723 407.95046 452.58972 423.23145 450.38672 L 518.29248 436.60547 L 518.90186 434.44922 L 521.19873 434.44922 L 563.99707 348.62256 C 570.74706 334.70057 584.90309 325.88818 600.37207 325.88818 z M 600 370.07959 L 568.21875 434.62646 L 631.78125 434.62646 L 600 370.07959 z M 549.60938 476.75977 L 518.39063 572.75977 L 600 632.05664 L 681.60938 572.75977 L 650.39063 476.75977 L 549.60938 476.75977 z M 503.76709 481.45459 L 432.47021 491.85938 L 484.07959 542.0625 L 503.76709 481.45459 z M 696.23291 481.45459 L 715.92041 542.0625 L 767.52979 491.85938 L 696.23291 481.45459 z M 508.68457 617.76855 L 496.4502 688.69043 L 560.15332 655.22168 L 508.68457 617.76855 z M 691.31543 617.76855 L 639.84668 655.22168 L 703.5498 688.69043 L 691.31543 617.76855 z M 1014.4995 920.85938 C 995.65553 920.95312 980.37464 936.23561 980.32764 955.07959 L 980.32764 982.22021 C 980.32764 1001.1112 964.99987 1016.4397 946.10889 1016.5327 L 918.96826 1016.5327 C 909.92137 1016.4858 901.15588 1020.0952 894.73389 1026.5171 C 888.31199 1032.8921 884.65576 1041.6106 884.65576 1050.7046 C 884.65576 1069.6886 900.03128 1085.064 918.96826 1085.064 L 1014.9683 1085.064 C 1024.1089 1085.064 1032.8275 1081.4076 1039.2495 1074.9858 C 1045.7183 1068.5639 1049.3276 1059.8446 1049.3276 1050.7046 L 1049.3276 954.70459 C 1049.187 945.6108 1045.4368 936.93883 1038.9214 930.61084 C 1032.4058 924.23585 1023.5935 920.76704 1014.4995 920.86084 L 1014.4995 920.85938 z M 185.43457 922.75049 C 167.29359 922.75049 152.29235 936.90638 151.21436 955.04736 L 151.21436 1051.0474 C 151.21436 1069.9853 166.54287 1085.3584 185.52686 1085.3584 L 281.52686 1085.3584 C 290.62065 1085.3584 299.33924 1081.7502 305.76123 1075.3286 C 312.23002 1068.8598 315.83936 1060.1404 315.83936 1051.0474 C 315.93311 1041.813 312.27685 1032.906 305.71436 1026.438 C 299.19911 1019.9227 290.29304 1016.3134 281.05957 1016.5005 L 253.91895 1016.5005 C 235.02796 1016.4067 219.7002 1001.078 219.7002 982.18799 L 219.7002 955.04736 C 218.6221 936.90638 203.62255 922.75049 185.43457 922.75049 z M 414.84082 1094.1006 L 414.83936 1178.1006 C 414.83936 1185.6944 418.82389 1192.7245 425.29248 1196.7085 C 431.76107 1200.6925 439.82361 1201.021 446.62061 1197.646 L 492.83936 1174.3491 C 499.07375 1171.2085 506.38661 1171.2085 512.62061 1174.3491 L 558.83936 1197.646 C 565.63625 1201.021 573.69849 1200.6929 580.16748 1196.7085 C 586.63647 1192.7241 590.62061 1185.6936 590.62061 1178.1006 L 590.62061 1094.1006 L 414.84082 1094.1006 z " />
</svg>
