<?xml version="1.0" encoding="UTF-8"?>
<svg width="1200pt" height="1200pt" version="1.1" viewBox="0 0 1200 1200" xmlns="http://www.w3.org/2000/svg">
 <path d="m120 876v168c0 25.453 10.125 49.875 28.125 67.875s42.422 28.125 67.875 28.125h768c25.453 0 49.875-10.125 67.875-28.125s28.125-42.422 28.125-67.875v-168zm720 108h-480c-13.266 0-24-10.734-24-24s10.734-24 24-24h480c13.266 0 24 10.734 24 24s-10.734 24-24 24z"/>
 <path d="m108 720h984c26.531 0 48 26.531 48 48v24c0 26.531-21.469 48-48 48h-984c-26.531 0-48-26.531-48-48v-24c0-26.531 21.469-48 48-48z"/>
 <path d="m60 300h216v72c0 59.625-48.375 108-108 108s-108-48.375-108-108z"/>
 <path d="m276 300h216v72c0 59.625-48.375 108-108 108s-108-48.375-108-108z"/>
 <path d="m708 300h216v72c0 59.625-48.375 108-108 108s-108-48.375-108-108z"/>
 <path d="m924 300h216v72c0 59.625-48.375 108-108 108s-108-48.375-108-108z"/>
 <path d="m492 300h216v72c0 59.625-48.375 108-108 108s-108-48.375-108-108z"/>
 <path d="m1122 264h-1044l88.688-177.47c8.1094-16.266 24.75-26.531 42.938-26.531h780.74c18.188 0 34.828 10.266 42.938 26.531z"/>
 <path d="m300 488.63v195.37h-120v-168c37.078-3.1875 71.484-20.625 96-48.609 7.1719 7.9688 15.234 15.094 24 21.234z"/>
 <path d="m1020 516v168h-120v-195.37c8.8125-6.2812 16.875-13.594 24-21.703 24.422 28.172 58.875 45.75 96 49.078z"/>
</svg>
