<?xml version="1.0" encoding="UTF-8" standalone="no"?>
<svg
   width="1200pt"
   height="1200pt"
   version="1.1"
   viewBox="0 0 1200 1200"
   id="svg857"
   sodipodi:docname="market.svg"
   inkscape:version="1.2.2 (b0a8486541, 2022-12-01)"
   xmlns:inkscape="http://www.inkscape.org/namespaces/inkscape"
   xmlns:sodipodi="http://sodipodi.sourceforge.net/DTD/sodipodi-0.dtd"
   xmlns="http://www.w3.org/2000/svg"
   xmlns:svg="http://www.w3.org/2000/svg">
  <defs
     id="defs861" />
  <sodipodi:namedview
     id="namedview859"
     pagecolor="#ffffff"
     bordercolor="#666666"
     borderopacity="1.0"
     inkscape:showpageshadow="2"
     inkscape:pageopacity="0.0"
     inkscape:pagecheckerboard="0"
     inkscape:deskcolor="#d1d1d1"
     inkscape:document-units="pt"
     showgrid="false"
     inkscape:zoom="0.540625"
     inkscape:cx="643.69942"
     inkscape:cy="800.92486"
     inkscape:window-width="2560"
     inkscape:window-height="1011"
     inkscape:window-x="0"
     inkscape:window-y="32"
     inkscape:window-maximized="1"
     inkscape:current-layer="svg857" />
  <path
     id="path837"
     d="M 209.62646 59.998535 C 191.43848 59.998535 174.79689 70.263801 166.6875 86.529785 L 78 264 L 1122 264 L 1033.3037 86.529785 C 1025.1937 70.264801 1008.5542 59.998535 990.36621 59.998535 L 209.62646 59.998535 z M 60 300 L 60 372 C 60 431.62494 108.37506 480 168 480 C 227.62494 480 276 431.62494 276 372 C 276 431.62494 324.37506 480 384 480 C 443.62494 480 492 431.62494 492 372 C 492 431.62494 540.37506 480 600 480 C 659.62494 480 708 431.62494 708 372 C 708 431.62494 756.37506 480 816 480 C 875.62494 480 924 431.62494 924 372 C 924 431.62494 972.37506 480 1032 480 C 1091.6249 480 1140 431.62494 1140 372 L 1140 300 L 924 300 L 708 300 L 492 300 L 276 300 L 60 300 z M 924 466.92627 C 916.87501 475.03526 908.81249 482.3482 900 488.62939 L 900 684 L 1020 684 L 1020 516.00439 C 982.87504 512.6764 948.42198 495.09824 924 466.92627 z M 276 467.39063 C 251.48402 495.3746 217.07796 512.8125 180 516 L 180 684 L 300 684 L 300 488.62939 L 300 488.625 C 291.23401 482.48501 283.17189 475.35942 276 467.39063 z M 108 720 C 81.469027 720 60 741.46903 60 768 L 60 792 C 60 813.46898 81.469027 840 108 840 L 1092 840 C 1118.531 840 1140 818.53097 1140 792 L 1140 768 C 1140 746.53102 1118.531 720 1092 720 L 108 720 z M 120 876 L 120 1044 C 120 1069.453 130.12502 1093.875 148.125 1111.875 C 166.12498 1129.875 190.54703 1140 216 1140 L 984 1140 C 1009.453 1140 1033.875 1129.875 1051.875 1111.875 C 1069.875 1093.875 1080 1069.453 1080 1044 L 1080 876 L 120 876 z M 360 936 L 840 936 C 853.26599 936 864 946.73401 864 960 C 864 973.26599 853.26599 984 840 984 L 360 984 C 346.73401 984 336 973.26599 336 960 C 336 946.73401 346.73401 936 360 936 z " />
</svg>
