<?xml version="1.0" encoding="UTF-8" standalone="no"?>
<svg
   width="1200pt"
   height="1200pt"
   version="1.1"
   viewBox="0 0 1200 1200"
   id="svg273"
   sodipodi:docname="mine.svg"
   inkscape:version="1.2.2 (b0a8486541, 2022-12-01)"
   xmlns:inkscape="http://www.inkscape.org/namespaces/inkscape"
   xmlns:sodipodi="http://sodipodi.sourceforge.net/DTD/sodipodi-0.dtd"
   xmlns="http://www.w3.org/2000/svg"
   xmlns:svg="http://www.w3.org/2000/svg">
  <defs
     id="defs277" />
  <sodipodi:namedview
     id="namedview275"
     pagecolor="#ffffff"
     bordercolor="#666666"
     borderopacity="1.0"
     inkscape:showpageshadow="2"
     inkscape:pageopacity="0.0"
     inkscape:pagecheckerboard="0"
     inkscape:deskcolor="#d1d1d1"
     inkscape:document-units="pt"
     showgrid="false"
     inkscape:zoom="0.540625"
     inkscape:cx="799.07514"
     inkscape:cy="800.92486"
     inkscape:window-width="2560"
     inkscape:window-height="1011"
     inkscape:window-x="0"
     inkscape:window-y="32"
     inkscape:window-maximized="1"
     inkscape:current-layer="svg273" />
  <path
     id="path269"
     d="m 506.90198,219.22029 c -44.39932,-0.93575 -77.58026,28.79761 -136.62055,54.48574 -89.60898,38.99528 -146.19753,3.43612 -213.02738,75.88505 h 885.47055 c 0,0 -99.54611,-54.30764 -155.82296,-86.74147 -143.75182,-82.85381 -208.52717,49.05072 -279.95314,-1.325 -42.72786,-30.14105 -73.40693,-41.74287 -100.04652,-42.30432 z m 542.21192,165.48251 -898.10502,0.007 c -19.22971,-0.0305 -33.35759,18.03366 -28.68804,36.68847 l 59.00545,236.19564 c 3.31367,13.12648 15.1292,22.31743 28.66514,22.29868 h 118.10926 c 103.24897,0 187.79797,74.36626 202.24877,171.42561 H 454.62232 C 440.58644,782.26199 378.38134,730.09648 304.80883,730.09648 c -83.7568,0 -152.67403,67.60898 -152.67403,150.7815 0,83.17095 68.90942,150.75862 152.67403,150.75862 73.57876,0 135.77667,-52.16553 149.81349,-121.22159 h 290.75004 c 14.03586,69.0623 76.23868,121.22159 149.81118,121.22159 83.75681,0 152.76556,-67.59392 152.76556,-150.75862 0,-83.16471 -69.00875,-150.68995 -152.76556,-150.68995 -73.5725,0 -135.77439,52.08646 -149.81118,121.13002 l -75.62875,-0.007 c 14.4447,-97.05466 99.02715,-171.42563 202.2808,-171.42563 h 118.0841 c 13.51099,-0.0122 25.28859,-9.1949 28.58959,-22.29637 l 58.9872,-236.19795 c 4.6562,-18.60636 -9.3912,-36.64626 -28.5714,-36.68844 z M 304.80883,789.19117 c 52.38375,0 93.78533,40.94968 93.78533,91.68681 0,50.73712 -41.40158,91.68452 -93.78533,91.68452 -52.37749,0 -93.68462,-40.9474 -93.68462,-91.68452 0,-50.73713 41.30557,-91.68681 93.68462,-91.68681 z m 590.37471,0 c 52.38375,0 93.68692,40.94968 93.68692,91.68681 0,50.73712 -41.30317,91.68452 -93.68692,91.68452 -52.38374,0 -93.77617,-40.95365 -93.77617,-91.68452 0,-50.73088 41.39868,-91.68057 93.77617,-91.68681 z"
     style="stroke-width:1.56225" />
</svg>
