<?xml version="1.0" encoding="UTF-8" standalone="no"?>
<svg
   width="1200pt"
   height="1200pt"
   version="1.1"
   viewBox="0 0 1200 1200"
   id="svg10"
   sodipodi:docname="monument.svg"
   inkscape:version="1.2.2 (b0a8486541, 2022-12-01)"
   xmlns:inkscape="http://www.inkscape.org/namespaces/inkscape"
   xmlns:sodipodi="http://sodipodi.sourceforge.net/DTD/sodipodi-0.dtd"
   xmlns="http://www.w3.org/2000/svg"
   xmlns:svg="http://www.w3.org/2000/svg">
  <defs
     id="defs14" />
  <sodipodi:namedview
     id="namedview12"
     pagecolor="#ffffff"
     bordercolor="#666666"
     borderopacity="1.0"
     inkscape:showpageshadow="2"
     inkscape:pageopacity="0.0"
     inkscape:pagecheckerboard="0"
     inkscape:deskcolor="#d1d1d1"
     inkscape:document-units="pt"
     showgrid="false"
     inkscape:zoom="0.540625"
     inkscape:cx="591.90751"
     inkscape:cy="800.92486"
     inkscape:window-width="2560"
     inkscape:window-height="1011"
     inkscape:window-x="0"
     inkscape:window-y="32"
     inkscape:window-maximized="1"
     inkscape:current-layer="svg10" />
  <path
     id="path2"
     d="M 600.04395 0.074707031 C 589.64196 0.074707031 579.77081 4.6840525 573.09082 12.660645 L 477.86426 126.7998 L 599.99414 224.51074 L 722.12988 126.7998 L 626.99707 12.660645 C 620.31738 4.6840525 610.44593 0.074707031 600.04395 0.074707031 z M 444.75 190.35938 L 312.37061 989.05957 L 564.83936 989.05957 L 564.83936 286.42969 L 444.75 190.35938 z M 755.25 190.35938 L 635.16064 286.42969 L 635.16064 989.05957 L 887.62939 989.05957 L 755.25 190.35938 z M 154.64941 1059.3867 C 142.21543 1059.3867 130.29439 1064.3242 121.50439 1073.1167 C 112.7114 1081.9058 107.77441 1093.8277 107.77441 1106.2617 L 107.77441 1129.7007 L 35.118164 1129.7007 C 22.559177 1129.7007 10.949845 1136.3986 4.6728516 1147.2773 C -1.6083422 1158.1563 -1.6083422 1171.5546 4.6728516 1182.4336 C 10.950145 1193.3126 22.560177 1200.0117 35.118164 1200.0117 L 1164.8174 1200.0117 C 1177.3764 1200.0117 1188.9857 1193.3124 1195.2627 1182.4336 C 1201.5439 1171.5546 1201.5439 1158.1563 1195.2627 1147.2773 C 1188.9854 1136.3984 1177.3754 1129.7007 1164.8174 1129.7007 L 1164.7998 1129.7007 L 1092.1436 1129.7007 L 1092.1436 1106.2617 C 1092.1436 1093.8277 1087.2061 1081.9067 1078.4136 1073.1167 C 1069.6245 1064.3237 1057.7025 1059.3867 1045.2686 1059.3867 L 154.64941 1059.3867 z " />
</svg>
