<?xml version="1.0" encoding="UTF-8" standalone="no"?>
<svg
   width="1200pt"
   height="1200pt"
   version="1.1"
   viewBox="0 0 1200 1200"
   id="svg1584"
   sodipodi:docname="portal.svg"
   inkscape:version="1.2.2 (b0a8486541, 2022-12-01)"
   xmlns:inkscape="http://www.inkscape.org/namespaces/inkscape"
   xmlns:sodipodi="http://sodipodi.sourceforge.net/DTD/sodipodi-0.dtd"
   xmlns="http://www.w3.org/2000/svg"
   xmlns:svg="http://www.w3.org/2000/svg">
  <defs
     id="defs1588" />
  <sodipodi:namedview
     id="namedview1586"
     pagecolor="#ffffff"
     bordercolor="#666666"
     borderopacity="1.0"
     inkscape:showpageshadow="2"
     inkscape:pageopacity="0.0"
     inkscape:pagecheckerboard="0"
     inkscape:deskcolor="#d1d1d1"
     inkscape:document-units="pt"
     showgrid="false"
     inkscape:zoom="0.540625"
     inkscape:cx="643.69942"
     inkscape:cy="800.92486"
     inkscape:window-width="2560"
     inkscape:window-height="1011"
     inkscape:window-x="0"
     inkscape:window-y="32"
     inkscape:window-maximized="1"
     inkscape:current-layer="svg1584" />
  <path
     id="path1574"
     d="M 758.97363 77.293945 C 568.58057 76.702679 372.92113 177.93854 304.97461 358.36523 C 276.79262 357.11389 281.0805 258.24745 308.55469 227.14014 C 326.74567 186.44918 345.54932 158.93262 345.54932 158.93262 L 345.54932 158.92969 C 151.73033 321.40078 186.5466 574.61519 276.30762 794.94434 C 136.94607 612.9622 93.624871 369.38376 228.24463 164.83154 C 259.0732 110.0156 260.5957 90.874512 260.5957 90.874512 L 90.88623 260.59424 C 90.88623 260.59424 96.574298 279.28972 82.570313 356.16064 C 38.943959 562.10476 141.50054 785.73341 318.87158 889.33301 C 320.60238 892.85674 322.25164 896.50618 323.99854 900 C 347.99851 947.99995 215.99849 899.99998 167.99854 876 C 337.38577 1055.3512 572.93757 1027.7886 785.39355 923.99414 C 605.60577 1053.6851 382.18785 1120.3068 184.63477 994.7168 C 120.04883 955.57284 90.877441 939.38525 90.877441 939.38525 C 90.877441 939.38525 137.29495 986.80763 183.0249 1031.1006 C 228.74386 1075.3935 260.57959 1109.1006 260.57959 1109.1006 L 260.58545 1109.0991 C 260.58545 1109.0991 306.48424 1120.2943 393.78516 1133.4463 C 595.99605 1172.8562 816.8002 1052.0475 895.86475 862.25391 C 901.26013 858.85811 906.66079 855.46954 911.99854 852 C 947.9985 828.00002 911.99852 960.00005 899.99854 1008 C 1070.0618 816.6788 976.54127 587.80627 877.89551 379.54102 C 1024.7931 550.73596 1131.6774 769.24789 1006.5967 998.72021 C 969.99908 1067.4213 939.50937 1108.9791 939.44385 1109.0684 C 939.48361 1109.0303 1002.2025 1048.9361 1041.3311 1006.4106 C 1080.475 963.87169 1109.1196 939.37939 1109.1196 939.37939 C 1109.1196 939.37939 1120.4474 890.85962 1131.0454 802.94971 C 1150.6918 601.34688 1046.3814 377.7448 845.29248 311.1123 C 843.55181 307.45509 841.72237 303.63921 839.99854 300 C 815.99856 252.00005 959.9986 300.00001 1019.9985 312 C 860.02348 189.66613 648.40454 178.06216 466.13379 259.75195 C 471.94406 255.62591 477.82838 251.58734 483.89063 247.76953 L 483.8877 247.76367 C 483.8877 247.76367 511.50231 225.68114 560.19727 198.99316 C 707.99712 119.99724 887.99684 143.99699 1025.8667 221.58691 C 1090.1986 259.93844 1109.1094 260.58691 1109.1094 260.58691 L 939.40869 90.877441 C 939.40869 90.877441 920.49802 96.743909 841.8501 84.169922 C 814.61887 79.648676 786.85378 77.380527 758.97363 77.293945 z M 939.44385 1109.0684 L 939.42041 1109.0903 L 939.42041 1109.1006 L 939.44385 1109.0684 z M 655.08691 460.8457 L 655.08984 460.8501 C 671.99583 540.00202 767.99958 612.00006 743.99561 672 C 707.99564 731.99994 611.99552 756.00002 527.99561 780 C 539.99559 672.00011 371.99674 564.00018 528.29736 527.72021 C 573.54732 491.34925 655.08691 460.8457 655.08691 460.8457 z " />
</svg>
