<?xml version="1.0" encoding="UTF-8"?>
<svg width="1200pt" height="1200pt" version="1.1" viewBox="0 0 1200 1200" xmlns="http://www.w3.org/2000/svg">
 <path d="m903.14 790.22s-26.531 68.859-150.71 117.84c-49.688 19.688-103.45-16.547-104.86-69.938l-9.4688-406.92h130.92c11.859 14.859 31.312 23.391 52.688 18.469 18.844-4.3125 34.219-19.547 38.391-38.391 7.6875-34.078-18-64.219-50.625-64.219-16.453 0-31.078 7.7812-40.547 19.922h-132.47l-1.7812-78.234c31.922-13.547 54.141-45.609 53.297-82.781-1.0781-46.453-40.219-85.219-86.531-85.922-49.219-0.70312-89.297 38.859-89.297 87.844 0 36.234 21.938 67.453 53.297 80.766l-1.7812 78.234h-132.47c-11.859-15-31.312-23.391-52.688-18.469-18.844 4.2188-34.219 19.453-38.391 38.297-7.6875 34.078 17.859 64.219 50.625 64.219 16.453 0 31.078-7.7812 40.547-19.781h130.92l-9.6094 406.92c-1.2188 53.391-55.219 89.625-104.77 69.938-124.22-48.938-150.71-117.84-150.71-117.84l76.078-12.609-151.92-75.469c0 109.08 56.859 210.24 150.14 266.86 31.922 19.312 66.609 37.688 101.3 50.859 45 17.297 74.156 34.078 93 48.375 20.297 15.469 48.938 15.469 69.375 0 18.844-14.391 48-31.078 93-48.375 34.688-13.219 69.375-31.547 101.3-50.859 93.234-56.766 150.14-157.78 150.14-266.86l-151.92 75.469 76.078 12.609zm-303.14-544.82c-20.625 0-37.547-16.781-37.547-37.547 0-20.766 16.781-37.453 37.547-37.453s37.453 16.688 37.453 37.453c0 20.766-16.688 37.547-37.453 37.547z"/>
</svg>
