<?xml version="1.0" encoding="UTF-8"?>
<svg width="1200pt" height="1200pt" version="1.1" viewBox="0 0 1200 1200" xmlns="http://www.w3.org/2000/svg">
 <path d="m355.77 908.63c-199.77-92.629-319.77-332.63-273.2-552.47 14.004-76.871 8.3164-95.566 8.3164-95.566l169.71-169.72s-1.5234 19.141-32.352 73.957c-144.24 219.17-84.242 483.17 79.344 668.17 37.426 48.266 48.18 75.625 48.18 75.625z"/>
 <path d="m939.42 1109.1s30.539-41.605 67.176-110.38c145.4-266.75-22.598-518.75-202.6-698.75 228 48 348 288 327.05 502.98-10.598 87.91-21.926 136.43-21.926 136.43s-28.645 24.492-67.789 67.031c-39.141 42.539-101.91 102.68-101.91 102.68z"/>
 <path d="m483.89 247.77c-63.887 40.234-111.89 100.23-183.89 124.23 72-216 324-324 541.85-287.83 78.648 12.574 97.559 6.707 97.559 6.707l169.7 169.71s-18.91-0.64844-83.242-39c-137.87-77.59-317.87-101.59-465.67-22.594-48.695 26.688-76.309 48.77-76.309 48.77z"/>
 <path d="m260.58 1109.1s-31.836-33.707-77.555-78c-45.73-44.293-92.148-91.715-92.148-91.715s29.172 16.188 93.758 55.332c247.37 157.26 535.37 13.258 727.37-178.74-60 216-300 360-518.22 317.47-87.301-13.152-133.2-24.348-133.2-24.348z"/>
 <path d="m345.55 158.93c-225.55 189.07-141.55 501.07-21.551 741.07 24 48-108 0-156-24 204 216 504 132 744-24 36-24 0 108-12 156 192-216 48-480-60-708-24-48 120 0 180 12-204-156-492-132-696 36-48 48-48-84-15.445-120.86 18.191-40.691 36.996-68.207 36.996-68.207zm309.54 301.92c16.906 79.152 112.91 151.15 88.906 211.15-36 60-132 84-216 108 12-108-156-216 0.30078-252.28 45.25-36.371 126.79-66.875 126.79-66.875z"/>
</svg>
