<?xml version="1.0" encoding="UTF-8"?>
<svg width="1200pt" height="1200pt" version="1.1" viewBox="0 0 1200 1200" xmlns="http://www.w3.org/2000/svg">
 <path d="m1034.2 564.1c-5.0898-22.992-30.664-40.199-64.867-46.32-9.8594-1.8008-31.668-6.3164-37.098-22.457-4.8555-14.449 4.8008-28.66 20.789-31.488l1.3906-0.22266 34.703-5.8125h0.003906c1.3594-0.21875 2.7305-0.34766 4.1094-0.38672l24.918-3.9766c5.6562-0.90625 7.9453-5.6992 5.0742-10.66l-65.207-90.926c-15.898-17.371-46.668-19.5-79.34-7.6875h-0.070312c-9.4688 3.3828-30.547 10.309-43.289-0.92969-11.398-10.062-10.156-27.156 2.1953-37.598l1.1992-0.99609 27.109-22.324c1.0703-0.87109 2.1953-1.6719 3.3711-2.3984l19.566-15.918c4.4453-3.6016 4.0273-8.9023-0.9375-11.773l-101.91-46.117c-22.445-7.0859-50.141 6.4375-72.527 33-6.4688 7.625-21.312 24.301-38.027 20.93-14.93-3-22.398-18.48-16.879-33.715l0.53906-1.4102 12.266-32.914c0.49219-1.2891 1.0703-2.543 1.7266-3.7578l9-23.562c2.0469-5.3516-0.96484-9.7266-6.6953-9.7266l-111.29 11.031c-22.961 5.0898-40.199 30.602-46.301 64.801-1.8008 9.8086-6.2812 31.754-22.477 37.199-14.449 4.8594-28.668-4.8008-31.488-20.789l-0.1875-1.1562-5.8555-34.938v-0.003906c-0.21875-1.3633-0.34766-2.7422-0.38281-4.1211l-3.9766-24.906c-0.90625-5.6562-5.6992-7.9453-10.66-5.0742l-90.934 65.168c-17.352 15.895-19.488 46.637-7.6992 79.289v0.125c3.3906 9.4727 10.301 30.547-0.92969 43.285-10.062 11.398-27.156 10.156-37.598-2.1914l-0.71094-0.90625-22.586-27.383v-0.003906c-0.87109-1.0742-1.6758-2.2031-2.3984-3.3828l-15.906-19.598c-3.6016-4.4453-8.9102-4.0273-11.773 0.92969l-46.113 101.94c-7.0859 22.445 6.4453 50.141 33 72.527 7.625 6.4688 24.301 21.312 20.93 38.023-3 14.93-18.48 22.398-33.715 16.879l-1.0781-0.41406-33.25-12.387c-1.293-0.49219-2.5508-1.0742-3.7695-1.7344l-23.551-9c-5.3516-2.0469-9.7305 0.96484-9.7305 6.6914l11.016 111.32c5.0898 22.984 30.66 40.199 64.855 46.32 9.8516 1.8008 31.68 6.3164 37.109 22.465 4.8594 14.449-4.8008 28.66-20.785 31.488l-1.0625 0.16797-35.035 5.875h0.003907c-1.3672 0.21875-2.7461 0.34766-4.1289 0.38281l-24.898 3.9766c-5.6562 0.90625-7.9453 5.707-5.082 10.66l65.207 90.891c15.898 17.363 46.668 19.492 79.34 7.6797l0.078124-0.03125c9.4727-3.3906 30.547-10.301 43.277 0.92969 11.398 10.062 10.156 27.156-2.1914 37.598l-1.0039 0.80859-27.312 22.531c-1.0742 0.875-2.207 1.6758-3.3867 2.4023l-19.57 15.895c-4.4453 3.6016-4.0273 8.9102 0.92969 11.773l101.91 46.117c22.445 7.0781 50.141-6.4453 72.527-33 6.4688-7.6328 21.312-24.301 38.023-20.93 14.93 3 22.398 18.473 16.879 33.715l-0.43359 1.1211-12.395 33.188-0.003906-0.003906c-0.49219 1.293-1.0742 2.5508-1.7344 3.7695l-9 23.555c-2.0469 5.3516 0.96484 9.7305 6.6953 9.7305l111.32-11.016c22.984-5.0898 40.199-30.664 46.32-64.867 1.8008-9.8594 6.3242-31.668 22.457-37.098 14.449-4.8594 28.66 4.8008 31.488 20.789l0.20312 1.2617 5.8398 34.828 0.003906 0.003907c0.21875 1.3633 0.34766 2.7422 0.38281 4.1211l3.9766 24.906c0.90625 5.6562 5.6992 7.9453 10.66 5.0742l90.895-65.203c17.363-15.898 19.492-46.668 7.6797-79.34l-0.03125-0.078125c-3.3906-9.4727-10.301-30.547 0.92969-43.285 10.062-11.398 27.156-10.156 37.598 2.1953l0.98438 1.1992 22.352 27.102v0.007812c0.875 1.0703 1.6758 2.1914 2.4023 3.3672l15.906 19.59c3.6016 4.4453 8.9102 4.0273 11.773-0.92969l46.203-101.88c7.0859-22.445-6.4375-50.141-33-72.527-7.625-6.4688-24.301-21.312-20.93-38.027 3-14.93 18.48-22.398 33.715-16.879l1.4141 0.53906 32.891 12.289h0.003906c1.2891 0.49219 2.5391 1.0664 3.75 1.7227l23.574 9c5.3477 2.0469 9.7266-0.96484 9.7305-6.6953zm-434.18 127.63c-24.293 0-47.594-9.6523-64.773-26.828-17.176-17.18-26.828-40.48-26.828-64.773 0-24.297 9.6523-47.594 26.828-64.773 17.18-17.18 40.48-26.828 64.773-26.828s47.594 9.6484 64.773 26.828c17.176 17.18 26.828 40.477 26.828 64.773 0 24.293-9.6523 47.594-26.828 64.773-17.18 17.176-40.48 26.828-64.773 26.828z"/>
</svg>
