<?xml version="1.0" encoding="UTF-8"?>
<svg width="1200pt" height="1200pt" version="1.1" viewBox="0 0 1200 1200" xmlns="http://www.w3.org/2000/svg">
 <path d="m1036.3 404.01c-37.949-118.39-50.434-221.44-27.746-229s21.926-69.75 14.879-89.852c-7.043-20.098-31.457-30.27-54.246-22.605-22.793 7.668-72.805 24.367-111.14 37.109-38.332 12.742-61.559 43.684-51.613 68.754l23.734 65.926c44.832 123.19 108.88 317.58 108.88 415.91 0 150.69-113.02 301.38-339.05 301.38-226.03 0-339.05-150.69-339.05-301.38 0-98.324 64.043-292.72 108.88-415.91 23.734-65.926 23.734-65.926 23.734-65.926 9.9453-25.07-13.281-56.008-51.613-68.754-38.332-12.742-88.344-29.441-111.14-37.109-22.793-7.668-59.887 38.852-67.246 60.09-7.3555 21.238 5.1914 44.801 27.879 52.367 22.688 7.5625 10.203 110.61-27.746 229 0 0-56.832 177.3-56.832 297.48 0.003906 219.25 164.26 438.51 493.14 438.51s493.14-219.26 493.14-438.51c0-120.18-56.832-297.48-56.832-297.48zm-858.91 172.51c0-12.969 10.512-23.477 23.477-23.477 12.969 0 23.477 10.512 23.477 23.477 0 12.965-10.512 23.477-23.477 23.477-12.965 0-23.477-10.512-23.477-23.477zm46.957 281.74c-12.969 0-23.477-10.512-23.477-23.477 0-12.969 10.512-23.477 23.477-23.477 12.969 0 23.477 10.512 23.477 23.477 0.003906 12.965-10.508 23.477-23.477 23.477zm17.672-540c0-12.969 10.512-23.477 23.477-23.477 12.969 0 23.477 10.512 23.477 23.477 0 12.965-10.512 23.477-23.477 23.477s-23.477-10.512-23.477-23.477zm692.48 23.477c-12.969 0-23.477-10.512-23.477-23.477 0-12.969 10.512-23.477 23.477-23.477 12.969 0 23.477 10.512 23.477 23.477 0.003907 12.965-10.508 23.477-23.477 23.477zm41.152 516.52c-12.969 0-23.477-10.512-23.477-23.477 0-12.969 10.512-23.477 23.477-23.477 12.969 0 23.477 10.512 23.477 23.477s-10.512 23.477-23.477 23.477zm23.477-258.26c-12.969 0-23.477-10.512-23.477-23.477 0-12.969 10.512-23.477 23.477-23.477 12.969 0 23.477 10.512 23.477 23.477 0.003906 12.965-10.508 23.477-23.477 23.477z"/>
</svg>
