<?xml version="1.0" encoding="UTF-8"?>
<svg width="1200pt" height="1200pt" version="1.1" viewBox="0 0 1200 1200" xmlns="http://www.w3.org/2000/svg">
 <path d="m451.69 425.81c25.406 74.719 48.844 121.31 30.094 189.47-24.469 88.969-14.156 120.94 2.5312 263.06h231.19c14.625-124.12 26.719-175.22 5.1562-253.59-21-76.594-4.9688-103.22 27.469-198.94l6.9375-102.38-104.34-20.906c-30.75 19.125-69.562 19.688-101.16 0.28125-0.9375-0.5625-0.09375-0.375-105 20.531l6.9375 102.38z"/>
 <path d="m560.16 276.19c23.906 17.156 55.781 17.156 79.688 0 33.75-24.188 28.688-56.25 28.688-95.062s-30.75-68.625-68.625-68.625-68.625 30.75-68.625 68.625-5.0625 70.875 28.781 95.062z"/>
 <path d="m275.62 989.25-38.25 98.25h725.25l-38.25-98.25z"/>
 <path d="m361.31 906.47h477.38v54.656h-477.38z"/>
</svg>
