<?xml version="1.0" encoding="UTF-8"?>
<svg width="1200pt" height="1200pt" version="1.1" viewBox="0 0 1200 1200" xmlns="http://www.w3.org/2000/svg">
 <path d="m115.2 1026h154.8v-594l-154.8-157.2z"/>
 <path d="m340.8 174 133.2 134.4v-134.4z"/>
 <path d="m474 1026v-388.8l-156-157.2v546z"/>
 <path d="m522 174v183.6l156 156v-339.6z"/>
 <path d="m678 1026v-182.4l-156-157.2v339.6z"/>
 <path d="m859.2 1026-133.2-134.4v134.4z"/>
 <path d="m726 174v388.8l156 157.2v-546z"/>
 <path d="m1084.8 174h-154.8v594l154.8 157.2z"/>
 <path d="m115.2 174v32.398l811.2 819.6h158.4v-32.398l-811.2-819.6z"/>
 <path d="m30 57.602v48c0 12 9.6016 20.398 20.398 20.398h1098c12 0 20.398-9.6016 20.398-20.398v-48c0-12-9.6016-20.398-20.398-20.398l-1098-0.003906c-10.797-1.1992-20.398 8.4023-20.398 20.402z"/>
 <path d="m50.398 1164h1098c12 0 20.398-9.6016 20.398-20.398v-48c0-12-9.6016-20.398-20.398-20.398l-1098-0.003906c-12 0-20.398 9.6016-20.398 20.398v48c0 10.801 9.6016 20.402 20.398 20.402z"/>
</svg>
