<?xml version="1.0" encoding="UTF-8" standalone="no"?>
<svg
   width="1200pt"
   height="1200pt"
   version="1.1"
   viewBox="0 0 1200 1200"
   id="svg890"
   sodipodi:docname="temple-fertility.svg"
   inkscape:version="1.2.2 (b0a8486541, 2022-12-01)"
   xml:space="preserve"
   xmlns:inkscape="http://www.inkscape.org/namespaces/inkscape"
   xmlns:sodipodi="http://sodipodi.sourceforge.net/DTD/sodipodi-0.dtd"
   xmlns="http://www.w3.org/2000/svg"
   xmlns:svg="http://www.w3.org/2000/svg"><defs
     id="defs894" /><sodipodi:namedview
     id="namedview892"
     pagecolor="#ffffff"
     bordercolor="#666666"
     borderopacity="1.0"
     inkscape:showpageshadow="2"
     inkscape:pageopacity="0.0"
     inkscape:pagecheckerboard="0"
     inkscape:deskcolor="#d1d1d1"
     inkscape:document-units="pt"
     showgrid="false"
     inkscape:zoom="0.1767767"
     inkscape:cx="-808.93014"
     inkscape:cy="1346.3313"
     inkscape:window-width="2560"
     inkscape:window-height="1011"
     inkscape:window-x="0"
     inkscape:window-y="32"
     inkscape:window-maximized="1"
     inkscape:current-layer="svg890" /><path
     id="rect2281"
     style="fill:#000000;stroke-width:0.426227"
     d="M 600 19.952637 C 595.25475 19.952637 590.50947 21.828616 586.99512 25.580566 L 586.68896 25.885254 C 538.81149 79.093475 512.22262 147.35049 511.33887 218.28223 C 460.81304 169.52245 393.416 140.25085 321.59326 135.83936 C 311.1346 135.36398 302.51016 143.9886 302.98535 154.44727 C 306.51673 226.26347 336.6699 292.74708 385.42822 344.19287 C 314.49504 345.07575 247.12829 371.66406 193.03125 419.54443 L 192.7251 419.84912 C 185.2212 426.8779 185.2212 438.83018 192.7251 445.85889 L 193.03125 446.16504 C 246.23947 494.04251 314.49649 520.63139 385.42822 521.51514 C 336.66845 572.04096 307.39686 639.43801 302.98535 711.26074 C 302.50998 721.71941 311.1346 730.34384 321.59326 729.86865 C 393.40948 726.33728 459.89307 696.18557 511.33887 647.42725 C 512.22175 718.36044 538.80859 785.72572 586.68896 839.82275 L 586.99512 840.12891 C 594.02389 847.63281 605.97618 847.63281 613.00488 840.12891 L 613.31104 839.82275 C 661.18852 786.61454 687.77738 718.35899 688.66113 647.42725 C 739.18696 696.18702 806.58401 725.45715 878.40674 729.86865 C 888.8654 730.34399 897.48985 721.71941 897.01465 711.26074 C 892.56649 639.44453 863.3301 572.96093 814.57178 521.51514 C 885.50496 520.63225 952.87168 494.04541 1006.9688 446.16504 L 1007.2749 445.85889 C 1014.7788 438.83011 1014.7788 426.87783 1007.2749 419.84912 L 1006.9688 419.54443 C 953.7605 371.66696 885.50351 345.07662 814.57178 344.19287 C 863.33155 293.66705 892.60315 226.26999 897.01465 154.44727 C 897.49007 143.9886 888.8654 135.36416 878.40674 135.83936 C 806.59052 140.28751 740.10693 169.5239 688.66113 218.28223 C 687.77825 147.34904 661.19141 79.982294 613.31104 25.885254 L 613.00488 25.580566 C 609.4905 21.828616 604.74525 19.952637 600 19.952637 z M 600.01758 295.43555 C 636.37951 295.43555 670.95067 309.62798 696.65039 335.33203 C 722.35444 361.0361 736.54834 395.63842 736.54834 431.96631 C 737.43122 469.21561 723.23747 503.78206 696.65039 529.48975 C 670.94633 555.1938 636.37951 569.3877 600.01758 569.3877 C 563.65564 569.3877 529.08448 555.1938 503.38477 529.48975 C 450.17654 476.28152 450.17654 389.39286 503.38477 335.33203 C 529.08883 309.62798 563.65564 295.43555 600.01758 295.43555 z M 600.0249 330.89209 C 572.55479 330.89209 546.81746 341.52009 528.20947 361.04443 C 488.31181 400.94208 488.31181 465.66096 528.20947 505.56006 C 547.69976 525.08439 573.43782 535.7124 600.0249 535.7124 C 627.49501 535.7124 653.23381 525.08439 671.8418 505.56006 C 691.33209 486.06977 701.99414 460.33026 701.99414 433.74316 C 701.99414 406.27306 691.36614 380.53426 671.8418 361.92627 C 653.23381 341.55296 627.49501 330.89209 600.0249 330.89209 z M 138.17725 893.50781 L 138.17725 1005.2051 L 1071.5391 1005.2051 L 1071.5391 893.50781 L 138.17725 893.50781 z M 29.289551 1042.0078 L 29.289551 1153.7051 L 1180.4282 1153.7051 L 1180.4282 1042.0078 L 29.289551 1042.0078 z " /></svg>
