<?xml version="1.0" encoding="UTF-8" standalone="no"?>
<svg
   width="1200pt"
   height="1200pt"
   version="1.1"
   viewBox="0 0 1200 1200"
   id="svg890"
   sodipodi:docname="temple-justice.svg"
   inkscape:version="1.2.2 (b0a8486541, 2022-12-01)"
   xml:space="preserve"
   xmlns:inkscape="http://www.inkscape.org/namespaces/inkscape"
   xmlns:sodipodi="http://sodipodi.sourceforge.net/DTD/sodipodi-0.dtd"
   xmlns="http://www.w3.org/2000/svg"
   xmlns:svg="http://www.w3.org/2000/svg"><defs
     id="defs894" /><sodipodi:namedview
     id="namedview892"
     pagecolor="#ffffff"
     bordercolor="#666666"
     borderopacity="1.0"
     inkscape:showpageshadow="2"
     inkscape:pageopacity="0.0"
     inkscape:pagecheckerboard="0"
     inkscape:deskcolor="#d1d1d1"
     inkscape:document-units="pt"
     showgrid="false"
     inkscape:zoom="0.1767767"
     inkscape:cx="-910.75351"
     inkscape:cy="1346.3313"
     inkscape:window-width="2560"
     inkscape:window-height="1011"
     inkscape:window-x="0"
     inkscape:window-y="32"
     inkscape:window-maximized="1"
     inkscape:current-layer="svg890" /><path
     id="path2189"
     style="fill:#000000;stroke-width:0.79882"
     d="M 960.52734 21.927246 C 958.77875 21.93861 956.99705 22.119824 955.19971 22.479492 L 679.12793 81.909668 C 663.7914 54.109963 634.07567 34.937988 599.56348 34.937988 C 551.63432 34.937988 513.29088 72.323279 509.45654 118.33447 L 233.38477 177.76611 C 219.00602 180.64315 210.37754 195.0215 213.25488 208.43848 C 216.13191 220.90164 226.67634 228.56836 238.17773 228.56836 C 240.09362 228.56836 242.01281 228.5683 243.92871 227.61035 L 279.39404 219.94043 L 182.57666 459.59473 L 161.49023 459.59473 C 150.94662 459.59473 143.27659 469.17931 144.23438 478.76514 C 153.8202 565.9962 228.589 634.05615 318.6958 634.05615 C 408.80262 634.05615 483.57286 565.99699 493.15869 478.76514 C 494.11663 468.22152 486.45013 459.59473 475.90283 459.59473 L 454.81494 459.59473 L 351.28711 206.52832 L 520.95703 170.10059 C 530.54286 186.3949 543.96469 199.81483 561.2168 208.44287 L 561.2168 727.99658 L 411.67676 727.99951 C 390.58952 727.99951 372.37646 745.25479 372.37646 767.2998 C 372.37646 788.38703 389.63174 806.60156 411.67676 806.60156 L 787.44141 806.60156 C 808.52865 806.60156 826.74316 789.34481 826.74316 767.2998 C 826.74316 746.21258 809.48642 727.99951 787.44141 727.99951 L 638.86084 727.99951 L 638.86084 207.48779 C 667.61833 194.06683 687.74791 166.26673 689.66748 132.71631 L 841.12354 100.12354 L 745.26563 334.97754 L 724.1792 334.97754 C 713.63557 334.97754 705.96409 344.56359 706.92188 354.14941 C 716.50771 441.38049 791.27797 509.43896 881.38477 509.43896 C 971.49158 509.43896 1046.2618 441.38128 1055.8477 354.14941 C 1055.8477 344.56678 1048.1808 335.93848 1037.6338 335.93848 L 1037.6353 335.93115 L 1016.5474 335.93115 L 913.979 84.782227 L 965.74365 73.281738 C 980.1224 70.404711 988.74941 56.024879 985.87207 42.60791 C 983.35466 30.02651 972.76747 21.847695 960.52734 21.927246 z M 880.42822 140.38037 L 959.99268 335.93115 L 800.86377 335.93115 L 880.42822 140.38037 z M 318.69873 264.03809 L 398.25879 459.58887 L 239.13428 459.58887 L 318.69873 264.03809 z M 138.17725 893.50781 L 138.17725 1005.2051 L 1071.5391 1005.2051 L 1071.5391 893.50781 L 138.17725 893.50781 z M 29.289551 1042.0078 L 29.289551 1153.7051 L 1180.4282 1153.7051 L 1180.4282 1042.0078 L 29.289551 1042.0078 z " /></svg>
