<?xml version="1.0" encoding="UTF-8"?>
<svg width="1200pt" height="1200pt" version="1.1" viewBox="0 0 1200 1200" xmlns="http://www.w3.org/2000/svg">
 <path d="m1125 1031.2h-18.75v-56.25c0-4.9727-1.9766-9.7422-5.4922-13.258-3.5156-3.5156-8.2852-5.4922-13.258-5.4922h-65.625v-562.5h65.625c4.9727 0 9.7422-1.9766 13.258-5.4922 3.5156-3.5156 5.4922-8.2852 5.4922-13.258v-75c0.18359-1.4961 0.18359-3.0039 0-4.5v-2.25c-0.85938-1.793-2-3.4375-3.375-4.875-1.5195-1.543-3.2969-2.8125-5.25-3.75l-487.5-225c-5.0078-2.2617-10.742-2.2617-15.75 0l-487.5 225c-1.9531 0.9375-3.7305 2.207-5.25 3.75-1.2422 1.4609-2.2539 3.1055-3 4.875v2.25c-0.18359 1.4961-0.18359 3.0039 0 4.5v75c0 4.9727 1.9766 9.7422 5.4922 13.258 3.5156 3.5156 8.2852 5.4922 13.258 5.4922h60.75v562.5h-65.625c-4.9727 0-9.7422 1.9766-13.258 5.4922-3.5156 3.5156-5.4922 8.2852-5.4922 13.258v56.25h-18.75c-4.9727 0-9.7422 1.9766-13.258 5.4922-3.5156 3.5156-5.4922 8.2852-5.4922 13.258v75c0 4.9727 1.9766 9.7422 5.4922 13.258 3.5156 3.5156 8.2852 5.4922 13.258 5.4922h1050c4.9727 0 9.7422-1.9766 13.258-5.4922 3.5156-3.5156 5.4922-8.2852 5.4922-13.258v-75c0-4.9727-1.9766-9.7422-5.4922-13.258-3.5156-3.5156-8.2852-5.4922-13.258-5.4922zm-496.88-637.5v562.5h-56.25v-562.5zm225 562.5h-56.25v-562.5h56.25zm-506.25-562.5h56.25v562.5h-56.25z"/>
</svg>
