<?xml version="1.0" encoding="UTF-8" standalone="no"?>
<svg
   width="1200pt"
   height="1200pt"
   version="1.1"
   viewBox="0 0 1200 1200"
   id="svg890"
   sodipodi:docname="temple-inspiration.svg"
   inkscape:version="1.2.2 (b0a8486541, 2022-12-01)"
   xml:space="preserve"
   xmlns:inkscape="http://www.inkscape.org/namespaces/inkscape"
   xmlns:sodipodi="http://sodipodi.sourceforge.net/DTD/sodipodi-0.dtd"
   xmlns="http://www.w3.org/2000/svg"
   xmlns:svg="http://www.w3.org/2000/svg"><defs
     id="defs894" /><sodipodi:namedview
     id="namedview892"
     pagecolor="#ffffff"
     bordercolor="#666666"
     borderopacity="1.0"
     inkscape:showpageshadow="2"
     inkscape:pageopacity="0.0"
     inkscape:pagecheckerboard="0"
     inkscape:deskcolor="#d1d1d1"
     inkscape:document-units="pt"
     showgrid="false"
     inkscape:zoom="0.1767767"
     inkscape:cx="-752.3616"
     inkscape:cy="1346.3313"
     inkscape:window-width="2560"
     inkscape:window-height="1011"
     inkscape:window-x="0"
     inkscape:window-y="32"
     inkscape:window-maximized="1"
     inkscape:current-layer="svg890" /><path
     id="rect2281"
     style="fill:#000000;stroke-width:0.426227"
     d="M 549.36621 25.015137 L 547.81055 29.041992 C 548.26976 33.281343 548.55329 37.768071 550.03711 41.689453 C 584.13355 131.67675 564.55299 206.49713 487.96582 266.02441 C 470.83205 279.37856 452.88553 293.01552 439.74316 309.9375 C 407.94539 350.8463 371.76936 390.48779 349.93652 436.59082 C 296.94878 548.43434 323.12335 678.72758 407.55615 762.63281 C 484.71612 839.29461 620.05296 861.44556 724.23926 814.42383 L 724.27295 814.37549 C 902.64975 733.86926 931.25875 505.71378 778.53662 357.37793 C 770.694 382.21412 767.26739 406.12975 755.8916 425.34814 C 744.62209 444.31934 727.94736 466.15279 708.7998 472.79443 C 689.08625 479.64825 657.32709 477.06896 642.52441 464.66895 C 630.54827 454.6362 631.21906 422.98197 635.06982 402.59766 C 638.60224 383.73274 654.46537 367.41132 663.86279 349.42969 C 721.87218 238.28708 662.9733 71.718847 549.36621 25.015137 z M 138.17725 893.50781 L 138.17725 1005.2051 L 1071.5391 1005.2051 L 1071.5391 893.50781 L 138.17725 893.50781 z M 29.289551 1042.0078 L 29.289551 1153.7051 L 1180.4282 1153.7051 L 1180.4282 1042.0078 L 29.289551 1042.0078 z " /></svg>
