<?xml version="1.0" encoding="UTF-8" standalone="no"?>
<svg
   width="1200pt"
   height="1200pt"
   version="1.1"
   viewBox="0 0 1200 1200"
   id="svg890"
   sodipodi:docname="temple-darkness.svg"
   inkscape:version="1.2.2 (b0a8486541, 2022-12-01)"
   xml:space="preserve"
   xmlns:inkscape="http://www.inkscape.org/namespaces/inkscape"
   xmlns:sodipodi="http://sodipodi.sourceforge.net/DTD/sodipodi-0.dtd"
   xmlns="http://www.w3.org/2000/svg"
   xmlns:svg="http://www.w3.org/2000/svg"><defs
     id="defs894" /><sodipodi:namedview
     id="namedview892"
     pagecolor="#ffffff"
     bordercolor="#666666"
     borderopacity="1.0"
     inkscape:showpageshadow="2"
     inkscape:pageopacity="0.0"
     inkscape:pagecheckerboard="0"
     inkscape:deskcolor="#d1d1d1"
     inkscape:document-units="pt"
     showgrid="false"
     inkscape:zoom="0.1767767"
     inkscape:cx="-752.3616"
     inkscape:cy="1346.3313"
     inkscape:window-width="2560"
     inkscape:window-height="1011"
     inkscape:window-x="0"
     inkscape:window-y="32"
     inkscape:window-maximized="1"
     inkscape:current-layer="svg890" /><path
     id="rect2281"
     style="fill:#000000;stroke-width:0.426227"
     d="M 600.11865 5.8447266 C 513.5833 5.8447266 466.87856 14.3794 414.93457 39.521484 C 342.62011 74.575491 287.1029 139.91569 262.51172 219.01318 C 241.3149 287.01369 245.8135 357.67778 274.35352 407.96338 C 283.71454 424.57292 284.08195 445.03561 284.44922 463.021 L 284.54004 468.52588 C 285.09054 495.23098 271.23432 516.61135 259.03125 535.42236 C 246.64242 554.60064 242.78815 575.15561 247.65088 594.15381 C 252.05486 611.40536 263.52722 625.81368 279.86133 634.62451 C 290.23162 640.31302 306.2913 642.88136 323.08447 641.78027 C 324.64422 641.59677 326.20344 641.59717 327.76318 641.59717 C 364.74392 641.59717 391.72375 672.52216 399.70752 704.45654 C 404.11152 721.98356 408.33459 739.32647 411.9126 757.03711 C 415.21557 773.00465 423.5682 782.36391 440.08594 788.33057 C 546.35118 826.87076 653.80576 826.87076 759.52295 788.33057 C 776.31613 782.18334 784.84867 772.36233 788.15479 755.38623 C 791.64125 738.04286 795.58784 719.32245 801.00146 700.60254 C 812.65362 660.68296 837.79868 642.14795 880.01367 642.14795 L 881.48291 642.14795 C 902.40502 642.14795 917.82351 639.854 929.47852 629.02441 C 958.47121 602.13924 962.41757 566.80928 939.93604 534.50977 L 939.92578 534.50684 C 910.19357 491.65127 906.52317 446.68281 928.72998 396.85986 C 938.73371 374.28651 945.15617 353.27024 947.63379 334.3667 C 963.96789 210.76307 889.54565 83.942569 770.71289 32.824219 C 714.45923 8.6914042 655.63541 5.6610934 600.21094 5.8447266 L 600.11865 5.8447266 z M 773.55762 439.53369 L 775.02539 439.53369 C 775.30064 439.62539 775.4835 439.53369 775.66699 439.53369 C 797.60048 439.53369 816.1369 448.43638 826.77979 463.85303 C 837.612 479.63694 839.07952 500.83348 830.73047 521.93848 L 830.729 521.93848 C 824.03123 539.09821 809.99065 549.65247 787.87354 554.23975 C 764.28806 559.10246 740.06296 555.70841 716.11377 543.87012 C 694.36605 533.13256 679.49976 497.98627 686.65576 474.12891 C 689.86699 463.20772 696.93451 455.59176 706.56885 452.65576 C 725.93076 446.68925 765.20872 440.17641 773.55762 439.53369 z M 418.68604 443.43457 C 444.05525 443.28763 476.36127 445.38013 488.80811 449.62354 C 512.48255 457.69771 520.83142 473.75736 515.14307 500.18701 C 509.08758 528.72702 494.22053 545.24537 468.43359 552.40137 C 433.28777 561.94603 409.15117 560.29095 387.67676 546.71191 C 372.26011 536.98362 362.81004 517.16214 362.90186 494.95605 C 362.99356 473.66457 371.71026 455.4961 386.30127 446.13721 C 390.74076 444.4169 403.4645 443.52274 418.68604 443.43457 z M 600.02344 588.65039 C 606.9047 588.65039 612.87067 591.58658 615.71484 596.45215 C 630.76493 621.50526 643.88846 647.6567 657.19189 674.45361 C 660.95922 682.0687 663.80254 692.62296 655.72852 699.1377 C 646.55042 706.66381 637.19208 702.89862 630.95068 698.49463 C 620.85513 691.24607 610.57982 687.57422 599.93408 687.57422 C 589.28834 687.57422 578.3703 691.24384 566.89893 698.58691 C 559.55929 703.35789 552.67539 704.64503 548.0874 702.07324 C 543.40818 699.59597 540.56015 692.89588 540.10107 684.08789 C 540.46806 682.89513 540.74332 681.51878 541.11035 680.05078 C 542.4866 674.36228 544.1392 667.29436 547.0752 661.42236 C 559.28039 636.92228 570.93239 615.90547 582.5874 597.09375 C 586.53267 590.76303 593.96781 588.65039 600.02344 588.65039 z M 138.17725 893.50781 L 138.17725 1005.2051 L 1071.5391 1005.2051 L 1071.5391 893.50781 L 138.17725 893.50781 z M 29.289551 1042.0078 L 29.289551 1153.7051 L 1180.4282 1153.7051 L 1180.4282 1042.0078 L 29.289551 1042.0078 z " /></svg>
