<?xml version="1.0" encoding="UTF-8" standalone="no"?>
<svg
   width="1200pt"
   height="1200pt"
   version="1.1"
   viewBox="0 0 1200 1200"
   id="svg890"
   sodipodi:docname="temple-war.svg"
   inkscape:version="1.2.2 (b0a8486541, 2022-12-01)"
   xml:space="preserve"
   xmlns:inkscape="http://www.inkscape.org/namespaces/inkscape"
   xmlns:sodipodi="http://sodipodi.sourceforge.net/DTD/sodipodi-0.dtd"
   xmlns="http://www.w3.org/2000/svg"
   xmlns:svg="http://www.w3.org/2000/svg"><defs
     id="defs894" /><sodipodi:namedview
     id="namedview892"
     pagecolor="#ffffff"
     bordercolor="#666666"
     borderopacity="1.0"
     inkscape:showpageshadow="2"
     inkscape:pageopacity="0.0"
     inkscape:pagecheckerboard="0"
     inkscape:deskcolor="#d1d1d1"
     inkscape:document-units="pt"
     showgrid="false"
     inkscape:zoom="0.1767767"
     inkscape:cx="-271.529"
     inkscape:cy="1340.6745"
     inkscape:window-width="2560"
     inkscape:window-height="1011"
     inkscape:window-x="0"
     inkscape:window-y="32"
     inkscape:window-maximized="1"
     inkscape:current-layer="svg890" /><path
     id="rect2281"
     style="fill:#000000;stroke-width:0.426227"
     d="M 650.33496 8.2177734 C 645.86325 8.1523337 641.79211 10.885564 639 15.539063 L 582.14209 121.13232 L 649.82959 156.32959 L 706.6875 50.736328 C 710.74874 43.967604 708.04093 35.845186 699.91846 33.137695 L 656.59863 10.125 C 654.4834 8.8558644 652.36756 8.2475188 650.33496 8.2177734 z M 898.94092 58.863281 C 801.4713 191.53027 694.52783 214.53965 659.32324 218.60449 L 610.58936 310.65967 C 626.83429 341.7958 667.44617 443.32698 613.29639 599.01123 C 613.29639 599.01123 810.94361 632.85525 926.0083 418.95996 L 926.01563 418.95996 C 1039.7302 205.06827 898.94092 58.863281 898.94092 58.863281 z M 479.3877 61.041504 C 477.99164 60.978047 476.21501 62.246727 475.19971 64.277344 L 379.08691 245.68066 C 377.73318 248.38815 377.73294 251.09473 380.44043 251.09473 L 475.19971 265.9834 L 545.59424 131.96484 L 480.61523 61.570313 C 480.2768 61.231876 479.85304 61.062656 479.3877 61.041504 z M 571.27588 143.66162 L 498.33984 281.18848 L 565.31104 316.70361 L 638.24707 179.17822 L 571.27588 143.66162 z M 487.38721 302.52979 L 231.52881 785.82129 C 227.46757 792.59001 230.1756 799.3587 236.94434 803.41992 L 280.26416 826.43408 C 287.03288 830.49532 295.15531 827.78729 297.86279 821.01855 L 555.07471 337.72705 L 487.38721 302.52979 z M 138.17725 893.50781 L 138.17725 1005.2051 L 1071.5391 1005.2051 L 1071.5391 893.50781 L 138.17725 893.50781 z M 29.289551 1042.0078 L 29.289551 1153.7051 L 1180.4282 1153.7051 L 1180.4282 1042.0078 L 29.289551 1042.0078 z " /></svg>
