<?xml version="1.0" encoding="UTF-8"?>
<svg width="1200pt" height="1200pt" version="1.1" viewBox="0 0 1200 1200" xmlns="http://www.w3.org/2000/svg">
 <path d="m600 702c-2.3984 0-4.8008 0-7.1992-1.1992l-346.8-142.8v292.8c0 10.801 7.1992 20.398 18 24 213.6 79.199 440.4 79.199 673.2 0 10.801-3.6016 18-13.199 18-24v-292.8l-346.8 142.8c-2.3984 1.1992-6 1.1992-8.3984 1.1992z"/>
 <path d="m1138.8 862.8c0-9.6016-2.3984-19.199-8.3984-27.602-4.8008-8.3984-12-14.398-21.602-19.199v-363.6l16.801-7.1992 44.398-18-570-234-570 234 204 84 366 151.2 366-151.2 97.199-39.602v344.4c-8.3984 4.8008-15.602 10.801-21.602 19.199-4.8008 8.3984-7.1992 18-7.1992 27.602 0 10.801 3.6016 22.801 9.6016 31.199l-18 96c-1.1992 3.6016 0 8.3984 3.6016 12 2.3984 3.6016 6 4.8008 10.801 4.8008h93.602c4.8008 0 8.3984-2.3984 10.801-4.8008 2.3984-3.6016 3.6016-7.1992 2.3984-12l-18-96c7.1953-8.3984 9.5977-20.398 9.5977-31.199z"/>
</svg>
