<?xml version="1.0" encoding="UTF-8" standalone="no"?>
<svg
   width="1200pt"
   height="1200pt"
   version="1.1"
   viewBox="0 0 1200 1200"
   id="svg732"
   sodipodi:docname="workshop.svg"
   inkscape:version="1.2.2 (b0a8486541, 2022-12-01)"
   xmlns:inkscape="http://www.inkscape.org/namespaces/inkscape"
   xmlns:sodipodi="http://sodipodi.sourceforge.net/DTD/sodipodi-0.dtd"
   xmlns="http://www.w3.org/2000/svg"
   xmlns:svg="http://www.w3.org/2000/svg">
  <defs
     id="defs736" />
  <sodipodi:namedview
     id="namedview734"
     pagecolor="#ffffff"
     bordercolor="#666666"
     borderopacity="1.0"
     inkscape:showpageshadow="2"
     inkscape:pageopacity="0.0"
     inkscape:pagecheckerboard="0"
     inkscape:deskcolor="#d1d1d1"
     inkscape:document-units="pt"
     showgrid="false"
     inkscape:zoom="0.540625"
     inkscape:cx="641.84971"
     inkscape:cy="800.92486"
     inkscape:window-width="2560"
     inkscape:window-height="1011"
     inkscape:window-x="0"
     inkscape:window-y="32"
     inkscape:window-maximized="1"
     inkscape:current-layer="svg732" />
  <path
     id="path726"
     d="M 1089.9302 24.908203 C 1084.3714 25.087347 1078.8092 26.617672 1073.7554 29.566406 C 926.66152 115.15532 936.0363 112.63876 879.73535 150.86572 C 875.86016 153.50242 871.70894 156.40036 867.31055 159.43945 C 815.4346 195.49942 774.85935 244.59229 749.10938 300.99023 L 749.10645 300.9917 L 782.64551 300.9917 C 823.26747 300.9917 862.22908 284.8549 890.95605 256.12793 L 901.10303 245.98096 C 906.57902 240.50836 912.791 237.55416 918.9668 236.28076 C 923.06379 217.21778 936.07955 194.60523 956.04053 174.65625 C 975.80251 154.89527 998.16528 141.93363 1017.1143 137.70703 C 1018.6885 131.20704 1022.0166 125.06734 1027.04 120.04395 L 1089.0176 58.066406 C 1097.8076 49.276815 1108.3076 43.203103 1119.4556 39.878906 C 1118.2524 38.140608 1116.8774 36.487754 1115.354 34.964355 L 1115.3423 34.952637 C 1108.4523 28.063019 1099.1947 24.60963 1089.9302 24.908203 z M 1140.2578 74.334961 C 1131.3076 74.334961 1122.3582 77.751015 1115.5342 84.583008 C 1089.9092 110.20798 1053.5566 146.54297 1053.5566 146.54297 C 1068.8966 165.45795 1054.9704 206.46954 1021.4194 240.02051 C 988.04347 273.39517 947.25491 287.36029 928.23193 272.3833 C 928.14209 272.30908 927.84082 272.27344 927.62988 272.48438 L 917.48145 282.63281 C 881.71548 318.39878 833.21653 338.48438 782.64258 338.48438 L 684.06738 338.48438 C 563.2575 338.48438 446.1191 374.05155 346.6582 439.37549 L 449.42871 542.12842 C 471.31569 532.52643 494.50273 525.77734 518.42871 522.15234 C 597.92863 510.12536 715.64358 492.31156 806.97949 478.41357 C 903.9094 463.75359 990.16237 408.88565 1044.5493 327.32373 C 1046.0727 325.06203 1047.6352 322.73781 1049.2485 320.37451 C 1079.9045 275.20456 1142.3309 172.355 1170.0688 126.39404 C 1178.1939 112.94506 1176.0959 95.695997 1164.9829 84.583008 C 1158.1589 77.751015 1149.2081 74.334961 1140.2578 74.334961 z M 315.50977 461.25 C 292.28399 478.64832 270.19843 497.76028 249.46143 518.50928 C 175.3015 592.6592 95.247571 672.71288 45.411621 722.54883 C 18.200648 749.7748 18.200648 793.89987 45.411621 821.11084 C 72.637594 848.32181 116.76266 848.32181 143.97363 821.11084 L 365.87402 599.21045 C 380.69801 584.38646 397.09675 571.39849 414.69873 560.4375 L 315.50977 461.25 z M 861.63135 504.75439 C 845.64336 509.36809 829.27884 512.95805 812.63086 515.48145 C 777.89389 520.76644 739.35472 526.61768 700.53076 532.49268 L 677.96924 681.68262 C 674.34434 705.60796 667.59435 728.79469 657.99316 750.68115 L 760.75049 853.4502 C 826.07942 754.02029 861.63135 636.93006 861.63135 516.18018 L 861.63135 504.75439 z M 657.99316 750.68115 L 657.9917 750.67969 L 657.9917 750.68262 L 657.99316 750.68115 z M 639.67969 785.40967 L 639.67383 785.41113 C 628.71284 803.00812 615.72486 819.41039 600.90088 834.23438 L 379.00049 1056.1348 C 351.78952 1083.3447 351.78952 1127.4698 379.00049 1154.6968 C 406.21046 1181.9078 450.33553 1181.9078 477.5625 1154.6968 C 527.43245 1104.8368 607.5272 1024.7353 681.70313 950.54736 C 702.4181 929.83638 721.50392 907.79686 738.87891 884.60889 L 639.67969 785.40967 z " />
</svg>
