<?xml version="1.0" encoding="UTF-8"?>
<svg width="1200pt" height="1200pt" version="1.1" viewBox="0 0 1200 1200" xmlns="http://www.w3.org/2000/svg">
 <path d="m749.11 300.99c25.75-56.398 66.324-105.49 118.2-141.55 4.3984-3.0391 8.5508-5.9375 12.426-8.5742 56.301-38.227 46.926-35.711 194.02-121.3 13.477-7.8633 30.562-5.6367 41.586 5.3867l0.011719 0.011719c1.5234 1.5234 2.8984 3.1758 4.1016 4.9141-11.148 3.3242-21.648 9.3984-30.438 18.188l-61.977 61.977c-5.0234 5.0234-8.3516 11.164-9.9258 17.664-18.949 4.2266-41.312 17.188-61.074 36.949-19.961 19.949-32.977 42.562-37.074 61.625-6.1758 1.2734-12.387 4.2266-17.863 9.6992-1.1016 1.1016-4.8867 4.8867-10.148 10.148-28.727 28.727-67.688 44.863-108.31 44.863h-33.539z" fill-rule="evenodd"/>
 <path d="m639.68 785.41 99.199 99.199c-17.375 23.188-36.461 45.227-57.176 65.938-74.176 74.188-154.27 154.29-204.14 204.15-27.227 27.211-71.352 27.211-98.562 0-27.211-27.227-27.211-71.352 0-98.562l221.9-221.9c14.824-14.824 27.812-31.227 38.773-48.824zm18.312-34.727c9.6016-21.887 16.352-45.074 19.977-69l22.562-149.19c38.824-5.875 77.363-11.727 112.1-17.012 16.648-2.5234 33.012-6.1133 49-10.727v11.426c0 120.75-35.551 237.84-100.88 337.27l-102.76-102.77z" fill-rule="evenodd"/>
 <path d="m315.51 461.25 99.188 99.188c-17.602 10.961-34 23.949-48.824 38.773-64.539 64.539-163.06 163.06-221.9 221.9-27.211 27.211-71.336 27.211-98.562 0-27.211-27.211-27.211-71.336 0-98.562 49.836-49.836 129.89-129.89 204.05-204.04 20.738-20.75 42.824-39.863 66.051-57.262zm31.148-21.875c99.461-65.324 216.6-100.89 337.41-100.89h98.574c50.574 0 99.074-20.086 134.84-55.852 5.25-5.25 9.0508-9.0508 10.148-10.148 0.21094-0.21094 0.51172-0.17578 0.60156-0.10156 19.023 14.977 59.812 1.0117 93.188-32.363 33.551-33.551 47.477-74.562 32.137-93.477 0 0 36.352-36.336 61.977-61.961 13.648-13.664 35.801-13.664 49.449 0 11.113 11.113 13.211 28.363 5.0859 41.812-27.738 45.961-90.164 148.81-120.82 193.98-1.6133 2.3633-3.1758 4.6875-4.6992 6.9492-54.387 81.562-140.64 136.43-237.57 151.09-91.336 13.898-209.05 31.711-288.55 43.738-23.926 3.625-47.113 10.375-69 19.977z" fill-rule="evenodd"/>
</svg>
